<?xml version="1.0" encoding="UTF-8"?>
<svg version="1.1" xmlns="http://www.w3.org/2000/svg" xmlns:xlink="http://www.w3.org/1999/xlink">
<defs>

</defs>
<symbol id="i-arrow" xmlns="http://www.w3.org/2000/svg" viewBox="0 0 599 345" fill-rule="evenodd" clip-rule="evenodd" shape-rendering="geometricPrecision" text-rendering="geometricPrecision" image-rendering="optimizeQuality"><path d="M599 0L299 345 0 0z"/></symbol>
<symbol id="i-cart" xmlns="http://www.w3.org/2000/svg" viewBox="0 0 333 333" fill-rule="evenodd" clip-rule="evenodd" shape-rendering="geometricPrecision" text-rendering="geometricPrecision" image-rendering="optimizeQuality"><path d="M52 32H26c-13 0-12 17 2 17h21l69 189c1 2 2 3 3 4 2 3 5 4 8 4l156 6c14 1 14-9 0-11l-149-13c-4-1-11-13-2-14l146-11c7-1 14-5 16-14l21-104H80L64 41c-2-6-6-9-12-9zm97 230c-11 0-20 8-20 20 0 11 9 20 20 20s20-9 20-20c0-12-9-20-20-20zm100 0c-11 0-20 8-20 20 0 11 9 20 20 20s20-9 20-20c0-12-9-20-20-20z"/></symbol>
<symbol id="i-meubelen" xmlns="http://www.w3.org/2000/svg" viewBox="0 0 100 100"><path d="M77.5 47.2c0-2.6-2.1-4.7-4.7-4.7s-4.7 2.1-4.7 4.6v8.2H32v-8.2c-.1-2.6-2.2-4.6-4.7-4.6-2.6 0-4.7 2.1-4.7 4.7 0 2.2 1.5 4.1 3.6 4.6v12H32v-2.5h36v2.5h5.9v-12c2-.5 3.6-2.4 3.6-4.6z"/><path d="M32.9 46.7v7.8h16.7V38.1c-.6-1.1-1.8-1.9-3.1-1.9H33.6c-1.9 0-3.5 1.6-3.5 3.5v2.8c1.6.8 2.7 2.3 2.8 4.2zM67.1 46.7c.1-1.9 1.2-3.4 2.8-4.1v-2.8c0-1.9-1.6-3.5-3.5-3.5H53.5c-1.4 0-2.5.8-3.1 1.9v16.4h16.7v-7.9z"/></symbol>
<symbol id="i-star" xmlns="http://www.w3.org/2000/svg" viewBox="0 0 100 100"><path d="M54.4 5.9l11.7 23.7c.6 1.2 1.8 2.1 3.2 2.3l26.2 3.8c3.4.5 4.8 4.7 2.3 7.2l-19 18.5c-1 1-1.4 2.4-1.2 3.7L82 91.2c.6 3.4-3 6.1-6.1 4.4L52.5 83.3c-1.2-.6-2.7-.6-3.9 0L25.2 95.6c-3.1 1.6-6.7-1-6.1-4.4l4.5-26.1c.2-1.4-.2-2.8-1.2-3.7l-19-18.5c-2.5-2.4-1.1-6.7 2.3-7.2l26.2-3.8c1.4-.2 2.6-1.1 3.2-2.3L46.8 5.9c1.6-3.1 6-3.1 7.6 0z"/></symbol>
</svg>