<?xml version="1.0" encoding="utf-8"?>
<!-- Generator: Adobe Illustrator 22.1.0, SVG Export Plug-In . SVG Version: 6.00 Build 0)  -->
<svg version="1.1" id="Layer_1" xmlns="http://www.w3.org/2000/svg" xmlns:xlink="http://www.w3.org/1999/xlink" x="0px" y="0px"
	 viewBox="0 0 2061 778" style="enable-background:new 0 0 2061 778;" xml:space="preserve">
<style type="text/css">
	.st0{fill:#FFFFFF;fill-opacity:0.6;}
	.st1{fill:#FEFBFB;}
	.st2{fill:#432918;}
	.st3{fill:#EA2313;}
	.st4{fill:#DADADA;}
	.st5{fill:#F39200;}
	.st6{fill:#8C6244;}
	.st7{fill:#CCA183;}
	.st8{fill:#FFFFFF;}
</style>
<title>Artboard 1</title>
<path class="st0" d="M421.8,516.6l3.2-3.7c0.4-0.6,0-1.4-0.6-1.4l-2.7-0.2c-0.5,0-0.8-0.6-0.6-1l5.8-10.6c0.1-0.3-0.1-0.6-0.4-0.6
	h-9c-0.1,0-0.2,0.1-0.3,0.2c-5.2,7.9-12,10.8-15.4,11s-23.5,0-33.9,0c-12.3,0-14.6,3-19,6.9c-4.8,4.1-3.2,8.1,2.4,8.5
	c3.9,0.4,34.1,0.3,51.3,0.2C410,525.7,417.1,522.3,421.8,516.6z"/>
<path class="st1" d="M1710.6,132.9c-3.5,0-6.7,1-9.3,2.6c-4-6.3-11-10.6-19-10.6c-9.9,0-18.2,6.3-21.2,15.3c-1.7-0.6-3.5-1-5.3-1
	c-8.4,0-15.2,6.8-15.2,15.2s6.8,15.2,15.2,15.2h54.8c10.2,0,18.4-8.2,18.4-18.4C1729,141.1,1720.7,132.9,1710.6,132.9z"/>
<path class="st1" d="M1175.6,317.5c-4.9,0-9.4,1.4-13.2,3.6c-5.6-8.9-15.5-14.9-26.8-14.9c-13.9,0-25.7,8.9-30,21.6
	c-2.4-0.9-4.9-1.4-7.5-1.4c-11.9,0-21.4,9.5-21.4,21.4s9.5,21.4,21.4,21.4h77.2c14.4,0,26-11.5,26-26
	C1201.4,329.1,1189.7,317.5,1175.6,317.5z"/>
<path class="st1" d="M1562.2,206.2c-6.2,0-11.9,1.7-16.7,4.6c-7.2-11.3-19.7-18.9-34-18.9c-17.6,0-32.6,11.3-38,27.3
	c-3-1.1-6.2-1.7-9.5-1.7c-15.1,0-27.2,12.1-27.2,27.2c0,15.1,12.1,27.2,27.2,27.2h97.9c18.3,0,32.9-14.6,32.9-32.9
	C1594.9,221,1580.2,206.2,1562.2,206.2z"/>
<path class="st1" d="M2124.7,180.8c-9.7,0-18.7,2.7-26.2,7.2c-11.2-17.7-30.9-29.7-53.4-29.7c-27.7,0-51.1,17.7-59.6,42.9
	c-4.7-1.7-9.7-2.7-15-2.7c-23.7,0-42.6,19-42.6,42.6c0,23.7,19,42.6,42.6,42.6h153.6c28.7,0,51.6-22.9,51.6-51.6
	C2176.1,204,2152.9,180.8,2124.7,180.8z"/>
<g>
	<g>
		<path class="st2" d="M224.8,96.4c0.3,0.4,2.6,11.7,2.6,11.7L224.8,96.4z"/>
		<path d="M227,108.2l0.7-0.1c-0.7-3.4-2.4-11.4-2.6-11.8l-0.5,0.3C224.7,97.1,226.1,103.8,227,108.2z"/>
	</g>
	<g>
		<path class="st2" d="M233.5,108.1c0,0,2.3-11.3,2.6-11.7L233.5,108.1z"/>
		<path d="M233.8,108.2c0.9-4.4,2.3-11.1,2.6-11.6l-0.6-0.3c-0.3,0.4-1.9,8.4-2.6,11.8L233.8,108.2z"/>
	</g>
	<path class="st3" d="M230.4,47.2c-12.1,0-21.1,9.8-21.1,20.3c0,15.1,12.8,28.5,16,31.5c1.3-1.6,3-2.3,5.1-2.3s3.8,0.7,5.1,2.3
		c3.2-3.1,16-16.4,16-31.5C251.5,57,242.5,47.2,230.4,47.2z"/>
	<path class="st4" d="M228.5,102.8c0,0.4,0.3,0.7,0.7,0.7h2.2c0.4,0,0.7-0.3,0.7-0.7v-2.2h-3.6L228.5,102.8L228.5,102.8z"/>
	<path class="st5" d="M230.4,100.3c0.9,0,1.1-1,0.7-1.4s-0.5-1.5-0.5-1.5s-0.6,0.5-0.4,1.2c0.3,0.8-0.1,0.8-0.1,0.8
		c-0.2,0-0.2-0.7-0.2-0.7c-0.1,0.4-0.4,0.6-0.3,0.9C229.6,100.3,230.1,100.3,230.4,100.3z"/>
	<path class="st2" d="M236,112.4c0-0.1-0.1-0.3-0.3-0.3H225c-0.1,0-0.3,0.1-0.3,0.3s0.1,0.3,0.3,0.3h10.7
		C235.9,112.6,236,112.5,236,112.4z"/>
	<path class="st6" d="M232,106.8h-1.9h-4.2c-0.4,0-0.7,0.3-0.7,0.7v4.6h2.7h2.3h0.3h1.4h3.8V109v-0.5v-1.1c0-0.4-0.3-0.7-0.7-0.7
		L232,106.8L232,106.8z"/>
	<path class="st7" d="M225.8,109.9c-0.2,0.3-0.1,0.7,0.1,0.9l1.9,1.3h2.3l-3.5-2.4C226.4,109.5,226,109.6,225.8,109.9z"/>
	<path class="st7" d="M225.9,108.5c-0.1,0.2-0.1,0.4,0.1,0.5l4.5,3.1h1.4l-5.4-3.8C226.3,108.2,226.1,108.3,225.9,108.5z"/>
	<path class="st7" d="M235.3,109.7c0.2-0.3,0.1-0.6-0.1-0.8l-3.1-2.2h-1.9l4.4,3.1C234.8,110,235.1,109.9,235.3,109.7z"/>
	<path class="st7" d="M233.8,107.2c-0.1-0.1-0.2-0.1-0.3,0.1c-0.1,0.1-0.1,0.2,0.1,0.3l2.2,1.5v-0.5L233.8,107.2z"/>
	<path class="st8" d="M230.4,47.2c13.7,8.3,2.2,46.8,0.9,49.6l0,0c0.7,0.1,1.2,0.2,1.8,0.5l0,0C252.4,62.2,239.5,49.8,230.4,47.2z"
		/>
	<path class="st8" d="M230.4,47.2c-9.1,2.6-21.9,15-2.7,50.1l0,0c0.6-0.3,1.2-0.4,1.8-0.5l0,0C228.2,94,216.7,55.5,230.4,47.2z"/>
</g>
</svg>
