<?xml version="1.0" encoding="utf-8"?>
<!-- Generator: Adobe Illustrator 22.1.0, SVG Export Plug-In . SVG Version: 6.00 Build 0)  -->
<svg version="1.1" id="Layer_1" xmlns="http://www.w3.org/2000/svg" xmlns:xlink="http://www.w3.org/1999/xlink" x="0px" y="0px"
	 viewBox="0 0 2858 307" style="enable-background:new 0 0 2858 307;" xml:space="preserve">
<style type="text/css">
	.st0{opacity:0.5;}
	.st1{fill:#FFFFFF;}
	.st2{opacity:0.76;}
</style>
<g class="st0">
	<g>
		<path class="st1" d="M2446.1,254.5c-5.8,0-10.6-4.7-10.6-10.6c0-5.8,4.7-10.6,10.6-10.6c5.8,0,10.6,4.7,10.6,10.6
			C2456.7,249.8,2451.9,254.5,2446.1,254.5z"/>
		<path class="st1" d="M2446.1,233.9c5.5,0,10.1,4.5,10.1,10.1s-4.5,10.1-10.1,10.1c-5.5,0-10.1-4.5-10.1-10.1
			S2440.6,233.9,2446.1,233.9 M2446.1,232.9c-6.1,0-11.1,5-11.1,11.1c0,6.1,4.9,11.1,11.1,11.1s11.1-5,11.1-11.1
			C2457.2,237.8,2452.2,232.9,2446.1,232.9L2446.1,232.9z"/>
	</g>
	<g>
		<path class="st1" d="M2460.5,254.5c-5.8,0-10.6-4.7-10.6-10.6c0-5.8,4.7-10.6,10.6-10.6c5.8,0,10.6,4.7,10.6,10.6
			C2471.1,249.8,2466.3,254.5,2460.5,254.5z"/>
		<path class="st1" d="M2460.5,233.9c5.5,0,10.1,4.5,10.1,10.1s-4.5,10.1-10.1,10.1s-10.1-4.5-10.1-10.1S2455,233.9,2460.5,233.9
			 M2460.5,232.9c-6.1,0-11.1,5-11.1,11.1c0,6.1,4.9,11.1,11.1,11.1c6.1,0,11.1-5,11.1-11.1C2471.6,237.8,2466.6,232.9,2460.5,232.9
			L2460.5,232.9z"/>
	</g>
	<g>
		<circle class="st1" cx="2480.4" cy="239.9" r="14.6"/>
		<path class="st1" d="M2480.4,225.7c7.8,0,14.1,6.3,14.1,14.1s-6.3,14.1-14.1,14.1s-14.1-6.3-14.1-14.1S2472.7,225.7,2480.4,225.7
			 M2480.4,224.7c-8.4,0-15.1,6.8-15.1,15.1s6.8,15.1,15.1,15.1s15.1-6.8,15.1-15.1S2488.8,224.7,2480.4,224.7L2480.4,224.7z"/>
	</g>
	<g>
		<circle class="st1" cx="2499.2" cy="250" r="9.5"/>
		<path class="st1" d="M2499.2,241c5,0,9,4,9,9s-4,9-9,9c-5,0-9-4-9-9S2494.3,241,2499.2,241 M2499.2,240c-5.5,0-10,4.5-10,10
			s4.5,10,10,10c5.5,0,10-4.5,10-10S2504.8,240,2499.2,240L2499.2,240z"/>
	</g>
	<g>
		<path class="st1" d="M2432.9,259.5c-3.7,0-6.6-3-6.6-6.6s3-6.6,6.6-6.6c3.7,0,6.6,3,6.6,6.6S2436.6,259.5,2432.9,259.5z"/>
		<path class="st1" d="M2432.9,246.7c3.4,0,6.1,2.8,6.1,6.1c0,3.4-2.8,6.1-6.1,6.1s-6.1-2.8-6.1-6.1
			C2426.8,249.5,2429.5,246.7,2432.9,246.7 M2432.9,245.7c-3.9,0-7.1,3.2-7.1,7.1c0,3.9,3.2,7.1,7.1,7.1s7.1-3.2,7.1-7.1
			C2440,248.9,2436.8,245.7,2432.9,245.7L2432.9,245.7z"/>
	</g>
	<polygon class="st1" points="2432.2,260 2499.2,260 2498.9,245.7 2468.2,236.1 2442.5,246.1 2433.3,255.4 	"/>
</g>
<g class="st0">
	<g>
		<path class="st1" d="M2726.1,47.5c-5.8,0-10.6-4.7-10.6-10.6s4.7-10.6,10.6-10.6c5.8,0,10.6,4.7,10.6,10.6
			S2731.9,47.5,2726.1,47.5z"/>
		<path class="st1" d="M2726.1,26.9c5.5,0,10.1,4.5,10.1,10.1s-4.5,10.1-10.1,10.1S2716,42.5,2716,37S2720.6,26.9,2726.1,26.9
			 M2726.1,25.9c-6.1,0-11.1,5-11.1,11.1S2720,48,2726.1,48s11.1-5,11.1-11.1S2732.2,25.9,2726.1,25.9L2726.1,25.9z"/>
	</g>
	<g>
		<path class="st1" d="M2740.5,47.5c-5.8,0-10.6-4.7-10.6-10.6s4.7-10.6,10.6-10.6c5.8,0,10.6,4.7,10.6,10.6
			S2746.3,47.5,2740.5,47.5z"/>
		<path class="st1" d="M2740.5,26.9c5.5,0,10.1,4.5,10.1,10.1s-4.5,10.1-10.1,10.1c-5.5,0-10.1-4.5-10.1-10.1S2735,26.9,2740.5,26.9
			 M2740.5,25.9c-6.1,0-11.1,5-11.1,11.1s5,11.1,11.1,11.1s11.1-5,11.1-11.1S2746.6,25.9,2740.5,25.9L2740.5,25.9z"/>
	</g>
	<g>
		<path class="st1" d="M2760.4,47.5c-8.1,0-14.6-6.6-14.6-14.6s6.6-14.6,14.6-14.6s14.6,6.6,14.6,14.6S2768.5,47.5,2760.4,47.5z"/>
		<path class="st1" d="M2760.4,18.7c7.8,0,14.1,6.3,14.1,14.1s-6.3,14.1-14.1,14.1s-14.1-6.3-14.1-14.1S2752.7,18.7,2760.4,18.7
			 M2760.4,17.7c-8.4,0-15.1,6.8-15.1,15.1s6.8,15.1,15.1,15.1s15.1-6.8,15.1-15.1S2768.8,17.7,2760.4,17.7L2760.4,17.7z"/>
	</g>
	<g>
		<circle class="st1" cx="2779.2" cy="43" r="9.5"/>
		<path class="st1" d="M2779.2,34c5,0,9,4,9,9s-4,9-9,9c-5,0-9-4-9-9S2774.3,34,2779.2,34 M2779.2,33c-5.5,0-10,4.5-10,10
			s4.5,10,10,10c5.5,0,10-4.5,10-10S2784.8,33,2779.2,33L2779.2,33z"/>
	</g>
	<g>
		<path class="st1" d="M2712.9,52.5c-3.7,0-6.6-3-6.6-6.6c0-3.7,3-6.6,6.6-6.6c3.7,0,6.6,3,6.6,6.6
			C2719.5,49.5,2716.6,52.5,2712.9,52.5z"/>
		<path class="st1" d="M2712.9,39.7c3.4,0,6.1,2.8,6.1,6.1s-2.8,6.1-6.1,6.1s-6.1-2.8-6.1-6.1S2709.5,39.7,2712.9,39.7 M2712.9,38.7
			c-3.9,0-7.1,3.2-7.1,7.1s3.2,7.1,7.1,7.1s7.1-3.2,7.1-7.1S2716.8,38.7,2712.9,38.7L2712.9,38.7z"/>
	</g>
	<polygon class="st1" points="2712.2,53 2779.2,53 2778.9,38.7 2748.2,29.1 2722.5,39.1 2713.3,48.4 	"/>
</g>
<g class="st0">
	<g>
		<path class="st1" d="M550.1,212.5c-5.8,0-10.6-4.7-10.6-10.6c0-5.8,4.7-10.6,10.6-10.6s10.6,4.7,10.6,10.6
			C560.7,207.8,555.9,212.5,550.1,212.5z"/>
		<path class="st1" d="M550.1,191.9c5.5,0,10.1,4.5,10.1,10.1s-4.5,10.1-10.1,10.1c-5.5,0-10.1-4.5-10.1-10.1
			S544.6,191.9,550.1,191.9 M550.1,190.9c-6.1,0-11.1,5-11.1,11.1c0,6.1,5,11.1,11.1,11.1c6.1,0,11.1-5,11.1-11.1
			C561.2,195.8,556.2,190.9,550.1,190.9L550.1,190.9z"/>
	</g>
	<g>
		<path class="st1" d="M559.5,199.5c-5.8,0-10.6-4.7-10.6-10.6c0-5.8,4.7-10.6,10.6-10.6s10.6,4.7,10.6,10.6
			C570.1,194.8,565.3,199.5,559.5,199.5z"/>
		<path class="st1" d="M559.5,178.9c5.5,0,10.1,4.5,10.1,10.1s-4.5,10.1-10.1,10.1c-5.5,0-10.1-4.5-10.1-10.1S554,178.9,559.5,178.9
			 M559.5,177.9c-6.1,0-11.1,5-11.1,11.1c0,6.1,5,11.1,11.1,11.1c6.1,0,11.1-5,11.1-11.1C570.6,182.8,565.6,177.9,559.5,177.9
			L559.5,177.9z"/>
	</g>
	<g>
		<circle class="st1" cx="579.4" cy="184.9" r="14.6"/>
		<path class="st1" d="M579.4,170.7c7.8,0,14.1,6.3,14.1,14.1s-6.3,14.1-14.1,14.1s-14.1-6.3-14.1-14.1S571.7,170.7,579.4,170.7
			 M579.4,169.7c-8.4,0-15.1,6.8-15.1,15.1s6.8,15.1,15.1,15.1c8.4,0,15.1-6.8,15.1-15.1S587.8,169.7,579.4,169.7L579.4,169.7z"/>
	</g>
	<g>
		<circle class="st1" cx="598.2" cy="195" r="9.5"/>
		<path class="st1" d="M598.2,186c5,0,9,4,9,9s-4,9-9,9c-5,0-9-4-9-9S593.3,186,598.2,186 M598.2,185c-5.5,0-10,4.5-10,10
			s4.5,10,10,10s10-4.5,10-10S603.8,185,598.2,185L598.2,185z"/>
	</g>
	<g>
		<path class="st1" d="M564.9,210.5c-3.7,0-6.6-3-6.6-6.6s3-6.6,6.6-6.6c3.7,0,6.6,3,6.6,6.6S568.6,210.5,564.9,210.5z"/>
		<path class="st1" d="M564.9,197.7c3.4,0,6.1,2.8,6.1,6.1s-2.8,6.1-6.1,6.1s-6.1-2.8-6.1-6.1S561.5,197.7,564.9,197.7 M564.9,196.7
			c-3.9,0-7.1,3.2-7.1,7.1c0,3.9,3.2,7.1,7.1,7.1s7.1-3.2,7.1-7.1C572,199.9,568.8,196.7,564.9,196.7L564.9,196.7z"/>
	</g>
	<g>
		<path class="st1" d="M579.9,210.5c-3.7,0-6.6-3-6.6-6.6s3-6.6,6.6-6.6c3.7,0,6.6,3,6.6,6.6S583.6,210.5,579.9,210.5z"/>
		<path class="st1" d="M579.9,197.7c3.4,0,6.1,2.8,6.1,6.1s-2.8,6.1-6.1,6.1s-6.1-2.8-6.1-6.1S576.5,197.7,579.9,197.7 M579.9,196.7
			c-3.9,0-7.1,3.2-7.1,7.1c0,3.9,3.2,7.1,7.1,7.1s7.1-3.2,7.1-7.1C587,199.9,583.8,196.7,579.9,196.7L579.9,196.7z"/>
	</g>
	<polygon class="st1" points="542,205 598.2,205 597.9,190.7 572.2,181.1 550.7,191.1 542.9,200.4 	"/>
</g>
<g class="st2">
	<g>
		<path class="st1" d="M1684.9,202.9c-9.9,0-17.9-8-17.9-17.9s8-17.9,17.9-17.9s17.9,8,17.9,17.9S1694.7,202.9,1684.9,202.9z"/>
		<path class="st1" d="M1684.9,167.6c9.6,0,17.4,7.8,17.4,17.4s-7.8,17.4-17.4,17.4s-17.4-7.8-17.4-17.4S1675.3,167.6,1684.9,167.6
			 M1684.9,166.6c-10.2,0-18.4,8.2-18.4,18.4s8.2,18.4,18.4,18.4s18.4-8.2,18.4-18.4S1695,166.6,1684.9,166.6L1684.9,166.6z"/>
	</g>
	<g>
		<path class="st1" d="M1708.9,202.9c-9.9,0-17.9-8-17.9-17.9s8-17.9,17.9-17.9s17.9,8,17.9,17.9S1718.7,202.9,1708.9,202.9z"/>
		<path class="st1" d="M1708.9,167.6c9.6,0,17.4,7.8,17.4,17.4s-7.8,17.4-17.4,17.4s-17.4-7.8-17.4-17.4S1699.3,167.6,1708.9,167.6
			 M1708.9,166.6c-10.2,0-18.4,8.2-18.4,18.4s8.2,18.4,18.4,18.4s18.4-8.2,18.4-18.4S1719,166.6,1708.9,166.6L1708.9,166.6z"/>
	</g>
	<g>
		<path class="st1" d="M1742.1,202.9c-13.6,0-24.7-11.1-24.7-24.7s11.1-24.7,24.7-24.7s24.7,11.1,24.7,24.7
			S1755.7,202.9,1742.1,202.9z"/>
		<path class="st1" d="M1742.1,154c13.3,0,24.2,10.9,24.2,24.2c0,13.3-10.9,24.2-24.2,24.2s-24.2-10.9-24.2-24.2
			C1717.9,164.9,1728.7,154,1742.1,154 M1742.1,153c-13.9,0-25.2,11.3-25.2,25.2c0,13.9,11.3,25.2,25.2,25.2s25.2-11.3,25.2-25.2
			C1767.3,164.3,1756,153,1742.1,153L1742.1,153z"/>
	</g>
	<g>
		<path class="st1" d="M1773.4,211.2c-8.9,0-16.1-7.2-16.1-16.1s7.2-16.1,16.1-16.1s16.1,7.2,16.1,16.1S1782.3,211.2,1773.4,211.2z"
			/>
		<path class="st1" d="M1773.4,179.5c8.6,0,15.6,7,15.6,15.6s-7,15.6-15.6,15.6c-8.6,0-15.6-7-15.6-15.6S1764.7,179.5,1773.4,179.5
			 M1773.4,178.5c-9.2,0-16.6,7.4-16.6,16.6c0,9.2,7.4,16.6,16.6,16.6c9.2,0,16.6-7.4,16.6-16.6
			C1790,185.9,1782.6,178.5,1773.4,178.5L1773.4,178.5z"/>
	</g>
	<g>
		<path class="st1" d="M1662.9,211.2c-6.3,0-11.4-5.1-11.4-11.4c0-6.3,5.1-11.4,11.4-11.4c6.3,0,11.4,5.1,11.4,11.4
			C1674.3,206.1,1669.2,211.2,1662.9,211.2z"/>
		<path class="st1" d="M1662.9,189c6,0,10.9,4.9,10.9,10.9s-4.9,10.9-10.9,10.9s-10.9-4.9-10.9-10.9S1656.9,189,1662.9,189
			 M1662.9,188c-6.6,0-11.9,5.3-11.9,11.9c0,6.6,5.3,11.9,11.9,11.9c6.6,0,11.9-5.3,11.9-11.9C1674.8,193.3,1669.4,188,1662.9,188
			L1662.9,188z"/>
	</g>
	<polygon class="st1" points="1661.7,211.7 1773.4,211.7 1772.8,188 1721.7,171.9 1678.9,188.6 1663.5,204 	"/>
</g>
</svg>
