<?xml version="1.0" encoding="utf-8"?>
<!-- Generator: Adobe Illustrator 22.1.0, SVG Export Plug-In . SVG Version: 6.00 Build 0)  -->
<svg version="1.1" id="Layer_1" xmlns="http://www.w3.org/2000/svg" xmlns:xlink="http://www.w3.org/1999/xlink" x="0px" y="0px"
	 viewBox="0 0 2061 550" style="enable-background:new 0 0 2061 550;" xml:space="preserve">
<style type="text/css">
	.st0{opacity:0.3;}
	.st1{fill:#FFFFFF;}
	.st2{fill:#FFFFFF;fill-opacity:0.6;}
	.st3{fill:#FEFBFB;}
	.st4{fill:#FEDA38;}
	.st5{fill:#B6B6B6;}
	.st6{fill:#FE6006;}
	.st7{fill:#00B7D3;}
	.st8{fill:#18C4EA;}
	.st9{fill:#142D42;}
	.st10{fill:#0685C2;}
	.st11{fill:#101719;}
	.st12{fill:#273438;}
	.st13{fill:#CBD6D8;}
	.st14{fill:#8C9799;}
	.st15{fill:#91091A;}
	.st16{fill:#EDEDED;}
	.st17{fill:#F6F6F6;}
	.st18{fill:#FF631E;}
	.st19{fill:#F4F4F4;}
	.st20{fill:#33CBFF;}
	.st21{fill:#163A59;}
	.st22{fill:#E5E5E5;}
	.st23{fill:#EDEDEE;}
	.st24{fill:#432918;}
	.st25{fill:#EA2313;}
	.st26{fill:#DADADA;}
	.st27{fill:#F39200;}
	.st28{fill:#8C6244;}
	.st29{fill:#CCA183;}
</style>
<g class="st0">
	<polygon class="st1" points="2069.6,372.6 2052.6,356.8 2019.8,356.8 2019.8,354 2020.2,354 2020.2,352.5 2017.7,352.5 2017.7,354 
		2018.1,354 2018.1,356.8 2013.6,356.8 2013.6,364.8 2013.4,364.8 1845.9,364.8 1845.8,364.8 1828.7,380.5 1834.5,380.5 
		1834.5,429.5 1780.8,429.5 1780.8,453.4 1518.5,453.4 1518.5,429.5 1451.4,429.5 1451.4,409.6 1421.1,409.6 1421.1,392.7 
		1409.6,392.7 1409.6,360.4 1339.1,360.4 1339.1,409.6 1213.4,409.6 1213.4,392.7 1176.6,392.7 1176.6,451.4 1147.8,451.4 
		1147.8,379.8 1081.6,379.8 1081.6,312 1019.4,312 1019.4,189.9 889.4,189.9 889.4,258.6 843.2,258.6 843.2,551 889.4,551 
		889.4,550 983.1,550 983.1,552.7 1069.8,552.7 1081.6,552.7 2062,552.7 2062,468.8 2063.3,468.8 2063.3,372.9 2071.5,372.6 	"/>
	<polygon class="st1" points="719.2,0 0,0 0,554.3 707.1,554.3 719.2,554.3 843,554.3 843,110.1 719.2,110.1 	"/>
</g>
<title>Artboard 1</title>
<path class="st2" d="M1752.1,64.6l3.2-3.7c0.3-0.4,0.2-1-0.2-1.2c-0.1-0.1-0.3-0.1-0.4-0.2l-2.7-0.2c-0.4,0-0.7-0.4-0.7-0.8
	c0-0.1,0-0.2,0.1-0.2l5.7-10.6c0.1-0.2,0-0.5-0.3-0.6c0,0-0.1,0-0.1,0h-9c-0.1,0-0.2,0.1-0.3,0.2c-5.2,7.9-12,10.8-15.4,11
	s-23.5,0-33.9,0c-12.3,0-14.6,3-19,6.9c-4.8,4.1-3.2,8.1,2.4,8.5c3.9,0.4,34.1,0.3,51.2,0.1C1740.3,73.7,1747.4,70.3,1752.1,64.6z"
	/>
<path class="st3" d="M1718.2,169.4c-3.3,0-6.5,0.9-9.3,2.6c-6.5-10.5-20.3-13.7-30.8-7.2c-4.4,2.8-7.8,7-9.4,11.9
	c-1.7-0.6-3.5-1-5.3-1c-8.4,0-15.2,6.8-15.2,15.2c0,8.4,6.8,15.2,15.2,15.2h54.7c10.1-0.2,18.2-8.5,18-18.7
	C1735.9,177.6,1728,169.6,1718.2,169.4L1718.2,169.4z"/>
<path class="st3" d="M392.5,514.1c-4.6,0-9.2,1.3-13.2,3.6c-9.2-14.8-28.7-19.4-43.5-10.2c-6.2,3.9-10.9,9.8-13.3,16.8
	c-2.4-0.9-5-1.4-7.5-1.4c-11.8,0-21.4,9.6-21.4,21.4c0,11.8,9.6,21.4,21.4,21.4h77.2c14.3-0.2,25.7-12,25.5-26.3
	C417.6,525.7,406.5,514.5,392.5,514.1L392.5,514.1z"/>
<path class="st3" d="M873.3,77.3c-2.9,0-5.8,0.8-8.3,2.3c-5.8-9.4-18.2-12.3-27.6-6.4c-4,2.5-6.9,6.2-8.4,10.6
	c-1.5-0.6-3.1-0.9-4.8-0.9c-7.5,0.1-13.5,6.3-13.3,13.9c0.1,7.3,6,13.2,13.3,13.3h49c9.1-0.1,16.3-7.5,16.2-16.6
	C889.2,84.6,882.1,77.4,873.3,77.3L873.3,77.3z"/>
<path class="st3" d="M770.1,27.4c-4.8,0-9.5,1.3-13.7,3.8c-9.6-15.4-29.8-20.1-45.2-10.5c-6.5,4-11.4,10.2-13.8,17.5
	c-2.5-0.9-5.1-1.4-7.8-1.4c-12.3,0-22.2,10-22.2,22.3s10,22.2,22.2,22.2l0,0l80.2-0.1c14.8,0.1,26.9-11.9,27-26.8
	S784.9,27.5,770.1,27.4L770.1,27.4z"/>
<path class="st4" d="M1964.3,113.5V81.7h-5v62.9h5V113.5z M1999.7,121.5l-4.6-1.9l-12.1,29.1l4.6,1.9L1999.7,121.5z M2046.4,168.2
	l-29.2,12.1l1.9,4.6l29.2-12.1L2046.4,168.2z M2017.1,232.2l1.9-4.6l29.2,12.1l-1.9,4.6L2017.1,232.2z M1982.9,264.1l12.1,29.1
	l4.6-1.9l-12.1-29.2L1982.9,264.1z M1923.9,290.9l4.6,1.9l12.1-29.2l-4.6-1.9L1923.9,290.9z M1894.4,270.2l-22.5,22l3.8,3.8
	l44.6-44.9l-3.8-3.5L1894.4,270.2z M1874.7,239.2l1.9,4.6l29.2-12.1l-1.9-4.6L1874.7,239.2z M1906.2,180.1l-1.9,4.6l-29.2-12.1
	l1.9-4.6L1906.2,180.1z M1940.4,148.7l-12.1-29.2l-4.6,1.9l12.1,29.2L1940.4,148.7z M2051.4,120.3l-3.8-3.8l-22,22.3l-22.3,22.3
	l3.5,3.5L2051.4,120.3z M2054.2,203.8h-31.1v5h62.9v-5H2054.2z M2006.8,247.6l-3.5,3.5l22.3,22.5l22,22.3l3.7-3.8l-22.5-22
	L2006.8,247.6z M1959.2,299v31.6h5v-62.9h-5V299z M1900.4,203.8h-63.1v5h63.1V203.8z M1916.4,164.7l3.8-3.5l-22.3-22.3l-22.3-22.3
	l-3.8,3.8l22.5,22L1916.4,164.7z M2004.1,206.3c0-23.4-19-42.3-42.3-42.3c-23.4,0-42.3,19-42.3,42.3s19,42.3,42.3,42.3l0,0
	C1985.1,248.6,2004.1,229.7,2004.1,206.3C2004.1,206.3,2004.1,206.3,2004.1,206.3L2004.1,206.3z"/>
<path class="st3" d="M2132.3,217.3c-9.2,0-18.3,2.5-26.2,7.2c-18.3-29.5-57.1-38.6-86.5-20.2c-12.4,7.7-21.8,19.6-26.5,33.5
	c-4.8-1.8-9.9-2.7-15-2.8c-23.6,0-42.7,19.1-42.7,42.7s19.1,42.6,42.7,42.6h153.6c28.4,0.1,51.5-22.8,51.6-51.2c0-0.2,0-0.3,0-0.5
	C2183.6,240.5,2160.4,217.3,2132.3,217.3z"/>
<path class="st3" d="M-41.5,82.6c9.2,0,18.3,2.5,26.2,7.2C3,60.3,41.7,51.3,71.2,69.6C83.7,77.3,93,89.1,97.7,103
	c4.8-1.8,9.9-2.7,15-2.7c23.6-0.4,42.9,18.4,43.3,42s-18.4,42.9-42,43.3c-0.4,0-0.9,0-1.3,0H-41c-28.4,0.1-51.5-22.8-51.6-51.2
	c0-0.1,0-0.3,0-0.4C-92.9,105.8-69.7,82.6-41.5,82.6z"/>
<path class="st5" d="M-11,686.2L2061,671l-0.4-231.3L-13.9,659.5L-11,686.2z"/>
<g>
	<path class="st6" d="M1389.3,364.2c1.9,1.8,4.9,1.6,6.7-0.3c1.8-1.9,1.6-4.9-0.3-6.7c-1.9-1.8-4.9-1.6-6.7,0.3c0,0,0,0,0,0
		C1387.3,359.4,1387.4,362.4,1389.3,364.2z"/>
	<path class="st7" d="M1416.7,360.3c1,0.9,2.6,0.8,3.5-0.2l14.5-21.3c0.9-1,0.8-2.6-0.3-3.5c-1-0.9-2.6-0.8-3.4,0.2l-14.5,21.3
		C1415.6,357.9,1415.7,359.4,1416.7,360.3z"/>
	<path class="st6" d="M1404.9,358.8l-11.3,1l0.3,3.1l11.3-1L1404.9,358.8z"/>
	<path class="st7" d="M1420.5,358.7c-0.1-1.4-1.2-2.4-2.6-2.4l-19.3,2.6l0.5,4.5l19-2.2C1419.5,361.2,1420.5,360,1420.5,358.7z"/>
	<path class="st8" d="M1494.9,414.1c-5.8-7.3-8.2-9.9-13.4-9.3l-35.5,3.8c-5.2,0.5-9,5.2-8.4,10.4c0,0,0,0,0,0.1
		c0,0,7.4,24.1,3.3,30.7c-7.2,10.9-41.7,13.8-51.7,5.5c-13.5-10.9-7.4-69.8-7.4-69.8c-0.1-0.8-0.4-3.6-0.5-4.2l-1.1-8.2l9.4-1
		c2.5-0.3,4.4-2.6,4.1-5.1c-0.3-2.5-2.6-4.4-5.1-4.1l0,0l-10,1.1c-0.5-1.3-1.2-2.4-2.2-3.4l8-6.5l0.2,2.2c0.2,1.9,1.8,3.3,3.7,3.1
		s3.3-1.8,3.1-3.7c0,0,0-0.1,0-0.1l-1.7-15.8c-0.2-1.9-1.8-3.3-3.7-3.1s-3.3,1.8-3.1,3.7c0,0,0,0.1,0,0.1l0.9,8.8l-11.4,9.3
		c-1.2-0.3-2.4-0.5-3.7-0.4l-25.6,10.8c-0.3,0.3-0.7,0.4-1.2,0.5l2.7,25.3l1.2-0.1l5.8-0.6c-9.5,24.8-23.1,60.9-20.5,100.6
		c0.4,5.2,4.2,9.1,8.2,8.6l37.9-4l8.8-0.9l68.6-7.3l35.3-3.8l19.7-2.1c5.2-0.6,7.8-5.3,8.4-10.4
		C1520.6,455.6,1505.4,427,1494.9,414.1z"/>
	<path class="st9" d="M1504.1,410.9l-0.4-3.6c-0.6-6-5.6-10.4-11-9.8l-57,6.1c-5.4,0.6-9.3,5.9-8.7,11.9l0.4,3.6
		c0.6,6,5.6,10.4,11,9.8l57-6.1C1500.8,422.2,1504.7,416.9,1504.1,410.9z"/>
	<path class="st10" d="M1469.6,450.9c-20.8,2.2-35.9,20.8-33.7,41.6c0,0,0,0.1,0,0.1l75.4-8.1
		C1509.1,463.7,1490.5,448.7,1469.6,450.9C1469.6,450.9,1469.6,450.9,1469.6,450.9z"/>
	<path class="st11" d="M1470.4,454.4c-18.8,2-32.5,18.9-30.5,37.7c0,0,0,0,0,0l68.2-7.3C1506.1,466.1,1489.2,452.4,1470.4,454.4
		C1470.4,454.4,1470.4,454.4,1470.4,454.4z"/>
	<path class="st12" d="M1503.7,485.4c-1.7-16.2-16.2-27.9-32.4-26.2c-16.2,1.7-27.9,16.2-26.2,32.4c1.7,16.2,16.2,27.9,32.4,26.2
		c0,0,0,0,0,0C1493.7,516,1505.4,501.5,1503.7,485.4z"/>
	<path class="st13" d="M1490.1,486.8c-0.9-8.6-8.7-14.9-17.3-14c-8.6,0.9-14.9,8.7-14,17.3c0.9,8.6,8.7,14.9,17.3,14
		C1484.7,503.2,1491,495.5,1490.1,486.8z"/>
	<path class="st14" d="M1484.2,487.4c-0.6-5.7-5.7-9.7-11.3-9.1c-5.7,0.6-9.7,5.7-9.1,11.3c0.6,5.7,5.7,9.7,11.3,9.1c0,0,0,0,0,0
		C1480.8,498.2,1484.8,493.1,1484.2,487.4z"/>
	<path class="st10" d="M1353.2,463.3c-20.8,2.2-35.9,20.8-33.7,41.6c0,0,0,0.1,0,0.1l75.4-8C1392.8,476.2,1374.1,461.1,1353.2,463.3
		C1353.3,463.3,1353.3,463.3,1353.2,463.3z"/>
	<path class="st11" d="M1354,466.9c-18.8,2-32.5,18.9-30.5,37.7c0,0,0,0,0,0l68-7.3C1389.6,478.6,1372.8,464.9,1354,466.9z"/>
	<path class="st12" d="M1387.4,497.8c-1.7-16.2-16.2-27.9-32.4-26.2c-16.2,1.7-27.9,16.2-26.2,32.4c1.7,16.2,16.2,27.9,32.4,26.2
		c0,0,0,0,0,0C1377.4,528.5,1389.1,514,1387.4,497.8z"/>
	<path class="st13" d="M1373.7,499.2c-0.9-8.6-8.7-14.9-17.3-14c-8.6,0.9-14.9,8.7-14,17.3c0.9,8.6,8.7,14.9,17.3,14
		C1368.4,515.7,1374.6,507.9,1373.7,499.2C1373.7,499.3,1373.7,499.3,1373.7,499.2z"/>
	<path class="st14" d="M1367.9,499.9c-0.6-5.6-5.7-9.7-11.3-9.1c-5.6,0.6-9.7,5.7-9.1,11.3c0.6,5.6,5.7,9.7,11.3,9.1
		C1364.4,510.6,1368.5,505.5,1367.9,499.9z"/>
	<path class="st15" d="M1511.5,440.5l-0.8-7.6c-0.3-2.3-2.4-4-4.7-3.7c-2.3,0.3-3.9,2.3-3.7,4.6l0.8,7.6c0.2,2.3,2.3,4,4.7,3.8
		C1510.1,444.9,1511.7,442.8,1511.5,440.5L1511.5,440.5z"/>
	<path class="st16" d="M1334.6,379.3l0.7,6.8c0.5,4.8,4.6,8.5,9.4,8.5l-2.7-25.3C1336.7,372.4,1334.2,376.3,1334.6,379.3z"/>
	<path class="st17" d="M1452.3,445l-1.2-11.2c-0.1-0.6-0.6-1-1.1-0.9c-0.6,0.1-1,0.6-0.9,1.1l1.2,11.2c0.1,0.6,0.6,1,1.1,0.9
		C1452,446,1452.4,445.5,1452.3,445L1452.3,445L1452.3,445z"/>
	<path class="st17" d="M1455.5,444.7l-1.2-11.2c-0.1-0.6-0.6-1-1.1-0.9c-0.6,0.1-1,0.6-0.9,1.1l1.2,11.2c0.1,0.6,0.6,1,1.1,0.9
		C1455.2,445.7,1455.6,445.2,1455.5,444.7z"/>
	<path class="st17" d="M1458.7,444.3l-1.2-11.2c-0.1-0.6-0.6-1-1.1-0.9c-0.6,0.1-1,0.6-0.9,1.1l1.2,11.2c0.1,0.5,0.5,1,1.1,0.9
		c0,0,0,0,0,0C1458.4,445.4,1458.8,444.9,1458.7,444.3C1458.7,444.3,1458.7,444.3,1458.7,444.3z"/>
	<path class="st17" d="M1462,444l-1.2-11.2c-0.1-0.6-0.6-1-1.1-0.9c-0.6,0.1-1,0.6-0.9,1.1l1.2,11.2c0.1,0.6,0.6,1,1.1,0.9
		C1461.6,445,1462,444.5,1462,444L1462,444L1462,444z"/>
	<path class="st17" d="M1465.2,443.6l-1.2-11.2c-0.1-0.6-0.6-1-1.1-0.9c-0.6,0.1-1,0.6-0.9,1.1l1.2,11.2c0.1,0.6,0.6,1,1.1,0.9
		C1464.8,444.7,1465.2,444.2,1465.2,443.6z"/>
	<path class="st6" d="M1426.8,454.8l-1.9-10.9l-3.3,0.6l1.9,10.9L1426.8,454.8z"/>
	<path class="st6" d="M1418.7,458.2l-1.9-10.9l-3.3,0.6l1.9,10.9L1418.7,458.2z"/>
	<path class="st6" d="M1434.4,344.2l-4.5-14.5l-5.9,1.8l4.5,14.5L1434.4,344.2z"/>
	<path class="st8" d="M1439.5,396.7c1,3.8,4.9,6.1,8.7,5.1c3.8-1,6.1-4.9,5.1-8.7c-0.1-0.2-0.1-0.5-0.2-0.7l0,0l-17.4-55.6
		l-13.6,4.3L1439.5,396.7L1439.5,396.7z"/>
	<path class="st3" d="M1421.1,341.5l1.9-8.6l6.5,6L1421.1,341.5z"/>
	<path class="st3" d="M1429.5,338.9l1.9-8.6l6.5,6L1429.5,338.9z"/>
	<path class="st3" d="M1433.7,337.6l-1.9,8.6l-6.5-6L1433.7,337.6z"/>
	<path class="st6" d="M1449.8,282.9L1449.8,282.9l-10.2-32.5l-28.5,8.9l0,0c-16.5,5.2-25.9,25.4-20.7,42.2s22.6,26.2,39.4,21
		S1455.1,299.7,1449.8,282.9L1449.8,282.9z"/>
	<path class="st6" d="M1437.7,303.3c-2.3,0.7-3.6,3.2-2.9,5.4c0.7,2.3,3.2,3.6,5.4,2.9c2.3-0.7,3.6-3.2,2.9-5.4c0,0,0,0,0,0
		C1442.4,303.8,1439.9,302.6,1437.7,303.3C1437.7,303.3,1437.7,303.3,1437.7,303.3z M1439.7,309.9c-1.3,0.4-2.8-0.3-3.2-1.7
		c-0.4-1.3,0.3-2.8,1.7-3.2c1.3-0.4,2.8,0.3,3.2,1.7C1441.8,308,1441.1,309.4,1439.7,309.9C1439.7,309.9,1439.7,309.9,1439.7,309.9
		L1439.7,309.9z"/>
	<path class="st18" d="M1395.5,328.9c0.8-1.2,1.4-2.6,1.8-4c-2-0.4-4.1-0.4-6.2,0.1c-1.8-2.4-2.2-0.6-2.9-2.6
		c-1.2-3.7-3-9.6-3.9-12.5c-3.7-11.8,4.7-43.7,22.6-49.3c17.9-5.6,37.4,11.2,42.9,28.9s-4.5,36.5-22.4,42.1
		c-9.2,2.9-21.6,3.2-29.4-1C1397.2,330,1396.4,329.5,1395.5,328.9L1395.5,328.9z"/>
	<path class="st19" d="M1388.9,314c-0.8-6,3-12.2,6.4-12.7s8.9,5.9,9.7,11.9s-1,9.1-4.4,9.6S1389.7,319.9,1388.9,314z"/>
	<path class="st20" d="M1392.1,303.3c0,0,4,1.2,6.6,9.3s-0.5,10-0.5,10c-3.7-0.8-8.5-3.9-9.2-8.6
		C1388.4,310.1,1389.6,306.3,1392.1,303.3L1392.1,303.3z"/>
	<path d="M1393.2,320.6c-2.3-1.4-3.9-3.8-4.4-6.5c-0.2-1.6-0.1-3.2,0.3-4.8c2.3,0.8,4.1,2.7,4.7,5
		C1394.6,316.4,1394.3,318.7,1393.2,320.6z"/>
	<path class="st18" d="M1410.7,321.8l-9.4,2.9l-6.3-1.5l13.7-6L1410.7,321.8z"/>
	<path class="st9" d="M1443.2,398.7l-33.2,1.3l0.3,6.4l33.2-1.3L1443.2,398.7z"/>
	<path class="st9" d="M1404.9,405.6c0,0.8,7.1,43.1,7.1,43.1l6.4-0.3l-8.4-48.4C1410.1,400.1,1404,399.7,1404.9,405.6z"/>
	<path class="st21" d="M1439.1,398.1c0.2,3.9,3.6,6.9,7.5,6.7c3.9-0.2,6.9-3.6,6.7-7.5c0-0.2,0-0.5-0.1-0.7l0,0l-0.3-3l-14.2,1.5
		L1439.1,398.1L1439.1,398.1z"/>
	<path class="st21" d="M1447.3,398.6l-31.5,3.4l0.7,6.1l31.5-3.4L1447.3,398.6z"/>
	<path class="st21" d="M1411.3,407.6c0.1,0.7,9.4,40.6,9.4,40.6l6.1-0.7l-11-45.5C1415.9,402,1410,402,1411.3,407.6z"/>
	<path class="st6" d="M1385.9,371.2c1.7,2.2,4.8,2.6,7,0.9s2.6-4.8,0.9-7c-1.7-2.2-4.8-2.6-6.9-0.9
		C1384.6,365.8,1384.2,369,1385.9,371.2C1385.9,371.2,1385.9,371.2,1385.9,371.2z"/>
	<path class="st8" d="M1416.1,372.5c1.1,1,2.7,1,3.8-0.1l16.5-22.1c1-1.1,1-2.7-0.1-3.7c-1.1-1-2.7-1-3.8,0.1l-16.5,22.1
		C1415,369.8,1415,371.5,1416.1,372.5z"/>
	<path class="st6" d="M1403.4,368.5l-12.1-1l-0.3,3.3l12.1,1L1403.4,368.5z"/>
	<path class="st8" d="M1419.8,371.2c0.2-1.5-0.8-2.8-2.3-3c0,0,0,0,0,0l-20.8-0.9l-0.3,4.9l20.4,1.2
		C1418.3,373.7,1419.6,372.7,1419.8,371.2z"/>
	<path class="st22" d="M1418.9,453.3c0.2,0,0.4,0.1,0.4,0.4c0,0,0,0,0,0l0.7,5.6c0,0.2-0.1,0.4-0.3,0.4c0,0,0,0,0,0l-11.9,1.5
		c-0.2,0-0.5-0.1-0.5-0.4c0-0.1,0-0.2,0.1-0.3c1.1-1.5,4.9-5.6,5.7-6.4c0.1-0.1,0.2-0.1,0.3-0.1L1418.9,453.3z"/>
	<path class="st23" d="M1428.4,451.7c0.2,0,0.5,0.1,0.5,0.4c0,0,0,0,0,0.1l0.7,6.2c0,0.2-0.1,0.5-0.4,0.5c0,0,0,0,0,0l-13.3,1.4
		c-0.3,0-0.5-0.2-0.5-0.4c0-0.1,0-0.2,0.1-0.3c1.2-1.7,5.6-6.2,6.4-7c0.1-0.1,0.2-0.1,0.3-0.2L1428.4,451.7z"/>
</g>
<path class="st24" d="M253.7,90.2c0.3,0.4,2.6,11.7,2.6,11.7L253.7,90.2z"/>
<path d="M255.9,102l0.7-0.1c-0.7-3.4-2.4-11.4-2.6-11.8l-0.5,0.3C253.6,90.9,255,97.6,255.9,102z"/>
<path class="st24" d="M262.4,101.9c0,0,2.3-11.3,2.6-11.7L262.4,101.9z"/>
<path d="M262.7,102c0.9-4.4,2.3-11.1,2.5-11.6l-0.6-0.3c-0.3,0.4-1.9,8.4-2.6,11.8L262.7,102z"/>
<path class="st25" d="M259.3,41c-12.1,0-21.1,9.8-21.1,20.3c0,15.1,12.8,28.5,16,31.5c2.5-2.8,6.8-3.1,9.7-0.6
	c0.2,0.2,0.4,0.4,0.6,0.6c3.2-3.1,16-16.4,16-31.5C280.5,50.8,271.5,41,259.3,41z"/>
<path class="st26" d="M257.5,96.6c0,0.4,0.3,0.7,0.7,0.7l0,0h2.2c0.4,0,0.7-0.3,0.7-0.7v-2.2h-3.6V96.6z"/>
<path class="st27" d="M259.3,94.1c0.5,0,0.8-0.3,0.9-0.8c0-0.2-0.1-0.4-0.2-0.6c-0.3-0.5-0.5-1-0.5-1.5c-0.4,0.3-0.5,0.8-0.4,1.2
	c0.3,0.8-0.1,0.8-0.1,0.8c-0.2,0-0.2-0.7-0.2-0.7c-0.1,0.4-0.4,0.6-0.3,0.9C258.5,94.1,259.1,94.1,259.3,94.1z"/>
<path class="st24" d="M265,106.2c0-0.2-0.2-0.3-0.3-0.3H254c-0.1,0-0.3,0.1-0.3,0.3c0,0.1,0.1,0.3,0.3,0.3h10.7
	C264.9,106.5,265,106.3,265,106.2z"/>
<path class="st28" d="M261,100.6h-6.1c-0.4,0-0.7,0.3-0.7,0.7l0,0v4.7h10.5v-4.7c0-0.4-0.3-0.7-0.7-0.7L261,100.6L261,100.6z"/>
<path class="st29" d="M254.8,103.7c-0.2,0.3-0.1,0.7,0.1,0.9l1.9,1.3h2.3l-3.5-2.4C255.3,103.3,255,103.4,254.8,103.7
	C254.8,103.7,254.8,103.7,254.8,103.7z"/>
<path class="st29" d="M254.9,102.3c-0.1,0.2-0.1,0.4,0.1,0.5l4.5,3.2h1.4l-5.4-3.8C255.2,102,255,102.1,254.9,102.3
	C254.9,102.2,254.9,102.3,254.9,102.3z"/>
<path class="st29" d="M264.2,103.5c0.2-0.2,0.1-0.6-0.1-0.8c0,0,0,0,0,0l-3.1-2.2h-1.9l4.4,3.1C263.7,103.8,264,103.7,264.2,103.5z"
	/>
<path class="st29" d="M262.7,101c-0.1-0.1-0.2-0.1-0.2,0c0,0,0,0,0,0.1c-0.1,0.1-0.1,0.2,0,0.2c0,0,0,0,0.1,0l2.2,1.5v-0.5
	L262.7,101z"/>
<path class="st1" d="M259.4,41c13.7,8.3,2.2,46.8,0.9,49.6l0,0c0.6,0.1,1.2,0.2,1.8,0.5l0,0C281.3,56,268.5,43.6,259.4,41z"/>
<path class="st1" d="M259.3,41c-9.1,2.6-21.9,15-2.8,50.1l0,0c0.6-0.2,1.2-0.4,1.8-0.5l0,0C257.2,87.8,245.7,49.3,259.3,41z"/>
</svg>
