<?xml version="1.0" encoding="UTF-8"?>
<svg version="1.1" xmlns="http://www.w3.org/2000/svg" xmlns:xlink="http://www.w3.org/1999/xlink">
<defs>

</defs>
<symbol id="i-arrow" xmlns="http://www.w3.org/2000/svg" viewBox="0 0 599 345" fill-rule="evenodd" clip-rule="evenodd" shape-rendering="geometricPrecision" text-rendering="geometricPrecision" image-rendering="optimizeQuality"><path d="M599 0L299 345 0 0z"/></symbol>
<symbol id="i-star" xmlns="http://www.w3.org/2000/svg" viewBox="0 0 100 100"><path d="M54.4 5.9l11.7 23.7c.6 1.2 1.8 2.1 3.2 2.3l26.2 3.8c3.4.5 4.8 4.7 2.3 7.2l-19 18.5c-1 1-1.4 2.4-1.2 3.7L82 91.2c.6 3.4-3 6.1-6.1 4.4L52.5 83.3c-1.2-.6-2.7-.6-3.9 0L25.2 95.6c-3.1 1.6-6.7-1-6.1-4.4l4.5-26.1c.2-1.4-.2-2.8-1.2-3.7l-19-18.5c-2.5-2.4-1.1-6.7 2.3-7.2l26.2-3.8c1.4-.2 2.6-1.1 3.2-2.3L46.8 5.9c1.6-3.1 6-3.1 7.6 0z"/></symbol>
</svg>