<?xml version="1.0" encoding="utf-8"?>
<!-- Generator: Adobe Illustrator 22.1.0, SVG Export Plug-In . SVG Version: 6.00 Build 0)  -->
<svg version="1.1" id="Layer_1" xmlns="http://www.w3.org/2000/svg" xmlns:xlink="http://www.w3.org/1999/xlink" x="0px" y="0px"
	 viewBox="0 0 1877.4 1321.2" style="enable-background:new 0 0 1877.4 1321.2;" xml:space="preserve">
<style type="text/css">
	.st0{fill:#C3EBFE;}
	.st1{fill:#0058B8;}
	.st2{fill:#FEEF3F;}
</style>
<g id="document" transform="matrix(1,0,0,1,1024.0,1024.0)">
	<path class="st0" d="M-974.4,296.7c-27.2,0-49.1-22.4-49.6-49.1V-67c0-27.2,21.9-49.6,49.6-49.6l1778.3,0.5
		c27.2,0,49.6,21.9,49.6,49.6v314.1c0,27.2-21.9,49.6-49.6,49.6L-974.4,296.7z"/>
	<g>
		<path class="st1" d="M538.3,192l23.4-77.2l-64.4-48.9l81-1.8l26.5-76.4l26.5,76.4l81,1.8l-64.4,48.9l23.4,77.2l-66.5-46.1
			L538.3,192z"/>
		<path class="st1" d="M524.7,187.9l23.4-77.2l5,15.5l-64.4-48.9C478,69.1,483.5,52,497,51.7l81-1.8l-13.1,9.6l26.5-76.4
			c4.4-12.8,22.5-12.8,26.9,0l26.5,76.4l-13.1-9.6l81,1.8c13.5,0.3,19,17.4,8.3,25.6l-64.4,48.9l5-15.5l23.4,77.2
			c3.9,12.9-10.6,23.5-21.7,15.8l-66.5-46.1h16.2l-66.5,46.1C535.4,211.4,520.8,200.8,524.7,187.9z M551.9,196.1l-21.7-15.8
			l66.5-46.1c4.9-3.4,11.3-3.4,16.2,0l66.5,46.1l-21.7,15.8L634.2,119c-1.7-5.7,0.3-11.9,5-15.5l64.4-48.9l8.3,25.6l-81-1.8
			c-5.9-0.1-11.2-3.9-13.1-9.6L591.4-7.6h26.9l-26.5,76.4c-1.9,5.6-7.2,9.4-13.1,9.6l-81,1.8l8.3-25.6l64.4,48.9
			c4.7,3.6,6.7,9.8,5,15.5L551.9,196.1z"/>
	</g>
	<g>
		<path class="st2" d="M189.6,192l23.4-77.2l-64.4-48.9l81-1.8l26.5-76.4l26.5,76.4l81,1.8l-64.4,48.9l23.4,77.2l-66.5-46.1
			L189.6,192z"/>
		<path class="st2" d="M176,187.9l23.4-77.2l5,15.5L140,77.3c-10.7-8.1-5.2-25.3,8.3-25.6l81-1.8l-13.1,9.6l26.5-76.4
			c4.4-12.8,22.5-12.8,26.9,0l26.5,76.4l-13.1-9.6l81,1.8c13.5,0.3,19,17.4,8.3,25.6l-64.4,48.9l5-15.5l23.4,77.2
			c3.9,12.9-10.6,23.5-21.7,15.8L248,157.6h16.2l-66.5,46.1C186.7,211.4,172.1,200.8,176,187.9z M203.3,196.1l-21.7-15.8l66.5-46.1
			c4.9-3.4,11.3-3.4,16.2,0l66.5,46.1L309,196.1L285.5,119c-1.7-5.7,0.3-11.9,5-15.5L355,54.6l8.3,25.6l-81-1.8
			c-5.9-0.1-11.2-3.9-13.1-9.6L242.7-7.6h26.9l-26.5,76.4c-1.9,5.6-7.2,9.4-13.1,9.6l-81,1.8l8.3-25.6l64.4,48.9
			c4.7,3.6,6.7,9.8,5,15.5L203.3,196.1z"/>
	</g>
	<g>
		<path class="st2" d="M-159,192l23.4-77.2l-64.4-48.9l81-1.8l26.5-76.4l26.5,76.4l81,1.8l-64.4,48.9l23.4,77.2l-66.5-46.1L-159,192
			z"/>
		<path class="st2" d="M-172.7,187.9l23.4-77.2l5,15.5l-64.4-48.9c-10.7-8.1-5.2-25.3,8.3-25.6l81-1.8l-13.1,9.6l26.5-76.4
			c4.4-12.8,22.5-12.8,26.9,0l26.5,76.4l-13.1-9.6l81,1.8c13.5,0.3,19,17.4,8.3,25.6l-64.4,48.9l5-15.5l23.4,77.2
			c3.9,12.9-10.6,23.5-21.7,15.8l-66.5-46.1h16.2l-66.5,46.1C-162,211.4-176.6,200.8-172.7,187.9z M-145.4,196.1l-21.7-15.8
			l66.5-46.1c4.9-3.4,11.3-3.4,16.2,0l66.5,46.1l-21.7,15.8L-63.1,119c-1.7-5.7,0.3-11.9,5-15.5L6.3,54.6l8.3,25.6l-81-1.8
			c-5.9-0.1-11.2-3.9-13.1-9.6L-106-7.6h26.9l-26.5,76.4c-1.9,5.6-7.2,9.4-13.1,9.6l-81,1.8l8.3-25.6l64.4,48.9
			c4.7,3.6,6.7,9.8,5,15.5L-145.4,196.1z"/>
	</g>
	<g>
		<path class="st2" d="M-507.7,192l23.4-77.2l-64.4-48.9l81-1.8l26.5-76.4l26.5,76.4l81,1.8l-64.4,48.9l23.4,77.2l-66.5-46.1
			L-507.7,192z"/>
		<path class="st2" d="M-521.4,187.9l23.4-77.2l5,15.5l-64.4-48.9c-10.7-8.1-5.2-25.3,8.3-25.6l81-1.8l-13.1,9.6l26.5-76.4
			c4.4-12.8,22.5-12.8,26.9,0l26.5,76.4l-13.1-9.6l81,1.8c13.5,0.3,19,17.4,8.3,25.6l-64.4,48.9l5-15.5l23.4,77.2
			c3.9,12.9-10.6,23.5-21.7,15.8l-66.5-46.1h16.2l-66.5,46.1C-510.7,211.4-525.3,200.8-521.4,187.9z M-494.1,196.1l-21.7-15.8
			l66.5-46.1c4.9-3.4,11.3-3.4,16.2,0l66.5,46.1l-21.7,15.8l-23.4-77.2c-1.7-5.7,0.3-11.9,5-15.5l64.4-48.9l8.3,25.6l-81-1.8
			c-5.9-0.1-11.2-3.9-13.1-9.6l-26.5-76.4h26.9l-26.5,76.4c-1.9,5.6-7.2,9.4-13.1,9.6l-81,1.8l8.3-25.6l64.4,48.9
			c4.7,3.6,6.7,9.8,5,15.5L-494.1,196.1z"/>
	</g>
	<g>
		<path class="st2" d="M-856.4,192l23.4-77.2l-64.4-48.9l81-1.8l26.5-76.4l26.5,76.4l81,1.8l-64.4,48.9l23.4,77.2l-66.5-46.1
			L-856.4,192z"/>
		<path class="st2" d="M-870,187.9l23.4-77.2l5,15.5L-906,77.3c-10.7-8.1-5.2-25.3,8.3-25.6l81-1.8l-13.1,9.6l26.5-76.4
			c4.4-12.8,22.5-12.8,26.9,0l26.5,76.4l-13.1-9.6l81,1.8c13.5,0.3,19,17.4,8.3,25.6l-64.4,48.9l5-15.5l23.4,77.2
			c3.9,12.9-10.6,23.5-21.7,15.8l-66.5-46.1h16.2l-66.5,46.1C-859.4,211.4-874,200.8-870,187.9z M-842.8,196.1l-21.7-15.8l66.5-46.1
			c4.9-3.4,11.3-3.4,16.2,0l66.5,46.1l-21.7,15.8l-23.4-77.2c-1.7-5.7,0.3-11.9,5-15.5l64.4-48.9l8.3,25.6l-81-1.8
			c-5.9-0.1-11.2-3.9-13.1-9.6l-26.5-76.4h26.9L-803,68.8c-1.9,5.6-7.2,9.4-13.1,9.6l-81,1.8l8.3-25.6l64.4,48.9
			c4.7,3.6,6.7,9.8,5,15.5L-842.8,196.1z"/>
	</g>
</g>
</svg>
