<?xml version="1.0" encoding="utf-8"?>
<!-- Generator: Adobe Illustrator 22.1.0, SVG Export Plug-In . SVG Version: 6.00 Build 0)  -->
<svg version="1.1" id="Layer_1" xmlns="http://www.w3.org/2000/svg" xmlns:xlink="http://www.w3.org/1999/xlink" x="0px" y="0px"
	 viewBox="0 0 100 100" style="enable-background:new 0 0 100 100;" xml:space="preserve">
<style type="text/css">
	.st0{fill:#194278;}
	.st1{fill:#0E4C9B;}
	.st2{fill:#D6E8FF;}
	.st3{fill:#F5F9FE;fill-opacity:0.43;}
	.st4{fill:#4D4D4D;fill-opacity:0.12;}
	.st5{fill:#4AD0FF;}
	.st6{fill:#EF6326;}
	.st7{fill:#93C601;}
	.st8{fill:#E23733;}
	.st9{fill:#DD0A00;}
	.st10{fill:#FCFCFC;fill-opacity:0.56;}
	.st11{fill:#FCFCFC;}
	.st12{fill:#4D4D4D;}
</style>
<g>
	<path class="st0" d="M56.4,11.3V4.1h-17v7.2H56.4z"/>
	<path class="st0" d="M50.2,96.8c2.8,0,5.1-2.3,5.1-5.1c0-2.8-2.3-5.1-5.1-5.1c-2.8,0-5.1,2.3-5.1,5.1
		C45.1,94.5,47.4,96.8,50.2,96.8z"/>
	<path class="st1" d="M71.2,0h-42c-4,0-7.3,3.3-7.3,7.3v85.3c0,4,3.3,7.3,7.3,7.3h42c4,0,7.3-3.3,7.3-7.3V7.3
		C78.5,3.3,75.3,0,71.2,0z M45.4,6.2h9.5v3.2h-9.5V6.2z M50.2,96.1c-2.6,0-4.6-2.1-4.6-4.6c0-2.6,2.1-4.6,4.6-4.6
		c2.6,0,4.6,2.1,4.6,4.6C54.8,94,52.8,96.1,50.2,96.1z M73.1,83.9H27.5V16h45.7V83.9z"/>
	<path class="st2" d="M73.9,84.8V15.1H26.6v69.7H73.9z"/>
	<path class="st3" d="M73.9,28.1v-13H26.6v13H73.9z"/>
	<path class="st4" d="M73.9,19.9v-4.8H26.6v4.8H73.9z"/>
	<path class="st3" d="M73.9,84.8V70H26.6v14.8H73.9z"/>
	<g>
		<path class="st5" d="M35.7,82.3c1.5,0,2.6-1.2,2.6-2.6v-3.9c0-1.5-1.2-2.6-2.6-2.6h-3.9c-1.5,0-2.6,1.2-2.6,2.6v3.9
			c0,1.5,1.2,2.6,2.6,2.6H35.7z"/>
		<g>
			<path class="st6" d="M33.8,76.5c-0.7,0-1.2,0.5-1.2,1.2c0,0.7,0.5,1.2,1.2,1.2c0.7,0,1.2-0.6,1.2-1.2C35,77,34.4,76.5,33.8,76.5z
				 M33.8,78.1c-0.2,0-0.4-0.2-0.4-0.4c0-0.2,0.2-0.4,0.4-0.4c0.2,0,0.4,0.2,0.4,0.4C34.1,77.9,34,78.1,33.8,78.1z"/>
			<path class="st6" d="M36.3,75.2l-2.5,0c-1.3,0-2.4,1-2.5,2.3c-0.1,1.4,1.1,2.6,2.5,2.6c1.4,0,2.5-1.1,2.5-2.5L36.3,75.2z
				 M33.8,79.3c-0.9,0-1.6-0.7-1.6-1.6c0-0.9,0.8-1.7,1.7-1.6c0.8,0,1.4,0.7,1.5,1.5C35.4,78.5,34.7,79.3,33.8,79.3z"/>
		</g>
	</g>
	<g>
		<path class="st5" d="M46.9,82.3c1.5,0,2.6-1.2,2.6-2.6v-3.9c0-1.5-1.2-2.6-2.6-2.6H43c-1.5,0-2.6,1.2-2.6,2.6v3.9
			c0,1.5,1.2,2.6,2.6,2.6H46.9z"/>
		<g>
			<g>
				<path class="st7" d="M46.5,76.5c0,0,0.8,0.5,1.4,0.3C47.5,76.6,46.6,75.9,46.5,76.5z"/>
				<path class="st7" d="M46.4,76.4c0,0,0.2,0.1,0.7-0.1c0.2-0.1,0.5-0.5,0.5-0.5s-0.6-0.1-0.9,0C46.4,76,46.2,76.1,46.4,76.4z"/>
				<path class="st7" d="M46.1,76.1c0,0-0.5-0.8-0.3-1.4C46,75.1,46.7,76,46.1,76.1z"/>
				<path class="st7" d="M46.2,76.2c0.3,0.2,0.4,0,0.6-0.3c0.1-0.3,0-0.9,0-0.9s-0.4,0.2-0.5,0.5C46,76,46.2,76.2,46.2,76.2z"/>
			</g>
			<path class="st8" d="M46.8,79.7c1.1-1.1,0.7-2.7-0.3-3.4c-0.8-1-2.3-1.5-3.4-0.3c-1.1,1.1-1.3,3.5-0.5,4.3
				C43.3,81,45.7,80.9,46.8,79.7z"/>
			<path class="st9" d="M42.7,76.9c0,0,0.1,0,0.1,0c0.1-0.1,0.1-0.2,0.1-0.3c0-0.1,0-0.1-0.1-0.1c-0.1,0-0.1,0-0.2,0.1
				C42.6,76.7,42.6,76.8,42.7,76.9C42.6,76.9,42.7,76.9,42.7,76.9z M43.8,77.8C43.8,77.8,43.8,77.8,43.8,77.8c-0.1,0-0.2,0-0.2,0.1
				c0,0-0.1,0.1,0,0.2c0,0,0,0.1,0,0.1c0,0,0,0.1,0.1,0.1c0,0,0,0,0.1,0c0,0,0.1,0,0.1-0.1c0,0,0,0,0,0c0,0,0.1-0.1,0.1-0.2
				C43.9,77.9,43.9,77.9,43.8,77.8z M42.2,78.8c0.1,0,0.1,0,0.1-0.1c0.1-0.1,0-0.2,0-0.2c0,0-0.1,0-0.1,0c-0.1,0-0.1,0.1-0.1,0.2
				C42.1,78.7,42.1,78.8,42.2,78.8C42.2,78.8,42.2,78.8,42.2,78.8z M42.8,79.4c0,0,0.1-0.1,0.1-0.2c0,0,0-0.1-0.1-0.1
				c0,0-0.1,0-0.1,0c0,0-0.1,0-0.1,0.1c0,0,0,0.1,0,0.1c0,0,0,0,0,0.1c0,0,0,0.1,0,0.1c0,0,0,0,0.1,0C42.7,79.4,42.8,79.4,42.8,79.4
				C42.8,79.4,42.8,79.4,42.8,79.4z M43.1,79.7C43,79.7,43,79.7,43.1,79.7c-0.2,0-0.3,0-0.3,0.1c0,0,0,0,0,0.1c0,0,0,0.1,0,0.1l0,0
				c0,0,0,0,0.1,0c0,0,0,0,0,0c0,0,0,0,0.1,0c0.1,0,0.1-0.1,0.1-0.1C43.1,79.8,43.1,79.8,43.1,79.7L43.1,79.7z M42.7,78.7
				C42.7,78.7,42.7,78.7,42.7,78.7c0.1,0,0.1,0,0.2,0c0,0,0,0,0,0c0,0,0.1-0.1,0.1-0.2c0,0,0-0.1-0.1-0.1c0,0,0,0-0.1,0
				c-0.1,0-0.1,0-0.1,0.1c0,0,0,0.1,0,0.1c0,0,0,0.1,0,0.1C42.6,78.6,42.6,78.7,42.7,78.7z M42.3,77.5c-0.1,0-0.1,0.1-0.1,0.1
				c0,0.1,0,0.2,0,0.2c0,0,0,0,0.1,0c0,0,0.1,0,0.1-0.1C42.5,77.7,42.4,77.6,42.3,77.5C42.4,77.5,42.4,77.5,42.3,77.5z M42.3,79.2
				C42.3,79.2,42.3,79.2,42.3,79.2c-0.1,0-0.1,0-0.1,0c0,0,0,0.1,0,0.2c0,0.1,0,0.2,0.1,0.2c0.1,0,0.1-0.1,0.1-0.1
				C42.4,79.3,42.3,79.3,42.3,79.2z M43.5,77C43.5,77,43.6,77,43.5,77c0.1,0,0.1,0,0.1,0c0.1,0,0.2,0,0.2-0.1c0,0,0-0.1,0-0.2
				c0,0-0.1-0.1-0.2-0.1c-0.1,0-0.2,0-0.2,0.1c0,0,0,0.1,0,0.1C43.4,76.8,43.4,76.9,43.5,77C43.4,77,43.5,77,43.5,77z M43.3,77.5
				c0,0,0-0.1-0.1-0.2c0,0-0.1,0-0.1,0c-0.1,0-0.1,0-0.2,0.1s-0.1,0.1,0,0.2c0,0,0,0.1,0,0.1c0,0,0,0.1,0.1,0.1c0,0,0,0,0.1,0
				c0,0,0.1,0,0.1-0.1c0,0,0,0,0,0C43.2,77.7,43.3,77.6,43.3,77.5z M45.6,76.6C45.6,76.6,45.6,76.6,45.6,76.6
				C45.6,76.6,45.6,76.6,45.6,76.6c0.1,0,0.2,0,0.3-0.1c0,0,0.1-0.1,0-0.2c0-0.1-0.1-0.1-0.2-0.1c-0.1,0-0.1,0-0.2,0.1
				c0,0,0,0.1-0.1,0.1c0,0-0.1,0.1,0,0.1C45.4,76.6,45.5,76.6,45.6,76.6z M44.8,75.6c0,0,0.1,0.1,0.1,0.1c0.1,0,0.1,0,0.2,0
				c0,0,0.1-0.1,0.1-0.1c0-0.1-0.1-0.1-0.2-0.2c0,0-0.1,0-0.1,0c-0.1,0-0.2,0-0.2,0.1C44.7,75.5,44.8,75.6,44.8,75.6z M45.3,77.5
				C45.3,77.5,45.3,77.5,45.3,77.5c0.1,0,0.1,0,0.1,0c0,0,0.1,0,0.1,0c0.1,0,0.2-0.1,0.2-0.2c0-0.1,0-0.1,0-0.2l0,0c0,0-0.1,0-0.1,0
				c-0.1,0-0.2,0.1-0.2,0.2c0,0,0,0.1,0,0.1C45.3,77.4,45.3,77.4,45.3,77.5L45.3,77.5z M44.4,76.3C44.4,76.3,44.4,76.3,44.4,76.3
				c0.1,0,0.1,0,0.1,0c0,0,0.1,0,0.2-0.1c0,0,0.1-0.1,0-0.2c0-0.1-0.1-0.2-0.2-0.2c-0.1,0-0.1,0-0.2,0.1c0,0,0,0.1-0.1,0.1
				c0,0-0.1,0.1-0.1,0.1C44.2,76.3,44.3,76.3,44.4,76.3z M43.6,76C43.6,76,43.6,76,43.6,76c0.2,0,0.2-0.1,0.3-0.2l0,0
				c0,0,0-0.1,0-0.1c0,0-0.1,0-0.1,0c0,0-0.1,0-0.2,0.1c0,0-0.2,0.1-0.1,0.2C43.4,75.9,43.5,76,43.6,76z M44.5,76.9
				c-0.1,0-0.2,0-0.2,0.2c0,0,0,0.1,0,0.1c0,0,0,0.1,0,0.1c0,0,0,0,0.1,0c0,0,0.1,0,0.1,0c0,0,0,0,0,0c0.1,0,0.2,0,0.2-0.1
				c0,0,0-0.1,0-0.2C44.7,76.9,44.6,76.9,44.5,76.9z M46,79.4C46,79.4,46.1,79.3,46,79.4c0.2-0.1,0.2-0.1,0.2-0.2
				c0-0.1,0-0.2-0.1-0.2c0,0-0.1,0-0.1,0c-0.1,0-0.2,0.1-0.2,0.2c0,0,0,0,0,0c0,0.1,0,0.1,0,0.2C45.9,79.4,45.9,79.4,46,79.4
				C46,79.4,46,79.4,46,79.4z M46.6,77.1c0-0.1-0.1-0.1-0.1-0.2c-0.1,0-0.2,0-0.2,0.1c-0.1,0.1-0.1,0.2-0.1,0.2c0,0,0,0,0,0
				c0,0.1,0,0.1,0.1,0.2c0,0,0,0,0,0c0,0,0.1,0,0.1,0c0,0,0,0,0.1-0.1C46.6,77.3,46.6,77.2,46.6,77.1z M46.2,79.9
				C46.2,79.9,46.2,79.9,46.2,79.9c-0.1,0-0.2,0-0.3,0.1c0,0-0.1,0.1,0,0.2c0,0,0,0,0.1,0c0.1,0,0.1,0,0.2-0.1
				C46.3,80.1,46.3,80,46.2,79.9C46.3,79.9,46.3,79.9,46.2,79.9z M45.9,78.3c0-0.1,0-0.2-0.1-0.2c0,0-0.1,0-0.1,0
				c-0.1,0-0.2,0.1-0.2,0.2c0,0,0,0,0,0c0,0.1,0,0.1,0,0.2c0,0,0,0,0.1,0c0,0,0.1,0,0.1,0c0,0,0.1,0,0.1,0
				C45.9,78.4,45.9,78.4,45.9,78.3z M43.2,79C43.2,79.1,43.3,79.1,43.2,79c0.1,0,0.1,0,0.2,0c0,0,0,0,0,0c0,0,0.1-0.1,0.1-0.2
				c0,0,0-0.1-0.1-0.2c0,0-0.1,0-0.1,0c-0.1,0-0.1,0-0.1,0.1c0,0-0.1,0.1-0.1,0.1c0,0,0,0.1,0,0.1C43.2,79,43.2,79,43.2,79z
				 M45.2,80.4c0,0-0.1,0-0.1,0c-0.1,0-0.1,0-0.1,0.1c0,0-0.1,0.1-0.1,0.1c0,0,0,0.1,0.1,0.1c0,0,0.1,0,0.1,0
				C45.2,80.6,45.3,80.5,45.2,80.4C45.3,80.4,45.3,80.4,45.2,80.4z M46.9,78.2c0-0.1-0.1-0.1-0.1-0.1c-0.1,0-0.2,0-0.2,0.1
				c-0.1,0.1-0.1,0.2,0,0.2c0,0,0,0,0,0c0,0.1,0,0.1,0.1,0.2c0,0,0,0,0,0c0.1,0,0.1,0,0.1-0.1c0,0,0,0,0.1-0.1
				C46.9,78.4,46.9,78.3,46.9,78.2z M47.4,77.8c0-0.1-0.1-0.2-0.2-0.2c0,0-0.1,0-0.1,0.1c0,0.1-0.1,0.2,0,0.3
				c0.1,0.1,0.1,0.1,0.1,0.1c0,0,0.1,0,0.1,0C47.5,78,47.5,77.9,47.4,77.8z M47,79L47,79c-0.1,0-0.2,0.1-0.2,0.2c0,0.1,0,0.1,0,0.2
				c0,0,0,0,0.1,0c0.1,0,0.2-0.1,0.2-0.2c0.1-0.1,0.1-0.2,0-0.2C47.1,79,47.1,78.9,47,79z M45.3,79.5c-0.1,0-0.2,0.1-0.2,0.1
				c0,0,0,0,0,0c0,0-0.1,0.1,0,0.2c0,0.1,0.1,0.1,0.1,0.1c0,0,0,0,0.1,0c0,0,0,0,0,0c0.1,0,0.1,0,0.2-0.1c0-0.1,0-0.1,0-0.2
				C45.4,79.5,45.3,79.5,45.3,79.5z M43.6,79.9c-0.1,0-0.1,0.1-0.2,0.1c0,0,0,0,0,0c0,0-0.1,0.1,0,0.1c0,0,0.1,0,0.1,0c0,0,0,0,0,0
				c0,0,0,0,0.1,0h0c0.1,0,0.1,0,0.2-0.1c0-0.1,0-0.1,0-0.2C43.7,79.9,43.6,79.9,43.6,79.9z M43.4,80.4
				C43.4,80.4,43.3,80.4,43.4,80.4c-0.1,0-0.2,0.1-0.2,0.1c0,0.1,0.1,0.1,0.2,0.1c0,0,0,0,0.1,0c0.1,0,0.1,0,0.1-0.1
				c0,0,0-0.1,0-0.1C43.5,80.4,43.5,80.4,43.4,80.4z M44.1,79.5c0-0.1,0-0.1,0-0.2c0-0.1-0.1-0.1-0.1-0.1c-0.1,0-0.2,0.1-0.2,0.1
				c0,0,0,0,0,0c0,0-0.1,0.1,0,0.2c0,0,0.1,0,0.1,0c0,0,0,0,0,0c0,0,0,0,0.1,0c0,0,0,0,0,0C44,79.6,44.1,79.6,44.1,79.5z M44.3,79.9
				c-0.1,0-0.2,0.1-0.2,0.1c0,0,0,0,0,0c0,0-0.1,0.1,0,0.2c0,0,0.1,0.1,0.1,0.1c0,0,0,0,0.1,0c0,0,0,0,0,0c0.1,0,0.1,0,0.2-0.1
				c0-0.1,0-0.1,0-0.2C44.4,79.9,44.4,79.9,44.3,79.9z M44.8,78.2c0-0.1,0-0.1,0-0.2l0,0c0,0-0.1,0-0.1,0c-0.1,0-0.2,0.1-0.2,0.2
				c0,0,0,0.1,0,0.1c0,0,0,0.1,0,0.1l0,0c0,0,0,0,0.1,0c0,0,0,0,0.1,0c0,0,0.1,0,0.1,0C44.7,78.4,44.8,78.3,44.8,78.2z M44.3,80.5
				c0,0-0.1-0.1-0.1-0.1c0,0-0.1,0-0.1,0c0,0-0.1,0.1-0.1,0.1c0,0.1,0.1,0.1,0.2,0.1c0,0,0,0,0,0C44.3,80.7,44.3,80.6,44.3,80.5
				C44.4,80.6,44.4,80.5,44.3,80.5z M45,79.2c0-0.1,0-0.1,0-0.2c-0.1-0.1-0.1-0.1-0.2-0.1c-0.1,0-0.2,0.1-0.2,0.1c0,0,0,0,0,0
				c0,0-0.1,0.1,0,0.2c0,0.1,0.1,0.1,0.1,0.1c0,0,0,0,0.1,0c0,0,0,0,0,0C44.9,79.3,44.9,79.2,45,79.2z"/>
		</g>
	</g>
	<g>
		<path class="st5" d="M58.1,82.3c1.5,0,2.6-1.2,2.6-2.6v-3.9c0-1.5-1.2-2.6-2.6-2.6h-3.9c-1.5,0-2.6,1.2-2.6,2.6v3.9
			c0,1.5,1.2,2.6,2.6,2.6H58.1z"/>
		<path class="st10" d="M53.1,77.1c0-0.2,0.2-0.4,0.4-0.4h3.1c0.2,0,0.4,0.2,0.4,0.4v2.3c0,0.2-0.2,0.4-0.4,0.4h-2.7l-0.8,0.8
			L53.1,77.1z M53.9,79h2.3v-0.4h-2.3V79z M53.9,78.4h2.3V78h-2.3V78.4z M53.9,77.8h2.3v-0.4h-2.3V77.8z"/>
		<path class="st11" d="M59,75.3c0-0.2-0.2-0.4-0.4-0.4h-3.1c-0.2,0-0.4,0.2-0.4,0.4v2.3c0,0.2,0.2,0.4,0.4,0.4h2.7l0.8,0.8L59,75.3
			z M58.2,77.2h-2.3v-0.4h2.3V77.2z M58.2,76.7h-2.3v-0.4h2.3V76.7z M58.2,76.1h-2.3v-0.4h2.3V76.1z"/>
	</g>
	<path class="st5" d="M69.3,82.3c1.5,0,2.6-1.2,2.6-2.6v-3.9c0-1.5-1.2-2.6-2.6-2.6h-3.9c-1.5,0-2.6,1.2-2.6,2.6v3.9
		c0,1.5,1.2,2.6,2.6,2.6H69.3z"/>
	<path class="st12" d="M65.3,76.3h0.5v-0.2h-0.5V76.3z M65.9,76.5h-0.8c-0.2,0-0.3,0.1-0.3,0.3v2.6c0,0.2,0.1,0.3,0.3,0.3h4.4
		c0.2,0,0.3-0.1,0.3-0.3v-2.6c0-0.2-0.1-0.3-0.3-0.3h-0.8c-0.2,0-0.4-0.1-0.4-0.3l0-0.1c-0.1-0.1-0.3-0.3-0.4-0.3h-1
		c-0.2,0-0.4,0.1-0.4,0.3l0,0.1C66.3,76.3,66.1,76.5,65.9,76.5z M68.8,76.8c0.1,0,0.2,0.1,0.2,0.2c0,0.1-0.1,0.2-0.2,0.2
		c-0.1,0-0.2-0.1-0.2-0.2C68.6,76.8,68.7,76.8,68.8,76.8z M67.3,76.8c0.7,0,1.2,0.5,1.2,1.2c0,0.7-0.5,1.2-1.2,1.2
		c-0.7,0-1.2-0.5-1.2-1.2C66.1,77.3,66.6,76.8,67.3,76.8z M67.3,77.1c0.5,0,0.9,0.4,0.9,0.9s-0.4,0.9-0.9,0.9
		c-0.5,0-0.9-0.4-0.9-0.9S66.8,77.1,67.3,77.1z"/>
</g>
</svg>
