<?xml version="1.0" encoding="utf-8"?>
<!-- Generator: Adobe Illustrator 22.1.0, SVG Export Plug-In . SVG Version: 6.00 Build 0)  -->
<svg version="1.1" id="Layer_1" xmlns="http://www.w3.org/2000/svg" xmlns:xlink="http://www.w3.org/1999/xlink" x="0px" y="0px"
	 viewBox="0 0 2119.9 307" style="enable-background:new 0 0 2119.9 307;" xml:space="preserve">
<style type="text/css">
	.st0{fill:url(#SVGID_1_);}
	.st1{fill:#1C76B8;}
	.st2{opacity:0.76;}
	.st3{fill:#FFFFFF;}
	.st4{opacity:0.74;}
	.st5{opacity:0.5;}
	.st6{fill:#E8EDF1;}
</style>
<linearGradient id="SVGID_1_" gradientUnits="userSpaceOnUse" x1="700.9399" y1="385.727" x2="700.9399" y2="84.5191">
	<stop  offset="0" style="stop-color:#E8EDF1"/>
	<stop  offset="0.3503" style="stop-color:#91CEEB"/>
	<stop  offset="0.7564" style="stop-color:#27A8E3"/>
	<stop  offset="0.8832" style="stop-color:#059CE0"/>
</linearGradient>
<rect x="-728.1" class="st0" width="2858" height="307"/>
<rect x="6.5" y="303.7" transform="matrix(-1 -4.489665e-11 4.489665e-11 -1 1962.0674 743.9925)" class="st1" width="1949.1" height="136.5"/>
<g>
	<polygon class="st1" points="603.1,277.1 603.3,277.3 603.3,277.3 603.3,277.3 603.1,277.2 	"/>
	<path class="st1" d="M599.3,275.1L599.3,275.1c0.2-0.2,0.4-0.5,0.6-0.9C599.8,274.6,599.6,274.9,599.3,275.1
		C599.3,275.1,599.3,275.1,599.3,275.1z"/>
	<path class="st1" d="M598.4,303.7h-3.5v1.2h3.5h12.4l1348.4,3.2v-4.3H670.8v-7.4h-0.1v-0.3h-0.4V295h-3.5v1.1h0v0.2h0.3h0.2v0.2
		h-0.2h-0.5v-0.3h-0.5V296h0.3v-1.6h-3.1v1.6h0.3v0.1h-0.7v-1.4h-2.6v1.4h-0.1V295h-4.4v1.1h-0.8V296h0.5v-1.2h-3.1v1.2h0.8v0.1
		h-1.1v-11.7h-0.9c-0.1-0.5-0.5-0.8-0.9-0.8c-0.4,0-0.8,0.3-0.9,0.8h-1.2v-0.6l-0.1,0.2v0.5h-0.1v-0.6l-0.1,0.2v0.5H648v-0.6
		l-0.1,0.2v0.5h-1l-1.5,1.5v4.3h-6.9v0.3h-0.1v0.6h-0.2v1h0.1v0.5h-0.2v1h0.2v0.5h-0.2v1h0.2v0.5h-0.2v1h0.2v0.5h-0.2v1h0.2v0.5
		h-0.2v1h0.2v0.5h-0.2v1h0.2v0.5h-0.2v1h0.2v1h-27.6v-23.6h0v-0.4h0.1v-0.6h-0.3l0-0.1v-0.9h-0.2V278h-0.6l-1.2-1.6l-1.8,1l0,0h-0.2
		v-0.2l0,0v-0.2h-0.2h-0.3c0.1,0,0.1,0,0.1-0.1v-0.1c0,0-0.1-0.1-0.2-0.1h-1.2l-1.3-1.6v-1.3h0.2V273h-0.4v0.7h0.2v0.4
		c0,0,0,0.1,0,0.1c0,0,0-0.1,0-0.1v0.9l-0.6,0.1c0,0,0,0,0,0l-1.8,0.4l-1.1,0.2c-0.1-0.1-0.3-0.1-0.5-0.1c-0.4,0-0.7,0.2-0.8,0.4h0
		v0.1v0.8v2.8h-0.1V303.7z M603,277.1c0,0.1-0.1,0.2-0.2,0.2c-0.1,0-0.2-0.1-0.2-0.2s0.1-0.2,0.2-0.2C602.9,277,603,277,603,277.1z
		 M661.9,296.4v-0.3h0.5v0.3H661.9z M661.4,296.1h0.5v0.3h-0.5V296.1z M660.8,296.4v-0.3h0.5v0.3H660.8z M660.6,296.4v-0.3h0.2v0.3
		H660.6z M651.2,296.4v-0.3h0.5v0.3H651.2z M650.7,296.4v-0.3h0.5v0.3H650.7z M650.2,296.4v-0.3h0.5v0.3H650.2z M650,296.4v-0.3h0.1
		v0.3H650z M635.6,290.5h-0.5v-0.3h0.5V290.5z M636.1,290.5h-0.5v-0.3h0.5V290.5z M636.7,290.5h-0.5v-0.3h0.5V290.5z M637.7,290.5
		h-0.5h-0.5v-0.3h0.5h0.5V290.5z M638.2,290.5h-0.5v-0.3h0.5V290.5z M638.7,290.5h-0.5v-0.3h0.5V290.5z M639.2,290.5h-0.5v-0.3h0.5
		V290.5z M639.7,290.5h-0.5v-0.3h0.5V290.5z M640.2,290.5h-0.5v-0.3h0.5V290.5z M640.7,290.5h-0.5v-0.3h0.5V290.5z M641.2,290.5
		h-0.5v-0.3h0.5V290.5z M641.7,290.5h-0.5v-0.3h0.5V290.5z M642,290.5h-0.3v-0.3h0.3V290.5z M649.2,296.4h-0.3v-0.3h0.3V296.4z
		 M649.6,296.4h-0.5v-0.3h0.5V296.4z M650,296.4h-0.3v-0.3h0.3V296.4z M651.8,296.1H650V296L651.8,296.1L651.8,296.1z M651.8,296.4
		L651.8,296.4l0-0.3h0V296.4z M652.2,296.4h-0.3v-0.3h0.3V296.4z M652.7,296.4h-0.5v-0.3h0.4v0.1h0.1V296.4z M652.9,296.4h-0.2v-0.2
		h0.2V296.4z M653.2,296.4H653v-0.2h0.2V296.4z M653.7,296.4h-0.5v-0.2h0.5V296.4z M654.2,296.4h-0.5v-0.2h0.5V296.4z M654.7,296.4
		h-0.5v-0.2h0.5V296.4z M655.2,296.4h-0.5v-0.2h0.5V296.4z M655.7,296.4h-0.5v-0.2h0.5V296.4z M656.3,296.4h-0.5v-0.2h0.5V296.4z
		 M656.5,296.4h-0.2v-0.2h0.2V296.4z M656.8,296.4h-0.2v-0.2h0.2V296.4z M657.3,296.4h-0.5v-0.2h0.3v-0.1h0.1v0.1h0.1V296.4z
		 M657.7,296.4h-0.4v-0.2h0.4V296.4z M658.3,296.4h-0.5v-0.2h0.5V296.4z M658.8,296.4h-0.5v-0.2h0.5V296.4z M659.3,296.4h-0.5v-0.2
		h0.5V296.4z M659.8,296.4h-0.4v-0.2h0.4V296.4z M660.3,296.4h-0.5v-0.3h0.5V296.4z M660.5,296.4h-0.2v-0.3h0.2V296.4z M662.8,296.1
		h-2.2V296L662.8,296.1L662.8,296.1z M662.8,296.4h-0.5v-0.3h0.5V296.4z M663.3,296.4h-0.4v-0.3h0.4V296.4z M664.4,296.4h-0.2v-0.2
		h0.2V296.4z M664.9,296.4h-0.5v-0.2h0.5V296.4z M665.4,296.4h-0.5v-0.2h0.5V296.4z M665.9,296.4h-0.5v-0.2h0.5V296.4z M666.4,296.4
		h-0.5v-0.2h0.5V296.4z M666.7,296.4h-0.2v-0.2h0.2V296.4z M666.9,296.4h-0.1v-0.2h0.1V296.4z M667.4,296.4h-0.5v-0.2h0.1v-0.2h0.4
		V296.4z"/>
	<path class="st1" d="M-1.8,303.7h3.4v-0.9h0.6v-0.6v0H2v-0.6h0.2v-0.6H2v-0.6h0.2v-0.6H2v-0.6h0.2v-0.6H2v-0.6h0.2v-0.6H2V297h0.2
		v-0.6H2v-0.6h0.2v-0.6H2v-0.6h0.2V294H2v-0.6h0.2v-0.6H2v-0.6h0.2v-0.6v0v-0.6v0H1.6v-0.7h0.6v-0.6H2v-0.6h0.2v-0.6v0H2V288h0.2
		v-0.6v0H2v-0.6h0.2v-0.6v0H2v-0.6h0.2v-0.6v0H2v-0.6h0.2v-0.6v0H2v-0.6h0.2v-0.6v0H2v-0.6h0.2v-0.6v0H2V281h0.2v-0.6H2v-0.6h0.2
		v-0.6v0v-0.6H1.6v-1v-0.2v-0.4H1v-0.7h1.6l1.4-1.4v0v-2.7H3.4v-0.6H4c0,0,0,0,0,0c0-1.5,1.1-2.8,2.5-3.2h0V267H6.3v-0.6h0.2
		c0-0.4,0.3-0.7,0.6-0.7V263h0.3v2.7c0.3,0.1,0.6,0.4,0.6,0.7h0.3v0.6H8v1.4h0c1.4,0.3,2.5,1.6,2.5,3.2c0,0,0,0,0,0h0.5v0.6h-0.5
		v2.7l1.4,1.4h1.6v0.7h-0.7v0.4v0.2v1H21c0,0,0,0,0,0h-1.1v-0.7H21c0-0.3,0-0.5,0-0.8c0-1.7,1.4-3.2,3.2-3.2h2.1
		c0.3-2.8,2.7-4.9,5.6-4.9c2.9,0,5.2,2.1,5.6,4.9h1.8c1.7,0,3.2,1.4,3.2,3.2c0,0.3,0,0.5,0,0.8h1.3v0.7h-1.3c0,0,0,0,0,0H43h0.6h1.8
		h0.6h5.1v-0.3h1.3v-0.7v-0.2v-0.4h-0.6v-0.7h1.6l1.4-1.4v0v-2.7h-0.5v-0.6h0.6c0,0,0,0,0,0c0-1.5,1.1-2.8,2.5-3.2h0V267h-0.2v-0.6
		h0.2c0-0.4,0.3-0.7,0.6-0.7V263h0.3v2.7c0.3,0.1,0.6,0.4,0.6,0.7h0.3v0.6h-0.3v1.4h0c1.4,0.3,2.5,1.6,2.5,3.2c0,0,0,0,0,0h0.5v0.6
		h-0.5v2.7l1.4,1.4h1.6v0.7h-0.7v0.4v0.2v1H63v0.6v0.6h0.2v0.6H63v0.6h0.2v0.6H63v0.6h0.2v0.6H63v0.6h0.2v0.6H63v0.6h0.2v0.6H63v0.6
		h0.2v0.6H63v0.6h0.2v0.6H63v0.6h0.2v0.6H63v0.6h0.2v0.6H63v0.6h0.5v0.7h-2.3v0H63v0.6v0.6h0.2v0.6H63v0.6h0.2v0.6H63v0.6h0.2v0.6
		H63v0.6h0.2v0.6H63v0.6h0.2v0.6H63v0.6h0.2v0.6H63v0.6h0.2v0.6H63v0.6h0.2v0.6H63v0.6h0.2v0.6H63v0.6h0.4v0.9h2.3V296h-0.8v-1h0.8
		v0h-0.8v-0.3l0.6-1.4h0v-0.7v0v-1.9h25.8v1.9v0v0.7h0l0.5,1.4h0.1v0.3h-0.8v0h0.8v1h-0.8v7.7h2.8v-0.3h0.8h0v-0.2v-0.3v-0.3h0v-0.3
		h0v-0.3v-0.3v-0.3h0v-0.3h0v-0.1h-0.2v-3.2h0.2v-0.2h0v-0.3v-0.3v-0.8h-0.5v0c-0.3,0-0.5-0.2-0.5-0.5l0.5-2l0,0l0-0.1h0v-0.3h4.1
		v-0.1V293v-0.2h0v-0.3h0v-0.1v-0.3v0v-0.2H98v-0.5h2.8v0.5h-0.3v0.2v0v0.3v0.1v0.3v0.2v0.3v0.1h4v0.3h0l0,0.1l0,0l0.5,2
		c0,0.3-0.2,0.5-0.5,0.5h-0.3v0.3h-0.1v0.2h0v0.3h0v0.3h0v0h0.8v0v0.1h0c0,0.2,0.2,0.4,0.4,0.4c0.2,0,0.3-0.1,0.3-0.2
		c0,0,0-0.1,0-0.1c0-0.1,0.1-0.2,0.2-0.2c0.1,0,0.2,0.1,0.2,0.2c0,0.1,0,0.2-0.1,0.2c-0.1,0.2-0.3,0.4-0.6,0.4
		c-0.3,0-0.5-0.2-0.6-0.5h-0.6v0h0v0.3h0v0.3h0v0.3h0v0.2h0v0.3h0v0.3h0v0.3h0v0.3h0v0.3h0v0.9h0v0.3h0v0.3h0v0.3h0v0.3h0v0.3h0v0.3
		h0v0.3h0v0.2h0.8v0.3h2.4v-7v-0.3h-0.5V296h0.5v-3.8h-0.5v-0.3v-0.1v-0.3h0.5v-3.2v-0.3H107v-0.4h-0.4h0l0.5-0.6
		c-0.1,0-0.1-0.1-0.1-0.2c0-0.1,0.1-0.2,0.2-0.2c0.1,0,0.1,0.1,0.2,0.1h1.5c0-0.1,0.1-0.1,0.2-0.1c0.1,0,0.1,0.1,0.2,0.1h1.5
		c0-0.1,0.1-0.1,0.2-0.1c0.1,0,0.1,0.1,0.2,0.1h1.5c0-0.1,0.1-0.1,0.2-0.1c0.1,0,0.1,0.1,0.2,0.1h1.5c0-0.1,0.1-0.1,0.2-0.1
		c0.1,0,0.1,0.1,0.2,0.1h1.5c0-0.1,0.1-0.1,0.2-0.1c0.1,0,0.1,0.1,0.2,0.1h1.5c0-0.1,0.1-0.1,0.2-0.1c0.1,0,0.1,0.1,0.2,0.1h1.5
		c0-0.1,0.1-0.1,0.2-0.1c0.1,0,0.1,0.1,0.2,0.1h1.5c0-0.1,0.1-0.1,0.2-0.1c0.1,0,0.1,0.1,0.2,0.1h1.5c0-0.1,0.1-0.1,0.2-0.1
		c0.1,0,0.1,0.1,0.2,0.1h1.5c0-0.1,0.1-0.1,0.2-0.1c0.1,0,0.1,0.1,0.2,0.1h1.2v-3v-0.3h0.1l-0.1,0v0l-1.8-0.6v-0.4v-0.5h-0.5v-0.5h0
		l0.5-0.2c0,0,0-0.1,0-0.1c0-0.2,0.1-0.3,0.3-0.3c0.1,0,0.3,0.1,0.3,0.2l1.5-0.6c0,0,0-0.1,0-0.1c0-0.2,0.2-0.3,0.3-0.3
		c0.1,0,0.3,0.1,0.3,0.2l1.4-0.6c0,0,0-0.1,0-0.1c0-0.2,0.1-0.3,0.3-0.3c0.1,0,0.2,0.1,0.3,0.2l1.3-0.5c0,0,0-0.1,0-0.1
		c0-0.2,0.2-0.3,0.3-0.3c0.1,0,0.2,0.1,0.3,0.2l1.3-0.5c0,0,0,0,0,0c0-0.2,0.1-0.3,0.3-0.3c0.2,0,0.3,0.2,0.3,0.3c0,0,0,0,0,0
		l1.3,0.5c0-0.1,0.2-0.2,0.3-0.2c0.2,0,0.3,0.2,0.3,0.3c0,0,0,0.1,0,0.1l1.3,0.5c0.1-0.1,0.2-0.2,0.3-0.2c0.2,0,0.3,0.2,0.3,0.3
		c0,0,0,0.1,0,0.1l1.3,0.5c0.1-0.1,0.2-0.2,0.3-0.2c0.2,0,0.3,0.2,0.3,0.3c0,0,0,0.1,0,0.1l1.5,0.6c0.1-0.1,0.2-0.2,0.3-0.2
		c0.2,0,0.3,0.2,0.3,0.3c0,0,0,0.1,0,0.1l0.7,0.3v0.5h-0.5v0.5v0.4l-1.8,0.6h0.1v0.3v7.2h0h0.6v0.6h-0.4v0.4h-0.3v0.3v1l3.9,3.9l0,0
		v0l0,0l0,0v0.5h-0.8h0h-0.7h-0.8h-0.8h-0.8v3.9h0.2v0.6h-0.2v0.3h0.2v0.6h-0.2v0.3h0.2v0.5h1.2v-0.1h0.3v-0.4h-0.3l-0.4-0.9h0.4
		l0.1-0.3l0.6,0.3h0l-0.9-0.4l0.3-0.6l-0.3-0.1l0.3-0.6l-0.3-0.1l0.3-0.6l-0.3-0.1l0.3-0.6l1.1,0.5l-0.3,0.6l0.3,0.1l-0.3,0.6
		l0.3,0.1l-0.3,0.6l0.3,0.1l-0.2,0.5h0.5l-0.4,0.9h-0.3v0.4h0.3v0.1h4.4v-2.1h0.1v-3.9h-0.2c0,0,0,0,0,0v-1.9c0,0,0,0,0,0h0.7
		c0,0,0,0,0,0v1.9c0,0,0,0,0,0h-0.2v3.9h0.1v2.1h0.3h0.4v1.2h-0.4H-1.8l-16.6,3.2v-4.3H-1.8z"/>
	<path class="st1" d="M350.1,303.7h-1v1.2h209.1v0h11.5v0h10v-1.2h-3v-0.2h0.2v-9h0.3v-0.3h0.5v-0.6H577v-0.2h0.5v-0.6H577v-0.2h0.5
		V292H577v-0.2h0.5v-0.6H577v-0.2h0.5v-0.6H577v-0.2v-0.1v-3.5v-0.4V286V286h0.5v-0.6H577v-0.2h0.5v-0.6H577v-0.2h0.5v-0.6H577v-0.2
		h0.5v-0.6H577v-0.2h0.5V282H577v-0.2h0.5v-0.6H577V281h0.5v-0.6H577v-0.2h0.5v-0.6H577v-0.2h0.5v-0.6H577v-0.2h0.5v-0.6H577v-0.2
		h0.5v-0.6H577v-0.2h0.5v-0.6H577V276h0.5v-0.6H577v-0.2h0.5v-0.6H577v-0.2h0.5v-0.6h-2v-0.8h-1.8v-1.1h-0.4v-0.3h-1.4v0.3h-1v1.1
		h-1.2v-1.1h-0.4v-0.3h-1.4v0.3h-1v1.1h-1.3v-0.4h-2.7v0.4h-3.6v-1h1v-0.3v0v-2.2h-2.9v2.2v0v0.3h1v0.3h-3v-0.3h1v-0.3v0v-2.2h-2.9
		v2.2v0v0.3h1v0.3h-1.7v-0.7h-1v1.4h-1.3v0.8h-1.9v0.6h0.5v0.2h-0.5v0.6h0.5v0.2h-0.5v0.6h0.5v0.2h-0.5h0v0.6h0h0.5v0.2h-0.5v0.6
		h0.5v0v0.2v0.4v3.5v0.1v0.2h-0.5v0.6h0.5v0.2h-0.5v0.6h0.5v0.2h-0.5h0v0.6h0h0.5v0.2h-0.5v0.6h0.5v0.2h-0.5v0.6h0.5v0.2h-0.5v0.6
		h0.5v0.2h-0.5v0.6h0.5v0.2h-0.5v0.6h0.5v0.2h-0.5v0.6h0.5v0.2h-0.5v0.6h0.5v0.2h-0.5v0.6h0.5v0.2h-0.5v0.6h0.5v0.2h-0.5v0.6h0.5
		v0.2h-0.5v0.6h0.5v0.2h-0.5v0.6h0.5v0.3h0.4v9h0.1h0v0.2h-99.1v-5h0v-0.4h0h-0.8v-4.4v-0.6v-0.9v-1.6v-0.1v-0.6v-0.7h0.8v-3.6v-0.4
		h-0.8v-3.6v-0.6v-0.9v-1.6v-1.2V277v-0.6h0.8v-2.2v-0.4h-1V273h-2.6v-1.6h-0.5V271h-2v0.4h-1.4v1.6h-1.7v-1.6h-0.5V271h-2v0.4h-1.4
		v1.6h-4v-0.9l0.3-0.3v0.2h0.2v-0.3h0.2v0.3h0.2v-0.3h0.2v-0.2h-0.2v-0.3h-0.2v0.3H434v-0.3h-0.2v0.3h0v0l-0.4,0.4l-0.4-0.4v-0.3
		h-0.2v0.3h-0.2v-0.3h-0.2v0.3h-0.2v0.2h0.2v0.3h0.2v-0.3h0.2v0.3h0.2v-0.2l0.3,0.3v0.9h-18.9v0.8h-0.9v0.4v2.2h0.7v0.6v0.4v0.3v0.3
		v7.5h-0.7v0.4v3.6h0.7v0.5v0.1v0.6v7.6h-0.7h0v5.4h-35.4v-0.3H378v-0.9v-0.1v-0.1h0V302v0v-0.9c0,0,0,0,0,0c0.2,0,0.4-0.2,0.4-0.4
		H378v0h0.7c0.1,0,0.1,0,0.1-0.1c0,0-0.1-0.1-0.1-0.1H378h0V300c0.1,0,0.1-0.1,0.1-0.1c0-0.1-0.1-0.1-0.1-0.1v-0.4
		c0.1,0,0.1-0.1,0.1-0.1c0-0.1-0.1-0.1-0.1-0.1v-0.8v0v-0.2h0.5v-0.2h0.3v-0.1l-0.1-0.3v-0.1l-0.2-0.2V297l-0.2-0.2v-0.1h0l-0.1-0.2
		v-0.1v-0.2h-2.5v-0.2h0.2c0.1,0,0.1,0,0.1-0.1V295c0-0.1,0-0.1-0.1-0.1h-2.6c-0.1,0-0.1,0-0.1,0.1v0.8c0,0.1,0,0.1,0.1,0.1h0.3v0.2
		h-2.5v0.2h0v0.1l-0.1,0.2h0v0.1l-0.2,0.2v0.1l-0.2,0.2v0.1l-0.1,0.3h0v0.1h0.3v0.2h0.5v0.2h0v0.8c-0.1,0-0.1,0.1-0.1,0.1
		c0,0.1,0.1,0.1,0.1,0.1v0.4c-0.1,0-0.1,0.1-0.1,0.1c0,0.1,0.1,0.1,0.1,0.1v0.5h-0.7c0,0-0.1,0-0.1,0.1c0,0.1,0,0.1,0.1,0.1h0.7v0
		h-0.5c0,0.2,0.2,0.4,0.4,0.4c0,0,0.1,0,0.1,0v0.9v0v0.3v0.1v0.1v0.9h-0.1v0.3h-2.6V301v-2.4v-2.3h1.3V295v0v-2.2v-0.3v-2.4v-0.1
		v-0.1v-2.2v-0.3v-0.4v0v-2.2v-0.3V282v-0.1v-0.1v-2.2v-0.7v0v-2.4V276h0.6v-0.5H370v-1.8v0h-0.4v0h-1.5v-0.8l0.4,0.2l0.1-0.4l0.4,0
		l-0.1-0.4l0.4-0.1l-0.2-0.3l0.3-0.3l-0.3-0.2l0.1-0.4l-0.4,0l0-0.4l-0.4,0.1l-0.2-0.4l-0.3,0.2l-0.3-0.2l-0.2,0.4l-0.4-0.1v0.4
		l-0.4,0l0.2,0.4l-0.4,0.2l0.3,0.3l-0.2,0.3l0.4,0.1l-0.1,0.4l0.4,0l0.1,0.4l0.4-0.2v0.8h-1.2v0h-0.4v0H365v-0.8l0.4,0.2l0.1-0.4
		l0.4,0l-0.1-0.4l0.4-0.1l-0.2-0.3l0.3-0.3l-0.3-0.2l0.2-0.4l-0.4,0v-0.4l-0.4,0.1l-0.2-0.4l-0.3,0.2l-0.3-0.2l-0.2,0.4l-0.4-0.1
		l0,0.4l-0.4,0l0.2,0.4l-0.3,0.2l0.3,0.3l-0.2,0.3l0.4,0.1l-0.1,0.4l0.4,0l0.1,0.4l0.3-0.2v0.8H363v0h-0.4v0h-3.1v0v-1.3H359v-0.8
		l0.5-0.3v-0.4h-6.3v0.4l0.5,0.3v3.9h-0.6v0.5h0.6v0.5v2.4v0v0.7v7.3v0v0.4v0.3v7.4v0v1.2h1.3v7.5h-4.4v-2h-0.1v-3.9h0.2
		c0,0,0,0,0,0v-1.9c0,0,0,0,0,0H350c0,0,0,0,0,0v1.9c0,0,0,0,0,0h0.2v3.9h-0.1V303.7z M375.4,296.2h-1.5v-0.2h1.5V296.2z
		 M554.5,272.6v0.3h-1.7v-0.3H554.5z M558.4,272.9h-3v-0.3h3V272.9z"/>
	<path class="st1" d="M166,303.7h-1.2v1.2h168v-1.2h-1v-2.1h-0.1v-3.9h0.2c0,0,0,0,0,0v-1.9c0,0,0,0,0,0h-0.7c0,0,0,0,0,0v1.9
		c0,0,0,0,0,0h0.2v3.9h-0.1v2.1h-3.8v-1.6v-0.4h-0.5v-8.9h0.3v-0.6h-0.3v-3.4h1v-0.6h-0.5v-4.7h-0.5v-2.4h0.3v-0.6h-1.8v-1.2h0.5v-1
		h-2v1h0.5v1.2h-2v-1.2h0.5v-1h-2v1h0.5v1.2h-7.4v-0.4h1.4c0.7,0,1.3-0.6,1.3-1.3c0-0.7-0.6-1.3-1.3-1.3h-5.5
		c-0.7,0-1.3,0.6-1.3,1.3c0,0.7,0.6,1.3,1.3,1.3h1.5v0.4h-3v0.6h0.3v2.4h-0.5v4.7H308v0.6v0h1v3.4h-0.3v0.6h0.3v2.2h-0.5v4.6h-0.5
		v0.6h1v1.5h-0.4v0.4v1.6h-2.7v-10.4v-1.2h1.4v-0.8h-0.2V291h0.2v-0.8h-0.2v-0.4h0.2v-0.8h-3.8v-2h-0.3v2h-1v-1.2h-0.3v1.2H294v-4.6
		v-0.3v-5v-0.3v-5v-0.2v-0.2h0.4v-0.9h-11.3v0.9h0.5v0.2v0.2v5h-8.8v-2.6h-0.3v2.6h-3.6v0.9h0.4v0.5h-0.3v0.5h0.3v0.6h-0.3v0.5h0.3
		v1.6h-0.3v0.5h0.3v0.5h-0.3v0.5h0.3v1.6h-0.3v0.5h0.3v0.5h-0.3v0.5h0.3v1.6H271v0.5h0.3v2.7h-0.3v0.5h0.3v1.6h-0.3v0.5h0.3v3.7
		h-0.3v0.5h0.3v1.6h-0.3v0.5h0.3v0.8h-0.3v1h-2.6v-12.7h0.4v-0.9h-0.4v-10.4h0.4v-0.9h-3v-2.6h-9.2v2.6h-0.8h-2.6H253v-1.5v-0.5h2.2
		v-0.3v-0.3H251V276h-0.8v-0.7l0.4-0.6h0l0.4-0.4l0-0.1v0.1l0.8-0.6l4.1-0.7l0.2,0.2l0.2-0.2l0,0l0.2-0.2l0.4-0.1l0.6,0.9h0.8v-1.1
		l0.6-0.1v-0.3h-0.6l0.8-2l0-0.1h-1v0.2l-0.8,0.8c-0.1,0-0.2,0-0.2,0c-0.4,0-0.8,0.3-0.9,0.8h-4.9l-0.7-1.3h-1.5v-0.4h0.5v-0.1h6.4
		h0h1v-0.3h-1h0h-6.8v-0.2h-0.6v0.2h-6.8v0.3h6.3v0.1h0.5v0.4h-1.4l-0.1,0.3h-0.5v0.4h-0.4h-0.2h-0.8h-0.2h-0.2v0
		c-0.2,0-0.5,0.1-0.8,0.4c0,0-0.1,0.1-0.1,0.1c-0.1,0.1-0.2,0.1-0.3,0.2l-1.5,1.5c0,0,0,0-0.1,0.1c-0.2,0.2-0.6,0.6-0.6,1.1
		c0,0.1,0.1,0.3,0.2,0.4c0,0,0,0,0,0c0,0,0,0,0,0c0,0,0,0,0,0h0c0,0,0,0,0.1,0c0,0,0.1,0,0.1,0c0,0,0.1,0,0.1,0
		c0.2,0.1,0.4,0.1,0.7,0.2v0.2c-0.2,0-0.3,0.1-0.3,0.3c0,0.2,0.1,0.3,0.3,0.3c0.2,0,0.3-0.1,0.3-0.3h0.5v-0.4c0.2,0,0.4,0,0.6,0
		c0.3,0,1.3,0,1.9,0v0c0.2,0,0.4,0,0.5,0v0.7h-2.6v0.3h-3.7v0.3v0.3h2.1v0.5v1.5h-3.4v0.9h0.4v10.4h-0.4v0.9h0.4v12.2h-0.4v0.5h-1.9
		v-0.9v0v-0.3v-1v-0.3v-1v-0.3v-1.1v-0.3v-1v-0.3v-1v0v-0.3l0.4,0v-0.3h-0.4v-0.7v-0.5v-0.5h0.1v-0.5h-0.1v-0.5h0.1v-0.5h-0.1v-0.5
		h0.1v-0.5h-0.1v-0.5h0.1v-0.5h-0.1v-0.4v-0.5v-0.6h0.1v-0.5h-0.1v-0.5h0.1v-0.5h-0.1v-0.6h0.1v-0.5h-0.1v-0.4h0.1v-0.5h-0.1v-0.5
		h0.1v-0.5h-0.1v-0.5h0.1v-0.5h-0.1v-0.5h0.1v-0.5h-0.1v-0.5h0.1v-0.4h0.2V281v0v-0.9v-0.3v-0.3h-0.2v-0.3h-0.2v-0.3v-0.3v-1.3v-0.3
		v0h0.3v-0.3h-0.4l-1.2-0.8l-1.2,0.8h-0.4v0.3h0.3v0v0.3v1.1h-7V275v-0.3v0h0.3v-0.3h-0.4l-1.2-0.8l-1.2,0.8h-0.4v0.3h0.3v0v0.3v1.3
		h-2.6V276h-2v0.3h-2.4V275v-0.3v0h0.3v-0.3h-0.4l-1.2-0.8l-1.2,0.8h-0.4v0.3h0.3v0v0.3v3.4h-7v-1.1v-0.3v0h0.3v-0.3h-0.4l-1.2-0.8
		l-1.2,0.8h-0.4v0.3h0.3v0v0.3v1.1h-0.1v0.5h0.1v0.6h-0.3v0.3v0.3v0.9v0v0.3h0.2v0.3h0.1v0v1.5h-0.1v0.5h0.1v0.5h-0.1v0.5h0.1v0.5
		h-0.1v0.5h0.1v0.6h-0.1v0.5h0.1v0.5h-0.1v0.5h0.1v0.5h-0.1v0.5h0.1v0.5h-0.1v0.5h0.1v0.5h-0.1v0.5h0.1v0.5h-0.1v0.5h0.1v0.5h-0.1
		v0.5h0.1v0.5h-0.1v0.5h0.1v0.4h-0.1v0.5h0.1v0.8H205v0.3l0.3,0v0.3h0.3v0h-0.3v1v0.3v1v0.3v1.1v0.3v1v0.3v1v0.3v0v0.9h-2.7v-0.2
		h0.1v-0.8l0,0l0,0v-1h0.5v-0.2h-0.5h0l-0.3-0.3v-0.8l0.2-0.1v-0.6l-0.2-0.1v-0.8l0.2-0.1v-0.6l-0.2-0.1v-0.8l0.2-0.1v-0.6l-0.2-0.1
		v-0.8l0.2-0.1v-0.6l-0.2-0.1v-0.8l0.2-0.1v-0.6l-0.2-0.1v-0.4v-0.3v-0.3h0.4v-0.3h-0.4v-15.1v0v-0.2v-0.6v-0.2v-0.2h0.4v-0.4h-0.4
		v-0.7v-0.4h0.4V274h-0.9c-0.2-2.1-2-3.8-4.2-3.8v-0.8h0.5v0c0.3,0,0.5-0.3,0.5-0.5c0-0.3-0.2-0.5-0.5-0.5c-0.3,0-0.5,0.2-0.5,0.5
		h-2.3c0-0.3-0.2-0.5-0.5-0.5s-0.5,0.2-0.5,0.5h-2.4c0-0.3-0.2-0.5-0.5-0.5c-0.3,0-0.5,0.2-0.5,0.5c0,0.3,0.2,0.5,0.5,0.5h0.5v0.8
		h-1.6v-0.4h-0.6v-1h0.2l-0.2-0.6h-0.4l-0.2,0.6h0.2v1h-1v-0.6h0.2l-0.2-0.6h-0.4l-0.2,0.6h0.2v0.6h-0.6v0.4h-15.2v-0.4h-0.3h-1.1
		H170v0.4h0.3v3.8h-0.6v0.4h0.2l0,1.1h-0.3v0.4v0.4v0.4h16v0h-0.8h-0.6h-0.6h-0.7h-0.6h-0.6h-0.6h-0.6h-0.6h-0.7h-1.4h-0.6h-0.6
		h-0.6h-0.6h-0.7h-0.6h-0.6h-0.6h-0.7H171h0h-0.8v0.7v0.7h0.3v0.8h-0.4v0.4c-0.3,0-0.5,0.2-0.5,0.5c0,0.3,0.2,0.5,0.5,0.5
		c0,0,0.1,0,0.1,0v0.1v9.1v0.3c-0.1,0-0.2,0-0.3,0.1v2v0.3v0v0.3v0.3v0.3v0.4v0v8.2v0.4v0.4v0v1.2h-3.4v-2h-0.1v-3.9h0.2
		c0,0,0,0,0,0v-1.9c0,0,0,0,0,0h-0.7c0,0,0,0,0,0v1.9c0,0,0,0,0,0h0.2v3.9H166V303.7z M249.9,276h-3.3v-0.7c1.6,0,3.3,0,3.3,0
		c0,0,0,0,0,0V276z M202.4,301.5L202.4,301.5l0,0.2l0,0V301.5z"/>
	<rect x="240.6" y="269.8" class="st1" width="1" height="0.3"/>
	
		<rect x="142.1" y="298.4" transform="matrix(0.4267 -0.9044 0.9044 0.4267 -188.7147 300.2606)" class="st1" width="0.7" height="1.2"/>
	<path class="st1" d="M106.1,298.9C106.1,298.9,106.1,298.9,106.1,298.9l-0.3,0.3c0,0,0,0,0,0l-0.2,0.4c0,0,0,0,0,0l-0.3,0.6
		l-0.7-1.3c0,0,0,0-0.1,0c-0.1,0-0.1-0.1-0.1-0.1c0,0,0-0.1,0-0.1c0.2-0.2,0.6-0.4,0.9-0.4c0.4,0,0.7,0.1,0.9,0.4c0,0.1,0,0.1,0,0.1
		C106.3,298.9,106.2,298.9,106.1,298.9z"/>
	<polygon class="st1" points="459.5,293.6 459.4,293.6 459.4,293.3 459.2,293.3 459.2,293.6 459,293.6 459,293.4 458.7,293.7 
		458.7,295.1 458.5,295.1 458.5,295 457.1,295 457.1,294.6 458.5,294.6 458.5,293.6 458.2,293.3 458.2,293.6 458.1,293.6 
		458.1,293.3 457.8,293.3 457.8,293.6 457.7,293.6 457.7,293.3 457.5,293.3 457.5,293.1 457.7,293.1 457.7,292.8 457.8,292.8 
		457.8,293.1 458.1,293.1 458.1,292.8 458.2,292.8 458.2,293.1 458.6,293.5 459,293.1 459,292.8 459.2,292.8 459.2,293.1 
		459.4,293.1 459.4,292.8 459.5,292.8 459.5,293.1 459.7,293.1 459.7,293.3 459.5,293.3 	"/>
</g>
<g>
	<polygon class="st1" points="822.8,278.2 822.6,278.4 822.6,278.4 822.6,278.4 822.8,278.2 	"/>
	<path class="st1" d="M826.6,276.2L826.6,276.2c-0.2-0.2-0.4-0.5-0.6-0.9C826.1,275.7,826.3,275.9,826.6,276.2
		C826.6,276.2,826.6,276.2,826.6,276.2z"/>
	<path class="st1" d="M827.5,280.7h-0.1v-2.8v-0.8v-0.1h0c-0.1-0.2-0.4-0.4-0.8-0.4c-0.2,0-0.4,0-0.5,0.1l-1.1-0.2l-1.8-0.4
		c0,0,0,0,0,0l-0.6-0.1v-0.9c0,0,0,0.1,0,0.1c0,0,0-0.1,0-0.1v-0.4h0.2v-0.7h-0.4v0.7h0.2v1.3l-1.3,1.6h-1.2c-0.1,0-0.2,0-0.2,0.1
		v0.1c0,0,0,0,0.1,0.1h-0.3h-0.2v0.2l0,0v0.2h-0.2l0,0l-1.8-1l-1.2,1.6h-0.6v0.3h-0.2v0.9l0,0.1H815v0.6h0.1v0.4h0v23.6h-27.6v-1
		h0.2v-1h-0.2v-0.5h0.2v-1h-0.2v-0.5h0.2v-1h-0.2v-0.5h0.2v-1h-0.2v-0.5h0.2v-1h-0.2v-0.5h0.2v-1h-0.2v-0.5h0.2v-1h-0.2v-0.5h0.1v-1
		h-0.2v-0.6h-0.1v-0.3h-6.9v-4.3l-1.5-1.5h-1v-0.5l-0.1-0.2v0.6h-0.1v-0.5l-0.1-0.2v0.6h-0.1v-0.5l-0.1-0.2v0.6h-1.2
		c-0.1-0.5-0.5-0.8-0.9-0.8c-0.4,0-0.8,0.3-0.9,0.8h-0.9v11.7h-1.1V297h0.8v-1.2h-3.1v1.2h0.5v0.1H770V296h-4.4v1.1h-0.1v-1.4h-2.6
		v1.4h-0.7V297h0.3v-1.6h-3.1v1.6h0.3v0.1h-0.5v0.3h-0.5h-0.2v-0.2h0.2h0.3v-0.2h0V296h-3.5v1.1h-0.4v0.3h-0.1v7.4H-533.3v4.3
		l1348.4-3.2h12.4h3.5v-1.2h-3.5V280.7z M823.2,278c0.1,0,0.2,0.1,0.2,0.2c0,0.1-0.1,0.2-0.2,0.2c-0.1,0-0.2-0.1-0.2-0.2
		C822.9,278.1,823,278,823.2,278z M763.6,297.4v-0.3h0.5v0.3H763.6z M764.5,297.4h-0.5v-0.3h0.5V297.4z M764.6,297.4v-0.3h0.5v0.3
		H764.6z M765.1,297.4v-0.3h0.2v0.3H765.1z M774.2,297.4v-0.3h0.5v0.3H774.2z M774.7,297.4v-0.3h0.5v0.3H774.7z M775.2,297.4v-0.3
		h0.5v0.3H775.2z M775.8,297.4v-0.3h0.1v0.3H775.8z M790.3,291.2h0.5v0.3h-0.5V291.2z M789.8,291.2h0.5v0.3h-0.5V291.2z
		 M789.3,291.2h0.5v0.3h-0.5V291.2z M788.3,291.2h0.5h0.5v0.3h-0.5h-0.5V291.2z M787.8,291.2h0.5v0.3h-0.5V291.2z M787.2,291.2h0.5
		v0.3h-0.5V291.2z M786.7,291.2h0.5v0.3h-0.5V291.2z M786.2,291.2h0.5v0.3h-0.5V291.2z M785.7,291.2h0.5v0.3h-0.5V291.2z
		 M785.2,291.2h0.5v0.3h-0.5V291.2z M784.7,291.2h0.5v0.3h-0.5V291.2z M784.2,291.2h0.5v0.3h-0.5V291.2z M783.9,291.2h0.3v0.3h-0.3
		V291.2z M776.8,297.1h0.3v0.3h-0.3V297.1z M776.3,297.1h0.5v0.3h-0.5V297.1z M776,297.1h0.3v0.3H776V297.1z M774.2,297h1.7v0.1
		L774.2,297L774.2,297z M774.2,297.1L774.2,297.1l0,0.3h0V297.1z M773.7,297.1h0.3v0.3h-0.3V297.1z M773.2,297.2L773.2,297.2
		l0.1-0.1h0.4v0.3h-0.5V297.2z M773,297.2h0.2v0.2H773V297.2z M772.7,297.2h0.2v0.2h-0.2V297.2z M772.2,297.2h0.5v0.2h-0.5V297.2z
		 M771.7,297.2h0.5v0.2h-0.5V297.2z M771.2,297.2h0.5v0.2h-0.5V297.2z M770.7,297.2h0.5v0.2h-0.5V297.2z M770.2,297.2h0.5v0.2h-0.5
		V297.2z M769.7,297.2h0.5v0.2h-0.5V297.2z M769.4,297.2h0.2v0.2h-0.2V297.2z M769.2,297.2h0.2v0.2h-0.2V297.2z M768.6,297.2
		L768.6,297.2L768.6,297.2l0.2-0.1v0.1h0.3v0.2h-0.5V297.2z M768.2,297.2h0.4v0.2h-0.4V297.2z M767.6,297.2h0.5v0.2h-0.5V297.2z
		 M767.1,297.2h0.5v0.2h-0.5V297.2z M766.6,297.2h0.5v0.2h-0.5V297.2z M766.1,297.2h0.4v0.2h-0.4V297.2z M765.6,297.1h0.5v0.3h-0.5
		V297.1z M765.4,297.1h0.2v0.3h-0.2V297.1z M763.1,297h2.2v0.1L763.1,297L763.1,297z M763.1,297.1h0.5v0.3h-0.5V297.1z M762.6,297.1
		h0.4v0.3h-0.4V297.1z M761.5,297.2h0.2v0.2h-0.2V297.2z M761,297.2h0.5v0.2H761V297.2z M760.5,297.2h0.5v0.2h-0.5V297.2z
		 M760,297.2h0.5v0.2H760V297.2z M759.5,297.2h0.5v0.2h-0.5V297.2z M759.2,297.2h0.2v0.2h-0.2V297.2z M759,297.2h0.1v0.2H759V297.2z
		 M758.5,297.1h0.4v0.2h0.1v0.2h-0.5V297.1z"/>
	<path class="st1" d="M1427.7,304.8h-3.4v-0.9h-0.6v-0.6v0h0.2v-0.6h-0.2v-0.6h0.2v-0.6h-0.2v-0.6h0.2v-0.6h-0.2v-0.6h0.2v-0.6h-0.2
		v-0.6h0.2V298h-0.2v-0.6h0.2v-0.6h-0.2v-0.6h0.2v-0.6h-0.2V295h0.2v-0.6h-0.2v-0.6h0.2v-0.6h-0.2v-0.6v0v-0.6v0h0.6v-0.7h-0.6v-0.6
		h0.2v-0.6h-0.2v-0.6v0h0.2v-0.6h-0.2v-0.6v0h0.2v-0.6h-0.2v-0.6v0h0.2v-0.6h-0.2v-0.6v0h0.2v-0.6h-0.2V285v0h0.2v-0.6h-0.2v-0.6v0
		h0.2v-0.6h-0.2v-0.6v0h0.2V282h-0.2v-0.6h0.2v-0.6h-0.2v-0.6v0v-0.6h0.6v-1v-0.2V278h0.6v-0.7h-1.6l-1.4-1.4v0v-2.7h0.5v-0.6h-0.6
		c0,0,0,0,0,0c0-1.5-1.1-2.8-2.5-3.2h0V268h0.2v-0.6h-0.2c0-0.4-0.3-0.7-0.6-0.7v-2.6h-0.3v2.7c-0.3,0.1-0.6,0.4-0.6,0.7h-0.3v0.6
		h0.3v1.4h0c-1.4,0.3-2.5,1.6-2.5,3.2c0,0,0,0,0,0h-0.5v0.6h0.5v2.7l-1.4,1.4h-1.6v0.7h0.7v0.4v0.2v1h-8.1c0,0,0,0,0,0h1.1V279h-1.1
		c0-0.3,0-0.5,0-0.8c0-1.7-1.4-3.2-3.2-3.2h-2.1c-0.3-2.8-2.7-4.9-5.6-4.9c-2.9,0-5.2,2.1-5.6,4.9h-1.8c-1.7,0-3.2,1.4-3.2,3.2
		c0,0.3,0,0.5,0,0.8h-1.3v0.7h1.3c0,0,0,0,0,0h-0.6h-0.6h-1.8h-0.6h-5.1v-0.3h-1.3v-0.7v-0.2V278h0.6v-0.7h-1.6l-1.4-1.4v0v-2.7h0.5
		v-0.6h-0.6c0,0,0,0,0,0c0-1.5-1.1-2.8-2.5-3.2h0V268h0.2v-0.6h-0.2c0-0.4-0.3-0.7-0.6-0.7v-2.6h-0.3v2.7c-0.3,0.1-0.6,0.4-0.6,0.7
		h-0.3v0.6h0.3v1.4h0c-1.4,0.3-2.5,1.6-2.5,3.2c0,0,0,0,0,0h-0.5v0.6h0.5v2.7l-1.4,1.4h-1.6v0.7h0.7v0.4v0.2v1h0.5v0.6v0.6h-0.2v0.6
		h0.2v0.6h-0.2v0.6h0.2v0.6h-0.2v0.6h0.2v0.6h-0.2v0.6h0.2v0.6h-0.2v0.6h0.2v0.6h-0.2v0.6h0.2v0.6h-0.2v0.6h0.2v0.6h-0.2v0.6h0.2
		v0.6h-0.2v0.6h0.2v0.6h-0.5v0.7h2.3v0h-1.8v0.6v0.6h-0.2v0.6h0.2v0.6h-0.2v0.6h0.2v0.6h-0.2v0.6h0.2v0.6h-0.2v0.6h0.2v0.6h-0.2v0.6
		h0.2v0.6h-0.2v0.6h0.2v0.6h-0.2v0.6h0.2v0.6h-0.2v0.6h0.2v0.6h-0.2v0.6h0.2v0.6h-0.4v0.9h-2.3V297h0.8v-1h-0.8v0h0.8v-0.3l-0.6-1.4
		h0v-0.7v0v-1.9h-25.8v1.9v0v0.7h0l-0.5,1.4h-0.1v0.3h0.8v0h-0.8v1h0.8v7.7h-2.8v-0.3h-0.8h0v-0.2V304v-0.3h0v-0.3h0v-0.3v-0.3v-0.3
		h0v-0.3h0v-0.1h0.2v-3.2h-0.2v-0.2h0v-0.3v-0.3v-0.8h0.5v0c0.3,0,0.5-0.2,0.5-0.5l-0.5-2l0,0l0-0.1h0v-0.3h-4.1v-0.1V294v-0.2h0
		v-0.3h0v-0.1v-0.3v0V293h0.3v-0.5h-2.8v0.5h0.3v0.2v0v0.3v0.1v0.3v0.2v0.3v0.1h-4v0.3h0l0,0.1l0,0l-0.5,2c0,0.3,0.2,0.5,0.5,0.5
		h0.3v0.3h0.1v0.2h0v0.3h0v0.3h0v0h-0.8v0v0.1h0c0,0.2-0.2,0.4-0.4,0.4c-0.2,0-0.3-0.1-0.3-0.2c0,0,0-0.1,0-0.1
		c0-0.1-0.1-0.2-0.2-0.2c-0.1,0-0.2,0.1-0.2,0.2c0,0.1,0,0.2,0.1,0.2c0.1,0.2,0.3,0.4,0.6,0.4c0.3,0,0.5-0.2,0.6-0.5h0.6v0h0v0.3h0
		v0.3h0v0.3h0v0.2h0v0.3h0v0.3h0v0.3h0v0.3h0v0.3h0v0.9h0v0.3h0v0.3h0v0.3h0v0.3h0v0.3h0v0.3h0v0.3h0v0.2h-0.8v0.3h-2.4v-7v-0.3h0.5
		V297h-0.5v-3.8h0.5v-0.3v-0.1v-0.3h-0.5v-3.2V289h0.3v-0.4h0.4h0l-0.5-0.6c0.1,0,0.1-0.1,0.1-0.2c0-0.1-0.1-0.2-0.2-0.2
		c-0.1,0-0.1,0.1-0.2,0.1h-1.5c0-0.1-0.1-0.1-0.2-0.1c-0.1,0-0.1,0.1-0.2,0.1h-1.5c0-0.1-0.1-0.1-0.2-0.1c-0.1,0-0.1,0.1-0.2,0.1
		h-1.5c0-0.1-0.1-0.1-0.2-0.1c-0.1,0-0.1,0.1-0.2,0.1h-1.5c0-0.1-0.1-0.1-0.2-0.1c-0.1,0-0.1,0.1-0.2,0.1h-1.5
		c0-0.1-0.1-0.1-0.2-0.1c-0.1,0-0.1,0.1-0.2,0.1h-1.5c0-0.1-0.1-0.1-0.2-0.1c-0.1,0-0.1,0.1-0.2,0.1h-1.5c0-0.1-0.1-0.1-0.2-0.1
		c-0.1,0-0.1,0.1-0.2,0.1h-1.5c0-0.1-0.1-0.1-0.2-0.1c-0.1,0-0.1,0.1-0.2,0.1h-1.5c0-0.1-0.1-0.1-0.2-0.1c-0.1,0-0.1,0.1-0.2,0.1
		h-1.5c0-0.1-0.1-0.1-0.2-0.1c-0.1,0-0.1,0.1-0.2,0.1h-1.2v-3v-0.3h-0.1l0.1,0v0l1.8-0.6v-0.4V283h0.5v-0.5h0l-0.5-0.2
		c0,0,0-0.1,0-0.1c0-0.2-0.1-0.3-0.3-0.3c-0.1,0-0.3,0.1-0.3,0.2l-1.5-0.6c0,0,0-0.1,0-0.1c0-0.2-0.2-0.3-0.3-0.3
		c-0.1,0-0.3,0.1-0.3,0.2l-1.4-0.6c0,0,0-0.1,0-0.1c0-0.2-0.1-0.3-0.3-0.3c-0.1,0-0.2,0.1-0.3,0.2l-1.3-0.5c0,0,0-0.1,0-0.1
		c0-0.2-0.2-0.3-0.3-0.3c-0.1,0-0.2,0.1-0.3,0.2l-1.3-0.5c0,0,0,0,0,0c0-0.2-0.1-0.3-0.3-0.3c-0.2,0-0.3,0.2-0.3,0.3c0,0,0,0,0,0
		l-1.3,0.5c0-0.1-0.2-0.2-0.3-0.2c-0.2,0-0.3,0.2-0.3,0.3c0,0,0,0.1,0,0.1l-1.3,0.5c-0.1-0.1-0.2-0.2-0.3-0.2
		c-0.2,0-0.3,0.2-0.3,0.3c0,0,0,0.1,0,0.1l-1.3,0.5c-0.1-0.1-0.2-0.2-0.3-0.2c-0.2,0-0.3,0.2-0.3,0.3c0,0,0,0.1,0,0.1l-1.5,0.6
		c-0.1-0.1-0.2-0.2-0.3-0.2c-0.2,0-0.3,0.2-0.3,0.3c0,0,0,0.1,0,0.1l-0.7,0.3v0.5h0.5v0.5v0.4l1.8,0.6h-0.1v0.3v7.2h0h-0.6v0.6h0.4
		v0.4h0.3v0.3v1l-3.9,3.9l0,0v0l0,0l0,0v0.5h0.8h0h0.7h0.8h0.8h0.8v3.9h-0.2v0.6h0.2v0.3h-0.2v0.6h0.2v0.3h-0.2v0.5h-1.2v-0.1h-0.3
		v-0.4h0.3l0.4-0.9h-0.4l-0.1-0.3l-0.6,0.3h0l0.9-0.4l-0.3-0.6l0.3-0.1l-0.3-0.6l0.3-0.1l-0.3-0.6l0.3-0.1l-0.3-0.6l-1.1,0.5
		l0.3,0.6l-0.3,0.1l0.3,0.6l-0.3,0.1l0.3,0.6l-0.3,0.1l0.2,0.5h-0.5l0.4,0.9h0.3v0.4h-0.3v0.1h-4.4v-2.1h-0.1v-3.9h0.2c0,0,0,0,0,0
		v-1.9c0,0,0,0,0,0h-0.7c0,0,0,0,0,0v1.9c0,0,0,0,0,0h0.2v3.9h-0.1v2.1h-0.3h-0.4v1.2h0.4h149.9l16.6,3.2v-4.3H1427.7z"/>
	<path class="st1" d="M1075.8,302.8L1075.8,302.8l-0.1-3.9h0.2c0,0,0,0,0,0V297c0,0,0,0,0,0h-0.7c0,0,0,0,0,0v1.9c0,0,0,0,0,0h0.2
		v3.9h-0.1v2h-4.4v-7.5h1.3V296v0v-7.4v-0.3v-0.4v0v-7.3v-0.7v0v-2.4V277h0.6v-0.5h-0.6v-3.9l0.5-0.3v-0.4h-6.3v0.4l0.5,0.3v0.8
		h-0.4v1.3v0h-3.1v0h-0.4v0h-1.5v-0.8l0.3,0.2l0.1-0.4l0.4,0l-0.1-0.4l0.4-0.1l-0.2-0.3l0.3-0.3l-0.3-0.2l0.2-0.4l-0.4,0l0-0.4
		l-0.4,0.1l-0.2-0.4l-0.3,0.2l-0.3-0.2l-0.2,0.4l-0.4-0.1v0.4l-0.4,0l0.2,0.4l-0.3,0.2l0.3,0.3l-0.2,0.3l0.4,0.1l-0.1,0.4l0.4,0
		l0.1,0.4l0.4-0.2v0.8h-1.1v0h-0.4v0h-1.2v-0.8l0.4,0.2l0.1-0.4l0.4,0l-0.1-0.4l0.4-0.1l-0.2-0.3l0.3-0.3l-0.4-0.2l0.2-0.4l-0.4,0
		v-0.4l-0.4,0.1l-0.2-0.4l-0.3,0.2l-0.3-0.2l-0.2,0.4l-0.4-0.1l0,0.4l-0.4,0l0.1,0.4l-0.3,0.2l0.3,0.3l-0.2,0.3l0.4,0.1l-0.1,0.4
		l0.4,0l0.1,0.4l0.4-0.2v0.8h-1.5v0h-0.4v0v1.8h-0.6v0.5h0.6v0.5v2.4v0v0.7v2.2v0.1v0.1v2.4v0.3v2.2v0v0.4v0.3v2.2v0.1v0.1v2.4v0.3
		v2.2v0v1.2h1.3v2.3v2.4v2.8h-2.6v-0.3h-0.1v-0.9v-0.1v-0.1V303v0v-0.9c0,0,0.1,0,0.1,0c0.2,0,0.4-0.2,0.4-0.4h-0.5v0h0.7
		c0.1,0,0.1,0,0.1-0.1c0,0-0.1-0.1-0.1-0.1h-0.7V301c0.1,0,0.1-0.1,0.1-0.1c0-0.1-0.1-0.1-0.1-0.1v-0.4c0.1,0,0.1-0.1,0.1-0.1
		c0-0.1-0.1-0.1-0.1-0.1v-0.8h0v-0.2h0.5v-0.2h0.3v-0.1h0l-0.1-0.3v-0.1l-0.2-0.2v-0.1l-0.2-0.2v-0.1h0l-0.1-0.2v-0.1h0v-0.2h-2.5
		V297h0.3c0.1,0,0.1,0,0.1-0.1v-0.8c0-0.1,0-0.1-0.1-0.1h-2.6c-0.1,0-0.1,0-0.1,0.1v0.8c0,0.1,0,0.1,0.1,0.1h0.2v0.2h-2.5v0.2v0.1
		l-0.1,0.2h0v0.1l-0.2,0.2v0.1l-0.2,0.2v0.1l-0.1,0.3v0.1h0.3v0.2h0.5v0.2v0v0.8c-0.1,0-0.1,0.1-0.1,0.1c0,0.1,0.1,0.1,0.1,0.1v0.4
		c-0.1,0-0.1,0.1-0.1,0.1c0,0.1,0.1,0.1,0.1,0.1v0.5h0h-0.7c0,0-0.1,0-0.1,0.1c0,0.1,0,0.1,0.1,0.1h0.7v0h-0.5
		c0,0.2,0.2,0.4,0.4,0.4c0,0,0,0,0,0v0.9v0v0.3h0v0.1v0.1v0.9h-0.1v0.3h-35.4v-5.4h0h-0.7v-7.6v-0.6v-0.1v-0.5h0.7v-3.6v-0.4h-0.7
		V279v-0.3v-0.3v-0.4v-0.6h0.7v-2.2v-0.4h-0.9V274h-18.9v-0.9l0.3-0.3v0.2h0.2v-0.3h0.2v0.3h0.2v-0.3h0.2v-0.2h-0.2v-0.3h-0.2v0.3
		H993v-0.3h-0.2v0.3l-0.4,0.4l-0.4-0.4v0h0v-0.3h-0.2v0.3h-0.2v-0.3h-0.2v0.3h-0.2v0.2h0.2v0.3h0.2v-0.3h0.2v0.3h0.2v-0.2l0.3,0.3
		v0.9h-4v-1.6H987v-0.4h-2v0.4h-0.5v1.6h-1.7v-1.6h-1.4v-0.4h-2v0.4h-0.5v1.6h-2.6v0.8h-1v0.4v2.2h0.8v0.6v0.6v1.2v1.6v0.9v0.6v3.6
		h-0.8v0.4v3.6h0.8v0.7v0.6v0.1v1.6v0.9v0.6v4.4h-0.8h0v0.4h0v5h-99.1v-0.2h0h0.1v-9h0.4v-0.3h0.5v-0.6h-0.5v-0.2h0.5v-0.6h-0.5
		v-0.2h0.5V293h-0.5v-0.2h0.5v-0.6h-0.5V292h0.5v-0.6h-0.5v-0.2h0.5v-0.6h-0.5v-0.2h0.5v-0.6h-0.5v-0.2h0.5v-0.6h-0.5v-0.2h0.5V288
		h-0.5v-0.2h0.5v-0.6h-0.5V287h0.5v-0.6h-0.5v-0.2h0.5v-0.6h-0.5v-0.2h0.5h0v-0.6h0h-0.5v-0.2h0.5v-0.6h-0.5v-0.2h0.5v-0.6h-0.5
		v-0.2v-0.1v-3.5v-0.4v-0.2v0h0.5v-0.6h-0.5v-0.2h0.5h0v-0.6h0h-0.5V277h0.5v-0.6h-0.5v-0.2h0.5v-0.6h-0.5v-0.2h0.5v-0.6h-1.9V274
		H874v-1.4h-1v0.7h-1.7v-0.3h1v-0.3v0v-2.2h-2.9v2.2v0v0.3h1v0.3h-3v-0.3h1v-0.3v0v-2.2h-2.9v2.2v0v0.3h1v1H863v-0.4h-2.7v0.4H859
		v-1.1h-1v-0.3h-1.4v0.3h-0.4v1.1H855v-1.1h-1v-0.3h-1.4v0.3h-0.4v1.1h-1.8v0.8h-2v0.6h0.5v0.2h-0.5v0.6h0.5v0.2h-0.5v0.6h0.5v0.2
		h-0.5v0.6h0.5v0.2h-0.5v0.6h0.5v0.2h-0.5v0.6h0.5v0.2h-0.5v0.6h0.5v0.2h-0.5v0.6h0.5v0.2h-0.5v0.6h0.5v0.2h-0.5v0.6h0.5v0.2h-0.5
		v0.6h0.5v0.2h-0.5v0.6h0.5v0.2h-0.5v0.6h0.5v0.2h-0.5v0.6h0.5v0.2h-0.5v0.6h0.5v0.1v0.2v0.4v3.5v0.1v0.2h-0.5v0.6h0.5v0.2h-0.5v0.6
		h0.5v0.2h-0.5v0.6h0.5v0.2h-0.5v0.6h0.5v0.2h-0.5v0.6h0.5v0.3h0.3v9h0.2v0.2h-3v1.2h10v0h11.5v0h209.1v-1.2h-1V302.8z M1050.5,297
		h1.5v0.2h-1.5V297z M873.1,273.6v0.3h-1.7v-0.3H873.1z M867.5,273.6h3v0.3h-3V273.6z"/>
	<path class="st1" d="M1259.9,302.8L1259.9,302.8l-0.1-3.9h0.2c0,0,0,0,0,0V297c0,0,0,0,0,0h-0.7c0,0,0,0,0,0v1.9c0,0,0,0,0,0h0.2
		v3.9h-0.1v2h-3.4v-1.2v0v-0.4v-0.4v-8.2v0v-0.4v-0.3v-0.3v-0.3v0v-0.3v-2c-0.1,0-0.2,0-0.3-0.1v-0.3v-9.1v-0.1c0,0,0.1,0,0.1,0
		c0.3,0,0.5-0.2,0.5-0.5c0-0.3-0.2-0.5-0.5-0.5v-0.4h-0.4v-0.8h0.3v-0.7v-0.7h-0.8h0h-0.6h-0.7h-0.6h-0.6h-0.6h-0.7h-0.6h-0.6h-0.6
		h-0.6h-1.4h-0.7h-0.6h-0.6h-0.6h-0.6h-0.6h-0.7h-0.6h-0.6h-0.8v0h16v-0.4v-0.4v-0.4h-0.3l0-1.1h0.2v-0.4h-0.6v-3.8h0.3v-0.4h-0.3
		h-1.1h-0.3v0.4H1239v-0.4h-0.6v-0.6h0.2l-0.2-0.6h-0.4l-0.2,0.6h0.2v0.6h-1v-1h0.2l-0.2-0.6h-0.4l-0.2,0.6h0.2v1h-0.6v0.4h-1.6
		v-0.8h0.5c0.3,0,0.5-0.2,0.5-0.5c0-0.3-0.2-0.5-0.5-0.5c-0.3,0-0.5,0.2-0.5,0.5h-2.4c0-0.3-0.2-0.5-0.5-0.5s-0.5,0.2-0.5,0.5h-2.3
		c0-0.3-0.2-0.5-0.5-0.5c-0.3,0-0.5,0.2-0.5,0.5c0,0.3,0.2,0.5,0.5,0.5v0h0.5v0.8c-2.2,0-3.9,1.7-4.2,3.8h-0.9v0.4h0.4v0.4v0.7h-0.4
		v0.4h0.4v0.2v0.2v0.6v0.2v0v15.1h-0.4v0.3h0.4v0.3v0.3v0.4l-0.2,0.1v0.6l0.2,0.1v0.8l-0.2,0.1v0.6l0.2,0.1v0.8l-0.2,0.1v0.6
		l0.2,0.1v0.8l-0.2,0.1v0.6l0.2,0.1v0.8l-0.2,0.1v0.6l0.2,0.1v0.8l-0.3,0.3h0h-0.5v0.2h0.5v1l0,0l0,0v0.8h0.1v0.2h-2.7v-0.9v0v-0.3
		v-1v-0.3v-1v-0.3v-1.1v-0.3v-1v-0.3v-1h-0.3v0h0.3v-0.3l0.3,0v-0.3h-0.6v-0.8h0.1v-0.5h-0.1V295h0.1v-0.5h-0.1V294h0.1v-0.5h-0.1
		v-0.5h0.1v-0.5h-0.1v-0.5h0.1v-0.5h-0.1v-0.5h0.1v-0.5h-0.1v-0.5h0.1v-0.5h-0.1v-0.5h0.1v-0.5h-0.1v-0.5h0.1v-0.5h-0.1v-0.6h0.1
		v-0.5h-0.1v-0.5h0.1v-0.5h-0.1v-0.5h0.1v-0.5h-0.1v-1.5v0h0.1v-0.3h0.2V282v0v-0.9v-0.3v-0.3h-0.3v-0.6h0.1v-0.5h-0.1v-1.1V278v0
		h0.3v-0.3h-0.4l-1.2-0.8l-1.2,0.8h-0.4v0.3h0.3v0v0.3v1.1h-7V276v-0.3v0h0.3v-0.3h-0.4l-1.2-0.8l-1.2,0.8h-0.4v0.3h0.3v0v0.3v1.3
		h-2.4V277h-2v0.3h-2.6V276v-0.3v0h0.3v-0.3h-0.4l-1.2-0.8l-1.2,0.8h-0.4v0.3h0.3v0v0.3v3.4h-7v-1.1V278v0h0.3v-0.3h-0.4l-1.2-0.8
		l-1.2,0.8h-0.4v0.3h0.3v0v0.3v1.3v0.3v0.3h-0.2v0.3h-0.2v0.3v0.3v0.9v0v0.3h0.2v0.4h0.1v0.5h-0.1v0.5h0.1v0.5h-0.1v0.5h0.1v0.5
		h-0.1v0.5h0.1v0.5h-0.1v0.5h0.1v0.4h-0.1v0.5h0.1v0.6h-0.1v0.5h0.1v0.5h-0.1v0.5h0.1v0.6v0.5v0.4h-0.1v0.5h0.1v0.5h-0.1v0.5h0.1
		v0.5h-0.1v0.5h0.1v0.5h-0.1v0.5h0.1v0.5v0.5v0.7h-0.4v0.3l0.4,0v0.3v0v1v0.3v1v0.3v1.1v0.3v1v0.3v1v0.3v0v0.9h-1.9v-0.5h-0.4v-12.2
		h0.4v-0.9h-0.4v-10.4h0.4v-0.9h-3.4v-1.5V278h2.1v-0.3v-0.3h-3.7v-0.3h-2.6v-0.7c0.2,0,0.4,0,0.5,0v0c0.6,0,1.6,0,1.9,0
		c0.2,0,0.4,0,0.6,0v0.4h0.5c0,0.2,0.1,0.3,0.3,0.3s0.3-0.1,0.3-0.3c0-0.2-0.1-0.3-0.3-0.3v-0.2c0.3,0,0.5-0.1,0.7-0.2
		c0,0,0.1,0,0.1,0c0,0,0.1,0,0.1,0c0,0,0,0,0.1,0h0c0,0,0,0,0,0c0,0,0,0,0,0c0,0,0,0,0,0c0.1-0.1,0.2-0.2,0.2-0.4
		c0.1-0.4-0.4-0.9-0.6-1.1c-0.1-0.1-0.1-0.1-0.1-0.1l-1.5-1.5c-0.1-0.1-0.2-0.2-0.3-0.2c0,0-0.1-0.1-0.1-0.1
		c-0.4-0.3-0.7-0.4-0.8-0.4v0h-0.2h-0.2h-0.8h-0.2h-0.4v-0.4h-0.5l-0.1-0.3h-1.4v-0.4h0.5v-0.1h6.3v-0.3h-6.8v-0.2h-0.6v0.2h-6.8h0
		h-1v0.3h1h0h6.4v0.1h0.5v0.4h-1.5l-0.7,1.3h-4.9c-0.1-0.4-0.4-0.7-0.9-0.8c-0.1,0-0.2,0-0.2,0l-0.8-0.8v-0.2h-1l0,0.1l0.8,2h-0.6
		v0.3l0.6,0.1v1.1h0.8l0.6-0.9l0.4,0.1l0.2,0.2l0,0l0.2,0.2l0.2-0.2l4.1,0.7l0.8,0.6v-0.1l0,0.1l0.4,0.4h0l0.4,0.6v0.7h-0.8v0.3
		h-4.2v0.3v0.3h2.2v0.5v1.5h-0.2h-2.6h-0.8v-2.6h-9.2v2.6h-3v0.9h0.4v10.4h-0.4v0.9h0.4v12.7h-2.6v-1h-0.3v-0.8h0.3v-0.5h-0.3v-1.6
		h0.3v-0.5h-0.3v-3.7h0.3v-0.5h-0.3v-1.6h0.3V294h-0.3v-2.7h0.3v-0.5h-0.3v-1.6h0.3v-0.5h-0.3v-0.5h0.3v-0.5h-0.3V286h0.3v-0.5h-0.3
		V285h0.3v-0.5h-0.3v-1.6h0.3v-0.5h-0.3v-0.6h0.3v-0.5h-0.3v-0.5h0.4v-0.9h-3.6v-2.6h-0.3v2.6h-8.8v-5v-0.2v-0.2h0.5v-0.9h-11.3v0.9
		h0.4v0.2v0.2v5v0.3v5v0.3v4.6h-7.8v-1.2h-0.3v1.2h-1v-2h-0.3v2h-3.8v0.8h0.2v0.4h-0.2v0.8h0.2v0.4h-0.2v0.8h1.4v1.2v10.4h-2.7v-1.6
		v-0.4h-0.4v-1.5h1v-0.6h-0.5v-4.6h-0.5v-2.2h0.3v-0.6h-0.3v-3.4h1v0v-0.6h-0.5v-4.7h-0.5v-2.4h0.3v-0.6h-3v-0.4h1.5
		c0.7,0,1.3-0.6,1.3-1.3c0-0.7-0.6-1.3-1.3-1.3h-5.5c-0.7,0-1.3,0.6-1.3,1.3c0,0.7,0.6,1.3,1.3,1.3h1.4v0.4h-7.4v-1.2h0.5v-1h-2v1
		h0.5v1.2h-2v-1.2h0.5v-1h-2v1h0.5v1.2h-1.8v0.6h0.3v2.4h-0.5v4.7h-0.5v0.6h1v3.4h-0.3v0.6h0.3v8.9h-0.5v0.4v1.6h-3.8v-2.1h-0.1
		v-3.9h0.2c0,0,0,0,0,0v-1.9c0,0,0,0,0,0h-0.7c0,0,0,0,0,0v1.9c0,0,0,0,0,0h0.2v3.9h-0.1v2.1h-1v1.2h168v-1.2h-1.2V302.8z
		 M1176,276.4C1176,276.4,1176,276.4,1176,276.4c0,0,1.7,0,3.3,0v0.7h-3.3V276.4z M1223.5,302.7L1223.5,302.7l0-0.2l0,0V302.7z"/>
	<rect x="1184.3" y="270.9" class="st1" width="1" height="0.3"/>
	
		<rect x="1282.9" y="299.7" transform="matrix(0.9044 -0.4267 0.4267 0.9044 -5.3155 576.2977)" class="st1" width="1.2" height="0.7"/>
	<path class="st1" d="M1319.8,300C1319.8,300,1319.8,299.9,1319.8,300l0.3,0.3c0,0,0,0,0,0l0.2,0.4c0,0,0,0,0,0l0.3,0.6l0.7-1.3
		c0,0,0,0,0.1,0c0.1,0,0.1-0.1,0.1-0.1c0,0,0-0.1,0-0.1c-0.2-0.2-0.6-0.4-0.9-0.4c-0.4,0-0.7,0.1-0.9,0.4c0,0.1,0,0.1,0,0.1
		C1319.6,299.9,1319.7,300,1319.8,300z"/>
	<polygon class="st1" points="966.4,294.6 966.5,294.6 966.5,294.3 966.7,294.3 966.7,294.6 966.9,294.6 966.9,294.4 967.2,294.7 
		967.2,296.1 967.4,296.1 967.4,296 968.8,296 968.8,295.6 967.4,295.6 967.4,294.7 967.7,294.4 967.7,294.6 967.9,294.6 
		967.9,294.3 968.1,294.3 968.1,294.6 968.3,294.6 968.3,294.3 968.5,294.3 968.5,294.1 968.3,294.1 968.3,293.8 968.1,293.8 
		968.1,294.1 967.9,294.1 967.9,293.8 967.7,293.8 967.7,294.1 967.3,294.5 966.9,294.1 966.9,293.8 966.7,293.8 966.7,294.1 
		966.5,294.1 966.5,293.8 966.4,293.8 966.4,294.1 966.2,294.1 966.2,294.3 966.4,294.3 	"/>
</g>
<g class="st2">
	<g>
		<path class="st3" d="M-81.2,1065.1c-9.9,0-17.9-8-17.9-17.9c0-9.9,8-17.9,17.9-17.9s17.9,8,17.9,17.9
			C-63.3,1057.1-71.4,1065.1-81.2,1065.1z"/>
		<path class="st3" d="M-81.2,1029.8c9.6,0,17.4,7.8,17.4,17.4c0,9.6-7.8,17.4-17.4,17.4s-17.4-7.8-17.4-17.4
			C-98.6,1037.6-90.8,1029.8-81.2,1029.8 M-81.2,1028.8c-10.2,0-18.4,8.2-18.4,18.4c0,10.2,8.2,18.4,18.4,18.4s18.4-8.2,18.4-18.4
			C-62.8,1037-71.1,1028.8-81.2,1028.8L-81.2,1028.8z"/>
	</g>
	<g>
		<path class="st3" d="M-57.2,1065.1c-9.9,0-17.9-8-17.9-17.9c0-9.9,8-17.9,17.9-17.9s17.9,8,17.9,17.9
			C-39.3,1057.1-47.4,1065.1-57.2,1065.1z"/>
		<path class="st3" d="M-57.2,1029.8c9.6,0,17.4,7.8,17.4,17.4c0,9.6-7.8,17.4-17.4,17.4s-17.4-7.8-17.4-17.4
			C-74.6,1037.6-66.8,1029.8-57.2,1029.8 M-57.2,1028.8c-10.2,0-18.4,8.2-18.4,18.4c0,10.2,8.2,18.4,18.4,18.4s18.4-8.2,18.4-18.4
			C-38.8,1037-47.1,1028.8-57.2,1028.8L-57.2,1028.8z"/>
	</g>
	<g>
		<path class="st3" d="M-24,1065.1c-13.6,0-24.7-11.1-24.7-24.7s11.1-24.7,24.7-24.7s24.7,11.1,24.7,24.7S-10.4,1065.1-24,1065.1z"
			/>
		<path class="st3" d="M-24,1016.2c13.3,0,24.2,10.9,24.2,24.2s-10.9,24.2-24.2,24.2s-24.2-10.9-24.2-24.2S-37.4,1016.2-24,1016.2
			 M-24,1015.2c-13.9,0-25.2,11.3-25.2,25.2s11.3,25.2,25.2,25.2s25.2-11.3,25.2-25.2C1.2,1026.5-10.1,1015.2-24,1015.2L-24,1015.2z
			"/>
	</g>
	<g>
		<path class="st3" d="M7.3,1073.4c-8.9,0-16.1-7.2-16.1-16.1s7.2-16.1,16.1-16.1s16.1,7.2,16.1,16.1S16.2,1073.4,7.3,1073.4z"/>
		<path class="st3" d="M7.3,1041.7c8.6,0,15.6,7,15.6,15.6s-7,15.6-15.6,15.6s-15.6-7-15.6-15.6S-1.4,1041.7,7.3,1041.7 M7.3,1040.7
			c-9.2,0-16.6,7.4-16.6,16.6c0,9.2,7.4,16.6,16.6,16.6s16.6-7.4,16.6-16.6C23.9,1048.1,16.5,1040.7,7.3,1040.7L7.3,1040.7z"/>
	</g>
	<g>
		<path class="st3" d="M-103.2,1073.4c-6.3,0-11.4-5.1-11.4-11.4c0-6.3,5.1-11.4,11.4-11.4s11.4,5.1,11.4,11.4
			C-91.8,1068.3-96.9,1073.4-103.2,1073.4z"/>
		<path class="st3" d="M-103.2,1051.2c6,0,10.9,4.9,10.9,10.9s-4.9,10.9-10.9,10.9s-10.9-4.9-10.9-10.9S-109.2,1051.2-103.2,1051.2
			 M-103.2,1050.2c-6.6,0-11.9,5.3-11.9,11.9c0,6.6,5.3,11.9,11.9,11.9s11.9-5.3,11.9-11.9S-96.7,1050.2-103.2,1050.2L-103.2,1050.2
			z"/>
	</g>
	<polygon class="st3" points="-104.4,1073.9 7.3,1073.9 6.7,1050.2 -44.4,1034.1 -87.2,1050.8 -102.6,1066.2 	"/>
</g>
<g class="st2">
	<g>
		<path class="st3" d="M-163,40.7c-9.9,0-17.9-8-17.9-17.9s8-17.9,17.9-17.9s17.9,8,17.9,17.9S-153.2,40.7-163,40.7z"/>
		<path class="st3" d="M-163,5.4c9.6,0,17.4,7.8,17.4,17.4s-7.8,17.4-17.4,17.4s-17.4-7.8-17.4-17.4S-172.6,5.4-163,5.4 M-163,4.4
			c-10.2,0-18.4,8.2-18.4,18.4s8.2,18.4,18.4,18.4s18.4-8.2,18.4-18.4S-152.9,4.4-163,4.4L-163,4.4z"/>
	</g>
	<g>
		<path class="st3" d="M-139,40.7c-9.9,0-17.9-8-17.9-17.9s8-17.9,17.9-17.9s17.9,8,17.9,17.9S-129.2,40.7-139,40.7z"/>
		<path class="st3" d="M-139,5.4c9.6,0,17.4,7.8,17.4,17.4s-7.8,17.4-17.4,17.4s-17.4-7.8-17.4-17.4S-148.6,5.4-139,5.4 M-139,4.4
			c-10.2,0-18.4,8.2-18.4,18.4s8.2,18.4,18.4,18.4s18.4-8.2,18.4-18.4S-128.9,4.4-139,4.4L-139,4.4z"/>
	</g>
	<g>
		<path class="st3" d="M-105.8,40.7c-13.6,0-24.7-11.1-24.7-24.7s11.1-24.7,24.7-24.7S-81.1,2.4-81.1,16S-92.2,40.7-105.8,40.7z"/>
		<path class="st3" d="M-105.8-8.2c13.3,0,24.2,10.9,24.2,24.2s-10.9,24.2-24.2,24.2S-130,29.3-130,16S-119.2-8.2-105.8-8.2
			 M-105.8-9.2C-119.7-9.2-131,2.1-131,16s11.3,25.2,25.2,25.2S-80.6,29.9-80.6,16C-80.6,2.1-91.9-9.2-105.8-9.2L-105.8-9.2z"/>
	</g>
	<g>
		<path class="st3" d="M-74.5,49c-8.9,0-16.1-7.2-16.1-16.1s7.2-16.1,16.1-16.1s16.1,7.2,16.1,16.1S-65.6,49-74.5,49z"/>
		<path class="st3" d="M-74.5,17.3c8.6,0,15.6,7,15.6,15.6s-7,15.6-15.6,15.6s-15.6-7-15.6-15.6S-83.2,17.3-74.5,17.3 M-74.5,16.3
			c-9.2,0-16.6,7.4-16.6,16.6c0,9.2,7.4,16.6,16.6,16.6s16.6-7.4,16.6-16.6S-65.3,16.3-74.5,16.3L-74.5,16.3z"/>
	</g>
	<g>
		<path class="st3" d="M-185,49c-6.3,0-11.4-5.1-11.4-11.4c0-6.3,5.1-11.4,11.4-11.4s11.4,5.1,11.4,11.4
			C-173.6,43.9-178.7,49-185,49z"/>
		<path class="st3" d="M-185,26.8c6,0,10.9,4.9,10.9,10.9S-179,48.6-185,48.6s-10.9-4.9-10.9-10.9S-191,26.8-185,26.8 M-185,25.8
			c-6.6,0-11.9,5.3-11.9,11.9c0,6.6,5.3,11.9,11.9,11.9s11.9-5.3,11.9-11.9S-178.5,25.8-185,25.8L-185,25.8z"/>
	</g>
	<polygon class="st3" points="-186.2,49.5 -74.5,49.5 -75.1,25.8 -126.2,9.7 -169,26.4 -184.4,41.8 	"/>
</g>
<g class="st4">
	<g>
		<path class="st3" d="M1931,93.6c-5.8-0.3-10.4-5.2-10.1-11.1c0.3-5.8,5.2-10.4,11.1-10.1c5.8,0.3,10.4,5.2,10.1,11.1
			C1941.8,89.4,1936.8,93.9,1931,93.6z"/>
		<path class="st3" d="M1931.9,73c5.5,0.3,9.9,5,9.6,10.6c-0.3,5.6-5,9.9-10.6,9.6c-5.5-0.3-9.9-5-9.6-10.6
			C1921.6,77,1926.4,72.8,1931.9,73 M1932,72c-6.1-0.3-11.3,4.5-11.6,10.6c-0.3,6.1,4.4,11.3,10.6,11.6c6.2,0.3,11.3-4.5,11.6-10.6
			C1942.8,77.4,1938.1,72.3,1932,72L1932,72z"/>
	</g>
	<g>
		<path class="st3" d="M1945.4,94.3c-5.8-0.3-10.4-5.2-10.1-11.1c0.3-5.8,5.2-10.4,11.1-10.1c5.8,0.3,10.4,5.2,10.1,11.1
			C1956.2,90.1,1951.2,94.5,1945.4,94.3z"/>
		<path class="st3" d="M1946.3,73.7c5.5,0.3,9.9,5,9.6,10.6c-0.3,5.6-5,9.9-10.6,9.6s-9.9-5-9.6-10.6S1940.8,73.4,1946.3,73.7
			 M1946.4,72.7c-6.1-0.3-11.3,4.5-11.6,10.6c-0.3,6.1,4.4,11.3,10.6,11.6c6.1,0.3,11.3-4.5,11.6-10.6
			C1957.2,78.1,1952.4,73,1946.4,72.7L1946.4,72.7z"/>
	</g>
	<g>
		
			<ellipse transform="matrix(4.608800e-02 -0.9989 0.9989 4.608800e-02 1794.8002 2040.7018)" class="st3" cx="1965.9" cy="80.6" rx="14.6" ry="14.6"/>
		<path class="st3" d="M1966.6,66.4c7.8,0.4,13.8,6.9,13.4,14.7s-6.9,13.8-14.7,13.4s-13.8-6.9-13.4-14.7
			C1952.2,72.1,1958.9,66.1,1966.6,66.4 M1966.6,65.4c-8.4-0.4-15.4,6.1-15.8,14.4c-0.4,8.3,6.1,15.4,14.4,15.8
			c8.3,0.4,15.4-6.1,15.8-14.4C1981.4,72.9,1975,65.8,1966.6,65.4L1966.6,65.4z"/>
	</g>
	<g>
		<circle class="st3" cx="1984.2" cy="91.5" r="9.5"/>
		<path class="st3" d="M1984.6,82.6c5,0.2,8.8,4.4,8.6,9.4c-0.2,5-4.4,8.8-9.4,8.6c-5-0.2-8.8-4.4-8.6-9.4
			C1975.5,86.1,1979.7,82.3,1984.6,82.6 M1984.7,81.6c-5.5-0.3-10.2,4-10.5,9.5c-0.3,5.5,4,10.2,9.5,10.5c5.5,0.3,10.2-4,10.5-9.5
			S1990.3,81.8,1984.7,81.6L1984.7,81.6z"/>
	</g>
	<g>
		<path class="st3" d="M1917.6,98c-3.7-0.2-6.5-3.3-6.3-6.9s3.3-6.5,6.9-6.3c3.7,0.2,6.5,3.3,6.3,6.9
			C1924.3,95.3,1921.3,98.2,1917.6,98z"/>
		<path class="st3" d="M1918.1,85.2c3.4,0.2,6,3.1,5.8,6.4c-0.2,3.4-3.1,6-6.4,5.8c-3.3-0.2-6-3.1-5.8-6.4
			C1911.9,87.7,1914.8,85,1918.1,85.2 M1918.2,84.2c-3.9-0.2-7.2,2.9-7.4,6.8c-0.2,3.9,2.9,7.2,6.8,7.4s7.2-2.9,7.4-6.8
			C1925.1,87.7,1922.1,84.4,1918.2,84.2L1918.2,84.2z"/>
	</g>
	<polygon class="st3" points="1916.8,98.5 1983.8,101.5 1984.1,87.2 1953.9,76.2 1927.8,85 1918.1,93.9 	"/>
</g>
<g class="st5">
	<g>
		<path class="st3" d="M2255.5,60.8c-3.3-0.2-5.9-3-5.8-6.3c0.2-3.4,3-5.9,6.3-5.8c3.3,0.2,5.9,3,5.8,6.3S2258.8,61,2255.5,60.8z"/>
		<path class="st3" d="M2256,49.1c3.1,0.1,5.7,2.8,5.5,6c-0.1,3.2-2.8,5.7-6,5.5c-3.2-0.1-5.7-2.9-5.5-6
			C2250.1,51.4,2252.8,48.9,2256,49.1 M2256,48.5c-3.5-0.2-6.5,2.6-6.6,6.1c-0.2,3.5,2.6,6.4,6.1,6.6c3.5,0.2,6.5-2.6,6.6-6.1
			C2262.2,51.6,2259.5,48.7,2256,48.5L2256,48.5z"/>
	</g>
	<g>
		<path class="st3" d="M2263.7,61.2c-3.3-0.2-5.9-3-5.8-6.3c0.2-3.4,3-5.9,6.3-5.8c3.3,0.2,5.9,3,5.8,6.3S2267,61.4,2263.7,61.2z"/>
		<path class="st3" d="M2264.2,49.4c3.1,0.1,5.7,2.8,5.5,6c-0.1,3.2-2.8,5.7-6,5.5c-3.1-0.1-5.7-2.8-5.5-6
			C2258.3,51.8,2261.1,49.3,2264.2,49.4 M2264.3,48.9c-3.5-0.2-6.5,2.6-6.6,6.1c-0.2,3.5,2.6,6.5,6.1,6.6c3.5,0.2,6.5-2.6,6.6-6.1
			C2270.5,52,2267.7,49,2264.3,48.9L2264.3,48.9z"/>
	</g>
	<g>
		<path class="st3" d="M2275.1,61.7c-4.6-0.2-8.2-4.2-8-8.7s4.2-8.2,8.7-8c4.6,0.2,8.2,4.2,8,8.7S2279.7,61.9,2275.1,61.7z"/>
		<path class="st3" d="M2275.8,45.3c4.5,0.2,7.9,4,7.7,8.4s-4,7.9-8.4,7.7s-7.9-4-7.7-8.4C2267.6,48.5,2271.4,45.1,2275.8,45.3
			 M2275.8,44.7c-4.8-0.2-8.8,3.5-9,8.2s3.5,8.8,8.2,9s8.8-3.5,9-8.2S2280.6,44.9,2275.8,44.7L2275.8,44.7z"/>
	</g>
	<g>
		<circle class="st3" cx="2285.9" cy="59.6" r="5.4"/>
		<path class="st3" d="M2286.2,54.5c2.9,0.1,5,2.5,4.9,5.4c-0.1,2.9-2.5,5-5.4,4.9c-2.9-0.1-5-2.5-4.9-5.4
			C2280.9,56.6,2283.4,54.4,2286.2,54.5 M2286.2,53.9c-3.1-0.1-5.8,2.3-6,5.5c-0.1,3.1,2.3,5.8,5.5,6c3.1,0.1,5.8-2.3,6-5.5
			C2291.8,56.8,2289.4,54.1,2286.2,53.9L2286.2,53.9z"/>
	</g>
	<g>
		<path class="st3" d="M2247.8,63.4c-2.1-0.1-3.7-1.9-3.6-3.9c0.1-2.1,1.9-3.7,3.9-3.6c2.1,0.1,3.7,1.9,3.6,3.9
			C2251.6,61.8,2249.9,63.5,2247.8,63.4z"/>
		<path class="st3" d="M2248.1,56c1.9,0.1,3.4,1.8,3.3,3.6s-1.8,3.4-3.6,3.3c-1.9-0.1-3.4-1.8-3.3-3.6S2246.2,56,2248.1,56
			 M2248.1,55.5c-2.2-0.1-4.1,1.6-4.2,3.9c-0.1,2.2,1.6,4.1,3.9,4.2c2.2,0.1,4.1-1.6,4.2-3.9S2250.4,55.6,2248.1,55.5L2248.1,55.5z"
			/>
	</g>
	<polygon class="st3" points="2247.4,63.6 2285.7,65.4 2285.9,57.2 2268.6,50.9 2253.6,56 2248.1,61 	"/>
</g>
<g>
	<path class="st6" d="M1532.1,312.9c-16.2-0.7-28.6-14.4-27.9-30.6s14.4-28.6,30.6-27.9c16.2,0.7,28.6,14.4,27.9,30.6
		C1561.9,301.1,1548.1,313.6,1532.1,312.9z"/>
	<path class="st6" d="M1534.7,255.2c15.7,0.7,27.8,14,27.1,29.7c-0.7,15.7-14,27.8-29.7,27.1c-15.7-0.7-27.8-14-27.1-29.7
		C1505.7,266.7,1519,254.5,1534.7,255.2 M1534.8,253.6c-16.7-0.8-30.7,12-31.4,28.7c-0.8,16.7,12,30.7,28.7,31.4s30.7-12,31.4-28.7
		C1564.2,268.3,1551.3,254.3,1534.8,253.6L1534.8,253.6z"/>
</g>
<g>
	<path class="st6" d="M1447.2,339.6c-16.2-0.7-28.6-14.4-27.9-30.6s14.4-28.6,30.6-27.9c16.2,0.7,28.6,14.4,27.9,30.6
		C1477,327.9,1463.2,340.3,1447.2,339.6z"/>
	<path class="st6" d="M1449.8,282c15.7,0.7,27.8,14,27.1,29.7s-14,27.8-29.7,27.1s-27.8-14-27.1-29.7
		C1420.8,293.4,1434.1,281.3,1449.8,282 M1449.9,280.3c-16.7-0.8-30.7,12-31.4,28.7c-0.8,16.7,12,30.7,28.7,31.4
		c16.7,0.8,30.7-12,31.4-28.7C1479.3,295.1,1466.4,281.1,1449.9,280.3L1449.9,280.3z"/>
</g>
<g>
	<path class="st6" d="M1571.3,314.6c-16.2-0.7-28.6-14.4-27.9-30.6c0.7-16.2,14.4-28.6,30.6-27.9c16.2,0.7,28.6,14.4,27.9,30.6
		S1587.3,315.4,1571.3,314.6z"/>
	<path class="st6" d="M1573.9,257c15.7,0.7,27.8,14,27.1,29.7c-0.7,15.7-14,27.8-29.7,27.1c-15.7-0.7-27.8-14-27.1-29.7
		S1558.2,256.3,1573.9,257 M1574,255.4c-16.7-0.8-30.7,12-31.4,28.7c-0.8,16.7,12,30.7,28.7,31.4c16.7,0.8,30.7-12,31.4-28.7
		C1603.4,270.1,1590.5,256.1,1574,255.4L1574,255.4z"/>
</g>
<g>
	<path class="st6" d="M1936.8,194c-16.2-0.7-28.6-14.4-27.9-30.6s14.4-28.6,30.6-27.9s28.6,14.4,27.9,30.6
		C1966.6,182.2,1952.8,194.7,1936.8,194z"/>
	<path class="st6" d="M1939.4,136.3c15.7,0.7,27.8,14,27.1,29.7c-0.7,15.7-14,27.8-29.7,27.1c-15.7-0.7-27.8-14-27.1-29.7
		C1910.4,147.8,1923.7,135.6,1939.4,136.3 M1939.4,134.7c-16.7-0.8-30.7,12-31.4,28.7s12,30.7,28.7,31.4s30.7-12,31.4-28.7
		C1968.9,149.5,1955.9,135.5,1939.4,134.7L1939.4,134.7z"/>
</g>
<g>
	<path class="st6" d="M1625.5,317.1c-22.2-1-39.5-20-38.5-42.2s20-39.5,42.2-38.5s39.5,20,38.5,42.2S1647.7,318.1,1625.5,317.1z"/>
	<path class="st6" d="M1629.1,237.2c21.7,1,38.7,19.6,37.7,41.3s-19.6,38.7-41.3,37.7c-21.7-1-38.7-19.6-37.7-41.3
		C1588.8,253.2,1607.2,236.3,1629.1,237.2 M1629.2,235.6c-22.7-1-42,16.6-43,39.3c-1,22.7,16.6,42,39.3,43s42-16.6,43-39.3
		C1669.5,255.9,1651.9,236.6,1629.2,235.6L1629.2,235.6z"/>
</g>
<g>
	<path class="st6" d="M2088.4,109.7c-22.2-1-39.5-20-38.5-42.2s20-39.5,42.2-38.5c22.2,1,39.5,20,38.5,42.2
		S2110.6,110.7,2088.4,109.7z"/>
	<path class="st6" d="M2092,29.8c21.7,1,38.7,19.6,37.7,41.3c-1,21.7-19.6,38.7-41.3,37.7s-38.7-19.6-37.7-41.3
		S2070.2,28.8,2092,29.8 M2092.1,28.2c-22.7-1-42,16.6-43,39.3s16.6,42,39.3,43c22.7,1,42-16.6,43-39.3S2114.8,29.2,2092.1,28.2
		L2092.1,28.2z"/>
</g>
<g>
	<path class="st6" d="M1703.7,303.4c-22.2-1-39.5-20-38.5-42.2c1-22.2,20-39.5,42.2-38.5c22.2,1,39.5,20,38.5,42.2
		C1744.8,287.1,1725.9,304.4,1703.7,303.4z"/>
	<path class="st6" d="M1707.3,223.5c21.7,1,38.7,19.6,37.7,41.3c-1,21.7-19.6,38.7-41.3,37.7S1665,283,1666,261.2
		S1685.4,222.5,1707.3,223.5 M1707.4,221.9c-22.7-1-42,16.6-43,39.3c-1,22.7,16.6,42,39.3,43c22.7,1,42-16.6,43-39.3
		C1747.7,242.2,1730.1,222.9,1707.4,221.9L1707.4,221.9z"/>
</g>
<g>
	<path class="st6" d="M1782.5,278.3c-35.9-1.6-63.9-32.3-62.3-68.2s32.3-63.9,68.2-62.3c35.9,1.6,63.9,32.3,62.3,68.2
		S1818.4,279.9,1782.5,278.3z"/>
	<path class="st6" d="M1788.3,149.1c35.1,1.6,62.6,31.7,61,66.8c-1.6,35.1-31.7,62.6-66.8,61c-35.1-1.6-62.6-31.7-61-66.8
		S1752.9,147.5,1788.3,149.1 M1788.4,146.4c-36.7-1.7-67.9,26.8-69.6,63.6c-1.7,36.7,26.8,67.9,63.6,69.6
		c36.7,1.7,67.9-26.8,69.6-63.6C1853.7,179.3,1825.2,148.1,1788.4,146.4L1788.4,146.4z"/>
</g>
<g>
	<path class="st6" d="M2011.9,195.2c-35.9-1.6-63.9-32.3-62.3-68.2c1.6-35.9,32.3-63.9,68.2-62.3c35.9,1.6,63.9,32.3,62.3,68.2
		S2047.8,196.9,2011.9,195.2z"/>
	<path class="st6" d="M2017.7,66.1c35.1,1.6,62.6,31.7,61,66.8s-31.7,62.6-66.8,61s-62.6-31.7-61-66.8
		C1952.5,92,1982.3,64.5,2017.7,66.1 M2017.8,63.4c-36.7-1.7-67.9,26.8-69.6,63.6s26.8,67.9,63.6,69.6c36.7,1.7,67.9-26.8,69.6-63.6
		S2054.5,65.1,2017.8,63.4L2017.8,63.4z"/>
</g>
<g>
	<path class="st6" d="M1868.7,282.2c-35.9-1.6-63.9-32.3-62.3-68.2s32.3-63.9,68.2-62.3c35.9,1.6,63.9,32.3,62.3,68.2
		C1935.3,255.8,1904.6,283.8,1868.7,282.2z"/>
	<path class="st6" d="M1874.6,153c35.1,1.6,62.6,31.7,61,66.8c-1.6,35.1-31.7,62.6-66.8,61s-62.6-31.7-61-66.8
		C1809.3,178.9,1839.2,151.4,1874.6,153 M1874.7,150.3c-36.7-1.7-67.9,26.8-69.6,63.6s26.8,67.9,63.6,69.6
		c36.7,1.7,67.9-26.8,69.6-63.6C1939.9,183.2,1911.4,152,1874.7,150.3L1874.7,150.3z"/>
</g>
<g>
	<path class="st6" d="M1676,333c-14.5-0.7-25.8-12.9-25.1-27.5s12.9-25.8,27.5-25.1s25.8,12.9,25.1,27.5S1690.5,333.6,1676,333z"/>
	<path class="st6" d="M1678.3,281.2c14,0.6,25,12.6,24.3,26.6s-12.6,25-26.6,24.3c-14-0.6-25-12.6-24.3-26.6
		S1664.1,280.6,1678.3,281.2 M1678.4,279.6c-15-0.7-27.7,10.9-28.3,25.9s10.9,27.7,25.9,28.3c15,0.7,27.7-10.9,28.3-25.9
		S1693.4,280.2,1678.4,279.6L1678.4,279.6z"/>
</g>
<g>
	<path class="st6" d="M1495.6,324.8c-10.3-0.5-18.2-9.2-17.8-19.5c0.5-10.3,9.2-18.2,19.5-17.8c10.3,0.5,18.2,9.2,17.8,19.5
		C1514.6,317.3,1505.9,325.2,1495.6,324.8z"/>
	<path class="st6" d="M1497.2,288.5c9.8,0.4,17.4,8.8,17,18.6c-0.4,9.8-8.8,17.4-18.6,17c-9.8-0.4-17.4-8.8-17-18.6
		C1479.1,295.7,1487.4,288.1,1497.2,288.5 M1497.3,286.9c-10.8-0.5-19.8,7.8-20.3,18.6c-0.5,10.8,7.8,19.8,18.6,20.3
		c10.8,0.5,19.8-7.8,20.3-18.6C1516.3,296.4,1507.9,287.4,1497.3,286.9z"/>
</g>
<g>
	<path class="st6" d="M1399.9,333.9c-10.3-0.4-18.3-9.1-17.9-19.4c0.4-10.3,9.1-18.3,19.4-17.9s18.3,9.1,17.9,19.4
		C1418.8,326.4,1410.2,334.3,1399.9,333.9z"/>
	<path class="st6" d="M1401.3,297.7c9.8,0.4,17.5,8.7,17.1,18.5c-0.4,9.8-8.7,17.5-18.5,17.1c-9.8-0.4-17.5-8.7-17.1-18.5
		S1391.5,297.3,1401.3,297.7 M1401.4,296c-10.8-0.4-19.8,7.9-20.2,18.7c-0.4,10.8,7.9,19.8,18.7,20.2c10.8,0.4,19.8-7.9,20.2-18.7
		C1420.5,305.5,1412,296.5,1401.4,296z"/>
</g>
<g>
	<path class="st6" d="M303.7,1087.8c-10.3-0.4-18.3-9.1-17.9-19.4c0.4-10.3,9.1-18.3,19.4-17.9c10.3,0.4,18.3,9.1,17.9,19.4
		C322.6,1080.3,314,1088.3,303.7,1087.8z"/>
	<path class="st6" d="M305.1,1051.6c9.8,0.4,17.5,8.7,17.1,18.5c-0.4,9.8-8.7,17.5-18.5,17.1c-9.8-0.4-17.5-8.7-17.1-18.5
		C287,1058.9,295.3,1051.2,305.1,1051.6 M305.2,1049.9c-10.8-0.4-19.8,7.9-20.2,18.7s7.9,19.8,18.7,20.2
		c10.8,0.4,19.8-7.9,20.2-18.7S315.8,1050.4,305.2,1049.9z"/>
</g>
<g>
	<path class="st6" d="M346.3,1081.2c-13.1-0.5-23.3-11.6-22.8-24.7s11.6-23.3,24.7-22.8c13.1,0.5,23.3,11.6,22.8,24.7
		S359.4,1081.8,346.3,1081.2z"/>
	<path class="st6" d="M348.1,1035c12.5,0.5,22.3,11.1,21.8,23.6s-11.1,22.3-23.6,21.8s-22.3-11.1-21.8-23.6
		C325,1044.3,335.7,1034.5,348.1,1035 M348.2,1032.9c-13.7-0.6-25.2,10-25.8,23.8c-0.6,13.7,10,25.2,23.8,25.8
		c13.7,0.6,25.2-10,25.8-23.8C372.6,1045,361.8,1033.5,348.2,1032.9z"/>
</g>
<g>
	<path class="st6" d="M389.8,1099.1c-13.1-0.5-23.3-11.6-22.8-24.7s11.6-23.3,24.7-22.8c13.1,0.5,23.3,11.6,22.8,24.7
		C414,1089.4,402.9,1099.6,389.8,1099.1z"/>
	<path class="st6" d="M391.7,1052.9c12.5,0.5,22.3,11.1,21.8,23.6c-0.5,12.5-11.1,22.3-23.6,21.8s-22.3-11.1-21.8-23.6
		S379.2,1052.4,391.7,1052.9 M391.7,1050.8c-13.7-0.6-25.2,10-25.8,23.8s10,25.2,23.8,25.8c13.7,0.6,25.2-10,25.8-23.8
		C416.1,1062.8,405.3,1051.3,391.7,1050.8z"/>
</g>
<g>
	<path class="st6" d="M2131,43.4c-10.3-0.5-18.2-9.2-17.8-19.5c0.5-10.3,9.2-18.2,19.5-17.8c10.3,0.5,18.2,9.2,17.8,19.5
		C2150,35.9,2141.3,43.8,2131,43.4z"/>
	<path class="st6" d="M2132.7,7.1c9.8,0.4,17.4,8.8,17,18.6s-8.8,17.4-18.6,17c-9.8-0.4-17.4-8.8-17-18.6S2122.9,6.7,2132.7,7.1
		 M2132.7,5.5c-10.8-0.5-19.8,7.8-20.3,18.6c-0.5,10.8,7.8,19.8,18.6,20.3c10.8,0.5,19.8-7.8,20.3-18.6S2143.4,6,2132.7,5.5
		L2132.7,5.5z"/>
</g>
<polyline class="st6" points="2396.7,366.6 2413,6 2151.9,-5.8 2090.4,66.7 1723,258.6 1629.2,378.2 "/>
<g>
	<g class="st4">
		<g>
			<path class="st3" d="M-210.2,959c-1.8-5.6,1.3-11.6,6.8-13.4c5.6-1.8,11.6,1.3,13.4,6.8c1.8,5.6-1.3,11.6-6.8,13.4
				C-202.3,967.6-208.3,964.6-210.2,959z"/>
			<path class="st3" d="M-203.2,946.2c5.2-1.7,11,1.2,12.7,6.5c1.7,5.3-1.3,11-6.5,12.7c-5.3,1.7-11-1.2-12.7-6.5
				C-211.4,953.6-208.4,947.9-203.2,946.2 M-203.5,945.2c-5.8,1.9-9,8.1-7.1,14c1.9,5.8,8.1,9,14,7.1c5.9-1.9,9-8.2,7.1-14
				S-197.7,943.3-203.5,945.2L-203.5,945.2z"/>
		</g>
		<g>
			<path class="st3" d="M-223.9,963.4c-1.8-5.6,1.3-11.6,6.8-13.4c5.6-1.8,11.6,1.3,13.4,6.8c1.8,5.6-1.3,11.6-6.8,13.4
				C-216,972-222,969-223.9,963.4z"/>
			<path class="st3" d="M-216.9,950.6c5.2-1.7,11,1.2,12.7,6.5c1.7,5.3-1.2,11-6.5,12.7c-5.3,1.7-11-1.2-12.7-6.5
				C-225.1,958-222.1,952.3-216.9,950.6 M-217.2,949.7c-5.8,1.9-9,8.1-7.1,14c1.9,5.8,8.2,9,14,7.1c5.9-1.9,9-8.2,7.1-14
				C-205.1,951-211.4,947.8-217.2,949.7L-217.2,949.7z"/>
		</g>
		<g>
			
				<ellipse transform="matrix(0.9513 -0.3084 0.3084 0.9513 -308.2368 -25.2349)" class="st3" cx="-233.9" cy="962.5" rx="14.6" ry="14.6"/>
			<path class="st3" d="M-238.3,949c7.3-2.4,15.4,1.6,17.8,9.1c2.4,7.4-1.6,15.4-9.1,17.8c-7.4,2.4-15.4-1.6-17.8-9.1
				C-249.8,959.3-245.7,951.4-238.3,949 M-238.6,948c-8,2.6-12.3,11.1-9.7,19s11.1,12.3,19,9.7s12.3-11.1,9.7-19
				C-222.2,949.8-230.6,945.4-238.6,948L-238.6,948z"/>
		</g>
		<g>
			<circle class="st3" cx="-248.7" cy="977.9" r="9.5"/>
			<path class="st3" d="M-251.5,969.3c4.7-1.5,9.8,1,11.3,5.8c1.5,4.8-1,9.8-5.8,11.3c-4.8,1.5-9.8-1-11.3-5.8
				C-258.8,975.9-256.2,970.8-251.5,969.3 M-251.8,968.4c-5.3,1.7-8.1,7.4-6.4,12.6c1.7,5.2,7.4,8.1,12.6,6.4
				c5.2-1.7,8.1-7.4,6.4-12.6C-240.9,969.5-246.6,966.7-251.8,968.4L-251.8,968.4z"/>
		</g>
		<g>
			<path class="st3" d="M-191,962.2c-1.1-3.4,0.7-7.2,4.2-8.3c3.4-1.1,7.2,0.8,8.3,4.2c1.1,3.4-0.7,7.2-4.2,8.3
				C-186.2,967.6-189.9,965.6-191,962.2z"/>
			<path class="st3" d="M-186.7,954.3c3.2-1,6.7,0.8,7.7,3.9c1,3.1-0.8,6.7-3.9,7.7c-3.1,1-6.6-0.7-7.7-3.9
				C-191.6,958.8-189.9,955.3-186.7,954.3 M-187,953.3c-3.7,1.2-5.8,5.2-4.6,8.9c1.2,3.7,5.2,5.8,8.9,4.6c3.7-1.2,5.8-5.2,4.6-8.9
				S-183.3,952.1-187,953.3L-187,953.3z"/>
		</g>
		<polygon class="st3" points="-184.4,962.7 -196,956.7 -223.5,955.1 -249.8,973.7 -245.6,987.4 -181.9,966.7 		"/>
	</g>
	<g class="st5">
		<g>
			<path class="st3" d="M-526.1,1016c-1-3.2,0.7-6.6,3.9-7.6c3.2-1,6.6,0.7,7.6,3.9c1,3.2-0.7,6.6-3.9,7.6
				C-521.6,1020.9-525,1019.2-526.1,1016z"/>
			<path class="st3" d="M-522,1008.7c3-1,6.3,0.7,7.3,3.7c1,3-0.7,6.3-3.7,7.3c-3,1-6.3-0.7-7.3-3.7S-525,1009.7-522,1008.7
				 M-522.2,1008.2c-3.3,1.1-5.2,4.6-4.1,7.9c1.1,3.3,4.7,5.2,8,4.1c3.3-1.1,5.2-4.6,4.1-7.9
				C-515.3,1008.9-518.9,1007.1-522.2,1008.2L-522.2,1008.2z"/>
		</g>
		<g>
			<path class="st3" d="M-533.9,1018.6c-1-3.2,0.7-6.6,3.9-7.6c3.2-1,6.6,0.7,7.6,3.9c1,3.2-0.7,6.6-3.9,7.6
				C-529.4,1023.5-532.9,1021.8-533.9,1018.6z"/>
			<path class="st3" d="M-529.9,1011.2c3-1,6.3,0.7,7.3,3.7c1,3-0.7,6.3-3.7,7.3c-3,1-6.3-0.7-7.3-3.7S-532.9,1012.2-529.9,1011.2
				 M-530.1,1010.7c-3.3,1.1-5.2,4.7-4.1,8s4.7,5.2,8,4.1c3.3-1.1,5.2-4.7,4.1-8C-523.1,1011.5-526.7,1009.6-530.1,1010.7
				L-530.1,1010.7z"/>
		</g>
		<g>
			<path class="st3" d="M-547.6,1020.6c-1.4-4.4,1-9.1,5.4-10.5c4.4-1.4,9.1,1,10.5,5.4c1.4,4.4-1,9.1-5.4,10.5
				C-541.5,1027.4-546.2,1024.9-547.6,1020.6z"/>
			<path class="st3" d="M-542.2,1010.3c4.2-1.4,8.8,0.9,10.2,5.2c1.4,4.2-0.9,8.8-5.2,10.2c-4.2,1.4-8.8-0.9-10.2-5.2
				C-548.7,1016.2-546.4,1011.7-542.2,1010.3 M-542.3,1009.7c-4.6,1.5-7,6.4-5.6,10.9c1.5,4.5,6.4,7,10.9,5.6
				c4.5-1.5,7-6.4,5.6-10.9C-532.9,1010.8-537.8,1008.3-542.3,1009.7L-542.3,1009.7z"/>
		</g>
		<g>
			<circle class="st3" cx="-548.1" cy="1026.8" r="5.4"/>
			<path class="st3" d="M-549.7,1021.9c2.7-0.9,5.6,0.6,6.5,3.3c0.9,2.7-0.6,5.6-3.3,6.5s-5.6-0.6-6.5-3.3
				C-553.9,1025.7-552.4,1022.8-549.7,1021.9 M-549.9,1021.4c-3,1-4.7,4.2-3.7,7.2c1,3,4.2,4.7,7.2,3.7c3-1,4.7-4.2,3.7-7.2
				C-543.6,1022.1-546.9,1020.4-549.9,1021.4L-549.9,1021.4z"/>
		</g>
		<g>
			<path class="st3" d="M-515.1,1017.9c-0.6-2,0.4-4.1,2.4-4.8c2-0.6,4.1,0.4,4.8,2.4c0.6,2-0.4,4.1-2.4,4.8
				C-512.4,1021-514.5,1019.9-515.1,1017.9z"/>
			<path class="st3" d="M-512.6,1013.4c1.9-0.6,3.8,0.5,4.4,2.2c0.6,1.8-0.5,3.8-2.2,4.4s-3.8-0.5-4.4-2.2
				C-515.4,1016-514.5,1014-512.6,1013.4 M-512.8,1012.8c-2.1,0.7-3.3,3-2.6,5.1c0.7,2.1,3,3.3,5.1,2.6c2.1-0.7,3.3-3,2.6-5.1
				C-508.4,1013.3-510.7,1012.1-512.8,1012.8L-512.8,1012.8z"/>
		</g>
		<polygon class="st3" points="-511.3,1018.2 -517.9,1014.7 -533.7,1013.8 -548.7,1024.4 -546.4,1032.3 -509.9,1020.5 		"/>
	</g>
	<g>
		<path class="st6" d="M209,1053c-5-15.4,3.4-31.9,18.8-36.8c15.4-5,31.9,3.4,36.8,18.8c5,15.4-3.4,31.9-18.8,36.8
			C230.6,1076.8,214,1068.4,209,1053z"/>
		<path class="st6" d="M228.1,1016.9c14.9-4.8,31,3.4,35.8,18.3c4.8,14.9-3.4,31-18.3,35.8c-14.9,4.8-31-3.4-35.8-18.3
			C204.9,1037.8,213.1,1021.8,228.1,1016.9 M227.6,1015.4c-15.7,5.1-24.5,22-19.4,37.9c5.1,15.9,22,24.5,37.9,19.4
			c15.9-5.1,24.5-22,19.4-37.9C260.3,1018.9,243.4,1010.3,227.6,1015.4L227.6,1015.4z"/>
	</g>
	<g>
		<path class="st6" d="M171.6,1065.1c-5-15.4,3.4-31.9,18.8-36.8c15.4-5,31.9,3.4,36.8,18.8c5,15.4-3.4,31.9-18.8,36.8
			C193.2,1088.8,176.6,1080.5,171.6,1065.1z"/>
		<path class="st6" d="M190.7,1029c14.9-4.8,31,3.4,35.8,18.3c4.8,14.9-3.4,31-18.3,35.8s-31-3.4-35.8-18.3
			C167.6,1049.9,175.8,1033.8,190.7,1029 M190.2,1027.4c-15.7,5.1-24.5,22-19.4,37.9c5.1,15.9,22,24.5,37.9,19.4s24.5-22,19.4-37.9
			S206.1,1022.3,190.2,1027.4L190.2,1027.4z"/>
	</g>
	<g>
		<path class="st6" d="M-212.7,1045.3c-5-15.4,3.4-31.9,18.8-36.8c15.4-5,31.9,3.4,36.8,18.8c5,15.4-3.4,31.9-18.8,36.8
			C-191.1,1069-207.7,1060.7-212.7,1045.3z"/>
		<path class="st6" d="M-193.6,1009.2c14.9-4.8,31,3.4,35.8,18.3c4.8,14.9-3.4,31-18.3,35.8s-31-3.4-35.8-18.3
			C-216.8,1030.1-208.5,1014-193.6,1009.2 M-194.1,1007.7c-15.7,5.1-24.5,22-19.4,37.9s22,24.5,37.9,19.4
			c15.9-5.1,24.5-22,19.4-37.9C-161.4,1011.2-178.3,1002.5-194.1,1007.7L-194.1,1007.7z"/>
	</g>
	<g>
		<path class="st6" d="M106,1074.6c-6.8-21.2,4.8-44,26-50.8s44,4.8,50.8,26c6.8,21.2-4.8,44-26,50.8S112.9,1095.8,106,1074.6z"/>
		<path class="st6" d="M132.3,1024.5c20.8-6.7,43.1,4.8,49.8,25.5c6.7,20.7-4.8,43.1-25.5,49.8c-20.7,6.7-43.1-4.8-49.8-25.5
			C100.1,1053.7,111.6,1031.2,132.3,1024.5 M131.8,1023c-21.6,7-33.5,30.2-26.5,51.9c7,21.6,30.2,33.5,51.9,26.5
			c21.6-7,33.5-30.2,26.5-51.9C176.6,1027.9,153.4,1016,131.8,1023L131.8,1023z"/>
	</g>
	<g>
		<path class="st6" d="M-395.2,996.9c-6.8-21.2,4.8-44,26-50.8c21.2-6.8,44,4.8,50.8,26c6.8,21.2-4.8,44-26,50.8
			C-365.6,1029.7-388.4,1018-395.2,996.9z"/>
		<path class="st6" d="M-369,946.8c20.8-6.7,43.1,4.8,49.8,25.5s-4.8,43.1-25.5,49.8c-20.7,6.7-43.1-4.8-49.8-25.5
			S-389.7,953.5-369,946.8 M-369.5,945.3c-21.6,7-33.5,30.2-26.5,51.9c7,21.6,30.2,33.5,51.9,26.5c21.6-7,33.5-30.2,26.5-51.9
			S-347.9,938.3-369.5,945.3L-369.5,945.3z"/>
	</g>
	<g>
		<path class="st6" d="M27,1082c-6.8-21.2,4.8-44,26-50.8s44,4.8,50.8,26c6.8,21.2-4.8,44-26,50.8S33.8,1103.2,27,1082z"/>
		<path class="st6" d="M53.2,1032c20.8-6.7,43.1,4.8,49.8,25.5c6.7,20.7-4.8,43.1-25.5,49.8s-43.1-4.8-49.8-25.5
			C21.1,1061.1,32.6,1038.7,53.2,1032 M52.7,1030.4c-21.6,7-33.5,30.2-26.5,51.9c7,21.6,30.2,33.5,51.9,26.5
			c21.6-7,33.5-30.2,26.5-51.9C97.6,1035.3,74.4,1023.4,52.7,1030.4L52.7,1030.4z"/>
	</g>
	<g>
		<path class="st6" d="M-87,1062.6c-11.1-34.2,7.8-71.2,42.1-82.2s71.2,7.8,82.2,42.1s-7.8,71.2-42.1,82.2
			C-39,1115.7-76,1096.8-87,1062.6z"/>
		<path class="st6" d="M-44.6,981.6c33.7-10.9,69.8,7.7,80.6,41.2s-7.7,69.8-41.2,80.6c-33.5,10.8-69.8-7.7-80.6-41.2
			C-96.6,1028.7-78,992.4-44.6,981.6 M-45.4,979.1c-35,11.3-54.2,48.9-42.9,83.9c11.3,35,48.9,54.2,83.9,42.9
			c35-11.3,54.2-48.9,42.9-83.9C27.2,987-10.4,967.8-45.4,979.1L-45.4,979.1z"/>
	</g>
	<g>
		<path class="st6" d="M-330.2,1043.1c-11.1-34.2,7.8-71.2,42.1-82.2c34.2-11.1,71.2,7.8,82.2,42.1c11.1,34.2-7.8,71.2-42.1,82.2
			S-319.1,1077.3-330.2,1043.1z"/>
		<path class="st6" d="M-287.7,962.1c33.7-10.9,69.8,7.7,80.6,41.2c10.8,33.5-7.7,69.8-41.2,80.6c-33.5,10.8-69.8-7.7-80.6-41.2
			C-339.8,1009.2-321.2,973-287.7,962.1 M-288.6,959.6c-35,11.3-54.2,48.9-42.9,83.9c11.3,35,48.9,54.2,83.9,42.9
			s54.2-48.9,42.9-83.9C-216,967.5-253.6,948.3-288.6,959.6L-288.6,959.6z"/>
	</g>
	<g>
		<path class="st6" d="M-169.2,1089.1c-11.1-34.2,7.8-71.2,42.1-82.2s71.2,7.8,82.2,42.1c11.1,34.2-7.8,71.2-42.1,82.2
			S-158.1,1123.3-169.2,1089.1z"/>
		<path class="st6" d="M-126.7,1008.1c33.7-10.9,69.8,7.7,80.6,41.2c10.8,33.5-7.7,69.8-41.2,80.6c-33.5,10.8-69.8-7.7-80.6-41.2
			C-178.7,1055.3-160.2,1019-126.7,1008.1 M-127.5,1005.6c-35,11.3-54.2,48.9-42.9,83.9c11.3,35,48.9,54.2,83.9,42.9
			s54.2-48.9,42.9-83.9C-54.9,1013.6-92.5,994.3-127.5,1005.6L-127.5,1005.6z"/>
	</g>
	<g>
		<path class="st6" d="M79.2,1112.3c-4.5-13.8,3.1-28.7,16.9-33.1c13.8-4.5,28.7,3.1,33.1,16.9s-3.1,28.7-16.9,33.1
			C98.5,1133.7,83.7,1126.1,79.2,1112.3z"/>
		<path class="st6" d="M96.4,1079.9c13.5-4.4,27.8,3,32.1,16.4s-3,27.8-16.4,32.1c-13.4,4.3-27.8-3-32.1-16.4S83,1084.3,96.4,1079.9
			 M95.9,1078.4c-14.3,4.6-22.1,19.9-17.5,34.2c4.6,14.3,19.9,22.1,34.2,17.5s22.1-19.9,17.5-34.2
			C125.4,1081.6,110.2,1073.8,95.9,1078.4L95.9,1078.4z"/>
	</g>
	<g>
		<path class="st6" d="M260.7,1061.7c-3.2-9.8,2.2-20.3,12-23.5c9.8-3.2,20.3,2.2,23.5,12s-2.2,20.3-12,23.5
			C274.4,1076.9,263.9,1071.5,260.7,1061.7z"/>
		<path class="st6" d="M273,1039.2c9.3-3,19.4,2.1,22.4,11.5c3,9.3-2.1,19.4-11.5,22.4s-19.4-2.1-22.4-11.5
			C258.6,1052.3,263.7,1042.2,273,1039.2 M260,1062.1c3.3,10.3,14.2,15.8,24.5,12.5c10.3-3.3,15.8-14.2,12.5-24.5
			s-14.2-15.8-24.5-12.5C262.4,1040.9,256.7,1051.8,260,1062.1z"/>
	</g>
	<g>
		<path class="st6" d="M-426.5,958.2c-3.2-9.8,2.2-20.3,12-23.5c9.8-3.2,20.3,2.2,23.5,12s-2.2,20.3-12,23.5
			C-412.8,973.4-423.3,968-426.5,958.2z"/>
		<path class="st6" d="M-414.2,935.7c9.3-3,19.4,2.1,22.4,11.5c3,9.3-2.1,19.4-11.5,22.4c-9.3,3-19.4-2.1-22.4-11.5
			C-428.7,948.8-423.5,938.7-414.2,935.7 M-414.7,934.1c-10.1,3.3-15.8,14.2-12.5,24.5c3.3,10.3,14.2,15.8,24.5,12.5
			c10.3-3.3,15.8-14.2,12.5-24.5C-393.5,936.4-404.4,930.8-414.7,934.1L-414.7,934.1z"/>
	</g>
	<polyline class="st6" points="-573.8,1352.1 -684.9,1008.7 -436.2,928.3 -357.6,982 47.4,1069.9 169.5,1160.5 	"/>
</g>
</svg>
