<?xml version="1.0" encoding="utf-8"?>
<!-- Generator: Adobe Illustrator 22.1.0, SVG Export Plug-In . SVG Version: 6.00 Build 0)  -->
<svg version="1.1" id="Layer_1" xmlns="http://www.w3.org/2000/svg" xmlns:xlink="http://www.w3.org/1999/xlink" x="0px" y="0px"
	 viewBox="0 0 2119.9 307" style="enable-background:new 0 0 2119.9 307;" xml:space="preserve">
<style type="text/css">
	.st0{display:none;fill:url(#SVGID_1_);}
	.st1{opacity:0.28;fill:#E8EDF1;}
	.st2{fill:#E8EDF1;}
</style>
<linearGradient id="SVGID_1_" gradientUnits="userSpaceOnUse" x1="1064.97" y1="385.727" x2="1064.97" y2="84.5191">
	<stop  offset="0" style="stop-color:#E8EDF1"/>
	<stop  offset="0.3503" style="stop-color:#91CEEB"/>
	<stop  offset="0.7564" style="stop-color:#27A8E3"/>
	<stop  offset="0.8832" style="stop-color:#059CE0"/>
</linearGradient>
<rect class="st0" width="2129.9" height="307"/>
<path class="st1" d="M1676.8,262.1c1-2.6,1.4-5.4,1.1-8.4c-1-10-9.9-17.1-19.8-16.1c-9.8,1-17.1,9.9-16.1,19.8
	c0,0.2,0.1,0.4,0.1,0.6l-7.6-0.9c-5.2-11.4-17.2-18.7-30.3-17.3c-5.8,0.6-11,2.8-15.2,6.1c0-1.3,0-2.6-0.2-4
	c-1.8-17.2-17.1-29.6-34.3-27.8c-11.5,1.2-21,8.6-25.4,18.7c-2-8.8-10.2-15-19.5-14c-9.8,1-17.1,9.9-16.1,19.8
	c0.1,0.7,0.2,1.3,0.3,2l-0.2,0c0-0.5-0.1-0.9-0.1-1.4c-1.3-12.6-12.5-21.6-25-20.3c-2.6,0.3-5.1,1-7.4,2.1c0.2-2.3,0.2-4.7,0-7.1
	c-2-19.4-19.3-33.4-38.7-31.4c-8.7,0.9-16.3,4.9-21.9,10.9c-6.7-4.6-15-7-23.8-6.1c-4.4,0.5-8.6,1.8-12.4,3.7
	c-5-33-35.2-56.6-68.7-53.1c-23.9,2.5-43.2,18.1-51.7,38.9c-5.1-32.8-35.2-56.3-68.7-52.8c-20.7,2.2-38,14.2-47.8,31
	c-6.1-10.3-17.9-16.7-30.5-15.3c-3.7,0.4-7.1,1.4-10.3,2.9c0.1-2.2,0-4.4-0.2-6.7c-2.9-27.9-28-48.2-55.9-45.3
	c-4.1,0.4-8,1.3-11.7,2.6c-16.5-41-58.8-68-104.9-63.2c-20.4,2.1-38.8,10.2-53.6,22.3c-5.8-19.6-25-33-46.1-30.8
	c-10,1-18.8,5.4-25.5,11.9c-5.8,1.6-11,4.2-15.5,7.7C763-9.6,715.5-45.3,663-39.8c-25.8,2.7-48.4,14.9-64.6,32.7
	C590.7-36.6,562.3-57,531-53.7c-22.1,2.3-40.3,15.9-49.6,34.3c-5.3-11-17-17.9-29.8-16.6c-8.5,0.9-15.9,5.4-20.7,11.9
	c-2.3-15.7-16.5-26.9-32.5-25.2c-3.2,0.3-6.2,1.2-9,2.4c-5.9-34-37.2-58.1-72-54.5c-21,2.2-38.7,14.1-49.2,30.7
	C263.6-87,247.9-98,230.4-96.2c-6.1,0.6-11.6,2.8-16.4,6c-4.5-16.4-20.3-27.6-37.8-25.7c-15.6,1.6-27.9,13.2-31,27.9
	c-3.1-12-12.2-21.2-23.6-24.8l50.4-59.6l-207.3-17.5l-39.9,481.6l1744.6,71.8l81.1-92.8L1676.8,262.1z M1240.1,210.3
	c0,0.2,0.1,0.5,0.1,0.7l-0.4,0C1239.9,210.7,1240,210.5,1240.1,210.3z"/>
<path class="st2" d="M1983.8-28.5l-6.4,5.9c-1-0.2-2.1-0.3-3.1-0.3c-10.8,0-19.5,8.7-19.5,19.5c0,0.5,0,1.1,0.1,1.6l-6.3,5.9
	c-4.3-1.5-9-2.4-13.8-2.4c-22.7,0-41.2,18.5-41.2,41.2c0,1.8,0.1,3.7,0.4,5.4c-9.5-5.2-20.3-8.1-31.8-8.1
	c-36.8,0-66.6,29.9-66.6,66.6c0,3.2,0.2,6.4,0.7,9.5c-2.9-0.9-6-1.4-9.1-1.4c-15.9,0-28.9,12.3-30,27.9c-10-5.9-21.6-9.4-34-9.4
	c-16.5,0-31.5,6-43.2,15.9c-11.6-9.9-26.7-15.9-43.2-15.9c-36.8,0-66.6,29.9-66.6,66.6c0,4.9,0.6,9.7,1.6,14.4
	c-3.9-1.3-8.1-1.9-12.5-1.9c-17.9,0-33.1,11.4-38.8,27.3l-8.3,3.4c-7.5-8.2-18.4-13.4-30.4-13.4c-17.6,0-32.7,11.1-38.5,26.7
	c-4.6-2.8-10-4.4-15.7-4.4c-7.5,0-14.4,2.7-19.6,7.3c-5.3-4.5-12.1-7.3-19.6-7.3c-16.7,0-30.1,13.4-30.1,30.1c0,0.4,0,0.7,0,1
	c-5.5-6.2-13.5-10-22.4-10c-16.7,0-30.1,13.4-30.1,30.1c0,9,3.9,17,10.1,22.5l-27.5,12.8l956.9-6.1v-361H1983.8z M1365.7,302.2
	c0.1,0.1,0.1,0.2,0.2,0.2l-0.2,0.1C1365.8,302.4,1365.8,302.3,1365.7,302.2z"/>
</svg>
