<?xml version="1.0" encoding="utf-8"?>
<!-- Generator: Adobe Illustrator 22.1.0, SVG Export Plug-In . SVG Version: 6.00 Build 0)  -->
<svg version="1.1" id="Layer_1" xmlns="http://www.w3.org/2000/svg" xmlns:xlink="http://www.w3.org/1999/xlink" x="0px" y="0px"
	 viewBox="0 0 2061 778" style="enable-background:new 0 0 2061 778;" xml:space="preserve">
<style type="text/css">
	.st0{fill:#FFFFFF;fill-opacity:0.6;}
	.st1{fill:#FEFBFB;}
</style>
<title>Artboard 1</title>
<path class="st0" d="M421.8,516.6l3.2-3.7c0.4-0.6,0-1.4-0.6-1.4l-2.7-0.2c-0.5,0-0.8-0.6-0.6-1l5.8-10.6c0.1-0.3-0.1-0.6-0.4-0.6
	h-9c-0.1,0-0.2,0.1-0.3,0.2c-5.2,7.9-12,10.8-15.4,11s-23.5,0-33.9,0c-12.3,0-14.6,3-19,6.9c-4.8,4.1-3.2,8.1,2.4,8.5
	c3.9,0.4,34.1,0.3,51.3,0.2C410,525.7,417.1,522.3,421.8,516.6z"/>
<path class="st1" d="M1710.6,132.9c-3.5,0-6.7,1-9.3,2.6c-4-6.3-11-10.6-19-10.6c-9.9,0-18.2,6.3-21.2,15.3c-1.7-0.6-3.5-1-5.3-1
	c-8.4,0-15.2,6.8-15.2,15.2s6.8,15.2,15.2,15.2h54.8c10.2,0,18.4-8.2,18.4-18.4C1729,141.1,1720.7,132.9,1710.6,132.9z"/>
<path class="st1" d="M1175.6,317.5c-4.9,0-9.4,1.4-13.2,3.6c-5.6-8.9-15.5-14.9-26.8-14.9c-13.9,0-25.7,8.9-30,21.6
	c-2.4-0.9-4.9-1.4-7.5-1.4c-11.9,0-21.4,9.5-21.4,21.4s9.5,21.4,21.4,21.4h77.2c14.4,0,26-11.5,26-26
	C1201.4,329.1,1189.7,317.5,1175.6,317.5z"/>
<path class="st1" d="M1562.2,206.2c-6.2,0-11.9,1.7-16.7,4.6c-7.2-11.3-19.7-18.9-34-18.9c-17.6,0-32.6,11.3-38,27.3
	c-3-1.1-6.2-1.7-9.5-1.7c-15.1,0-27.2,12.1-27.2,27.2c0,15.1,12.1,27.2,27.2,27.2h97.9c18.3,0,32.9-14.6,32.9-32.9
	C1594.9,221,1580.2,206.2,1562.2,206.2z"/>
<path class="st1" d="M2124.7,180.8c-9.7,0-18.7,2.7-26.2,7.2c-11.2-17.7-30.9-29.7-53.4-29.7c-27.7,0-51.1,17.7-59.6,42.9
	c-4.7-1.7-9.7-2.7-15-2.7c-23.7,0-42.6,19-42.6,42.6c0,23.7,19,42.6,42.6,42.6h153.6c28.7,0,51.6-22.9,51.6-51.6
	C2176.1,204,2152.9,180.8,2124.7,180.8z"/>
</svg>
