<?xml version="1.0" encoding="utf-8"?>
<!-- Generator: Adobe Illustrator 22.1.0, SVG Export Plug-In . SVG Version: 6.00 Build 0)  -->
<svg version="1.1" id="Layer_1" xmlns="http://www.w3.org/2000/svg" xmlns:xlink="http://www.w3.org/1999/xlink" x="0px" y="0px"
	 viewBox="0 0 100 100" style="enable-background:new 0 0 100 100;" xml:space="preserve">
<style type="text/css">
	.st0{fill:#FFFFFF;}
	.st1{fill:#29ABE2;}
	.st2{fill:#050505;}
	.st3{display:none;fill:none;}
	.st4{fill:#EF6326;}
	.st5{fill:#34A9D1;}
	.shirtcolor{fill:#34A9D1;}
	.skinclor{fill:#EF6326;}
	.colar{fill:#FFFFFF;}
	.construction_x0020_yellow_x0020_shade{fill:#D6A029;}
	.construction_x0020_yellow{fill:#F2CE36;}
	.metal{fill:#D6D6D6;}
	.eye{fill:#29ABE2;}
	.pupil{fill:#050505;}
	.eyeball{fill:#FFFFFF;}
	.st6{opacity:0.25;fill:#020202;enable-background:new    ;}
	.st7{fill:#FF6D93;}
	.st8{fill:#552A15;}
	.st9{fill:#CC342F;}
	.st10{fill:#F2CE36;}
</style>
<symbol  id="New_Symbol_1_" viewBox="-33 -32.2 66 64.4">
	<g>
		<g>
			<g>
				<g>
					<path class="eyeball" d="M-32.2,0.7C-32.6-17-18.5-31.8-0.7-32.2C17-32.6,31.8-18.5,32.2-0.7C32.6,17,18.5,31.8,0.7,32.2
						C-17,32.6-31.8,18.5-32.2,0.7z"/>
					<path id="eye_1_" class="eye" d="M-21.7,0.5c-0.3-12,9.3-22,21.3-22.3s22,9.3,22.3,21.3s-9.3,22-21.3,22.3S-21.4,12.5-21.7,0.5
						z"/>
					<path class="pupil" d="M-11.9,0.3c-0.2-6.6,4.1-12,11.6-12.2c6.6-0.2,12,5.1,12.2,11.6c0.2,6.6-5.1,12-11.6,12.2
						C-6.3,12-11.7,6.8-11.9,0.3z"/>
				</g>
				<polygon class="st3" points="-33,32 33,32 33,-32 -33,-32 				"/>
			</g>
		</g>
	</g>
</symbol>
<symbol  id="face" viewBox="-123.4 -130.2 246.8 260.4">
	<path class="skinclor" d="M123.4-4.6v0.3v134.5H4.9H4.8c-68.7,0-128.2-65.1-128.2-134.8c0-69.8,54.7-125.6,124.4-125.6
		S123.4-74.5,123.4-4.6C123.4-4.7,123.4-4.6,123.4-4.6z"/>
</symbol>
<symbol  id="hand_2_2_" viewBox="-57.1 -5.8 63.9 68">
	
		<rect x="-45.3" y="14.6" transform="matrix(-0.6546 -0.7559 0.7559 -0.6546 -41.3686 20.2336)" class="skinclor" width="58.4" height="9.9"/>
	<circle class="skinclor" cx="-41" cy="46.2" r="16.1"/>
</symbol>
<symbol  id="lefthand_2_1_" viewBox="-65.9 -50.4 70.3 54.7">
	<path class="shirtcolor" d="M2.7-3.5L-59-49.6c-1.9-1.4-4.6-1-6,0.9l0,0c-1.4,1.9-1,4.6,0.9,6L-2.5,3.4c1.9,1.4,4.6,1,6-0.9l0,0
		C5,0.6,4.6-2.1,2.7-3.5z"/>
</symbol>
<symbol  id="neck" viewBox="-9.5 -21.5 19.1 38.6">
	<path class="st4" d="M0-21.5L0-21.5c5.3,0,9.5,4.3,9.5,9.5V7.6c0,5.3-4.3,9.5-9.5,9.5h0c-5.3,0-9.5-4.3-9.5-9.5V-12
		C-9.5-17.2-5.3-21.5,0-21.5z"/>
</symbol>
<symbol  id="righteye_1_" viewBox="-32.5 -32.2 65 64.4">
	<g>
		<g>
			<path class="st0" d="M31.9,0c0-17.8-14.4-32.2-32.2-32.2S-32.5-17.8-32.5,0s14.4,32.2,32.2,32.2S31.9,17.8,31.9,0z"/>
			<path class="eye" d="M21.4,0c0-12.1-9.8-21.8-21.8-21.8S-22.3-12.1-22.3,0s9.8,21.8,21.9,21.8S21.4,12.1,21.4,0z"/>
			<path class="st2" d="M11.6,0c0-6.6-4.4-11.9-11.9-11.9c-6.6,0-11.9,5.3-11.9,11.9s5.3,11.9,11.9,11.9S11.6,6.6,11.6,0z"/>
		</g>
		<polygon class="st3" points="-32.5,32 32.5,32 32.5,-32 -32.5,-32 		"/>
	</g>
</symbol>
<symbol  id="righthand_1_" viewBox="-3.6 -70.4 48.5 74.4">
	
		<use xlink:href="#lefthand_2_1_"  width="70.3" height="54.7" id="XMLID_4_" x="-65.9" y="-50.4" transform="matrix(9.629484e-02 0.9954 -0.9954 9.629484e-02 0.6244 -0.3814)" style="overflow:visible;"/>
</symbol>
<g id="head_x5F_m">
	
		<use xlink:href="#face"  width="246.8" height="260.4" x="-123.4" y="-130.2" transform="matrix(0.2224 0 0 -0.223 51.1539 47.5757)" style="overflow:visible;"/>
	<path class="st4" d="M70.6,63.1c0,2.1,1.7,3.8,3.8,3.8s3.8-1.7,3.8-3.8s-1.7-3.8-3.8-3.8S70.6,61,70.6,63.1z"/>
	<path class="st6" d="M72.1,63.1c0,1.2,1,2.3,2.2,2.3s2.2-1,2.2-2.3c0-1.2-1-2.3-2.2-2.3S72.1,61.9,72.1,63.1z"/>
	<g id="New_Symbol">
		<g>
			<g>
				<g>
					<g>
						<path class="eyeball" d="M55.5,63.4c-0.1,3.9,3,7.2,7,7.3c3.9,0.1,7.2-3.1,7.3-7c0.1-3.9-3-7.2-7-7.3
							C58.8,56.3,55.5,59.5,55.5,63.4z"/>
						<path id="eye_2_" class="eye" d="M57.8,63.5c-0.1,2.7,2.1,4.9,4.7,5c2.7,0.1,4.9-2.1,5-4.7c0.1-2.7-2.1-4.9-4.7-5
							C60.1,58.7,57.9,60.8,57.8,63.5z"/>
						<path class="pupil" d="M60,63.5c0,1.5,0.9,2.7,2.6,2.7c1.5,0,2.7-1.1,2.7-2.6c0-1.5-1.1-2.7-2.6-2.7
							C61.2,60.9,60,62.1,60,63.5z"/>
					</g>
					<polygon class="st3" points="55.3,56.5 70,56.5 70,70.7 55.3,70.7 					"/>
				</g>
			</g>
		</g>
	</g>
	<g id="righteye">
		<path class="st0" d="M46.9,63.6c0,4-3.2,7.2-7.2,7.2s-7.2-3.2-7.2-7.2s3.2-7.2,7.2-7.2S46.9,59.6,46.9,63.6z"/>
		<path class="eye" d="M44.6,63.6c0,2.7-2.2,4.9-4.9,4.9c-2.7,0-4.9-2.2-4.9-4.9c0-2.7,2.2-4.9,4.9-4.9S44.6,60.9,44.6,63.6z"/>
		<path class="st2" d="M42.4,63.6c0,1.5-1,2.7-2.6,2.7c-1.5,0-2.6-1.2-2.6-2.7c0-1.5,1.2-2.7,2.6-2.7C41.2,61,42.4,62.1,42.4,63.6z"
			/>
		<polygon class="st3" points="-80,87.7 50.6,87.7 50.6,216.6 -80,216.6 		"/>
	</g>
	<path class="st4" d="M21.9,60.1c0,2.1,1.7,3.8,3.8,3.8s3.8-1.7,3.8-3.8s-1.7-3.8-3.8-3.8S21.9,58,21.9,60.1z"/>
	<path class="st6" d="M23.5,60.1c0,1.2,1,2.3,2.2,2.3c1.2,0,2.2-1,2.2-2.3c0-1.2-1-2.3-2.2-2.3C24.5,57.8,23.5,58.8,23.5,60.1z"/>
	<path class="st7" d="M31.7,57.5"/>
	<g>
		<g>
			<path class="st8" d="M47.1,67.8c-0.3,0.1-0.4,0.4-0.3,0.6c0.6,1.5,2.4,2.8,4.4,2.8c2.1,0,3.8-1.3,4.4-2.8c0.1-0.3,0-0.5-0.3-0.6
				C52.9,67,49.6,67,47.1,67.8z"/>
		</g>
	</g>
	<g>
		<g>
			<path class="st9" d="M49,70.7c0.7,0.3,1.4,0.5,2.2,0.5c0.8,0,1.6-0.2,2.2-0.5c-0.6-0.5-1.4-0.7-2.2-0.7
				C50.4,70,49.6,70.3,49,70.7z"/>
		</g>
	</g>
	<path class="st0" d="M55.3,67.8c-2.5-0.8-5.8-0.8-8.3,0c-0.2,0.1-0.4,0.3-0.3,0.5h8.9C55.7,68.1,55.6,67.9,55.3,67.8z"/>
</g>
<g id="safetyhelmet">
	<path class="construction_x0020_yellow" d="M43,19.3c0.1-9.4,7.7-17,17.1-16.9c9.4,0,17,7.7,16.9,17.1"/>
	<path class="construction_x0020_yellow" d="M77.8,20.5l-35.5-0.2c-0.5,0-0.9-0.4-0.9-0.9V19c0-0.5,0.4-0.9,0.9-0.9l35.5,0.2
		c0.5,0,0.9,0.4,0.9,0.9v0.5C78.6,20.1,78.2,20.5,77.8,20.5z"/>
	<path class="construction_x0020_yellow_x0020_shade" d="M60.1,17.2L60.1,17.2c-1.6,0-2.9-1.2-3-2.8L56.4,0.9c0-0.5,0.4-0.9,0.9-0.9
		H63c0.5,0,0.9,0.4,0.9,0.9l-0.8,13.5C63,16,61.7,17.2,60.1,17.2z"/>
	<polygon class="construction_x0020_yellow_x0020_shade" points="76.7,17.9 43.4,17.9 43.4,18.3 76.7,18.3 	"/>
	<path class="construction_x0020_yellow_x0020_shade" d="M62.8,14c0,1.5-1.2,2.7-2.7,2.7c-1.5,0-2.7-1.2-2.7-2.7s1.2-2.7,2.7-2.7
		C61.6,11.4,62.8,12.5,62.8,14z"/>
</g>
<g id="schoevendraaier">
	<g>
		<polygon class="metal" points="14.5,65 14.8,64.9 18.3,76.5 18,76.6 		"/>
		<path class="metal" d="M13.8,63.8l1-0.3l0.3,1.1c-0.2,0.1-0.3,0.2-0.2,0.4L14.5,65c-0.1-0.2-0.2-0.3-0.4-0.2L13.8,63.8z"/>
	</g>
	<path class="st10" d="M17.4,76.6l1.4-0.4c0.3-0.1,0.5,0.1,0.6,0.3l2.1,7c0.1,0.4-0.1,0.9-0.6,1l-0.8,0.2c-0.4,0.1-0.9-0.1-1-0.6
		l-2.1-7C17,77,17.2,76.7,17.4,76.6z"/>
	<path class="construction_x0020_yellow" d="M17,76.7l2.3-0.7c0.2-0.1,0.3,0,0.4,0.2l0,0c0.1,0.2,0,0.3-0.2,0.4l-2.3,0.7
		c-0.2,0.1-0.3,0-0.4-0.2l0,0C16.7,76.9,16.8,76.8,17,76.7z"/>
	<g>
		<path class="construction_x0020_yellow_x0020_shade" d="M19,76.8L19,76.8c0.1,0,0.2,0,0.2,0.1l2.1,7c0,0.1,0,0.2-0.1,0.2l0,0
			c-0.1,0-0.2,0-0.2-0.1l-2.1-7C18.8,76.9,18.9,76.8,19,76.8z"/>
		<path class="construction_x0020_yellow_x0020_shade" d="M17.6,77.2L17.6,77.2c0.1,0,0.2,0,0.2,0.1l2.1,7c0,0.1,0,0.2-0.1,0.2l0,0
			c-0.1,0-0.2,0-0.2-0.1l-2.1-7C17.5,77.3,17.6,77.2,17.6,77.2z"/>
		<path class="construction_x0020_yellow_x0020_shade" d="M18.3,77L18.3,77c0.1,0,0.2,0,0.2,0.1l2.1,7c0,0.1,0,0.2-0.1,0.2l0,0
			c-0.1,0-0.2,0-0.2-0.1l-2.1-7C18.2,77.1,18.2,77,18.3,77z"/>
	</g>
</g>
<use xlink:href="#neck"  width="19.1" height="38.6" x="-9.5" y="-21.5" transform="matrix(0.2173 0 0 -0.2173 50.8506 78.1037)" style="overflow:visible;"/>
<g id="left_arm_2_1_">
	<g id="hand_2_1_">
	</g>
	<g>
		
			<rect x="63.9" y="90.6" transform="matrix(0.5606 -0.8281 0.8281 0.5606 -45.4332 97.157)" class="skinclor" width="9.9" height="1.7"/>
		<circle class="skinclor" cx="72.1" cy="86.2" r="2.7"/>
		<path class="shirtcolor" d="M65,95.5l1.7-2.6l1.6,1l-1.7,2.6c-0.3,0.4-0.9,0.6-1.3,0.3l0,0C64.8,96.6,64.7,96,65,95.5z"/>
	</g>
</g>
<g id="New_Symbol_1">
	<g id="righthand">
	</g>
</g>
<g id="rightarm">
	<g id="lefthand_2">
		<path class="shirtcolor" d="M46.8,82.5L31,88c-0.5,0.2-0.7,0.7-0.6,1.2h0c0.2,0.5,0.7,0.7,1.2,0.6l15.8-5.5
			c0.5-0.2,0.7-0.7,0.6-1.2h0C47.8,82.6,47.2,82.4,46.8,82.5z"/>
	</g>
	<path class="shirtcolor" d="M66.4,95.6L55.5,82.9c-0.3-0.4-0.9-0.4-1.3-0.1h0c-0.4,0.3-0.4,0.9-0.1,1.3L65,96.8
		c0.3,0.4,0.9,0.4,1.3,0.1l0,0C66.7,96.6,66.8,96,66.4,95.6z"/>
</g>
<g id="so_1_">
	<rect x="47" y="82.6" class="shirtcolor" width="8.2" height="17.4"/>
</g>
<g id="colar">
	<g>
		<polygon class="st0" points="53,82.6 50.9,86 48.8,82.6 		"/>
	</g>
	<polygon class="st0" points="46.2,82.9 48.6,78.6 51.1,82.9 	"/>
	<polygon class="colar" points="50.5,82.9 53,78.6 55.4,82.9 	"/>
	<polygon class="st3" points="41.5,288.7 127.8,288.7 127.8,353.5 41.5,353.5 	"/>
</g>
<g id="left_arm_2">
	<g id="hand_2">
		
			<rect x="21.7" y="84.7" transform="matrix(-0.8216 -0.5701 0.5701 -0.8216 -0.3 171.0714)" class="skinclor" width="9.9" height="1.7"/>
		<circle class="skinclor" cx="21.7" cy="81.9" r="2.7"/>
	</g>
	<g>
		<path class="shirtcolor" d="M31.7,88.1l-2.5-1.8l-1.1,1.5l2.5,1.8c0.4,0.3,1,0.2,1.3-0.2h0C32.2,88.9,32.1,88.4,31.7,88.1z"/>
	</g>
</g>
</svg>
