<?xml version="1.0" encoding="utf-8"?>
<!-- Generator: Adobe Illustrator 22.1.0, SVG Export Plug-In . SVG Version: 6.00 Build 0)  -->
<svg version="1.1" id="Layer_1" xmlns="http://www.w3.org/2000/svg" xmlns:xlink="http://www.w3.org/1999/xlink" x="0px" y="0px"
	 viewBox="0 0 170.5 36.8" style="enable-background:new 0 0 170.5 36.8;" xml:space="preserve">
<style type="text/css">
	.st0{fill:#FBAE17;}
	.st1{fill:#C1272D;stroke:#C1272D;stroke-miterlimit:10;}
	.st2{fill:#C1272D;}
</style>
<g>
	<path class="st0" d="M165.1,9.2L165.1,9.2c2.5,0,4.5-2,4.5-4.5v0c0-2.5-2-4.5-4.5-4.5l0,0c-2.5,0-4.5,2-4.5,4.5v0
		C160.5,7.2,162.6,9.2,165.1,9.2z"/>
	<path class="st0" d="M163.9,13.7h2c0.1,0,0.2-0.1,0.2-0.2V6.9c0-0.1-0.1-0.2-0.2-0.2h-2c-0.1,0-0.2,0.1-0.2,0.2v6.6
		C163.8,13.6,163.8,13.7,163.9,13.7z"/>
	
		<rect x="161.2" y="13.8" transform="matrix(-1 -5.169077e-11 5.169077e-11 -1 330.3133 50.5565)" class="st1" width="7.9" height="22.9"/>
	<path class="st0" d="M159.8,13.7h10.4c0.2,0,0.4-0.2,0.4-0.4v0c0-0.2-0.2-0.4-0.4-0.4h-10.4c-0.2,0-0.4,0.2-0.4,0.4v0
		C159.4,13.5,159.6,13.7,159.8,13.7z"/>
</g>
<g>
	<g>
		<path class="st2" d="M80.1,36c-16.2,0-32.4-2.9-47.9-8.7L8.6,18.2L9.4,16l23.7,8.8c29.9,11.2,63,11.3,93,0.3l25.1-9.3l0.7,2.5
			l-24.9,9.4C111.9,33.2,96,36,80.1,36z"/>
	</g>
	<path class="st0" d="M9.9,16.1l-1.1,2.3l-3.2-1.5c-0.6-0.3-0.9-1.1-0.6-1.7l0,0c0.3-0.6,1.1-0.9,1.7-0.6L9.9,16.1z"/>
	<path class="st0" d="M150.6,16.1l1.1,2.3l3.2-1.5c0.6-0.3,0.9-1.1,0.6-1.7v0c-0.3-0.6-1.1-0.9-1.7-0.6L150.6,16.1z"/>
	<path class="st0" d="M2,11.3L2,11.3c-1.1,0-1.9,0.9-1.9,1.9s0.9,1.9,1.9,1.9h0c1.1,0,1.9-0.9,1.9-1.9S3,11.3,2,11.3z M2,14.6
		c-0.8,0-1.4-0.6-1.4-1.4s0.6-1.4,1.4-1.4c0.8,0,1.4,0.6,1.4,1.4S2.7,14.6,2,14.6z"/>
	<rect x="3.3" y="14.1" transform="matrix(0.866 0.5 -0.5 0.866 7.8737 -0.2908)" class="st0" width="2.4" height="0.9"/>
	<path class="st0" d="M156.7,13.2c0,1.1,0.9,1.9,1.9,1.9h0c1.1,0,1.9-0.9,1.9-1.9s-0.9-1.9-1.9-1.9h0
		C157.5,11.3,156.7,12.1,156.7,13.2z M157.2,13.2c0-0.8,0.6-1.4,1.4-1.4c0.8,0,1.4,0.6,1.4,1.4s-0.6,1.4-1.4,1.4
		C157.8,14.6,157.2,14,157.2,13.2z"/>
	<rect x="154.9" y="14.1" transform="matrix(-0.866 0.5 -0.5 -0.866 298.5279 -50.896)" class="st0" width="2.4" height="0.9"/>
</g>
</svg>
