<?xml version="1.0" encoding="utf-8"?>
<!-- Generator: Adobe Illustrator 22.1.0, SVG Export Plug-In . SVG Version: 6.00 Build 0)  -->
<svg version="1.1" id="Layer_1" xmlns="http://www.w3.org/2000/svg" xmlns:xlink="http://www.w3.org/1999/xlink" x="0px" y="0px"
	 viewBox="0 0 187 169" style="enable-background:new 0 0 187 169;" xml:space="preserve">
<style type="text/css">
	.st0{fill:#272A66;}
	.st1{fill:#EE6427;}
	.st2{fill:#B44C26;}
	.st3{fill:#FEE5A6;}
	.st4{fill:#773517;}
	.st5{fill:#FFFFFF;}
	.st6{fill:#2AAAE2;}
	.st7{fill:#070707;}
	.st8{fill:none;}
	.st9{fill:#EC2227;}
	.st10{fill:#F27BAA;}
	.st11{fill:#C2082C;}
</style>
<g>
	<path class="st0" d="M31.9,73.3l4,26c-0.3,35.8,24.1,65.2,53.5,65.4l52.9,0.4c0,0,0.4-28.9,0.8-64.6l0.8-26.6L31.9,73.3z"/>
	<path class="st1" d="M147.3,73.8v-0.1l0.4-61.8l-54.4-0.4h-0.1C61.6,11.2,34.1,41,33.9,73c-0.2,32.1,24.7,57.9,56.8,58.1
		C122.7,131.3,147,105.9,147.3,73.8C147.3,73.8,147.3,73.8,147.3,73.8z"/>
	<path class="st0" d="M141.7,164.9c2.9,0,5.2-2.3,5.2-5.1l1.6-71.4l-9.9-10.2L141.7,164.9z"/>
	<path class="st1" d="M130.4,103.5c0,4.4,3.5,7.9,7.9,8c4.4,0,7.9-3.5,8-7.9c0-4.4-3.5-7.9-7.9-8C134,95.6,130.5,99.1,130.4,103.5z"
		/>
	<path class="st2" d="M133.7,103.5c0,2.6,2,4.7,4.6,4.7c2.6,0,4.7-2,4.7-4.6c0-2.6-2-4.7-4.6-4.7C135.8,98.9,133.7,101,133.7,103.5z
		"/>
	<path class="st3" d="M137.7,110.7c0-1.2-1-2.2-2.2-2.2c-1.2,0-2.2,1-2.2,2.2c0,1.2,1,2.2,2.2,2.2
		C136.7,112.9,137.7,111.9,137.7,110.7z"/>
	<path class="st4" d="M128.3,105l4.3-0.3l-4.3-0.6V105z"/>
	<path class="st4" d="M127.6,100.5l3.9-1.5l-4.2,0.6L127.6,100.5z"/>
	<path class="st4" d="M127.9,102.9l4.1-1.1l-4.2,0.2L127.9,102.9z"/>
	<g>
		<g>
			<path class="st5" d="M99.2,104c-0.2,8.1,6.2,15,14.4,15.2c8.1,0.2,15-6.2,15.2-14.4c0.2-8.1-6.2-15-14.4-15.2
				C106.3,89.4,99.5,95.8,99.2,104z"/>
			<path class="st6" d="M104.1,104.1c-0.2,5.5,4.2,10.1,9.7,10.3c5.5,0.2,10.1-4.2,10.3-9.7c0.2-5.5-4.2-10.1-9.7-10.3
				C108.9,94.2,104.2,98.6,104.1,104.1z"/>
			<path class="st7" d="M108.6,104.3c-0.1,3,1.9,5.5,5.3,5.7c3,0.1,5.5-2.3,5.7-5.3c0.1-3-2.3-5.5-5.3-5.7
				C111.2,98.9,108.7,101.3,108.6,104.3z"/>
		</g>
		<path class="st8" d="M98.8,119l30.3,0.2l0.2-29.4L99,89.6L98.8,119z"/>
	</g>
	<g>
		<path class="st4" d="M52.7,100.1l-4.3-0.4l4.1,1.4L52.7,100.1z"/>
		<path class="st4" d="M54.5,95.9l-4-1.6l3.4,2.5L54.5,95.9z"/>
		<path class="st4" d="M53.4,98.1l-4.1-1.2l3.7,2.1L53.4,98.1z"/>
		<g>
			<g>
				<path class="st5" d="M81.6,104.2c0.1-8.2-6.5-14.9-14.7-14.9C58.7,89.2,52.1,95.8,52,104c-0.1,8.2,6.5,14.9,14.7,14.9
					C74.9,119,81.5,112.4,81.6,104.2z"/>
				<path class="st6" d="M76.7,104.2c0.1-5.6-4.4-10-9.9-10.1c-5.6-0.1-10.1,4.4-10.1,9.9c-0.1,5.6,4.5,10,10,10.1
					C72.2,114.2,76.7,109.7,76.7,104.2z"/>
				<path class="st7" d="M72.3,104.1c0-3-2.4-5.5-5.4-5.5c-3,0-5.5,2.4-5.5,5.4c0,3,2.4,5.5,5.4,5.5
					C70.2,109.6,72.2,107.2,72.3,104.1z"/>
			</g>
			<path class="st8" d="M51.9,118.7l29.9,0.2l0.2-29.4l-29.8-0.2L51.9,118.7z"/>
		</g>
	</g>
	<path class="st0" d="M145.5,7.8l-52-0.4h-0.1C60.7,7.2,32.2,38,31.9,71.1c-0.1,6.7,1,13.2,2.9,19.2l43.3,2.8l6.5-9.5l2.5,5.2
		l2.2,4.6l1.2-1.7l1.5-2.2l1.2,2.4l1,2.2h0.1l1.2-1.9l1.5-2.2l1.2,2.4l0.9,2l49.1,3.2c0.2-6.2,0.3-19,0.4-25.7V72v-0.1l0.5-60.3
		C149.2,9.5,147.5,7.8,145.5,7.8z"/>
	<path class="st1" d="M29.9,96.6c0,4.4,3.5,7.9,7.9,8c4.4,0,7.9-3.5,8-7.9c0-4.4-3.5-7.9-7.9-8C33.5,88.7,30,92.2,29.9,96.6z"/>
	<path class="st2" d="M33.2,96.6c0,2.6,2,4.7,4.6,4.7c2.6,0,4.7-2,4.7-4.6c0-2.6-2-4.7-4.6-4.7C35.3,92,33.2,94,33.2,96.6z"/>
	<path class="st3" d="M43.2,104.2c0-1.2-1-2.2-2.2-2.2c-1.2,0-2.2,1-2.2,2.2c0,1.2,1,2.2,2.2,2.2C42.2,106.4,43.2,105.5,43.2,104.2z
		"/>
	<g>
		<path class="st9" d="M41.2,54.4c0.6-0.7,1-1.6,1-2.6c0-2.1-1.7-3.8-3.8-3.8c-1.1,0-2.1,0.5-2.8,1.2c-0.5-1.4-1.9-2.5-3.6-2.5
			c-2.1,0-3.8,1.7-3.8,3.8c0,0.7,0.2,1.4,0.6,2c-1.8,0.3-3.1,1.9-3.1,3.7c0,2.1,1.7,3.8,3.8,3.8c0.3,0,0.6,0,0.8-0.1c0,0,0,0,0,0.1
			c0,2.1,1.7,3.8,3.8,3.8c1.7,0,3.1-1.1,3.7-2.6c0.5,0.3,1.1,0.5,1.8,0.5c2.1,0,3.8-1.7,3.8-3.8C43.4,56.3,42.5,55,41.2,54.4z
			 M33.3,56.3C33.3,56.2,33.3,56.2,33.3,56.3c0-0.8-0.2-1.5-0.6-2.1c0.8-0.2,1.5-0.6,2.1-1.1c0.3,0.9,1,1.7,1.9,2.2
			c-0.4,0.4-0.7,0.9-0.8,1.4c-0.5-0.3-1.1-0.5-1.8-0.5C33.8,56.2,33.6,56.2,33.3,56.3z"/>
		<path class="st10" d="M37.6,55.1c0-1.5-1.2-2.7-2.7-2.8c-1.5,0-2.8,1.2-2.8,2.7c0,1.5,1.2,2.8,2.7,2.8
			C36.4,57.9,37.6,56.7,37.6,55.1z"/>
	</g>
	<g>
		<path d="M79.5,114.5c0.9,5.2,5.4,9.1,10.8,9.1c5.2,0,9.6-3.7,10.7-8.6c0,0-1.4-2-10.5-2.1C81.4,112.7,79.5,114.5,79.5,114.5z"/>
		<path class="st5" d="M79.9,116.1l20.8,0.2c0.1-0.4,0.3-0.8,0.4-1.2c0,0-1.4-2-10.5-2.1c-9.1-0.2-11,1.6-11,1.6
			C79.5,115,79.7,115.6,79.9,116.1L79.9,116.1z"/>
		<path class="st11" d="M96.1,122c-1.6-1.1-3.7-1.8-5.9-1.8c-2.2,0-4.3,0.7-5.9,1.7c1.6,1.1,3.7,1.6,5.9,1.6
			C92.4,123.6,94.5,123.1,96.1,122z"/>
	</g>
</g>
</svg>
