<?xml version="1.0" encoding="utf-8"?>
<!-- Generator: Adobe Illustrator 22.1.0, SVG Export Plug-In . SVG Version: 6.00 Build 0)  -->
<svg version="1.1" id="Layer_1" xmlns="http://www.w3.org/2000/svg" xmlns:xlink="http://www.w3.org/1999/xlink" x="0px" y="0px"
	 viewBox="0 0 2048 2048" style="enable-background:new 0 0 2048 2048;" xml:space="preserve">
<style type="text/css">
	.st0{fill:#FE6006;}
	.st1{fill:#00B7D3;}
	.st2{fill:#18C4EA;}
	.st3{fill:#142D42;}
	.st4{fill:#0685C2;}
	.st5{fill:#101719;}
	.st6{fill:#273438;}
	.st7{fill:#CBD6D8;}
	.st8{fill:#8C9799;}
	.st9{fill:#91091A;}
	.st10{fill:#EDEDED;}
	.st11{fill:#F6F6F6;}
	.st12{fill:#FEFBFB;}
	.st13{fill:#FF631E;}
	.st14{fill:#F4F4F4;}
	.st15{fill:#33CBFF;}
	.st16{fill:#163A59;}
	.st17{fill:#E5E5E5;}
	.st18{fill:#EDEDEE;}
	.st19{fill:#FCC329;}
	.st20{fill:#FE3838;}
	.st21{fill:#BEBEBE;}
</style>
<g id="document" transform="matrix(1,0,0,1,1024.0,1024.0)">
	<g>
		<g>
			<path class="st0" d="M-324.5-209.7c12.9,14.9,35.4,16.5,50.3,3.6c14.9-12.9,16.5-35.4,3.6-50.3c-12.9-14.9-35.4-16.5-50.3-3.6
				C-335.8-247.1-337.4-224.6-324.5-209.7z"/>
			<path class="st1" d="M-114.8-215.1c6.9,7.6,18.9,8.2,26.5,1.2l127.4-148c7.6-6.9,8.2-18.9,1.2-26.5s-18.9-8.2-26.5-1.2
				l-127.4,148C-121.2-234.6-121.7-222.7-114.8-215.1z"/>
			<path class="st0" d="M-202.2-236.7l-86-1.8l-0.5,23.5l86,1.8L-202.2-236.7z"/>
			<path class="st1" d="M-84.9-224.2c0.7-10.3-7.1-19.3-17.4-20l-147.5,2.8l0,34.7l144.8-0.1C-94.6-206.1-85.6-213.9-84.9-224.2z"/>
		</g>
		<g>
			<path class="st2" d="M428,257.6c-37.8-60-52.9-81.5-92.7-81.8l-270.8-2.1C24.7,173.4-7.7,205.3-8,245.1c0,0,35.3,188.5-1.8,234.1
				c-63.3,76-326.4,67.9-394.7-3c-92.6-94,4.1-532.4,4.1-532.4c0-6.1,0.2-27.5,0.2-32.1l-1-62.7l71.9,0.6
				c19.9,0.2,35.3-15,35.5-34.9c0.2-19.9-15-35.3-34.9-35.5l-76.5-0.6c-3-10.7-7.5-19.9-13.6-27.6l66.1-42.3l-0.1,16.8
				c-0.1,13.8,12,26.1,25.8,26.2c13.8,0.1,26.1-12,26.2-25.8l0.9-120.9c0.1-13.8-12-26.1-25.8-26.2c-13.8-0.1-26.1,12-26.2,25.8
				l-0.5,67.3l-93.8,60.5c-9.2-3.1-18.3-6.3-27.5-6.3l-202.4,59.6c-3.1,1.5-6.1,3-9.2,3l-1.5,192.8c3.1,0,6.1,0,9.2,0.1l44.4,0.3
				C-726.4,160-860,420.6-874.6,721.9c-1.8,39.8,23.9,72.1,54.5,72.3l289.2,2.2l67.3,0.5l523.2,4l269.3,2.1l149.9,1.1
				c39.8,0.3,63-33.2,72.5-71.4C586,592.4,496,363.7,428,257.6z"/>
			<path class="st3" d="M500,241.3l0.2-27.5c0.4-45.9-33-82.9-74.3-83.2l-434.5-3.3c-41.3-0.3-75.2,36.1-75.6,82l-0.2,27.5
				c-0.4,45.9,33,82.9,74.3,83.2l434.5,3.3C465.7,323.7,499.6,287.2,500,241.3L500,241.3z"/>
			<g>
				<path class="st4" d="M205.7,513C46.6,511.7-82.9,639.3-84.1,798.4l575.3,4.4C492.3,643.7,364.8,514.2,205.7,513z"/>
				<path class="st5" d="M208.5,540.5c-143.8-1.1-261,114.3-262.1,258.1l520.2,4C467.7,658.8,352.3,541.6,208.5,540.5z"/>
				<path class="st6" d="M433,802.3c0.9-123.4-98.3-224.1-221.7-225.1C87.9,576.3-12.8,675.5-13.8,798.9
					C-14.7,922.3,84.5,1023,207.9,1024C331.2,1024.9,432,925.7,433,802.3z"/>
				<path class="st7" d="M328.9,801.5c0.5-65.9-52.5-119.7-118.4-120.2c-65.9-0.5-119.7,52.5-120.2,118.4
					c-0.5,65.9,52.5,119.7,118.4,120.2C274.6,920.5,328.4,867.4,328.9,801.5z"/>
				<path class="st8" d="M284.6,801.2c0.3-43.1-34.3-78.3-77.4-78.6c-43.1-0.3-78.3,34.3-78.6,77.4c-0.3,43.1,34.3,78.3,77.4,78.6
					C249,879,284.2,844.3,284.6,801.2z"/>
			</g>
			<g>
				<path class="st4" d="M-681.7,506.1c-159.1-1.2-288.6,126.3-289.8,285.4l575.3,4.4C-395,636.9-522.6,507.4-681.7,506.1z"/>
				<path class="st5" d="M-678.8,533.7c-143.8-1.1-261,114.3-262.1,258.1l518.6,4C-421.2,652-536.5,534.8-678.8,533.7z"/>
				<path class="st6" d="M-454.4,795.5c0.9-123.4-98.3-224.1-221.7-225.1s-224.1,98.3-225.1,221.7
					c-0.9,123.4,98.3,224.1,221.7,225.1C-556.1,1018.1-455.3,918.9-454.4,795.5z"/>
				<path class="st7" d="M-558.4,794.7c0.5-65.9-52.5-119.7-118.4-120.2c-65.9-0.5-119.7,52.5-120.2,118.4
					c-0.5,65.9,52.5,119.7,118.4,120.2C-612.8,913.7-558.9,860.6-558.4,794.7z"/>
				<path class="st8" d="M-602.8,794.4c0.3-43.1-34.3-78.3-77.4-78.6c-43.1-0.3-78.3,34.3-78.6,77.4s34.3,78.3,77.4,78.6
					C-638.3,872.1-603.1,837.5-602.8,794.4z"/>
			</g>
			<path class="st9" d="M530.4,471.1l0.4-58.1c0.1-18.4-13.5-32.2-31.9-32.4c-18.4-0.1-32.2,13.5-32.4,31.9l-0.4,58.1
				c-0.1,18.4,13.5,32.2,31.9,32.4C516.4,503.1,530.2,489.4,530.4,471.1z"/>
			<path class="st10" d="M-750.1-143.1l-0.4,52c-0.3,36.7,27,67.5,63.7,72.4l1.5-192.8C-728.3-193.4-750-166.1-750.1-143.1z"/>
			<path class="st11" d="M80.7,453.9l0.7-85.7c0-4.6-3-7.7-7.6-7.7c-4.6,0-7.7,3-7.7,7.6l-0.7,85.7c0,4.6,3,7.7,7.6,7.7
				C77.6,461.5,80.6,458.4,80.7,453.9z"/>
			<path class="st11" d="M105.2,454l0.7-85.7c0-4.6-3-7.7-7.6-7.7c-4.6,0-7.7,3-7.7,7.6l-0.7,85.7c0,4.6,3,7.7,7.6,7.7
				C102,461.7,105.1,458.6,105.2,454z"/>
			<path class="st11" d="M129.6,454.2l0.7-85.7c0-4.6-3-7.7-7.6-7.7c-4.6,0-7.7,3-7.7,7.6l-0.7,85.7c0,4.6,3,7.7,7.6,7.7
				C126.5,461.9,129.6,458.8,129.6,454.2z"/>
			<path class="st11" d="M154.1,454.4l0.7-85.7c0-4.6-3-7.7-7.6-7.7c-4.6,0-7.7,3-7.7,7.6l-0.7,85.7c0,4.6,3,7.7,7.6,7.7
				C151,462,154.1,459,154.1,454.4z"/>
			<path class="st11" d="M178.6,454.6l0.7-85.7c0-4.6-3-7.7-7.6-7.7c-4.6,0-7.7,3-7.7,7.6l-0.7,85.7c0,4.6,3,7.7,7.6,7.7
				C175.5,462.2,178.6,459.2,178.6,454.6z"/>
		</g>
		<path class="st0" d="M-120.1,505.5l-4.9-83.8l-25.5,1.5l4.9,83.8L-120.1,505.5z"/>
		<path class="st0" d="M-184.1,524.2l-4.9-83.8l-25.5,1.5l4.9,83.8L-184.1,524.2z"/>
		<g>
			<path class="st0" d="M32.3-321.6L10.6-435l-45.9,8.8l21.7,113.4L32.3-321.6z"/>
			<path class="st2" d="M25.5,78.7c1.9,14.9,9.9,28.9,23.3,38c24.7,16.8,58.3,10.3,75.1-14.4c9.1-13.4,11.4-29.4,7.6-43.9l0.1,0
				l-82.9-434l-106.1,20.3l82.9,434L25.5,78.7L25.5,78.7z"/>
			<g>
				<path class="st12" d="M-65.3-352.9l21.9-63l43.6,50.4L-65.3-352.9z"/>
				<path class="st12" d="M0.1-365.4l21.9-63l43.6,50.4L0.1-365.4z"/>
				<path class="st12" d="M32.8-371.7l-21.9,63l-43.6-50.4L32.8-371.7z"/>
			</g>
			<g>
				<path class="st0" d="M201.6-770.1l-0.1-0.6L153.1-1024l-222.6,42.6l-0.2,0c-129.1,24.7-217.4,168.7-192.3,300
					c25.1,131.5,148,216.9,279,191.9C147.8-514.6,226.8-638.5,201.6-770.1C201.7-769.9,201.6-770.1,201.6-770.1z"/>
				<path class="st0" d="M92.5-626.9c-17.8,3.4-29.6,20.7-26.1,38.6c3.4,17.9,20.7,29.6,38.5,26.2c17.8-3.4,29.6-20.7,26.1-38.6
					C127.6-618.6,110.3-630.3,92.5-626.9z M102.3-575.5c-10.5,2-20.6-4.8-22.6-15.4c-2-10.4,4.8-20.6,15.4-22.6
					c10.5-2,20.6,4.8,22.6,15.4C119.6-587.6,112.8-577.5,102.3-575.5z"/>
				<g>
					<path class="st13" d="M-247-470.4c7-8.9,12.7-18.7,16.9-28.9c-15-4.7-30.7-6.3-46.4-4.6c-11.4-19.7-16.5-6.3-19.4-21.9
						c-5.6-29.1-14.4-75.1-18.6-97.1c-17.6-92,73.1-325.6,212.8-352.3C38.1-1002,170.6-858.4,196.9-720.8
						c26.3,137.6-65.6,270.9-205.4,297.6c-72.1,13.8-165.1,5.8-220.3-33C-233.7-459.6-240.2-464.5-247-470.4L-247-470.4z"/>
					<path class="st14" d="M-284.2-588.7c-1-45.5,33.1-89.5,59.1-90.1c26-0.6,61.8,52.2,62.8,97.7c1,45.5-15.8,68-41.8,68.5
						C-230-511.9-283.1-543.1-284.2-588.7z"/>
					<path class="st15" d="M-251.1-666.3c0,0,29.4,12.7,41.4,75.8c12.1,63-12.7,74.6-12.7,74.6c-26.9-9.2-61-36.4-61.8-72.8
						C-284.9-619.7-269.3-649.9-251.1-666.3L-251.1-666.3z"/>
					<path d="M-257.2-534.9c-15.1-13.2-27-31.4-27.4-52.6c-0.3-12.5,2.1-24.8,6.2-36.2c14.7,5.7,27.1,21.6,31,42.1
						C-244-563.4-248.1-546.1-257.2-534.9L-257.2-534.9z"/>
					<path class="st13" d="M-126.9-510.5l-73.3,14l-46.1-16.6l108.5-33.2L-126.9-510.5z"/>
				</g>
			</g>
		</g>
		<g>
			<path class="st3" d="M51.9,97.1l-251-18.6l-3.6,48.7l251,18.6L51.9,97.1z"/>
			<path class="st3" d="M-242.4,116.2c-0.4,5.8,16.1,330.8,16.1,330.8l48.7,3.6l-21.5-371.9C-199.1,78.7-244.6,70.5-242.4,116.2z"/>
		</g>
		<path class="st16" d="M21.3,88.6c-1.1,15,4,30.3,15.4,41.8c20.9,21.3,55.2,21.5,76.4,0.6c11.5-11.3,16.9-26.6,16-41.6l0.1,0
			l0.3-22.5L21.5,66.1l-0.3,22.5H21.3L21.3,88.6z"/>
		<g>
			<path class="st16" d="M82.9,99.9l-240.2-1.8l-0.4,46.6l240.2,1.8L82.9,99.9z"/>
			<path class="st16" d="M-196.2,136.7c0,5.5,36.2,314,36.2,314l46.6,0.4l-43.9-352.8C-157.3,98.2-201.2,93.3-196.2,136.7z"/>
		</g>
		<g>
			<path class="st0" d="M-356.2-159.4c10.8,18.1,34.3,24,52.5,13.2c18.1-10.8,24-34.3,13.2-52.5c-10.8-18.1-34.3-24-52.5-13.2
				S-367.1-177.5-356.2-159.4z"/>
			<path class="st2" d="M-129.9-123.6c7.1,8.5,19.8,9.7,28.3,2.6L42.1-273.3c8.5-7.1,9.7-19.8,2.6-28.3s-19.8-9.7-28.3-2.6
				l-143.7,152.4C-135.8-144.8-137-132.1-129.9-123.6z"/>
			<path class="st0" d="M-222-165.2l-90.5-17.9l-4.9,24.7l90.5,17.9L-222-165.2z"/>
			<path class="st2" d="M-100.4-130.1c2.7-10.7-3.9-21.7-14.6-24.4L-271.4-179l-6.4,36.6l153,26.9
				C-114.1-112.8-103.1-119.4-100.4-130.1z"/>
		</g>
		<path class="st17" d="M-178.5,487.4c1.7,0,3,1.3,3,3.4l0.4,42.5c0,1.7-1.3,3-3,3l-90.6,0.9c-3,0-4.3-3.4-2.6-5.6
			c9.3-10.4,42.1-38.2,48.1-43c0.9-0.4,1.3-0.9,2.1-0.9L-178.5,487.4z"/>
		<path class="st18" d="M-105.7,483.8c1.9,0,3.3,1.5,3.3,3.9l-0.4,47.5c0,1.9-1.5,3.3-3.4,3.3l-101.1-0.8c-3.3,0-4.8-3.9-2.8-6.2
			c10.6-11.4,47.8-41.8,54.5-47c1-0.5,1.4-0.9,2.4-0.9L-105.7,483.8z"/>
	</g>
	<g>
		<path class="st19" d="M909.8,259c32.6,0.2,59.1-26.5,59.9-58.6l2.3-377.6c0.2-32.6-26-59.7-59.1-59.9l-377.6-2.3
			c-32.6-0.2-59.7,26-59.9,59.1l-2.3,377c-0.2,32.6,26,59.7,59.1,59.9L909.8,259z"/>
		<path class="st20" d="M475.3-153l-0.5,76.4l494.5,3l0.5-76.4L475.3-153z"/>
		<path class="st20" d="M475.8-68.1l-0.1,21.6l494.5,3l0.1-21.6L475.8-68.1z"/>
	</g>
	<path class="st21" d="M414.1,285.2c-0.1,16.1,13,29.3,29.1,29.4l362.2,2.2c16.1,0.1,29.3-13,29.4-29.1c0.1-16.1-13-29.3-29.1-29.4
		l-362.2-2.2C427.4,256,414.2,269.1,414.1,285.2z"/>
	<path class="st21" d="M445.7-106.1c-16.1-0.1-29.3,13-29.4,29.1l-2.2,362.2c-0.1,16.1,13,29.3,29.1,29.4
		c16.1,0.1,29.3-13,29.4-29.1l2.2-362.2C474.9-92.8,461.8-106,445.7-106.1z"/>
</g>
</svg>
