<?xml version="1.0" encoding="utf-8"?>
<!-- Generator: Adobe Illustrator 22.1.0, SVG Export Plug-In . SVG Version: 6.00 Build 0)  -->
<svg version="1.1" id="Layer_1" xmlns="http://www.w3.org/2000/svg" xmlns:xlink="http://www.w3.org/1999/xlink" x="0px" y="0px"
	 viewBox="0 0 2061 550" style="enable-background:new 0 0 2061 550;" xml:space="preserve">
<style type="text/css">
	.st0{fill:#ECE1B1;}
	.st1{fill:#FFFFFF;fill-opacity:0.6;}
	.st2{fill:#FEFBFB;}
	.st3{fill:#FEDA38;}
	.st4{fill:#B6B6B6;}
	.st5{fill:#FE6006;}
	.st6{fill:#00B7D3;}
	.st7{fill:#18C4EA;}
	.st8{fill:#142D42;}
	.st9{fill:#0685C2;}
	.st10{fill:#101719;}
	.st11{fill:#273438;}
	.st12{fill:#CBD6D8;}
	.st13{fill:#8C9799;}
	.st14{fill:#91091A;}
	.st15{fill:#EDEDED;}
	.st16{fill:#F6F6F6;}
	.st17{fill:#FF631E;}
	.st18{fill:#F4F4F4;}
	.st19{fill:#33CBFF;}
	.st20{fill:#163A59;}
	.st21{fill:#E5E5E5;}
	.st22{fill:#EDEDEE;}
	.st23{fill:#432918;}
	.st24{fill:#EA2313;}
	.st25{fill:#DADADA;}
	.st26{fill:#F39200;}
	.st27{fill:#8C6244;}
	.st28{fill:#CCA183;}
	.st29{fill:#FFFFFF;}
</style>
<path class="st0" d="M30.1,720.8L2064,391.9V270c0,0-271.5,119.3-604,121.9c-332.5,2.6-630.2,81.3-812.2,146.6
	C283.9,669.3,25.5,694.9,25.5,694.9L30.1,720.8z"/>
<path class="st1" d="M1752.1,64.6l3.2-3.7c0.4-0.6,0-1.4-0.6-1.4l-2.7-0.2c-0.5,0-0.8-0.6-0.6-1l5.7-10.6c0.1-0.3-0.1-0.6-0.4-0.6
	l-9,0c-0.1,0-0.2,0.1-0.3,0.2c-5.2,7.9-12,10.8-15.4,11c-3.4,0.2-23.5,0-33.9,0c-12.3,0-14.6,3-19,6.9c-4.8,4.1-3.2,8.1,2.4,8.5
	c3.9,0.4,34.1,0.3,51.3,0.1C1740.3,73.8,1747.4,70.3,1752.1,64.6z"/>
<path class="st2" d="M1718.2,169.4c-3.5,0-6.7,1-9.3,2.6c-4-6.3-11-10.6-19-10.6c-9.9,0-18.2,6.3-21.2,15.3c-1.7-0.6-3.5-1-5.3-1
	c-8.4,0-15.2,6.8-15.2,15.2c0,8.4,6.8,15.2,15.2,15.2h54.8c10.2,0,18.4-8.2,18.4-18.4C1736.5,177.7,1728.2,169.4,1718.2,169.4z"/>
<path class="st2" d="M1183.1,354c-4.9,0-9.4,1.4-13.2,3.6c-5.6-8.9-15.5-14.9-26.8-14.9c-13.9,0-25.7,8.9-30,21.6
	c-2.4-0.9-4.9-1.4-7.5-1.4c-11.9,0-21.4,9.5-21.4,21.4c0,11.9,9.5,21.4,21.4,21.4h77.2c14.4,0,26-11.5,26-26
	C1208.9,365.6,1197.3,354,1183.1,354z"/>
<path class="st2" d="M1569.8,242.8c-6.2,0-11.9,1.7-16.7,4.6c-7.2-11.3-19.7-18.9-34-18.9c-17.6,0-32.6,11.3-38,27.3
	c-3-1.1-6.2-1.7-9.5-1.7c-15.1,0-27.2,12.1-27.2,27.2c0,15.1,12.1,27.2,27.2,27.2h97.9c18.3,0,32.9-14.6,32.9-32.9
	C1602.5,257.6,1587.7,242.8,1569.8,242.8z"/>
<path class="st2" d="M770.1,27.4c-5.1,0-9.8,1.4-13.7,3.8c-5.9-9.2-16.2-15.5-27.9-15.5c-14.4,0-26.7,9.3-31.1,22.4
	c-2.5-0.9-5.1-1.4-7.8-1.4c-12.4,0-22.2,9.9-22.2,22.3c0,12.4,9.9,22.2,22.3,22.2l80.2-0.1c15,0,26.9-12,26.9-27
	C797,39.5,784.8,27.4,770.1,27.4z"/>
<path class="st3" d="M1964.3,113.5V81.7h-5v31.8v31.1h5V113.5z M1999.7,121.5l-4.6-1.9l-12.1,29.2l4.6,1.9L1999.7,121.5z
	 M2046.4,168.2l-29.2,12.1l1.9,4.6l29.2-12.1L2046.4,168.2z M2017.1,232.2l1.9-4.6l29.2,12.1l-1.9,4.6L2017.1,232.2z M1982.9,264.1
	l12.1,29.2l4.6-1.9l-12.1-29.2L1982.9,264.1z M1923.9,290.9l4.6,1.9l12.1-29.2l-4.6-1.9L1923.9,290.9z M1894.4,270.1l-22.5,22
	l3.8,3.8l44.6-44.8l-3.8-3.5L1894.4,270.1z M1874.7,239.1l1.9,4.6l29.2-12.1l-1.9-4.6L1874.7,239.1z M1906.2,180l-1.9,4.6
	l-29.2-12.1l1.9-4.6L1906.2,180z M1940.4,148.7l-12.1-29.2l-4.6,1.9l12.1,29.2L1940.4,148.7z M2051.5,120.3l-3.8-3.8l-22.1,22.3
	l-22.3,22.3l3.5,3.5L2051.5,120.3z M2054.2,203.7h-31.1v5h31.1h31.8v-5H2054.2z M2006.9,247.6l-3.5,3.5l22.3,22.5l22.1,22.3l3.8-3.8
	l-22.5-22L2006.9,247.6z M1959.3,298.9v31.6h5v-31.6v-31.3h-5V298.9z M1900.4,203.7h-31.6h-31.6v5h31.6h31.6V203.7z M1916.4,164.6
	l3.8-3.5l-22.3-22.3l-22.3-22.3l-3.8,3.8l22.5,22L1916.4,164.6z M2004.1,206.2c0-23.4-19-42.3-42.3-42.3c-23.4,0-42.3,19-42.3,42.3
	s19,42.3,42.3,42.3C1985.2,248.6,2004.1,229.6,2004.1,206.2z"/>
<path class="st2" d="M2132.3,217.3c-9.7,0-18.7,2.7-26.2,7.2c-11.2-17.7-30.9-29.7-53.4-29.7c-27.7,0-51.1,17.7-59.6,42.9
	c-4.7-1.7-9.7-2.7-15-2.7c-23.7,0-42.6,19-42.6,42.6c0,23.7,19,42.6,42.6,42.6h153.6c28.7,0,51.6-22.9,51.6-51.6
	C2183.6,240.5,2160.4,217.3,2132.3,217.3z"/>
<path class="st2" d="M-41.5,82.6c9.7,0,18.7,2.7,26.2,7.2C-4.1,72.1,15.6,60.1,38,60.1c27.7,0,51.1,17.7,59.6,42.9
	c4.7-1.7,9.7-2.7,15-2.7c23.7,0,42.6,19,42.6,42.6c0,23.7-19,42.6-42.6,42.6H-41c-28.7,0-51.6-22.9-51.6-51.6
	C-92.9,105.8-69.7,82.6-41.5,82.6z"/>
<path class="st4" d="M-11,628.2L2061,613l-0.4-231.3L-13.9,601.5L-11,628.2z"/>
<g>
	<g>
		<path class="st5" d="M1374.1,368.2c1.9,1.8,4.9,1.6,6.6-0.3c1.8-1.9,1.6-4.9-0.3-6.6c-1.9-1.8-4.9-1.6-6.6,0.3
			C1372,363.5,1372.1,366.4,1374.1,368.2z"/>
		<path class="st6" d="M1401.4,364.3c1,0.9,2.6,0.8,3.5-0.2l14.5-21.3c0.9-1,0.8-2.6-0.2-3.5c-1-0.9-2.6-0.8-3.5,0.2l-14.5,21.3
			C1400.3,361.9,1400.4,363.5,1401.4,364.3z"/>
		<path class="st5" d="M1389.7,362.8l-11.3,1l0.3,3.1l11.3-1L1389.7,362.8z"/>
		<path class="st6" d="M1405.2,362.7c-0.1-1.4-1.2-2.4-2.6-2.4l-19.3,2.6l0.5,4.5l19-2.2C1404.2,365.2,1405.3,364.1,1405.2,362.7z"
			/>
	</g>
	<g>
		<path class="st7" d="M1479.6,418.1c-5.8-7.3-8.2-9.9-13.4-9.3l-35.5,3.8c-5.2,0.6-9,5.2-8.4,10.4c0,0,7.4,24.2,3.3,30.7
			c-7.2,10.9-41.7,13.8-51.7,5.5c-13.5-10.9-7.5-69.8-7.5-69.8c-0.1-0.8-0.4-3.6-0.5-4.2l-1.1-8.2l9.4-1c2.6-0.3,4.4-2.5,4.1-5.1
			s-2.5-4.4-5.1-4.1l-10,1.1c-0.6-1.4-1.3-2.5-2.2-3.4l8-6.5l0.2,2.2c0.2,1.8,2,3.2,3.8,3c1.8-0.2,3.2-2,3-3.8l-1.7-15.8
			c-0.2-1.8-2-3.2-3.8-3c-1.8,0.2-3.2,2-3,3.8l0.9,8.8l-11.4,9.3c-1.2-0.3-2.5-0.5-3.7-0.4l-25.6,10.8c-0.4,0.2-0.8,0.5-1.2,0.5
			l2.7,25.3c0.4,0,0.8-0.1,1.2-0.1l5.8-0.6c-9.5,24.8-23.1,60.9-20.5,100.6c0.4,5.2,4.2,9.1,8.2,8.7l37.9-4l8.8-0.9l68.6-7.3
			l35.3-3.8l19.7-2.1c5.2-0.6,7.8-5.3,8.4-10.4C1505.4,459.6,1490.1,431,1479.6,418.1z"/>
		<path class="st8" d="M1488.8,414.9l-0.4-3.6c-0.6-6-5.6-10.4-11-9.8l-57,6.1c-5.4,0.6-9.3,5.9-8.7,11.9l0.4,3.6
			c0.6,6,5.6,10.4,11,9.8l57-6.1C1485.6,426.2,1489.5,420.9,1488.8,414.9L1488.8,414.9z"/>
		<g>
			<path class="st9" d="M1454.3,454.9c-20.9,2.2-35.9,20.9-33.7,41.7l75.4-8.1C1493.8,467.7,1475.2,452.7,1454.3,454.9z"/>
			<path class="st10" d="M1455.1,458.5c-18.9,2-32.5,18.9-30.5,37.7l68.2-7.3C1490.9,470.1,1474,456.5,1455.1,458.5z"/>
			<path class="st11" d="M1488.5,489.4c-1.7-16.2-16.2-27.9-32.4-26.2c-16.2,1.7-27.9,16.2-26.2,32.4c1.7,16.2,16.2,27.9,32.4,26.2
				C1478.5,520.1,1490.2,505.6,1488.5,489.4z"/>
			<path class="st12" d="M1474.8,490.8c-0.9-8.6-8.7-14.9-17.3-14c-8.6,0.9-14.9,8.7-14,17.3c0.9,8.6,8.7,14.9,17.3,14
				C1469.5,507.2,1475.7,499.5,1474.8,490.8z"/>
			<path class="st13" d="M1469,491.5c-0.6-5.6-5.7-9.7-11.3-9.1c-5.6,0.6-9.7,5.7-9.1,11.3c0.6,5.6,5.7,9.7,11.3,9.1
				C1465.5,502.2,1469.6,497.1,1469,491.5z"/>
		</g>
		<g>
			<path class="st9" d="M1338,467.3c-20.9,2.2-35.9,20.9-33.7,41.7l75.4-8.1C1377.5,480.1,1358.9,465.1,1338,467.3z"/>
			<path class="st10" d="M1338.8,470.9c-18.9,2-32.5,18.9-30.5,37.7l68-7.3C1374.3,482.5,1357.5,468.9,1338.8,470.9z"/>
			<path class="st11" d="M1372.1,501.8c-1.7-16.2-16.2-27.9-32.4-26.2c-16.2,1.7-27.9,16.2-26.2,32.4c1.7,16.2,16.2,27.9,32.4,26.2
				S1373.9,518,1372.1,501.8z"/>
			<path class="st12" d="M1358.5,503.3c-0.9-8.6-8.7-14.9-17.3-14c-8.6,0.9-14.9,8.7-14,17.3c0.9,8.6,8.7,14.9,17.3,14
				C1353.2,519.7,1359.4,511.9,1358.5,503.3z"/>
			<path class="st13" d="M1352.7,503.9c-0.6-5.6-5.7-9.7-11.3-9.1c-5.6,0.6-9.7,5.7-9.1,11.3c0.6,5.6,5.7,9.7,11.3,9.1
				C1349.2,514.6,1353.3,509.5,1352.7,503.9z"/>
		</g>
		<path class="st14" d="M1496.2,444.5l-0.8-7.6c-0.3-2.4-2.3-4-4.7-3.8c-2.4,0.3-4,2.3-3.8,4.7l0.8,7.6c0.3,2.4,2.3,4,4.7,3.8
			C1494.9,448.9,1496.5,446.9,1496.2,444.5z"/>
		<path class="st15" d="M1319.3,383.3l0.7,6.8c0.5,4.8,4.6,8.4,9.4,8.5l-2.7-25.3C1321.4,376.4,1319,380.3,1319.3,383.3z"/>
		<path class="st16" d="M1437.1,449l-1.2-11.2c-0.1-0.6-0.5-1-1.1-0.9c-0.6,0.1-1,0.5-0.9,1.1l1.2,11.2c0.1,0.6,0.5,1,1.1,0.9
			C1436.8,450.1,1437.1,449.6,1437.1,449z"/>
		<path class="st16" d="M1440.3,448.7l-1.2-11.2c-0.1-0.6-0.5-1-1.1-0.9c-0.6,0.1-1,0.5-0.9,1.1l1.2,11.2c0.1,0.6,0.5,1,1.1,0.9
			S1440.4,449.3,1440.3,448.7z"/>
		<path class="st16" d="M1443.5,448.3l-1.2-11.2c-0.1-0.6-0.5-1-1.1-0.9c-0.6,0.1-1,0.5-0.9,1.1l1.2,11.2c0.1,0.6,0.5,1,1.1,0.9
			S1443.6,448.9,1443.5,448.3z"/>
		<path class="st16" d="M1446.7,448l-1.2-11.2c-0.1-0.6-0.5-1-1.1-0.9c-0.6,0.1-1,0.5-0.9,1.1l1.2,11.2c0.1,0.6,0.5,1,1.1,0.9
			C1446.4,449,1446.8,448.6,1446.7,448z"/>
		<path class="st16" d="M1449.9,447.7l-1.2-11.2c-0.1-0.6-0.5-1-1.1-0.9c-0.6,0.1-1,0.5-0.9,1.1l1.2,11.2c0.1,0.6,0.5,1,1.1,0.9
			C1449.6,448.7,1450,448.3,1449.9,447.7z"/>
	</g>
	<path class="st5" d="M1411.6,458.8l-1.9-10.9l-3.3,0.6l1.9,10.9L1411.6,458.8z"/>
	<path class="st5" d="M1403.5,462.2l-1.9-10.9l-3.3,0.6l1.9,10.9L1403.5,462.2z"/>
	<g>
		<path class="st5" d="M1419.1,348.2l-4.5-14.5l-5.9,1.8l4.5,14.5L1419.1,348.2z"/>
		<path class="st7" d="M1424.2,400.7c0.5,1.9,1.7,3.6,3.6,4.6c3.5,1.8,7.8,0.5,9.6-3c1-1.9,1-4,0.3-5.9l0,0l-17.4-55.6l-13.6,4.3
			L1424.2,400.7L1424.2,400.7L1424.2,400.7z"/>
		<g>
			<path class="st2" d="M1405.9,345.6l1.9-8.6l6.5,6L1405.9,345.6z"/>
			<path class="st2" d="M1414.2,342.9l1.9-8.6l6.5,6L1414.2,342.9z"/>
			<path class="st2" d="M1418.4,341.6l-1.9,8.6l-6.5-6L1418.4,341.6z"/>
		</g>
		<g>
			<path class="st5" d="M1434.6,286.9L1434.6,286.9l-10.2-32.5l-28.5,8.9l0,0c-16.5,5.2-25.9,25.4-20.7,42.2
				c5.3,16.8,22.6,26.2,39.4,20.9C1431.3,321.2,1439.8,303.8,1434.6,286.9C1434.6,286.9,1434.6,286.9,1434.6,286.9z"/>
			<path class="st5" d="M1422.4,307.3c-2.3,0.7-3.6,3.2-2.8,5.4c0.7,2.3,3.2,3.6,5.4,2.9c2.3-0.7,3.6-3.2,2.8-5.4
				C1427.1,307.9,1424.7,306.6,1422.4,307.3z M1424.5,313.9c-1.3,0.4-2.8-0.3-3.2-1.7c-0.4-1.3,0.3-2.8,1.7-3.2
				c1.3-0.4,2.8,0.3,3.2,1.7C1426.6,312,1425.8,313.5,1424.5,313.9z"/>
			<g>
				<path class="st17" d="M1380.3,332.9c0.8-1.3,1.4-2.6,1.8-4c-2-0.4-4.1-0.4-6.1,0.1c-1.8-2.4-2.2-0.6-2.9-2.6
					c-1.2-3.7-3-9.6-3.9-12.4c-3.7-11.8,4.7-43.7,22.6-49.3c17.9-5.6,37.4,11.2,42.9,28.9c5.5,17.6-4.5,36.5-22.4,42.1
					c-9.2,2.9-21.5,3.2-29.4-1C1382.2,334.1,1381.3,333.6,1380.3,332.9L1380.3,332.9z"/>
				<path class="st18" d="M1373.7,318c-0.8-5.9,3-12.2,6.4-12.7c3.4-0.5,8.9,5.9,9.7,11.9c0.8,5.9-1.1,9.1-4.4,9.6
					S1374.5,323.9,1373.7,318z"/>
				<path class="st19" d="M1376.8,307.3c0,0,4,1.2,6.6,9.3c2.5,8.1-0.5,10-0.5,10c-3.7-0.8-8.5-3.9-9.2-8.6
					C1373.1,313.9,1374.7,309.7,1376.8,307.3L1376.8,307.3z"/>
				<path d="M1378,324.6c-2.2-1.5-4-3.7-4.4-6.5c-0.2-1.6-0.1-3.3,0.3-4.8c2,0.5,3.9,2.4,4.7,5C1379.3,320.7,1379,323,1378,324.6
					L1378,324.6z"/>
				<path class="st17" d="M1395.4,325.8l-9.4,2.9l-6.3-1.5l13.7-6L1395.4,325.8z"/>
			</g>
		</g>
	</g>
	<g>
		<path class="st8" d="M1428,402.7l-33.2,1.3l0.3,6.4l33.2-1.3L1428,402.7z"/>
		<path class="st8" d="M1389.7,409.7c0,0.8,7.1,43.1,7.1,43.1l6.4-0.3l-8.4-48.4C1394.8,404.1,1388.7,403.7,1389.7,409.7z"/>
	</g>
	<path class="st20" d="M1423.8,402.1c0.1,2,1,3.9,2.6,5.2c3.1,2.5,7.5,2,10-1.1c1.3-1.7,1.8-3.7,1.5-5.7l0,0l-0.3-3l-14.2,1.5
		L1423.8,402.1L1423.8,402.1L1423.8,402.1z"/>
	<g>
		<path class="st20" d="M1432.1,402.6l-31.5,3.4l0.7,6.1l31.5-3.4L1432.1,402.6z"/>
		<path class="st20" d="M1396.1,411.6c0.1,0.7,9.5,40.6,9.5,40.6l6.1-0.7l-11-45.6C1400.6,406,1394.8,406,1396.1,411.6z"/>
	</g>
	<g>
		<path class="st5" d="M1370.7,375.3c1.7,2.2,4.9,2.6,7.1,0.9c2.2-1.7,2.6-4.9,0.9-7.1c-1.7-2.2-4.9-2.6-7.1-0.9
			C1369.4,369.9,1369,373.1,1370.7,375.3z"/>
		<path class="st7" d="M1400.8,376.6c1.1,1,2.7,1,3.7-0.1l16.5-22.1c1-1.1,1-2.7-0.1-3.7s-2.7-1-3.7,0.1l-16.5,22.1
			C1399.7,373.9,1399.8,375.6,1400.8,376.6z"/>
		<path class="st5" d="M1388.2,372.5l-12.1-1l-0.3,3.3l12.1,1L1388.2,372.5z"/>
		<path class="st7" d="M1404.6,375.3c0.2-1.4-0.8-2.8-2.3-3l-20.8-0.9l-0.3,4.9l20.4,1.2C1403.1,377.7,1404.4,376.7,1404.6,375.3z"
			/>
	</g>
	<path class="st21" d="M1403.6,457.3c0.2,0,0.4,0.1,0.4,0.4l0.7,5.6c0,0.2-0.1,0.4-0.3,0.4l-11.9,1.5c-0.4,0-0.6-0.4-0.4-0.7
		c1.1-1.5,4.9-5.6,5.7-6.4c0.1-0.1,0.2-0.1,0.3-0.1L1403.6,457.3z"/>
	<path class="st22" d="M1413.1,455.7c0.3,0,0.5,0.1,0.5,0.5l0.7,6.2c0,0.3-0.1,0.5-0.4,0.5l-13.3,1.4c-0.4,0-0.7-0.4-0.5-0.8
		c1.2-1.7,5.6-6.2,6.4-7c0.1-0.1,0.2-0.1,0.3-0.2L1413.1,455.7z"/>
</g>
<g>
	<g>
		<path class="st23" d="M253.7,90.2c0.3,0.4,2.6,11.7,2.6,11.7L253.7,90.2z"/>
		<path d="M255.9,102l0.7-0.1c-0.7-3.4-2.4-11.4-2.6-11.8l-0.5,0.3C253.6,90.9,255,97.6,255.9,102z"/>
	</g>
	<g>
		<path class="st23" d="M262.4,101.9c0,0,2.3-11.3,2.6-11.7L262.4,101.9z"/>
		<path d="M262.7,102c0.9-4.4,2.3-11.1,2.6-11.6l-0.6-0.3c-0.3,0.4-1.9,8.4-2.6,11.8L262.7,102z"/>
	</g>
	<path class="st24" d="M259.3,41c-12.1,0-21.1,9.8-21.1,20.3c0,15.1,12.8,28.5,16,31.5c1.3-1.6,3-2.3,5.1-2.3c2.1,0,3.8,0.7,5.1,2.3
		c3.2-3.1,16-16.4,16-31.5C280.5,50.8,271.4,41,259.3,41z"/>
	<path class="st25" d="M257.5,96.6c0,0.4,0.3,0.7,0.7,0.7h2.2c0.4,0,0.7-0.3,0.7-0.7v-2.2h-3.6V96.6z"/>
	<path class="st26" d="M259.3,94.1c0.9,0,1.1-1,0.7-1.4c-0.4-0.4-0.5-1.5-0.5-1.5s-0.6,0.5-0.4,1.2c0.3,0.8-0.1,0.8-0.1,0.8
		c-0.2,0-0.2-0.7-0.2-0.7c-0.1,0.4-0.4,0.6-0.3,0.9C258.6,94.1,259.1,94.1,259.3,94.1z"/>
	<path class="st23" d="M265,106.2c0-0.1-0.1-0.3-0.3-0.3H254c-0.1,0-0.3,0.1-0.3,0.3c0,0.1,0.1,0.3,0.3,0.3h10.7
		C264.8,106.5,265,106.3,265,106.2z"/>
	<path class="st27" d="M261,100.6h-1.9h-4.2c-0.4,0-0.7,0.3-0.7,0.7v4.6h2.7h2.3h0.3h1.4h3.8v-3.1v-0.5v-1.1c0-0.4-0.3-0.7-0.7-0.7
		L261,100.6L261,100.6z"/>
	<path class="st28" d="M254.8,103.7c-0.2,0.3-0.1,0.7,0.1,0.9l1.9,1.3h2.3l-3.5-2.4C255.3,103.3,255,103.4,254.8,103.7z"/>
	<path class="st28" d="M254.9,102.3c-0.1,0.2-0.1,0.4,0.1,0.5l4.5,3.1h1.4l-5.4-3.8C255.3,102,255,102.1,254.9,102.3z"/>
	<path class="st28" d="M264.2,103.5c0.2-0.3,0.1-0.6-0.1-0.8l-3.1-2.2h-1.9l4.4,3.1C263.7,103.8,264.1,103.7,264.2,103.5z"/>
	<path class="st28" d="M262.7,101c-0.1-0.1-0.2-0.1-0.3,0.1c-0.1,0.1-0.1,0.2,0.1,0.3l2.2,1.5v-0.5L262.7,101z"/>
	<path class="st29" d="M259.4,41c13.7,8.3,2.2,46.8,0.9,49.6l0,0c0.7,0.1,1.2,0.2,1.8,0.5l0,0C281.3,56,268.5,43.6,259.4,41z"/>
	<path class="st29" d="M259.3,41c-9.1,2.6-21.9,15-2.7,50.1l0,0c0.6-0.3,1.2-0.4,1.8-0.5l0,0C257.2,87.8,245.7,49.3,259.3,41z"/>
</g>
</svg>
