<?xml version="1.0" encoding="utf-8"?>
<!-- Generator: Adobe Illustrator 22.1.0, SVG Export Plug-In . SVG Version: 6.00 Build 0)  -->
<svg version="1.1" id="Layer_1" xmlns="http://www.w3.org/2000/svg" xmlns:xlink="http://www.w3.org/1999/xlink" x="0px" y="0px"
	 viewBox="0 0 100 100" style="enable-background:new 0 0 100 100;" xml:space="preserve">
<style type="text/css">
	.st0{fill:#FDAB4F;}
	.st1{fill:#5499FC;}
	.st2{fill:#3F8AF5;}
</style>
<path class="st0" d="M55.2,23.2c0,0,0.1,0,0.1,0c0,0,0.1,0,0.1,0c6.1,0.1,16.2,2.7,20.7-2.8c0.3-0.4,0.5-0.9,0.6-1.3
	c0.2-0.4,0.3-0.8,0.2-1.4c-0.6-5.4,1-15-6.2-16.7c-6.1-1.4-12.9,6.4-16.6,10.3c0,0,0,0,0,0.1c-1.1-0.8-2.3-1.2-3.7-1.2
	c-0.7,0-1.5,0.2-2.1,0.5c-0.6,0-1.2,0.2-1.7,0.5C42.8,7.3,36.1-0.5,30,0.9c-7.2,1.7-5.7,11.3-6.2,16.7c-0.1,0.5,0,1,0.2,1.4
	c0.1,0.5,0.3,0.9,0.6,1.3c4.5,5.6,14.6,2.9,20.7,2.8c0,0,0.1,0,0.1,0c0,0,0.1,0,0.1,0c0.6,0,1.2-0.2,1.7-0.6c2.1,1.2,4.4,1,6.3-0.1
	C54,22.9,54.6,23.2,55.2,23.2z"/>
<path class="st1" d="M14.4,99.2h72.3c1.2,0,2.2-1,2.2-2.2V24.8c0-1.2-1-2.2-2.2-2.2H14.4c-1.2,0-2.2,1-2.2,2.2V97
	C12.2,98.2,13.2,99.2,14.4,99.2z"/>
<path class="st2" d="M10,40.8h80c0.9,0,1.6-0.7,1.6-1.6V24c0-0.9-0.7-1.6-1.6-1.6H10c-0.9,0-1.6,0.7-1.6,1.6v15.2
	C8.4,40.1,9.1,40.8,10,40.8z"/>
<path class="st0" d="M40.9,21.2v78h18.4v-78H40.9z"/>
</svg>
