<?xml version="1.0" encoding="utf-8"?>
<!-- Generator: Adobe Illustrator 22.1.0, SVG Export Plug-In . SVG Version: 6.00 Build 0)  -->
<svg version="1.1" id="Layer_1" xmlns="http://www.w3.org/2000/svg" xmlns:xlink="http://www.w3.org/1999/xlink" x="0px" y="0px"
	 viewBox="0 0 100 48" style="enable-background:new 0 0 100 48;" xml:space="preserve">
<style type="text/css">
	.st0{fill:#EF6326;}
	.st1{fill:#BC6138;}
	.st2{fill:#FFFFFF;}
	.st3{fill:#29ABE2;}
	.st4{fill:#050505;}
	.st5{fill:#562912;}
	.st6{fill:#CC342F;}
	.st7{fill:#AB471B;}
	.st8{fill:#684784;}
	.st9{fill:#DB3D31;}
	.st10{fill:#563B6B;}
</style>
<g>
	<path class="st0" d="M69.4,28.7L69.4,28.7l-2.8-4.6l-7.3-10.8l-8.9-2.5c-10.7,0-19.3,7.1-19.3,17.9c0,10.9,8.5,19.5,19.3,19.5
		C61.2,48.3,69.4,39.6,69.4,28.7C69.4,28.7,69.4,28.7,69.4,28.7z"/>
	<path class="st0" d="M66.4,36.1c-1.5,0-2.7,1.2-2.7,2.7c0,1.5,1.2,2.7,2.7,2.7c1.5,0,2.7-1.2,2.7-2.7
		C69.1,37.3,67.9,36.1,66.4,36.1z M66.4,40.4c-0.9,0-1.6-0.7-1.6-1.6c0-0.9,0.7-1.6,1.6-1.6c0.9,0,1.6,0.7,1.6,1.6
		C68,39.7,67.3,40.4,66.4,40.4z"/>
	<path class="st0" d="M68,38.8c0-0.9-0.7-1.6-1.6-1.6c-0.9,0-1.6,0.7-1.6,1.6c0,0.9,0.7,1.6,1.6,1.6C67.3,40.4,68,39.7,68,38.8z"/>
	<path class="st0" d="M33.3,36.1c-1.5,0-2.7,1.2-2.7,2.7c0,1.5,1.2,2.7,2.7,2.7c1.5,0,2.7-1.2,2.7-2.7C36,37.3,34.8,36.1,33.3,36.1z
		"/>
	<path class="st1" d="M34.9,38.8c0-0.9-0.7-1.6-1.6-1.6c-0.9,0-1.6,0.7-1.6,1.6c0,0.9,0.7,1.6,1.6,1.6
		C34.2,40.4,34.9,39.7,34.9,38.8z"/>
	<g>
		<path class="st2" d="M58.3,34.2c-2.7-0.1-5,2.1-5.1,4.9c-0.1,2.8,2.1,5.1,4.9,5.1c2.7,0.1,5-2.1,5.1-4.9
			C63.3,36.5,61.1,34.2,58.3,34.2z M58.1,42.6c-1.9,0-3.4-1.6-3.3-3.5c0-1.9,1.6-3.4,3.5-3.3c1.9,0,3.4,1.6,3.3,3.5
			C61.6,41.1,60,42.6,58.1,42.6z"/>
		<path class="st3" d="M58.3,35.8c-1.9,0-3.4,1.4-3.5,3.3c0,1.9,1.4,3.4,3.3,3.5c1.9,0,3.4-1.4,3.5-3.3
			C61.7,37.4,60.2,35.8,58.3,35.8z M60.1,39.2c0,1-0.9,1.8-1.9,1.8c-1.2,0-1.8-0.9-1.8-1.9c0-1,0.9-1.8,1.9-1.8
			C59.3,37.4,60.1,38.2,60.1,39.2z"/>
		<path class="st4" d="M58.3,37.3c-1,0-1.9,0.8-1.9,1.8c0,1,0.6,1.9,1.8,1.9c1,0,1.9-0.8,1.9-1.8C60.1,38.2,59.3,37.4,58.3,37.3z"/>
	</g>
	<g>
		<path class="st2" d="M42.3,34.2c-2.8,0-5,2.2-5,5c0,2.8,2.2,5,5,5c2.8,0,5-2.2,5-5C47.3,36.4,45,34.2,42.3,34.2z M42.2,42.6
			c-1.9,0-3.4-1.5-3.4-3.4c0-1.9,1.5-3.4,3.4-3.4c1.9,0,3.4,1.5,3.4,3.4C45.6,41.1,44.1,42.6,42.2,42.6z"/>
		<path class="st3" d="M42.2,35.8c-1.9,0-3.4,1.5-3.4,3.4c0,1.9,1.5,3.4,3.4,3.4c1.9,0,3.4-1.5,3.4-3.4
			C45.6,37.3,44.1,35.8,42.2,35.8z M42.3,41c-1,0-1.8-0.8-1.8-1.9c0-1,0.8-1.9,1.8-1.9c1,0,1.8,0.8,1.8,1.9
			C44.1,40.2,43.4,41,42.3,41z"/>
		<path class="st4" d="M44.1,39.2c0-1-0.8-1.9-1.8-1.9c-1,0-1.8,0.8-1.8,1.9c0,1,0.8,1.9,1.8,1.9C43.3,41,44.1,40.2,44.1,39.2z"/>
	</g>
	<g>
		<path class="st5" d="M46.6,43c-0.2,0.1-0.4,0.3-0.3,0.5c0.5,1.3,2.1,2.5,3.9,2.5c1.8,0,3.4-1.1,3.9-2.5c0.1-0.2,0-0.5-0.3-0.5
			C51.7,42.2,48.8,42.2,46.6,43z"/>
		<path class="st6" d="M48.3,45.5c0.6,0.3,1.2,0.5,1.9,0.5c0.7,0,1.4-0.2,1.9-0.5c-0.5-0.4-1.2-0.6-1.9-0.6
			C49.5,44.9,48.9,45.1,48.3,45.5z"/>
		<path class="st2" d="M53.9,43c-2.2-0.7-5.1-0.7-7.3,0c-0.2,0.1-0.3,0.3-0.3,0.5h7.8C54.2,43.2,54.1,43,53.9,43z"/>
	</g>
	<path class="st7" d="M68,38.8c0-0.9-0.7-1.6-1.6-1.6c-0.9,0-1.6,0.7-1.6,1.6c0,0.9,0.7,1.6,1.6,1.6C67.3,40.4,68,39.7,68,38.8z"/>
</g>
<g>
	<g>
		<g>
			<path class="st8" d="M29.1-0.4C14.5-0.4,2.7,11.4,2.7,26h5.8c0-5.8,4.7-10.5,10.5-10.5c5.8,0,10.5,4.7,10.5,10.5h25.8
				C55.5,11.4,43.7-0.4,29.1-0.4z"/>
			<path class="st9" d="M11.8,29c0-3.3-2.6-5.9-5.9-5.9S0,25.7,0,29s2.6,5.9,5.9,5.9S11.8,32.2,11.8,29z"/>
		</g>
		<g>
			<path class="st8" d="M70.9-0.4C56.3-0.4,44.5,11.4,44.5,26h26c0-5.8,4.7-10.5,10.5-10.5c5.8,0,10.5,4.7,10.5,10.5h5.8
				C97.3,11.4,85.5-0.4,70.9-0.4z"/>
			<path class="st9" d="M100,29c0-3.3-2.6-5.9-5.9-5.9c-3.3,0-5.9,2.6-5.9,5.9s2.6,5.9,5.9,5.9C97.4,34.9,100,32.2,100,29z"/>
		</g>
		<g>
			<path class="st9" d="M44-0.4C29.4-0.4,17.6,11.4,17.6,26h5.8c0-5.8,4.7-10.5,10.5-10.5c5.8,0,10.5,4.7,10.5,10.5h25.8
				C70.4,11.4,58.5-0.4,44-0.4z"/>
			<path class="st8" d="M26.7,29c0-3.3-2.6-5.9-5.9-5.9s-5.9,2.6-5.9,5.9s2.6,5.9,5.9,5.9S26.7,32.2,26.7,29z"/>
		</g>
	</g>
	<path class="st10" d="M70.4,25.8v4.8l-1.8,3l-1.9-3l-1.8,3l-1.9-3l-1.8,3l-1.9-3l-1.9,3l-1.8-3l-1.9,3l-1.8-3l-1.9,3l-1.8-3l-1.9,3
		l-1.8-3l-1.9,3l-1.8-3l-1.9,3l-1.8-3l-1.9,3l-1.8-3l-1.9,3l-1.9-3v-4.8H70.4z"/>
</g>
</svg>
