<?xml version="1.0" encoding="utf-8"?>
<!-- Generator: Adobe Illustrator 22.1.0, SVG Export Plug-In . SVG Version: 6.00 Build 0)  -->
<svg version="1.1" id="Layer_1" xmlns="http://www.w3.org/2000/svg" xmlns:xlink="http://www.w3.org/1999/xlink" x="0px" y="0px"
	 viewBox="0 0 100 100" style="enable-background:new 0 0 100 100;" xml:space="preserve">
<style type="text/css">
	.st0{fill:#EF6326;}
	.st1{fill:#BC6138;}
	.st2{fill:#FFFFFF;}
	.st3{fill:#29ABE2;}
	.st4{fill:#050505;}
	.st5{fill:#562912;}
	.st6{fill:#CC342F;}
	.st7{fill:#AB471B;}
	.st8{fill:#5E55A1;}
	.st9{fill:#B34414;}
</style>
<g>
	<path class="st0" d="M80,69.4L80,69.4l-4.3-7.1L64.4,45.5l-13.8-3.9c-16.5,0-29.9,11-29.9,27.8c0,16.8,13.1,30.2,29.9,30.2
		C67.4,99.6,80,86.2,80,69.4C80,69.4,80,69.4,80,69.4z"/>
	<path class="st0" d="M75.5,80.9c-2.3,0-4.1,1.9-4.1,4.1c0,2.3,1.8,4.1,4.1,4.1c2.3,0,4.1-1.9,4.1-4.1
		C79.6,82.7,77.7,80.9,75.5,80.9z M75.5,87.5c-1.3,0-2.4-1.1-2.4-2.4c0-1.3,1.1-2.4,2.4-2.4c1.3,0,2.4,1.1,2.4,2.4
		C77.9,86.4,76.8,87.5,75.5,87.5z"/>
	<path class="st0" d="M77.9,85c0-1.3-1.1-2.4-2.4-2.4c-1.3,0-2.4,1.1-2.4,2.4c0,1.3,1.1,2.4,2.4,2.4C76.8,87.5,77.9,86.4,77.9,85z"
		/>
	<path class="st0" d="M24.2,80.9c-2.3,0-4.1,1.9-4.1,4.1c0,2.3,1.8,4.1,4.1,4.1c2.3,0,4.1-1.9,4.1-4.1
		C28.4,82.7,26.5,80.9,24.2,80.9z"/>
	<path class="st1" d="M26.7,85c0-1.3-1.1-2.4-2.4-2.4c-1.3,0-2.4,1.1-2.4,2.4s1.1,2.4,2.4,2.4C25.6,87.5,26.7,86.4,26.7,85z"/>
	<g>
		<path class="st2" d="M62.9,77.8c-4.2-0.1-7.8,3.3-7.9,7.6c-0.1,4.3,3.3,7.8,7.6,7.9c4.2,0.1,7.8-3.3,7.9-7.6
			C70.6,81.5,67.2,77.9,62.9,77.8z M62.7,90.8c-2.9-0.1-5.2-2.5-5.1-5.4c0.1-2.9,2.5-5.2,5.4-5.1c2.9,0.1,5.2,2.5,5.1,5.4
			C67.9,88.6,65.5,90.9,62.7,90.8z"/>
		<path class="st3" d="M62.9,80.3c-2.9-0.1-5.3,2.2-5.4,5.1c-0.1,2.9,2.2,5.3,5.1,5.4c2.9,0.1,5.3-2.2,5.4-5.1
			C68.1,82.8,65.8,80.4,62.9,80.3z M65.6,85.7c0,1.6-1.3,2.8-2.9,2.8c-1.8,0-2.8-1.3-2.8-2.9c0-1.6,1.3-2.8,2.9-2.8
			C64.4,82.8,65.7,84.1,65.6,85.7z"/>
		<path class="st4" d="M62.8,82.7c-1.6,0-2.9,1.2-2.9,2.8c0,1.6,1,2.9,2.8,2.9c1.6,0,2.9-1.2,2.9-2.8C65.7,84.1,64.4,82.8,62.8,82.7
			z"/>
	</g>
	<g>
		<path class="st2" d="M38.1,77.8c-4.3,0-7.7,3.5-7.7,7.7c0,4.3,3.5,7.7,7.7,7.7c4.3,0,7.7-3.5,7.7-7.7
			C45.8,81.3,42.3,77.8,38.1,77.8z M38,90.8c-2.9,0-5.3-2.3-5.3-5.2c0-2.9,2.3-5.2,5.3-5.2c2.9,0,5.2,2.3,5.2,5.2
			C43.3,88.5,40.9,90.8,38,90.8z"/>
		<path class="st3" d="M38,80.3c-2.9,0-5.3,2.3-5.3,5.2c0,2.9,2.4,5.2,5.3,5.2c2.9,0,5.2-2.3,5.2-5.2C43.3,82.7,40.9,80.3,38,80.3z
			 M38.1,88.5c-1.6,0-2.9-1.3-2.9-2.9s1.3-2.9,2.9-2.9c1.6,0,2.9,1.3,2.9,2.9S39.9,88.5,38.1,88.5z"/>
		<path class="st4" d="M40.9,85.6c0-1.6-1.3-2.9-2.9-2.9c-1.6,0-2.9,1.3-2.9,2.9c0,1.6,1.3,2.9,2.9,2.9
			C39.6,88.5,40.9,87.2,40.9,85.6z"/>
	</g>
	<g>
		<path class="st5" d="M44.9,91.4c-0.4,0.1-0.5,0.5-0.4,0.8c0.8,2.1,3.2,3.8,6,3.8c2.8,0,5.2-1.7,6-3.8c0.1-0.3-0.1-0.7-0.4-0.8
			C52.7,90.3,48.2,90.3,44.9,91.4z"/>
		<path class="st6" d="M47.4,95.4c0.9,0.4,1.9,0.7,3,0.7c1.1,0,2.1-0.3,3-0.7c-0.8-0.6-1.9-1-3-1C49.3,94.4,48.3,94.8,47.4,95.4z"/>
		<path class="st2" d="M56.1,91.4c-3.4-1.1-7.8-1.1-11.2,0c-0.3,0.1-0.5,0.4-0.4,0.7h12.1C56.6,91.9,56.4,91.5,56.1,91.4z"/>
	</g>
	<path class="st7" d="M77.9,85c0-1.3-1.1-2.4-2.4-2.4c-1.3,0-2.4,1.1-2.4,2.4c0,1.3,1.1,2.4,2.4,2.4C76.8,87.5,77.9,86.4,77.9,85z"
		/>
</g>
<g>
	<path class="st8" d="M41.3,40.7c-11.4,0-20.7,10.2-20.7,22.8v5.6H51h0.1H80v-5.6c-0.1-12.6-8.2-22.8-19.7-22.8H41.3z"/>
	<path class="st9" d="M59.1,65.4v-3c0-2.3-1.9-4.1-4.1-4.1h-9.9c-2.3,0-4.1,1.9-4.1,4.1v3H59.1z"/>
</g>
</svg>
