<?xml version="1.0" encoding="utf-8"?>
<!-- Generator: Adobe Illustrator 22.1.0, SVG Export Plug-In . SVG Version: 6.00 Build 0)  -->
<svg version="1.1" id="Layer_1" xmlns="http://www.w3.org/2000/svg" xmlns:xlink="http://www.w3.org/1999/xlink" x="0px" y="0px"
	 viewBox="0 0 146.5 153" style="enable-background:new 0 0 146.5 153;" xml:space="preserve">
<style type="text/css">
	.st0{fill:#F26735;}
</style>
<path class="st0" d="M43,78.3c0,15.3,12.6,28.1,28.1,28.1s28.1-12.6,28.1-28.1S86.7,50.2,71.1,50.2S43,62.7,43,78.3z M62.9,78.3
	c0-4.6,3.8-8.2,8.2-8.2c4.6,0,8.2,3.6,8.2,8.2c0,4.6-3.6,8.2-8.2,8.2C66.6,86.4,62.9,82.6,62.9,78.3z"/>
<path class="st0" d="M20.4,21.1c-3.6,0-6.4,2.8-6.4,6.4v50.8c0,31.6,25.7,57.1,57.3,57.1c32.7,0,58.9-27.2,57.1-60.4
	c-1.5-30.3-27.6-54-57.9-54L20.4,21.1z M34.4,75.5c1.3-18.1,16.1-32.9,34.5-33.9c21.4-1.5,39.3,15.5,39.3,36.7
	c0,20.4-16.6,36.7-37,36.7C50,115,32.8,97.1,34.4,75.5z"/>
</svg>
