<?xml version="1.0" encoding="utf-8"?>
<!-- Generator: Adobe Illustrator 22.1.0, SVG Export Plug-In . SVG Version: 6.00 Build 0)  -->
<svg version="1.1" id="Layer_1" xmlns="http://www.w3.org/2000/svg" xmlns:xlink="http://www.w3.org/1999/xlink" x="0px" y="0px"
	 viewBox="0 0 100 100" style="enable-background:new 0 0 100 100;" xml:space="preserve">
<style type="text/css">
	.st0{fill:#EF6326;}
	.st1{fill:#BC6138;}
	.st2{fill:#FFFFFF;}
	.st3{fill:#29ABE2;}
	.st4{fill:#050505;}
	.st5{fill:#562912;}
	.st6{fill:#CC342F;}
	.st7{fill:#AB471B;}
	.st8{fill:#262342;}
	.st9{fill:#FCE29C;}
	.st10{fill:#5E55A1;}
	.st11{fill:#FFA52E;}
</style>
<g>
	<path class="st0" d="M83.3,54.2L83.3,54.2l-4.8-7.9L65.9,27.6l-15.4-4.4c-18.4,0-33.3,12.3-33.3,31c0,18.7,14.6,33.7,33.3,33.7
		C69.2,87.9,83.3,73,83.3,54.2C83.3,54.2,83.3,54.2,83.3,54.2z"/>
	<path class="st0" d="M78.2,67c-2.5,0-4.6,2.1-4.6,4.6c0,2.5,2.1,4.6,4.6,4.6c2.5,0,4.6-2.1,4.6-4.6C82.8,69.1,80.8,67,78.2,67z
		 M78.2,74.3c-1.5,0-2.7-1.2-2.7-2.7c0-1.5,1.2-2.7,2.7-2.7c1.5,0,2.7,1.2,2.7,2.7C80.9,73.1,79.7,74.3,78.2,74.3z"/>
	<path class="st0" d="M80.9,71.6c0-1.5-1.2-2.7-2.7-2.7c-1.5,0-2.7,1.2-2.7,2.7c0,1.5,1.2,2.7,2.7,2.7
		C79.7,74.3,80.9,73.1,80.9,71.6z"/>
	<path class="st0" d="M21.1,67c-2.5,0-4.6,2.1-4.6,4.6c0,2.5,2.1,4.6,4.6,4.6c2.5,0,4.6-2.1,4.6-4.6C25.7,69.1,23.6,67,21.1,67z"/>
	<path class="st1" d="M23.8,71.6c0-1.5-1.2-2.7-2.7-2.7c-1.5,0-2.7,1.2-2.7,2.7c0,1.5,1.2,2.7,2.7,2.7
		C22.6,74.3,23.8,73.1,23.8,71.6z"/>
	<g>
		<path class="st2" d="M64.2,63.6c-4.7-0.1-8.7,3.7-8.8,8.5c-0.1,4.8,3.7,8.7,8.4,8.8c4.7,0.1,8.7-3.7,8.8-8.5
			C72.8,67.7,69,63.7,64.2,63.6z M63.9,78.1c-3.2-0.1-5.8-2.8-5.7-6c0.1-3.2,2.8-5.8,6-5.7c3.2,0.1,5.8,2.8,5.7,6
			C69.8,75.6,67.2,78.2,63.9,78.1z"/>
		<path class="st3" d="M64.2,66.4c-3.2-0.1-5.9,2.5-6,5.7c-0.1,3.2,2.5,5.9,5.7,6c3.2,0.1,5.9-2.5,6-5.7
			C70,69.2,67.4,66.5,64.2,66.4z M67.2,72.3c-0.1,1.7-1.5,3.2-3.3,3.1c-2-0.1-3.2-1.5-3.1-3.3c0.1-1.7,1.5-3.1,3.3-3.1
			C65.9,69.1,67.3,70.6,67.2,72.3z"/>
		<path class="st4" d="M64.1,69.1c-1.8,0-3.2,1.4-3.3,3.1c-0.1,1.8,1.1,3.2,3.1,3.3c1.8,0.1,3.2-1.4,3.3-3.1
			C67.3,70.6,65.9,69.1,64.1,69.1z"/>
	</g>
	<g>
		<path class="st2" d="M36.5,63.6c-4.8,0-8.6,3.9-8.6,8.6c0,4.8,3.9,8.6,8.6,8.6c4.8,0,8.6-3.9,8.6-8.6
			C45.1,67.5,41.3,63.6,36.5,63.6z M36.5,78.1c-3.2,0-5.9-2.6-5.9-5.9c0-3.2,2.6-5.9,5.9-5.9c3.2,0,5.8,2.6,5.8,5.9
			C42.3,75.5,39.7,78.1,36.5,78.1z"/>
		<path class="st3" d="M36.5,66.4c-3.2,0-5.9,2.6-5.9,5.9c0,3.2,2.7,5.9,5.9,5.9c3.2,0,5.8-2.6,5.8-5.9C42.3,69,39.7,66.4,36.5,66.4
			z M36.5,75.5c-1.8,0-3.2-1.4-3.2-3.2c0-1.8,1.4-3.2,3.2-3.2c1.8,0,3.2,1.4,3.2,3.2C39.7,74,38.5,75.5,36.5,75.5z"/>
		<path class="st4" d="M39.7,72.3c0-1.8-1.4-3.2-3.2-3.2s-3.2,1.4-3.2,3.2c0,1.8,1.4,3.2,3.2,3.2S39.7,74,39.7,72.3z"/>
	</g>
	<g>
		<path class="st5" d="M44.1,78.8c-0.4,0.1-0.6,0.6-0.5,0.9c0.9,2.3,3.6,4.3,6.7,4.3s5.8-1.9,6.7-4.3c0.2-0.4-0.1-0.8-0.5-0.9
			C52.8,77.5,47.9,77.5,44.1,78.8z"/>
		<path class="st6" d="M47,83.2c1,0.5,2.1,0.8,3.4,0.8c1.2,0,2.4-0.3,3.4-0.8c-0.9-0.7-2.1-1.1-3.4-1.1C49.1,82.1,47.9,82.5,47,83.2
			z"/>
		<path class="st2" d="M56.6,78.8c-3.8-1.3-8.7-1.3-12.5,0c-0.3,0.1-0.6,0.5-0.5,0.8h13.5C57.1,79.3,56.9,78.9,56.6,78.8z"/>
	</g>
	<path class="st7" d="M80.9,71.6c0-1.5-1.2-2.7-2.7-2.7c-1.5,0-2.7,1.2-2.7,2.7c0,1.5,1.2,2.7,2.7,2.7
		C79.7,74.3,80.9,73.1,80.9,71.6z"/>
</g>
<path class="st8" d="M16.5,56c0,9.4,13.9,10.1,32.4,10.1c18.5,0,34.4-0.7,34.4-10.1H16.5z"/>
<path class="st9" d="M83.3,55.6c0-1.2-0.1-2.5-0.2-3.7H16.7c-0.1,1.2-0.2,2.4-0.2,3.7H83.3L83.3,55.6z"/>
<g>
	<path class="st10" d="M49.9,11.8c-23.2,0-42.2,12.3-42.2,27.7c0,6.4,3.4,12.1,8.7,17h66.7c5.5-4.7,8.8-10.6,8.8-17
		C92.1,24.2,73.2,11.8,49.9,11.8z"/>
	<path class="st11" d="M58.6,25.9c0-4.8-3.9-8.6-8.6-8.6c-4.8,0-8.6,3.9-8.6,8.6c0,4.8,3.9,8.6,8.6,8.6
		C54.7,34.6,58.6,30.7,58.6,25.9z"/>
</g>
</svg>
