<?xml version="1.0" encoding="utf-8"?>
<!-- Generator: Adobe Illustrator 22.1.0, SVG Export Plug-In . SVG Version: 6.00 Build 0)  -->
<svg version="1.1" id="Layer_1" xmlns="http://www.w3.org/2000/svg" xmlns:xlink="http://www.w3.org/1999/xlink" x="0px" y="0px"
	 viewBox="0 0 100 100" style="enable-background:new 0 0 100 100;" xml:space="preserve">
<style type="text/css">
	.st0{fill:#EF6326;}
	.st1{fill:#BC6138;}
	.st2{fill:#FFFFFF;}
	.st3{fill:#29ABE2;}
	.st4{fill:#050505;}
	.st5{fill:#562912;}
	.st6{fill:#CC342F;}
	.st7{fill:#AB471B;}
</style>
<g>
	<path class="st0" d="M86.5,51.4L86.5,51.4V12H52h0c-20,0-37.3,19-37.3,39.4C14.7,71.7,30.6,88,50.9,88S86.5,71.8,86.5,51.4
		C86.5,51.4,86.5,51.4,86.5,51.4z"/>
	<path class="st0" d="M81,65.3c-2.8,0-5,2.2-5,5c0,2.8,2.2,5,5,5c2.8,0,5-2.2,5-5C86,67.5,83.8,65.3,81,65.3z M81,73.3
		c-1.6,0-2.9-1.3-2.9-2.9c0-1.6,1.3-2.9,2.9-2.9c1.6,0,2.9,1.3,2.9,2.9C84,72,82.7,73.3,81,73.3z"/>
	<path class="st0" d="M84,70.3c0-1.6-1.3-2.9-2.9-2.9c-1.6,0-2.9,1.3-2.9,2.9c0,1.6,1.3,2.9,2.9,2.9C82.7,73.3,84,71.9,84,70.3z"/>
	<path class="st0" d="M18.9,65.3c-2.8,0-5,2.2-5,5c0,2.8,2.2,5,5,5s5-2.2,5-5C23.9,67.5,21.6,65.3,18.9,65.3z"/>
	<path class="st1" d="M21.8,70.3c0-1.6-1.3-2.9-2.9-2.9c-1.6,0-2.9,1.3-2.9,2.9c0,1.6,1.3,2.9,2.9,2.9
		C20.5,73.3,21.8,71.9,21.8,70.3z"/>
	<g>
		<path class="st2" d="M65.8,61.6c-5.2-0.1-9.5,4-9.6,9.2c-0.1,5.2,4,9.5,9.2,9.6c5.2,0.1,9.5-4,9.6-9.2C75.1,66,71,61.7,65.8,61.6z
			 M65.5,77.4c-3.5-0.1-6.3-3-6.2-6.5c0.1-3.5,3-6.3,6.5-6.2c3.5,0.1,6.3,3,6.2,6.5C71.9,74.6,69,77.4,65.5,77.4z"/>
		<path class="st3" d="M65.8,64.6c-3.5-0.1-6.4,2.7-6.5,6.2c-0.1,3.5,2.7,6.4,6.2,6.5c3.5,0.1,6.4-2.7,6.5-6.2
			C72.1,67.6,69.3,64.7,65.8,64.6z M69.1,71.1c-0.1,1.9-1.6,3.4-3.6,3.4c-2.2-0.1-3.4-1.6-3.4-3.6c0.1-1.9,1.6-3.4,3.6-3.4
			C67.6,67.6,69.1,69.2,69.1,71.1z"/>
		<path class="st4" d="M65.7,67.5c-1.9,0-3.5,1.5-3.6,3.4c-0.1,1.9,1.2,3.5,3.4,3.6c1.9,0.1,3.5-1.5,3.6-3.4
			C69.1,69.2,67.6,67.6,65.7,67.5z"/>
	</g>
	<g>
		<path class="st2" d="M35.7,61.6c-5.2,0-9.4,4.2-9.4,9.4c0,5.2,4.2,9.4,9.4,9.4c5.2,0,9.4-4.2,9.4-9.4C45,65.8,40.8,61.6,35.7,61.6
			z M35.6,77.4c-3.5,0-6.4-2.8-6.4-6.4c0-3.5,2.9-6.4,6.4-6.4c3.5,0,6.4,2.8,6.4,6.4C42,74.5,39.1,77.4,35.6,77.4z"/>
		<path class="st3" d="M35.6,64.6c-3.5,0-6.4,2.8-6.4,6.4c0,3.5,2.9,6.4,6.4,6.4c3.5,0,6.4-2.8,6.4-6.4C42,67.5,39.2,64.6,35.6,64.6
			z M35.7,74.5c-1.9,0-3.5-1.5-3.5-3.5c0-1.9,1.5-3.5,3.5-3.5c1.9,0,3.5,1.5,3.5,3.5C39.1,72.9,37.8,74.5,35.7,74.5z"/>
		<path class="st4" d="M39.1,71c0-1.9-1.6-3.5-3.5-3.5c-1.9,0-3.5,1.6-3.5,3.5c0,1.9,1.6,3.5,3.5,3.5C37.6,74.5,39.1,72.9,39.1,71z"
			/>
	</g>
	<g>
		<path class="st5" d="M43.9,78.1c-0.4,0.1-0.7,0.6-0.5,1c1,2.5,3.9,4.6,7.3,4.6c3.4,0,6.3-2.1,7.3-4.6c0.2-0.4-0.1-0.9-0.5-1
			C53.4,76.7,48,76.7,43.9,78.1z"/>
		<path class="st6" d="M47,82.9c1.1,0.5,2.3,0.9,3.7,0.9c1.3,0,2.6-0.3,3.7-0.9c-1-0.8-2.3-1.2-3.7-1.2C49.3,81.7,48,82.1,47,82.9z"
			/>
		<path class="st2" d="M57.5,78.1c-4.1-1.4-9.5-1.4-13.6,0c-0.4,0.1-0.6,0.5-0.5,0.9h14.7C58.1,78.6,57.9,78.2,57.5,78.1z"/>
	</g>
	<path class="st7" d="M84,70.3c0-1.6-1.3-2.9-2.9-2.9c-1.6,0-2.9,1.3-2.9,2.9c0,1.6,1.3,2.9,2.9,2.9C82.7,73.3,84,71.9,84,70.3z"/>
</g>
</svg>
