<?xml version="1.0" encoding="utf-8"?>
<!-- Generator: Adobe Illustrator 22.1.0, SVG Export Plug-In . SVG Version: 6.00 Build 0)  -->
<svg version="1.1" id="Layer_1" xmlns="http://www.w3.org/2000/svg" xmlns:xlink="http://www.w3.org/1999/xlink" x="0px" y="0px"
	 viewBox="0 0 100 100" style="enable-background:new 0 0 100 100;" xml:space="preserve">
<style type="text/css">
	.st0{fill:#EF6326;}
	.st1{fill:#BC6138;}
	.st2{fill:#FFFFFF;}
	.st3{fill:#29ABE2;}
	.st4{fill:#050505;}
	.st5{fill:#562912;}
	.st6{fill:#CC342F;}
	.st7{fill:#AB471B;}
</style>
<g>
	<path class="st0" d="M97,51.7v-0.1V1.1H52.6h0C26.8,1.1,4.4,25.5,4.4,51.7C4.4,78,24.9,99,51.1,99S97,78,97,51.7
		C97,51.8,97,51.7,97,51.7z"/>
	<path class="st0" d="M89.9,69.7c-3.6,0-6.5,2.9-6.5,6.5c0,3.6,2.9,6.5,6.5,6.5c3.6,0,6.5-2.9,6.5-6.5
		C96.4,72.6,93.5,69.7,89.9,69.7z M89.9,80c-2.1,0-3.8-1.7-3.8-3.8c0-2.1,1.7-3.8,3.8-3.8c2.1,0,3.8,1.7,3.8,3.8
		C93.7,78.3,92,80,89.9,80z"/>
	<path class="st0" d="M93.7,76.2c0-2.1-1.7-3.8-3.8-3.8c-2.1,0-3.8,1.7-3.8,3.8c0,2.1,1.7,3.8,3.8,3.8C92,80,93.7,78.3,93.7,76.2z"
		/>
	<path class="st0" d="M9.9,69.7c-3.6,0-6.5,2.9-6.5,6.5c0,3.6,2.9,6.5,6.5,6.5s6.5-2.9,6.5-6.5C16.3,72.6,13.4,69.7,9.9,69.7z"/>
	<path class="st1" d="M13.7,76.2c0-2.1-1.7-3.8-3.8-3.8s-3.8,1.7-3.8,3.8c0,2.1,1.7,3.8,3.8,3.8S13.7,78.3,13.7,76.2z"/>
	<g>
		<path class="st2" d="M70.3,64.9c-6.6-0.2-12.2,5.2-12.3,11.8c-0.2,6.7,5.1,12.2,11.8,12.4C76.4,89.3,82,84,82.1,77.3
			C82.3,70.6,77,65.1,70.3,64.9z M69.9,85.2c-4.5-0.1-8.1-3.9-8-8.4c0.1-4.5,3.9-8.1,8.4-8c4.5,0.1,8.1,3.9,8,8.4
			C78.2,81.7,74.4,85.3,69.9,85.2z"/>
		<path class="st3" d="M70.3,68.8c-4.5-0.1-8.3,3.5-8.4,8c-0.1,4.5,3.5,8.3,8,8.4c4.5,0.1,8.3-3.5,8.4-8
			C78.4,72.7,74.8,68.9,70.3,68.8z M74.5,77.1c-0.1,2.4-2.1,4.4-4.6,4.4c-2.8-0.1-4.4-2.1-4.4-4.6c0.1-2.4,2.1-4.4,4.6-4.4
			C72.6,72.6,74.6,74.7,74.5,77.1z"/>
		<path class="st4" d="M70.2,72.6c-2.5,0-4.5,1.9-4.6,4.4c-0.1,2.5,1.5,4.5,4.4,4.6c2.5,0.1,4.5-1.9,4.6-4.4
			C74.6,74.7,72.6,72.6,70.2,72.6z"/>
	</g>
	<g>
		<path class="st2" d="M31.5,64.9c-6.7,0-12.1,5.4-12.1,12.1c0,6.7,5.4,12.1,12.1,12.1c6.7,0,12.1-5.4,12.1-12.1
			C43.6,70.3,38.2,64.9,31.5,64.9z M31.4,85.2c-4.5,0-8.2-3.7-8.2-8.2c0-4.5,3.7-8.2,8.2-8.2c4.5,0,8.2,3.7,8.2,8.2
			C39.6,81.6,35.9,85.2,31.4,85.2z"/>
		<path class="st3" d="M31.4,68.8c-4.5,0-8.2,3.7-8.2,8.2c0,4.5,3.7,8.2,8.2,8.2c4.5,0,8.2-3.7,8.2-8.2C39.6,72.5,36,68.8,31.4,68.8
			z M31.5,81.5c-2.5,0-4.5-2-4.5-4.5s2-4.5,4.5-4.5c2.5,0,4.5,2,4.5,4.5S34.3,81.5,31.5,81.5z"/>
		<path class="st4" d="M36,77c0-2.5-2-4.5-4.5-4.5S27,74.6,27,77c0,2.5,2,4.5,4.5,4.5S36,79.5,36,77z"/>
	</g>
	<g>
		<path class="st5" d="M42.1,86.2c-0.6,0.2-0.9,0.8-0.6,1.3c1.3,3.2,5,6,9.4,6c4.4,0,8.1-2.7,9.4-6c0.2-0.5-0.1-1.1-0.6-1.3
			C54.3,84.4,47.4,84.4,42.1,86.2z"/>
		<path class="st6" d="M46.1,92.3c1.4,0.7,3,1.1,4.7,1.1s3.3-0.4,4.7-1.1c-1.3-1-2.9-1.6-4.7-1.6C49.1,90.8,47.4,91.4,46.1,92.3z"/>
		<path class="st2" d="M59.6,86.2c-5.3-1.8-12.2-1.8-17.5,0c-0.5,0.2-0.8,0.7-0.7,1.1h18.9C60.4,86.8,60.1,86.3,59.6,86.2z"/>
	</g>
	<path class="st7" d="M93.7,76.2c0-2.1-1.7-3.8-3.8-3.8c-2.1,0-3.8,1.7-3.8,3.8c0,2.1,1.7,3.8,3.8,3.8C92,80,93.7,78.3,93.7,76.2z"
		/>
</g>
</svg>
