<?xml version="1.0" encoding="utf-8"?>
<!-- Generator: Adobe Illustrator 22.1.0, SVG Export Plug-In . SVG Version: 6.00 Build 0)  -->
<svg version="1.1" xmlns="http://www.w3.org/2000/svg" xmlns:xlink="http://www.w3.org/1999/xlink" x="0px" y="0px"
	 viewBox="0 0 750 1334" style="enable-background:new 0 0 750 1334;" xml:space="preserve">
<style type="text/css">
	.st0{fill:#FFFFFF;}
	.st1{display:none;fill:none;}
	.st2{fill:#EF6326;}
	.st3{fill:#ED1C24;}
	.st4{fill:#FF7BAC;}
	.st5{fill:#FF6D93;}
	.st6{fill:#34A9D1;}
	.skinclor{fill:#EF6326;}
	.shirtcolor{fill:#34A9D1;}
	.haircolor{fill:#182268;}
	.flowerbuds{fill:#FF7BAC;}
	.flowerpeddles{fill:#ED1C24;}
	.innerear{fill:#B34A1C;enable-background:new    ;}
	.colar{fill:#FFFFFF;}
	.shirt{fill:#FF6D93;}
	.st7{fill:#808080;}
	.st8{fill:#999999;}
	.st9{fill:#F4E37D;}
	.st10{opacity:0.63;fill:#F4E37D;}
	.st11{fill:#F7EA9E;}
	.st12{opacity:0.61;fill:#F4E37D;}
	.st13{opacity:0.55;fill:#F4E37D;}
	.st14{fill:#F2F2F2;}
	.st15{fill:#4D4D4D;}
	.st16{fill:#333333;}
	.st17{fill:url(#SVGID_1_);}
</style>
<symbol  id="New_Symbol_8" viewBox="-4.1 -70.4 48.5 74.4">
	
		<use xlink:href="#righthand"  width="48.5" height="74.4" id="XMLID_14_" x="-3.6" y="-70.4" transform="matrix(1 0 0 1 -0.4846 4.602684e-02)" style="overflow:visible;"/>
</symbol>
<symbol  id="colar" viewBox="-22 -17.1 44 34.1">
	<polygon class="st0" points="10.2,-1.5 0.3,-17.1 -9.5,-1.5 	"/>
	<polygon class="st0" points="11.3,17 0.3,-0.4 -10.7,17 	"/>
	<polygon class="st0" points="-21.2,-2.5 -10,17 1.3,-2.5 	"/>
	<polygon class="colar" points="-1.3,-2.5 10,17 21.2,-2.5 	"/>
	<polygon class="st1" points="-22,16.5 22,16.5 22,-16.5 -22,-16.5 	"/>
</symbol>
<symbol  id="face" viewBox="-123.4 -130.2 246.8 260.4">
	<path class="skinclor" d="M123.4-4.6v0.3v134.5H4.9H4.8c-68.7,0-128.2-65.1-128.2-134.8c0-69.8,54.7-125.6,124.4-125.6
		S123.4-74.5,123.4-4.6C123.4-4.7,123.4-4.6,123.4-4.6z"/>
</symbol>
<symbol  id="flower" viewBox="-19.2 -18.6 38.5 37.3">
	<g>
		<path class="flowerpeddles" d="M14.6,1.9c1.4,1.5,2.2,3.4,2.2,5.6c0,4.6-3.7,8.3-8.3,8.3c-2.4,0-4.6-1-6.1-2.7
			c-1.2,3.1-4.2,5.4-7.8,5.5c-4.6,0-8.3-3.7-8.3-8.3c0-1.6,0.5-3.1,1.2-4.4c-3.8-0.7-6.7-4.1-6.7-8.1c0-4.6,3.7-8.3,8.3-8.3
			c0.6,0,1.2,0.1,1.8,0.2c0,0,0-0.1,0-0.1c0-4.6,3.7-8.3,8.3-8.3c3.7,0,6.8,2.4,7.9,5.8c1.2-0.6,2.5-1,3.9-1c4.6,0,8.3,3.7,8.3,8.3
			C19.3-2.2,17.4,0.6,14.6,1.9z M-2.7-2.3c0,0,0,0.1,0,0.1c0,1.6-0.5,3.1-1.2,4.4c1.8,0.3,3.4,1.2,4.5,2.5c0.7-2,2.3-3.7,4.2-4.6
			C4-0.8,3.4-1.9,3-3.1c-1.2,0.6-2.5,1-3.9,1C-1.5-2-2.1-2.1-2.7-2.3z"/>
		<path class="flowerbuds" d="M6.8,0.3c0-3.3-2.7-6-6-6s-6,2.7-6,6s2.7,6,6,6C4.1,6.2,6.8,3.6,6.8,0.3z"/>
	</g>
</symbol>
<symbol  id="hand_2" viewBox="-57.1 -5.8 63.9 68">
	
		<rect x="-45.3" y="14.6" transform="matrix(-0.6546 -0.7559 0.7559 -0.6546 -41.3686 20.2336)" class="skinclor" width="58.4" height="9.9"/>
	<circle class="skinclor" cx="-41" cy="46.2" r="16.1"/>
</symbol>
<symbol  id="head_x5F_m" viewBox="-129 -43.9 254.9 260.3">
	
		<use xlink:href="#face"  width="246.8" height="260.4" x="-123.4" y="-130.2" transform="matrix(0.9996 0 0 0.9996 2.5267 86.2781)" style="overflow:visible;"/>
	<path class="st2" d="M89.8,16.7c0-9.5,7.7-17.2,17.2-17.2s17.2,7.7,17.2,17.2s-7.7,17.2-17.2,17.2S89.8,26.2,89.8,16.7z"/>
	<path class="st2" d="M-129,30.2c0-9.5,7.7-17.2,17.2-17.2s17.2,7.7,17.2,17.2s-7.7,17.2-17.2,17.2S-129,39.7-129,30.2z"/>
	<path class="st5" d="M-85,41.7"/>
</symbol>
<symbol  id="left_arm_2" viewBox="-47.2 -4.2 51.5 58.2">
	
		<use xlink:href="#hand_2"  width="63.9" height="68" id="XMLID_30_" x="-57.1" y="-5.8" transform="matrix(0.7762 -3.202815e-02 3.202815e-02 0.7762 -4.416 4.3343)" style="overflow:visible;"/>
	<path class="shirtcolor" d="M-3.3-2.7l-8.9,10.9l6.6,5.5L3.3,2.8c1.5-1.8,1.2-4.5-0.6-6l0,0C0.9-4.7-1.8-4.5-3.3-2.7z"/>
</symbol>
<symbol  id="lefthand_2" viewBox="-65.9 -50.4 70.3 54.7">
	<path class="shirtcolor" d="M2.7-3.5L-59-49.6c-1.9-1.4-4.6-1-6,0.9l0,0c-1.4,1.9-1,4.6,0.9,6L-2.5,3.4c1.9,1.4,4.6,1,6-0.9l0,0
		C5,0.6,4.6-2.1,2.7-3.5z"/>
</symbol>
<symbol  id="neck" viewBox="-9.5 -21.5 19.1 38.6">
	<path class="st2" d="M0-21.5L0-21.5c5.3,0,9.5,4.3,9.5,9.5V7.6c0,5.3-4.3,9.5-9.5,9.5h0c-5.3,0-9.5-4.3-9.5-9.5V-12
		C-9.5-17.2-5.3-21.5,0-21.5z"/>
</symbol>
<symbol  id="rightarm" viewBox="-44.4 -69.9 48.5 74.4">
	
		<use xlink:href="#lefthand_2"  width="70.3" height="54.7" x="-65.9" y="-50.4" transform="matrix(-9.629484e-02 0.9954 0.9954 9.629484e-02 -0.1398 0.1646)" style="overflow:visible;"/>
</symbol>
<symbol  id="righthand" viewBox="-3.6 -70.4 48.5 74.4">
	
		<use xlink:href="#lefthand_2"  width="70.3" height="54.7" id="XMLID_17_" x="-65.9" y="-50.4" transform="matrix(9.629484e-02 0.9954 -0.9954 9.629484e-02 0.6244 -0.3814)" style="overflow:visible;"/>
</symbol>
<g id="Layer_1">
	<rect x="421.4" y="1230.9" class="st7" width="74.9" height="74"/>
	<rect x="658.5" y="1259.6" class="st7" width="74.9" height="74"/>
	<rect x="564.5" y="1238" class="st7" width="21.6" height="74"/>
	<rect x="491.6" y="1250.3" class="st7" width="121.4" height="67.7"/>
	<rect x="601.7" y="1191.1" class="st7" width="53.7" height="67.7"/>
	<rect x="675.1" y="1216.5" class="st8" width="42.9" height="70.1"/>
	<rect x="540.8" y="1254.3" class="st8" width="53.7" height="67.7"/>
	<rect x="581.6" y="1216.6" class="st8" width="93.5" height="75.3"/>
	<g>
		<rect x="705.8" y="1212.7" class="st8" width="1.3" height="4.1"/>
		<rect x="705.5" y="1211.6" class="st8" width="1.9" height="1.1"/>
	</g>
	<rect x="158.5" y="1313.4" class="st8" width="594.7" height="19.8"/>
	<rect x="-1" y="1317.1" class="st8" width="508.8" height="16.2"/>
	<circle class="st9" cx="80.6" cy="1012.1" r="1.3"/>
	<circle class="st10" cx="158.2" cy="975.3" r="1.3"/>
	<circle class="st9" cx="62.1" cy="1060.2" r="1.3"/>
	<circle class="st11" cx="34.1" cy="1100.2" r="1.3"/>
	<circle class="st9" cx="292.1" cy="1097" r="1.3"/>
	<circle class="st12" cx="234.1" cy="1128.5" r="1.3"/>
	<circle class="st13" cx="253.9" cy="1236.3" r="1.3"/>
	<circle class="st9" cx="399.4" cy="1094.3" r="1.3"/>
	<circle class="st9" cx="137.6" cy="1133.6" r="2.8"/>
	<circle class="st9" cx="137.6" cy="1239.6" r="2.8"/>
	<rect x="395.2" y="1248.9" class="st8" width="53.7" height="67.7"/>
	<rect x="107.8" y="1299.8" class="st8" width="53.7" height="29.9"/>
	
		<rect x="58.6" y="1280" transform="matrix(6.123234e-17 -1 1 6.123234e-17 -1219.0051 1390.0234)" class="st8" width="53.7" height="49"/>
	
		<rect x="24.2" y="1283.4" transform="matrix(6.123234e-17 -1 1 6.123234e-17 -1275.5104 1357.816)" class="st8" width="33.9" height="66.4"/>
	
		<rect x="715.5" y="1256.9" transform="matrix(6.123234e-17 -1 1 6.123234e-17 -545.1798 2010.1117)" class="st8" width="33.9" height="41.4"/>
	<rect x="273.5" y="1268.7" class="st8" width="104.3" height="61"/>
	<rect x="189.3" y="1292.6" class="st8" width="93.5" height="41"/>
	<rect x="448.7" y="1268.7" class="st8" width="93.5" height="64.5"/>
	<path class="st9" d="M371.4,1113.4c-2-5.9-1.7-12.1,0.3-17.5l-0.4-0.5c-9.7,8.1-10.9,22.5-2.8,32.2c8.1,9.7,22.5,10.9,32.2,2.8
		l-0.1-0.1C388.2,1132.8,375.6,1125.7,371.4,1113.4z"/>
	<polyline class="st8" points="271.4,1269.7 283.6,1259.1 366.7,1259.1 367,1268.7 271.4,1269.7 	"/>
	<polyline class="st8" points="379.6,1269.7 367.4,1259.1 320.2,1259.1 319.9,1268.7 379.6,1269.7 	"/>
	<line class="st8" x1="401.9" y1="1248.8" x2="394.2" y2="1248.8"/>
	<g>
		<rect x="438.1" y="1248" class="st8" width="1.3" height="4.1"/>
		<rect x="437.8" y="1246.9" class="st8" width="1.9" height="1.1"/>
	</g>
	<path class="st8" d="M320.5,1263.2c0-2.8,2.3-5.1,5.1-5.1c2.8,0,5.1,2.3,5.1,5.1"/>
	<rect x="107.6" y="1275.8" class="st8" width="2.4" height="1.8"/>
	<polygon class="st8" points="108.8,1274.7 107.6,1275.5 110,1275.5 	"/>
	<g>
		<rect x="107.3" y="1275.5" class="st8" width="3.1" height="0.3"/>
		<rect x="107.6" y="1275.8" class="st8" width="2.4" height="0.4"/>
	</g>
	<rect x="90.9" y="1275.8" class="st8" width="2.4" height="1.8"/>
	<polygon class="st8" points="92.1,1274.7 90.9,1275.5 93.3,1275.5 	"/>
	<g>
		<rect x="90.5" y="1275.5" class="st8" width="3.1" height="0.3"/>
		<rect x="90.9" y="1275.8" class="st8" width="2.4" height="0.4"/>
	</g>
	<rect x="61" y="1275.8" class="st8" width="2.4" height="1.8"/>
	<polygon class="st8" points="62.2,1274.7 61,1275.5 63.5,1275.5 	"/>
	<g>
		<rect x="60.7" y="1275.5" class="st8" width="3.1" height="0.3"/>
		<rect x="61" y="1275.8" class="st8" width="2.4" height="0.4"/>
	</g>
	<rect x="75.2" y="1275.8" class="st8" width="2.4" height="1.8"/>
	<polygon class="st8" points="76.5,1274.7 75.2,1275.5 77.7,1275.5 	"/>
	<g>
		<rect x="74.9" y="1275.5" class="st8" width="3.1" height="0.3"/>
		<rect x="75.2" y="1275.8" class="st8" width="2.4" height="0.4"/>
	</g>
	<path class="st8" d="M79.1,1280.2c0-2.8,2.3-5.1,5.1-5.1s5.1,2.3,5.1,5.1"/>
	<path class="st8" d="M394.1,1257.9h-4.6c-0.1,0-0.3-0.1-0.3-0.3v-4.6c0-0.1,0.1-0.3,0.3-0.3h4.6c0.1,0,0.3,0.1,0.3,0.3v4.6
		C394.3,1257.8,394.2,1257.9,394.1,1257.9z"/>
	<rect x="392.3" y="1260.4" class="st8" width="3.3" height="0.4"/>
	<rect x="392.3" y="1254.8" class="st8" width="3.3" height="0.4"/>
	<path class="st8" d="M394.1,1263.4h-4.6c-0.1,0-0.3-0.1-0.3-0.3v-4.6c0-0.1,0.1-0.3,0.3-0.3h4.6c0.1,0,0.3,0.1,0.3,0.3v4.6
		C394.3,1263.3,394.2,1263.4,394.1,1263.4z"/>
	<rect x="392.3" y="1266" class="st8" width="3.3" height="0.4"/>
	<path class="st8" d="M394.1,1269h-4.6c-0.1,0-0.3-0.1-0.3-0.3v-4.6c0-0.1,0.1-0.3,0.3-0.3h4.6c0.1,0,0.3,0.1,0.3,0.3v4.6
		C394.3,1268.9,394.2,1269,394.1,1269z"/>
	<rect x="392.3" y="1271.8" class="st8" width="3.3" height="0.4"/>
	<path class="st8" d="M394.1,1274.8h-4.6c-0.1,0-0.3-0.1-0.3-0.3v-4.6c0-0.1,0.1-0.3,0.3-0.3h4.6c0.1,0,0.3,0.1,0.3,0.3v4.6
		C394.3,1274.6,394.2,1274.8,394.1,1274.8z"/>
	<rect x="392.3" y="1277.3" class="st8" width="3.3" height="0.4"/>
	<path class="st8" d="M394.1,1280.2h-4.6c-0.1,0-0.3-0.1-0.3-0.3v-4.6c0-0.1,0.1-0.3,0.3-0.3h4.6c0.1,0,0.3,0.1,0.3,0.3v4.6
		C394.3,1280.1,394.2,1280.2,394.1,1280.2z"/>
	<path class="st8" d="M393.6,1251.6l-0.2-0.4c-0.1,0.1-0.2,0.1-0.3,0.2l-0.1-0.2c0.6-0.4,0.9-1,0.9-1.7c0-1.2-1-2.1-2.1-2.1
		c-0.3,0-0.6,0.1-0.9,0.2l-0.1-0.2c0.1,0,0.2-0.1,0.3-0.1l-0.2-0.4c-1.1,0.4-1.9,1.4-1.9,2.7c0,1.5,1.2,2.7,2.7,2.8v0.2
		c-0.4,0.1-1.3,0.3-1.3,0.6h2.9c0-0.3-0.9-0.5-1.3-0.6v-0.2C392.5,1252.3,393.1,1252,393.6,1251.6z M389.4,1249.5c0-0.8,0.4-1.5,1-2
		l0.1,0.2c-0.6,0.4-0.9,1-0.9,1.7c0,1.2,1,2.1,2.1,2.1c0.3,0,0.6-0.1,0.9-0.2l0.1,0.2c-0.3,0.2-0.7,0.2-1,0.2
		C390.4,1251.8,389.4,1250.8,389.4,1249.5z"/>
	<g>
		<rect x="8" y="1297.9" class="st8" width="2.4" height="1.8"/>
		<polygon class="st8" points="9.2,1296.9 8,1297.7 10.4,1297.7 		"/>
		<g>
			<rect x="7.7" y="1297.6" class="st8" width="3.1" height="0.3"/>
			<rect x="8" y="1297.9" class="st8" width="2.4" height="0.4"/>
		</g>
		<circle class="st8" cx="9.3" cy="1296.8" r="0.5"/>
	</g>
	<g>
		<rect x="25" y="1297.9" class="st8" width="2.4" height="1.8"/>
		<polygon class="st8" points="26.2,1296.9 25,1297.7 27.4,1297.7 		"/>
		<g>
			<rect x="24.6" y="1297.6" class="st8" width="3.1" height="0.3"/>
			<rect x="25" y="1297.9" class="st8" width="2.4" height="0.4"/>
		</g>
		<circle class="st8" cx="26.2" cy="1296.8" r="0.5"/>
	</g>
	<g>
		<rect x="41.9" y="1297.9" class="st8" width="2.4" height="1.8"/>
		<polygon class="st8" points="43.1,1296.9 41.9,1297.7 44.4,1297.7 		"/>
		<g>
			<rect x="41.6" y="1297.6" class="st8" width="3.1" height="0.3"/>
			<rect x="41.9" y="1297.9" class="st8" width="2.4" height="0.4"/>
		</g>
		<circle class="st8" cx="43.2" cy="1296.8" r="0.5"/>
	</g>
	<g>
		<rect x="124.9" y="1297.9" class="st8" width="2.4" height="1.8"/>
		<polygon class="st8" points="126.1,1296.9 124.9,1297.7 127.3,1297.7 		"/>
		<g>
			<rect x="124.5" y="1297.6" class="st8" width="3.1" height="0.3"/>
			<rect x="124.9" y="1297.9" class="st8" width="2.4" height="0.4"/>
		</g>
		<circle class="st8" cx="126.1" cy="1296.8" r="0.5"/>
	</g>
	<g>
		<rect x="141.8" y="1297.9" class="st8" width="2.4" height="1.8"/>
		<polygon class="st8" points="143,1296.9 141.8,1297.7 144.3,1297.7 		"/>
		<g>
			<rect x="141.5" y="1297.6" class="st8" width="3.1" height="0.3"/>
			<rect x="141.8" y="1297.9" class="st8" width="2.4" height="0.4"/>
		</g>
		<circle class="st8" cx="143.1" cy="1296.8" r="0.5"/>
	</g>
	<g>
		<rect x="158.8" y="1297.9" class="st8" width="2.4" height="1.8"/>
		<polygon class="st8" points="160,1296.9 158.8,1297.7 161.2,1297.7 		"/>
		<g>
			<rect x="158.5" y="1297.6" class="st8" width="3.1" height="0.3"/>
			<rect x="158.8" y="1297.9" class="st8" width="2.4" height="0.4"/>
		</g>
		<circle class="st8" cx="160.1" cy="1296.8" r="0.5"/>
	</g>
	
		<rect id="so_4_" x="614" y="1230.9" transform="matrix(0.9798 -0.2 0.2 0.9798 -238.6699 149.0891)" class="shirt" width="9.1" height="49.8"/>
	<path class="shirtcolor" d="M619.6,1232.1c-1.2-2.7-3.2-1.5-6.1-1l0,0c-3,0.6-5.5,0.5-5.6,3.6c0,0.1,0.3,2.8,0.3,2.8l5.7,57.5
		c0,0.2,0,0.3,0.1,0.5c0,0,0,0,0,0c0.1,0.7,0.8,1.3,1.5,1.3c0.2,0,0.3,0,0.5,0c0.5-0.1,1-0.5,1.2-0.9c0.1-0.1,0.2-0.2,0.4-0.1
		c0.4,0.3,0.9,0.5,1.4,0.4c0.4-0.1,0.8-0.3,1-0.6c0.2-0.2,0.4-0.3,0.7-0.1c0.3,0.2,0.7,0.3,1.2,0.2c0.5-0.1,1-0.5,1.2-0.9
		c0.1-0.1,0.2-0.2,0.4-0.1c0.4,0.3,0.9,0.5,1.4,0.4c0.5-0.1,0.8-0.4,1.1-0.7c0.1-0.2,0.4-0.2,0.5-0.1c0.4,0.3,0.8,0.4,1.3,0.3
		c0.5-0.1,1-0.5,1.2-0.9c0.1-0.1,0.2-0.2,0.4-0.1c0.4,0.3,0.9,0.5,1.4,0.4c0.4-0.1,0.8-0.3,1-0.7c0.1-0.2,0.4-0.3,0.6-0.1
		c0.4,0.2,0.8,0.3,1.2,0.2c0.7-0.1,1.1-0.6,1.3-1.2c0.7,0.9,2.2,1.1,3.1-0.5l-0.2-1.4L619.6,1232.1z"/>
	
		<use xlink:href="#colar"  width="44" height="34.1" id="XMLID_11_" x="-22" y="-17.1" transform="matrix(0.2588 -5.283492e-02 -5.283492e-02 -0.2588 613.5855 1231.1149)" style="overflow:visible;"/>
	
		<use xlink:href="#neck"  width="19.1" height="38.6" x="-9.5" y="-21.5" transform="matrix(0.2588 -5.283492e-02 -5.283492e-02 -0.2588 612.593 1226.0735)" style="overflow:visible;"/>
	
		<use xlink:href="#New_Symbol_8"  width="48.5" height="74.4" id="XMLID_10_" x="-4.1" y="-70.4" transform="matrix(0.2602 -4.565980e-02 -4.565980e-02 -0.2602 618.4558 1231.5732)" style="overflow:visible;"/>
	
		<use xlink:href="#rightarm"  width="48.5" height="74.4" id="XMLID_9_" x="-44.4" y="-69.9" transform="matrix(0.2606 4.338577e-02 4.338577e-02 -0.2606 609.0504 1234.1094)" style="overflow:visible;"/>
	
		<use xlink:href="#left_arm_2"  width="51.5" height="58.2" x="-47.2" y="-4.2" transform="matrix(-8.808769e-02 0.2491 -0.2491 -8.808769e-02 595.7693 1249.4775)" style="overflow:visible;"/>
	
		<use xlink:href="#left_arm_2"  width="51.5" height="58.2" id="XMLID_7_" x="-47.2" y="-4.2" transform="matrix(-0.2218 0.1435 0.1435 0.2218 632.0204 1247.0017)" style="overflow:visible;"/>
	
		<use xlink:href="#face"  width="246.8" height="260.4" id="XMLID_16_" x="-123.4" y="-130.2" transform="matrix(0.2591 -5.100690e-02 -5.100690e-02 -0.2591 606.7753 1191.551)" style="overflow:visible;"/>
	<path class="st2" d="M632.9,1205.1c0.5,2.5,2.9,4.1,5.3,3.6s4.1-2.9,3.6-5.3c-0.5-2.5-2.9-4.1-5.3-3.6
		C634,1200.3,632.4,1202.7,632.9,1205.1z"/>
	<path class="innerear" d="M634.8,1204.8c0.3,1.5,1.7,2.4,3.1,2.1c1.5-0.3,2.4-1.7,2.1-3.1c-0.3-1.5-1.7-2.4-3.1-2.1
		C635.4,1201.9,634.5,1203.3,634.8,1204.8z"/>
	<g>
		<g>
			<path class="haircolor" d="M630.4,1149.5l-29.4,5.8l0,0c-18.4,3.6-30.9,24.3-27.3,42.9c0.7,3.8,2.1,7.3,3.8,10.5l24.7-3.4
				l2.6-6.1l2,2.6l1.8,2.3l0.5-1.1l0.6-1.4l0.9,1.2l0.8,1.1l0,0l0.5-1.2l0.6-1.4l0.9,1.2l0.8,1l28-3.8c-0.6-3.5-2-10.7-2.7-14.5l0,0
				l0-0.1l-6.7-34C632.7,1150.1,631.5,1149.3,630.4,1149.5z"/>
		</g>
		<g>
			<path class="haircolor" d="M630.4,1149.5l-29.4,5.8l0,0c-18.4,3.6-30.9,24.3-27.3,42.9c0.7,3.8,2.1,7.3,3.8,10.5l24.7-3.4
				l2.6-6.1l2,2.6l1.8,2.3l0.5-1.1l0.6-1.4l0.9,1.2l0.8,1.1l0,0l0.5-1.2l0.6-1.4l0.9,1.2l0.8,1l28-3.8c-0.6-3.5-2-10.7-2.7-14.5l0,0
				l0-0.1l-6.7-34C632.7,1150.1,631.5,1149.3,630.4,1149.5z"/>
		</g>
	</g>
	<path class="st2" d="M575.5,1212.8c0.5,2.5,2.9,4.1,5.3,3.6c2.5-0.5,4.1-2.9,3.6-5.3c-0.5-2.5-2.9-4.1-5.3-3.6
		C576.6,1207.9,575,1210.3,575.5,1212.8z"/>
	<path class="innerear" d="M577.4,1212.4c0.3,1.5,1.7,2.4,3.1,2.1c1.5-0.3,2.4-1.7,2.1-3.1c-0.3-1.5-1.7-2.4-3.1-2.1
		C578,1209.6,577.1,1211,577.4,1212.4z"/>
	
		<use xlink:href="#flower"  width="38.5" height="37.3" id="XMLID_15_" x="-19.2" y="-18.6" transform="matrix(0.2592 -5.102757e-02 -5.102757e-02 -0.2592 573.3714 1188.9773)" style="overflow:visible;"/>
	<path class="haircolor" d="M577.1,1200.5l8.4,41.3c4.1,20.2,20.8,33.8,37.4,30.4l29.8-6c0,0-3.2-16.3-7.2-36.4l-8.6-43"/>
	<path class="haircolor" d="M586.8,1248.1L586.8,1248.1c-1.6,0.3-3.2-0.7-3.5-2.4l-9-46.5l2.9-0.2L586.8,1248.1L586.8,1248.1z"/>
	<path class="haircolor" d="M646.9,1238.3L646.9,1238.3l-11.7-48.5l5-1l9.1,46C649.6,1236.4,648.6,1238,646.9,1238.3z"/>
	<polygon class="st14" points="712.8,1199.5 712.5,1189.5 712.2,1179.5 721,1184.2 729.8,1189 721.3,1194.2 	"/>
	
		<use xlink:href="#neck"  width="19.1" height="38.6" x="-9.5" y="-21.5" transform="matrix(0.2642 0 0 -0.3344 560.5977 1228.3574)" style="overflow:visible;"/>
	
		<use xlink:href="#left_arm_2"  width="51.5" height="58.2" id="XMLID_5_" x="-47.2" y="-4.2" transform="matrix(-0.1359 0.2265 0.2265 0.1359 588.2767 1246.8208)" style="overflow:visible;"/>
	<path id="so_2_" class="shirtcolor" d="M562.5,1282.4h-4.1c-1.4,0-2.5-1.1-2.5-2.5v-44.7c0-1.4,1.1-2.5,2.5-2.5h4.1
		c1.4,0,2.5,1.1,2.5,2.5v44.7C565.1,1281.3,563.9,1282.4,562.5,1282.4z"/>
	
		<use xlink:href="#left_arm_2"  width="51.5" height="58.2" x="-47.2" y="-4.2" transform="matrix(0.2636 -1.790684e-02 1.790684e-02 0.2636 549.3594 1261.1321)" style="overflow:visible;"/>
	
		<use xlink:href="#head_x5F_m"  width="254.9" height="260.3" id="XMLID_4_" x="-129" y="-43.9" transform="matrix(0.2681 3.608732e-02 3.617791e-02 -0.2687 553.5009 1214.2449)" style="overflow:visible;"/>
	<path class="st6" d="M549.4,1261.4L549.4,1261.4c-0.6-0.2-0.9-0.8-0.8-1.4l7.5-25.7c0.2-0.6,0.8-0.9,1.4-0.8l0,0
		c0.6,0.2,0.9,0.8,0.8,1.4l-7.5,25.7C550.6,1261.2,550,1261.6,549.4,1261.4z"/>
	<path class="st6" d="M588.9,1247.4L588.9,1247.4c-0.3,0.6-1,0.8-1.5,0.5l-23.7-12.4c-0.6-0.3-0.8-1-0.5-1.5l0,0
		c0.3-0.6,1-0.8,1.5-0.5l23.7,12.4C589,1246.2,589.2,1246.9,588.9,1247.4z"/>
	<rect x="472.9" y="1288.3" class="st15" width="280.3" height="44.9"/>
	<path class="st16" d="M760.9,1293.7H469.3c-1.8,0-3.2-1.4-3.2-3.2v-11.6c0-1.8,1.4-3.2,3.2-3.2h291.6c1.8,0,3.2,1.4,3.2,3.2v11.6
		C764.1,1292.3,762.6,1293.7,760.9,1293.7z"/>
	<rect x="736.8" y="1317.6" class="st16" width="16.4" height="1"/>
</g>
<g id="Layer_2">
	<g>
		<linearGradient id="SVGID_1_" gradientUnits="userSpaceOnUse" x1="375.5" y1="1334" x2="375.5" y2="9.094947e-13">
			<stop  offset="0" style="stop-color:#1B1464"/>
			<stop  offset="0.7215" style="stop-color:#1B1752"/>
			<stop  offset="1" style="stop-color:#1B184A"/>
		</linearGradient>
		<rect x="-1" y="0" class="st17" width="753" height="1334"/>
	</g>
</g>
</svg>
