<?xml version="1.0" encoding="utf-8"?>
<!-- Generator: Adobe Illustrator 22.1.0, SVG Export Plug-In . SVG Version: 6.00 Build 0)  -->
<svg version="1.1" id="Layer_1" xmlns="http://www.w3.org/2000/svg" xmlns:xlink="http://www.w3.org/1999/xlink" x="0px" y="0px"
	 viewBox="0 0 111 100" style="enable-background:new 0 0 111 100;" xml:space="preserve">
<style type="text/css">
	.st0{fill:#145F88;}
	.st1{fill:#34A3DF;}
	.st2{fill:#005D8F;stroke:#005D8F;stroke-width:3.15;stroke-linecap:square;stroke-dasharray:6.2919,12.5837;stroke-dashoffset:-3;}
	.st3{fill:#A2ECFF;}
	.st4{fill:#FCFCFC;}
	.st5{fill:#272A66;}
	.st6{fill:#EE6427;}
	.st7{fill:#B44C26;}
	.st8{fill:#FEE5A6;}
	.st9{fill:#773517;}
	.st10{fill:#FFFFFF;}
	.st11{fill:#2AAAE2;}
	.st12{fill:#070707;}
	.st13{fill:none;}
	.st14{fill:#EC2227;}
	.st15{fill:#F27BAA;}
	.st16{fill:#C2082C;}
</style>
<g>
	<path class="st0" d="M80.5,83.9c-0.3-0.9,0.1-1.9,1-2.4c0.9-0.5,1.9-0.3,2.6,0.4l3.8-2.2c-1.4-2.5-0.5-5.6,2-7
		c0.1,0,0.1-0.1,0.2-0.1L52.4,8c-0.1,0-0.1,0.1-0.2,0.1c-2.5,1.4-5.6,0.6-7.1-1.9C45.1,6.1,45,6.1,45,6l-3.7,2.2l0,0l0,0
		c0.6,1,0.2,2.3-0.8,2.9c-1,0.6-2.3,0.2-2.9-0.8l0,0l-2.7,1.6l0,0l0,0c0.6,1,0.2,2.3-0.8,2.9c-1,0.6-2.3,0.2-2.9-0.8l0,0l-2.8,1.6
		c0.3,0.9-0.1,1.9-1,2.4c-0.8,0.5-1.9,0.3-2.5-0.4l-3.5,2c0,0.1,0.1,0.1,0.1,0.2c1.4,2.5,0.6,5.6-1.9,7.1c-0.2,0.1-0.3,0.2-0.5,0.2
		l37.6,64.7c0.1-0.1,0.3-0.2,0.5-0.3c2.5-1.4,5.6-0.6,7,1.8l3.5-2l0,0c-0.3-0.9,0.1-1.9,1-2.4c0.9-0.5,1.9-0.3,2.6,0.4l2.8-1.6l0,0
		c-0.3-0.9,0.1-1.9,1-2.4c0.9-0.5,1.9-0.3,2.6,0.4L80.5,83.9L80.5,83.9z"/>
	<path class="st1" d="M58.3,87.9c0.7,1.1,2.1,1.5,3.3,0.9L85,75.3c1.1-0.7,1.5-2.1,0.9-3.3l-6.8-11.7c-0.7-1.1-2.1-1.5-3.3-0.9
		L52.4,72.9c-1.1,0.7-1.5,2.1-0.9,3.3L58.3,87.9z"/>
	<path class="st2" d="M46.7,74.2L79.8,55L46.7,74.2z"/>
	<path class="st3" d="M46.8,67.7c0.7,1.1,2.1,1.5,3.3,0.9L73.4,55c1.1-0.7,1.5-2.1,0.9-3.3L51.5,12.3c-0.7-1.1-2.1-1.5-3.3-0.9
		L24.8,24.9c-1.1,0.7-1.5,2.1-0.9,3.3L46.8,67.7z"/>
	<path class="st4" d="M59.7,80.9l2.4-1.4l-0.7-1.1l-2.4,1.4L59.7,80.9z M62.7,79.4c0.4,0.5,0.8,0.9,1.4,1c0.6,0.1,1.1,0,1.7-0.4
		c0.7-0.4,1.1-0.9,1.2-1.6c0.1-0.7,0-1.3-0.3-1.8c-0.4-0.6-0.8-1-1.4-1.2c-0.6-0.1-1.1,0-1.6,0.3c-0.2,0.1-0.4,0.3-0.6,0.5
		c-0.1,0.1-0.2,0.3-0.3,0.5l-0.5-1.5l2.5-1.4l-0.6-1l-3.4,1.9l1.5,3.6l1.1-0.6c0-0.2,0.1-0.4,0.2-0.6c0.1-0.1,0.2-0.2,0.3-0.3
		c0.3-0.2,0.6-0.2,0.9-0.1c0.3,0.1,0.5,0.4,0.7,0.7c0.2,0.3,0.3,0.6,0.2,0.9c0,0.3-0.2,0.5-0.5,0.7c-0.3,0.1-0.5,0.2-0.7,0.1
		c-0.2-0.1-0.4-0.2-0.6-0.4L62.7,79.4z M70.1,76.3c-0.4,0.2-0.7,0.2-1-0.1c-0.3-0.3-0.7-0.8-1.1-1.5c-0.4-0.7-0.7-1.3-0.8-1.7
		c-0.1-0.4,0-0.7,0.4-0.9c0.4-0.2,0.7-0.2,1,0.1c0.3,0.3,0.7,0.8,1.1,1.5c0.4,0.7,0.7,1.3,0.8,1.7C70.6,75.7,70.5,76,70.1,76.3z
		 M70.9,72.9c-0.6-1-1.2-1.7-1.8-2.1c-0.6-0.4-1.3-0.3-2.1,0.1c-0.8,0.4-1.2,1-1.2,1.8c0,0.7,0.3,1.6,0.9,2.6c0.6,1,1.2,1.7,1.8,2
		c0.6,0.4,1.3,0.3,2.1-0.1c0.8-0.4,1.2-1,1.2-1.8C71.8,74.7,71.5,73.9,70.9,72.9z M72.8,69.8c0.1,0.2,0.1,0.4,0.1,0.6
		c-0.1,0.2-0.2,0.4-0.4,0.5c-0.2,0.1-0.4,0.1-0.6,0.1c-0.2-0.1-0.4-0.2-0.5-0.4c-0.1-0.2-0.1-0.4-0.1-0.6c0.1-0.2,0.2-0.4,0.4-0.5
		c0.2-0.1,0.4-0.1,0.6-0.1C72.6,69.5,72.7,69.6,72.8,69.8z M73.1,71.7c0.4-0.3,0.7-0.6,0.8-1.1c0.1-0.5,0.1-0.9-0.2-1.4
		c-0.2-0.4-0.6-0.7-1.1-0.8c-0.5-0.1-0.9-0.1-1.4,0.2c-0.4,0.2-0.7,0.6-0.8,1.1c-0.1,0.5-0.1,0.9,0.2,1.4c0.2,0.4,0.6,0.7,1.1,0.8
		C72.2,72,72.6,72,73.1,71.7z M77.6,70.2c0.2-0.1,0.4-0.1,0.6-0.1c0.2,0.1,0.4,0.2,0.5,0.4c0.1,0.2,0.1,0.4,0.1,0.6
		c-0.1,0.2-0.2,0.4-0.4,0.5c-0.2,0.1-0.4,0.1-0.6,0.1c-0.2-0.1-0.4-0.2-0.5-0.4c-0.1-0.2-0.1-0.4-0.1-0.6
		C77.3,70.5,77.4,70.3,77.6,70.2z M78.9,72.4c0.4-0.2,0.7-0.6,0.8-1.1c0.1-0.5,0.1-0.9-0.2-1.4c-0.2-0.4-0.6-0.7-1.1-0.8
		c-0.5-0.1-0.9-0.1-1.4,0.2c-0.4,0.2-0.7,0.6-0.8,1.1c-0.1,0.5-0.1,0.9,0.2,1.4c0.2,0.4,0.6,0.7,1.1,0.8
		C78,72.7,78.5,72.7,78.9,72.4z M74.8,74.8l0.7-0.4l-0.2-8.2l-0.6,0.4L74.8,74.8z"/>
	<g>
		<path class="st5" d="M47.1,51L47.1,51l-6-10.6l-0.7,0.3l5.7,10.1C46.3,51,46.8,51.1,47.1,51z"/>
		<path class="st5" d="M41.2,40.6l5.1,9c2.5,4.4,7.4,6.3,11,4.2l6.5-3.7c0,0-2-3.5-4.4-7.9L54,32.8L41.2,40.6z"/>
		<path class="st6" d="M54.5,32.6L54.5,32.6L50.2,25l-6.7,3.8l0,0c-3.9,2.2-5.1,7.8-2.9,11.7c2.2,3.9,7.1,5.3,11,3.1
			C55.5,41.3,56.7,36.5,54.5,32.6C54.5,32.6,54.5,32.6,54.5,32.6z"/>
		<path class="st5" d="M60.3,44c0.4-0.2,0.5-0.6,0.3-1l-5.7-10l-1.1,0.6L60.3,44z"/>
		<path class="st6" d="M54.5,37.4c0.3,0.5,1,0.7,1.5,0.4c0.5-0.3,0.7-1,0.4-1.5c-0.3-0.5-1-0.7-1.5-0.4
			C54.4,36.2,54.2,36.9,54.5,37.4z"/>
		<path class="st7" d="M54.9,37.2c0.2,0.3,0.6,0.4,0.9,0.2c0.3-0.2,0.4-0.6,0.2-0.9c-0.2-0.3-0.6-0.4-0.9-0.2
			C54.8,36.5,54.7,36.9,54.9,37.2z"/>
		<path class="st8" d="M55.9,37.8c-0.1-0.1-0.3-0.2-0.4-0.1c-0.1,0.1-0.2,0.3-0.1,0.4c0.1,0.1,0.3,0.2,0.4,0.1
			C55.9,38.1,56,37.9,55.9,37.8z"/>
		<path class="st9" d="M54.4,37.7l0.5-0.3l-0.6,0.2L54.4,37.7z"/>
		<path class="st9" d="M54,37.2l0.4-0.5l-0.5,0.4L54,37.2z"/>
		<path class="st9" d="M54.2,37.5l0.4-0.4l-0.5,0.3L54.2,37.5z"/>
		<g>
			<g>
				<path class="st10" d="M50.7,39.7c0.5,1,1.8,1.4,2.8,0.8c1-0.5,1.4-1.8,0.8-2.8c-0.5-1-1.8-1.4-2.8-0.8
					C50.6,37.4,50.2,38.6,50.7,39.7z"/>
				<path class="st11" d="M51.3,39.3c0.4,0.7,1.2,0.9,1.9,0.6c0.7-0.4,0.9-1.2,0.6-1.9c-0.4-0.7-1.2-0.9-1.9-0.6
					C51.2,37.8,51,38.6,51.3,39.3z"/>
				<path class="st12" d="M51.9,39c0.2,0.4,0.6,0.5,1,0.3c0.4-0.2,0.5-0.7,0.3-1c-0.2-0.4-0.7-0.5-1-0.3
					C51.8,38.2,51.7,38.7,51.9,39z"/>
			</g>
			<path class="st13" d="M51.7,41.5l3.7-2.1l-2-3.6l-3.7,2.1L51.7,41.5z"/>
		</g>
		<g>
			<path class="st9" d="M44.8,42.4l-0.6,0.3l0.6-0.1L44.8,42.4z"/>
			<path class="st9" d="M44.7,41.8l-0.6,0.1l0.6,0.1L44.7,41.8z"/>
			<path class="st9" d="M44.7,42.1l-0.6,0.1l0.6,0L44.7,42.1z"/>
			<g>
				<g>
					<path class="st10" d="M48.6,40.9c-0.6-1-1.8-1.4-2.8-0.8c-1,0.6-1.4,1.8-0.8,2.8c0.6,1,1.8,1.4,2.8,0.8
						C48.8,43.2,49.2,41.9,48.6,40.9z"/>
					<path class="st11" d="M48,41.3c-0.4-0.7-1.2-0.9-1.9-0.5c-0.7,0.4-0.9,1.2-0.5,1.9c0.4,0.7,1.3,0.9,1.9,0.5
						C48.2,42.8,48.4,41.9,48,41.3z"/>
					<path class="st12" d="M47.5,41.6c-0.2-0.4-0.7-0.5-1-0.3c-0.4,0.2-0.5,0.7-0.3,1c0.2,0.4,0.7,0.5,1,0.3
						C47.6,42.4,47.7,41.9,47.5,41.6z"/>
				</g>
				<path class="st13" d="M46,44.8l3.7-2.1l-2-3.6L44,41.2L46,44.8z"/>
			</g>
		</g>
		<path class="st5" d="M49.6,24.7l-6.4,3.6l0,0c-4,2.3-5.3,8-3,12.1c0.5,0.8,1,1.5,1.7,2.1l5.5-2.7l0.1-1.6l0.7,0.5l0.6,0.4l0-0.3
			l0-0.4l0.3,0.2l0.3,0.2l0,0l0-0.3l0-0.4l0.3,0.2l0.3,0.2l6.2-3.1c-0.4-0.8-1.3-2.3-1.8-3.2l0,0l0,0l-4.2-7.4
			C50.2,24.6,49.9,24.5,49.6,24.7z"/>
		<path class="st6" d="M41.8,43.6c0.3,0.5,1,0.7,1.5,0.4c0.5-0.3,0.7-1,0.4-1.5c-0.3-0.5-1-0.7-1.5-0.4
			C41.7,42.4,41.5,43.1,41.8,43.6z"/>
		<path class="st7" d="M42.2,43.4c0.2,0.3,0.6,0.4,0.9,0.2c0.3-0.2,0.4-0.6,0.2-0.9c-0.2-0.3-0.6-0.4-0.9-0.2
			C42.1,42.7,42,43.1,42.2,43.4z"/>
		<path class="st8" d="M43.9,43.6c-0.1-0.2-0.3-0.2-0.4-0.1c-0.1,0.1-0.2,0.3-0.1,0.4c0.1,0.2,0.3,0.2,0.4,0.1
			C44,44,44,43.8,43.9,43.6z"/>
		<g>
			<path class="st14" d="M40.2,37.7c0-0.1,0-0.3-0.1-0.4C40,37,39.7,37,39.4,37.1c-0.1,0.1-0.2,0.2-0.3,0.3
				c-0.2-0.1-0.4-0.2-0.6-0.1c-0.3,0.1-0.3,0.5-0.2,0.7c0.1,0.1,0.1,0.2,0.2,0.2c-0.2,0.2-0.2,0.4-0.1,0.7c0.1,0.3,0.5,0.3,0.7,0.2
				c0,0,0.1,0,0.1-0.1c0,0,0,0,0,0c0.1,0.3,0.5,0.3,0.7,0.2c0.2-0.1,0.3-0.4,0.3-0.6c0.1,0,0.2,0,0.2-0.1c0.3-0.1,0.3-0.5,0.2-0.7
				C40.6,37.8,40.4,37.7,40.2,37.7z M39.3,38.5C39.3,38.5,39.3,38.5,39.3,38.5c-0.1-0.1-0.1-0.2-0.2-0.2c0.1-0.1,0.1-0.2,0.2-0.3
				c0.1,0.1,0.2,0.1,0.4,0.1c0,0.1,0,0.2,0,0.2C39.6,38.3,39.5,38.4,39.3,38.5C39.4,38.4,39.4,38.4,39.3,38.5z"/>
			<path class="st15" d="M39.8,38c-0.1-0.2-0.3-0.2-0.5-0.1c-0.2,0.1-0.3,0.3-0.1,0.5c0.1,0.2,0.3,0.2,0.5,0.1
				C39.8,38.5,39.9,38.2,39.8,38z"/>
		</g>
		<g>
			<path d="M49.1,42.3c0.5,0.6,1.3,0.7,2,0.4c0.6-0.4,0.9-1.1,0.7-1.8c0,0-0.3-0.1-1.4,0.5C49.2,42,49.1,42.3,49.1,42.3z"/>
			<path class="st10" d="M49.2,42.5l2.5-1.4c0-0.1,0-0.1,0-0.2c0,0-0.3-0.1-1.4,0.5c-1.1,0.6-1.2,1-1.2,1
				C49.1,42.4,49.2,42.4,49.2,42.5L49.2,42.5z"/>
			<path class="st16" d="M51.6,42.1c-0.3,0-0.6,0-0.8,0.2c-0.3,0.2-0.5,0.4-0.6,0.6c0.3,0,0.6-0.1,0.8-0.2
				C51.3,42.5,51.5,42.3,51.6,42.1z"/>
		</g>
	</g>
</g>
</svg>
