<?xml version="1.0" encoding="utf-8"?>
<!-- Generator: Adobe Illustrator 22.1.0, SVG Export Plug-In . SVG Version: 6.00 Build 0)  -->
<svg version="1.1" id="Layer_1" xmlns="http://www.w3.org/2000/svg" xmlns:xlink="http://www.w3.org/1999/xlink" x="0px" y="0px"
	 viewBox="0 0 2061 550" style="enable-background:new 0 0 2061 550;" xml:space="preserve">
<style type="text/css">
	.st0{fill:#73D2FE;}
	.st1{fill:#FFFFFF;fill-opacity:0.6;}
	.st2{fill:#FEFBFB;}
	.st3{fill:#432918;}
	.st4{fill:#EA2313;}
	.st5{fill:#DADADA;}
	.st6{fill:#F39200;}
	.st7{fill:#8C6244;}
	.st8{fill:#CCA183;}
	.st9{fill:#FFFFFF;}
	.st10{fill:#145F88;}
	.st11{fill:#34A3DF;}
	
		.st12{fill:#005D8F;stroke:#005D8F;stroke-width:3.15;stroke-linecap:square;stroke-dasharray:6.2919,12.5837;stroke-dashoffset:-3;}
	.st13{fill:#FFFBFB;}
	.st14{fill:#FCFCFC;}
	.st15{fill:#272A66;}
	.st16{fill:#EE6427;}
	.st17{fill:#B44C26;}
	.st18{fill:#FEE5A6;}
	.st19{fill:#773517;}
	.st20{fill:#2AAAE2;}
	.st21{fill:#070707;}
	.st22{fill:none;}
	.st23{fill:#EC2227;}
	.st24{fill:#F27BAA;}
	.st25{fill:#C2082C;}
	.st26{fill:#005D8F;stroke:#005D8F;stroke-width:1.23;stroke-linecap:square;stroke-dasharray:2.4637,4.9275;stroke-dashoffset:-1;}
	.st27{fill:#005D8F;stroke:#005D8F;stroke-width:1.75;stroke-linecap:square;stroke-dasharray:3.4953,6.9906;stroke-dashoffset:-1;}
	.st28{fill:#EF6326;}
	.st29{fill:#BC6138;}
	.st30{fill:#29ABE2;}
	.st31{fill:#050505;}
	.st32{fill:#562912;}
	.st33{fill:#CC342F;}
	.st34{fill:#AB471B;}
	
		.st35{fill:#005D8F;stroke:#005D8F;stroke-width:4.19;stroke-linecap:square;stroke-dasharray:8.3852,16.7704;stroke-dashoffset:-4;}
</style>
<rect class="st0" width="2061" height="553.3"/>
<title>Artboard 1</title>
<path class="st1" d="M1122.5,108.7l3.2-3.7c0.4-0.6,0-1.4-0.6-1.4l-2.7-0.2c-0.5,0-0.8-0.6-0.6-1l5.8-10.6c0.1-0.3-0.1-0.6-0.4-0.6
	h-9c-0.1,0-0.2,0.1-0.3,0.2c-5.2,7.9-12,10.8-15.4,11s-23.5,0-33.9,0c-12.3,0-14.6,3-19,6.9c-4.8,4.1-3.2,8.1,2.4,8.5
	c3.9,0.4,34.1,0.3,51.3,0.2C1110.7,117.8,1117.8,114.4,1122.5,108.7z"/>
<path class="st2" d="M1710.6,103.6c-3.5,0-6.7,1-9.3,2.6c-4-6.3-11-10.6-19-10.6c-9.9,0-18.2,6.3-21.2,15.3c-1.7-0.6-3.5-1-5.3-1
	c-8.4,0-15.2,6.8-15.2,15.2s6.8,15.2,15.2,15.2h54.8c10.2,0,18.4-8.2,18.4-18.4C1729,111.8,1720.7,103.6,1710.6,103.6z"/>
<path class="st2" d="M1175.6,288.2c-4.9,0-9.4,1.4-13.2,3.6c-5.6-8.9-15.5-14.9-26.8-14.9c-13.9,0-25.7,8.9-30,21.6
	c-2.4-0.9-4.9-1.4-7.5-1.4c-11.9,0-21.4,9.5-21.4,21.4s9.5,21.4,21.4,21.4h77.2c14.4,0,26-11.5,26-26
	C1201.4,299.8,1189.7,288.2,1175.6,288.2z"/>
<path class="st2" d="M1562.2,176.9c-6.2,0-11.9,1.7-16.7,4.6c-7.2-11.3-19.7-18.9-34-18.9c-17.6,0-32.6,11.3-38,27.3
	c-3-1.1-6.2-1.7-9.5-1.7c-15.1,0-27.2,12.1-27.2,27.2c0,15.1,12.1,27.2,27.2,27.2h97.9c18.3,0,32.9-14.6,32.9-32.9
	C1594.9,191.7,1580.2,176.9,1562.2,176.9z"/>
<path class="st2" d="M2124.7,151.5c-9.7,0-18.7,2.7-26.2,7.2c-11.2-17.7-30.9-29.7-53.4-29.7c-27.7,0-51.1,17.7-59.6,42.9
	c-4.7-1.7-9.7-2.7-15-2.7c-23.7,0-42.6,19-42.6,42.6c0,23.7,19,42.6,42.6,42.6h153.6c28.7,0,51.6-22.9,51.6-51.6
	C2176.1,174.7,2152.9,151.5,2124.7,151.5z"/>
<g>
	<g>
		<path class="st3" d="M1568.2,146.4c0.3,0.4,2.6,11.7,2.6,11.7L1568.2,146.4z"/>
		<path d="M1570.4,158.2l0.7-0.1c-0.7-3.4-2.4-11.4-2.6-11.8l-0.5,0.3C1568.1,147.1,1569.5,153.8,1570.4,158.2z"/>
	</g>
	<g>
		<path class="st3" d="M1576.9,158.1c0,0,2.3-11.3,2.6-11.7L1576.9,158.1z"/>
		<path d="M1577.2,158.2c0.9-4.4,2.3-11.1,2.6-11.6l-0.6-0.3c-0.3,0.4-1.9,8.4-2.6,11.8L1577.2,158.2z"/>
	</g>
	<path class="st4" d="M1573.8,97.2c-12.1,0-21.1,9.8-21.1,20.3c0,15.1,12.8,28.5,16,31.5c1.3-1.6,3-2.3,5.1-2.3s3.8,0.7,5.1,2.3
		c3.2-3.1,16-16.4,16-31.5C1594.9,107,1585.9,97.2,1573.8,97.2z"/>
	<path class="st5" d="M1571.9,152.8c0,0.4,0.3,0.7,0.7,0.7h2.2c0.4,0,0.7-0.3,0.7-0.7v-2.2h-3.6L1571.9,152.8L1571.9,152.8z"/>
	<path class="st6" d="M1573.8,150.3c0.9,0,1.1-1,0.7-1.4s-0.5-1.5-0.5-1.5s-0.6,0.5-0.4,1.2c0.3,0.8-0.1,0.8-0.1,0.8
		c-0.2,0-0.2-0.7-0.2-0.7c-0.1,0.4-0.4,0.6-0.3,0.9C1573,150.3,1573.5,150.3,1573.8,150.3z"/>
	<path class="st3" d="M1579.4,162.4c0-0.1-0.1-0.3-0.3-0.3h-10.7c-0.1,0-0.3,0.1-0.3,0.3s0.1,0.3,0.3,0.3h10.7
		C1579.3,162.6,1579.4,162.5,1579.4,162.4z"/>
	<path class="st7" d="M1575.4,156.8h-1.9h-4.2c-0.4,0-0.7,0.3-0.7,0.7v4.6h2.7h2.3h0.3h1.4h3.8V159v-0.5v-1.1c0-0.4-0.3-0.7-0.7-0.7
		L1575.4,156.8L1575.4,156.8z"/>
	<path class="st8" d="M1569.2,159.9c-0.2,0.3-0.1,0.7,0.1,0.9l1.9,1.3h2.3l-3.5-2.4C1569.8,159.5,1569.4,159.6,1569.2,159.9z"/>
	<path class="st8" d="M1569.3,158.5c-0.1,0.2-0.1,0.4,0.1,0.5l4.5,3.1h1.4l-5.4-3.8C1569.7,158.2,1569.5,158.3,1569.3,158.5z"/>
	<path class="st8" d="M1578.7,159.7c0.2-0.3,0.1-0.6-0.1-0.8l-3.1-2.2h-1.9l4.4,3.1C1578.2,160,1578.5,159.9,1578.7,159.7z"/>
	<path class="st8" d="M1577.2,157.2c-0.1-0.1-0.2-0.1-0.3,0.1c-0.1,0.1-0.1,0.2,0.1,0.3l2.2,1.5v-0.5L1577.2,157.2z"/>
	<path class="st9" d="M1573.8,97.2c13.7,8.3,2.2,46.8,0.9,49.6l0,0c0.7,0.1,1.2,0.2,1.8,0.5l0,0
		C1595.8,112.2,1582.9,99.8,1573.8,97.2z"/>
	<path class="st9" d="M1573.8,97.2c-9.1,2.6-21.9,15-2.7,50.1l0,0c0.6-0.3,1.2-0.4,1.8-0.5l0,0C1571.6,144,1560.1,105.5,1573.8,97.2
		z"/>
</g>
<g>
	<path class="st10" d="M1442.5,352.9c-0.9-2.9,0.3-6.1,3-7.7c2.7-1.6,6.1-1,8.2,1.2l12-6.9c-4.3-7.9-1.6-17.8,6.2-22.3
		c0.2-0.1,0.4-0.2,0.7-0.4l-119.8-206.1c-0.2,0.1-0.4,0.3-0.6,0.4c-7.9,4.6-18,1.9-22.6-6c-0.1-0.2-0.2-0.4-0.3-0.6l-11.9,6.9l0,0
		l0,0c1.8,3.2,0.7,7.3-2.4,9.1c-3.2,1.8-7.3,0.8-9.1-2.4l0,0l-8.8,5.1l0,0l0,0c1.8,3.2,0.7,7.3-2.4,9.1c-3.2,1.8-7.3,0.8-9.1-2.4
		l0,0l-8.9,5.2c0.8,2.9-0.4,6-3.1,7.6s-6.1,1-8.1-1.1l-11.2,6.5c0.1,0.2,0.2,0.4,0.3,0.5c4.6,7.9,1.9,18-6,22.6
		c-0.5,0.3-1,0.6-1.5,0.8L1367,378.3c0.5-0.3,1-0.7,1.5-0.9c7.8-4.5,17.8-1.9,22.4,5.8l11.2-6.4l0,0c-0.9-2.9,0.3-6.1,3-7.7
		c2.7-1.6,6.1-1,8.2,1.2l9.1-5.2l0,0c-0.9-2.9,0.3-6.1,3-7.7c2.7-1.6,6.1-1,8.2,1.2L1442.5,352.9L1442.5,352.9z"/>
	<path class="st11" d="M1371.7,365.4c2.1,3.6,6.8,4.8,10.4,2.8l74.6-43.1c3.6-2.1,4.9-6.8,2.8-10.5l-21.5-37.3
		c-2.1-3.6-6.8-4.9-10.5-2.8l-74.5,43c-3.6,2.1-4.9,6.8-2.8,10.5L1371.7,365.4z"/>
	<path class="st12" d="M1334.5,321.8l105.7-61L1334.5,321.8z"/>
	<path class="st13" d="M1334.9,301c2.1,3.6,6.8,4.8,10.4,2.8l74.6-43.1c3.6-2.1,4.9-6.8,2.8-10.5L1350,124.3
		c-2.1-3.6-6.8-4.9-10.5-2.8l-74.5,43c-3.6,2.1-4.9,6.8-2.8,10.5L1334.9,301z"/>
	<path class="st14" d="M1376.1,343.2l7.7-4.4l-2.1-3.6l-7.7,4.4L1376.1,343.2z M1385.7,338.6c1.2,1.7,2.7,2.8,4.4,3.1
		c1.8,0.3,3.6-0.1,5.4-1.1c2.3-1.3,3.6-3,3.9-5.1s0-4-1-5.8c-1.2-2.1-2.7-3.3-4.5-3.7s-3.5-0.1-5.1,0.8c-0.8,0.5-1.4,0.9-1.8,1.5
		c-0.3,0.3-0.6,0.8-0.9,1.6l-1.8-4.6l7.9-4.6l-1.9-3.2l-10.7,6.2l4.8,11.5l3.5-1.8c0-0.8,0.2-1.4,0.7-2c0.3-0.3,0.6-0.6,1.1-0.9
		c1-0.6,1.9-0.6,2.8-0.2c0.9,0.4,1.6,1.1,2.1,2.1c0.6,1,0.8,2,0.7,2.9c-0.1,1-0.6,1.7-1.6,2.2c-0.8,0.5-1.6,0.6-2.3,0.4
		s-1.3-0.7-2-1.4L1385.7,338.6z M1409.2,328.4c-1.1,0.7-2.2,0.5-3.3-0.5c-1-1-2.2-2.6-3.5-4.8c-1.3-2.3-2.2-4.2-2.4-5.5
		c-0.3-1.3,0.1-2.3,1.3-3c1.1-0.7,2.2-0.5,3.2,0.4s2.2,2.5,3.5,4.9c1.3,2.2,2.1,4,2.4,5.4C1410.8,326.7,1410.4,327.7,1409.2,328.4z
		 M1411.9,317.7c-1.8-3.2-3.8-5.4-5.8-6.5c-2-1.2-4.2-1-6.7,0.4s-3.7,3.3-3.7,5.6s0.9,5.1,2.8,8.3c1.8,3.2,3.8,5.4,5.8,6.5
		c2,1.2,4.2,1,6.7-0.4s3.7-3.3,3.7-5.6C1414.7,323.6,1413.8,320.9,1411.9,317.7z M1417.9,307.8c0.3,0.6,0.4,1.2,0.2,1.9
		c-0.2,0.7-0.6,1.2-1.1,1.5c-0.6,0.3-1.2,0.4-1.9,0.2c-0.7-0.2-1.2-0.6-1.5-1.1c-0.3-0.6-0.4-1.2-0.2-1.9c0.2-0.7,0.6-1.1,1.1-1.5
		c0.6-0.3,1.2-0.4,1.9-0.2C1417.1,306.8,1417.6,307.2,1417.9,307.8z M1418.6,314c1.4-0.8,2.3-2,2.7-3.5c0.4-1.5,0.2-3-0.6-4.4
		c-0.8-1.4-2-2.3-3.5-2.7s-3-0.2-4.4,0.6s-2.3,2-2.7,3.5c-0.4,1.5-0.2,3,0.6,4.4c0.8,1.4,2,2.3,3.5,2.7
		C1415.8,315,1417.3,314.8,1418.6,314z M1433.2,309.1c0.6-0.3,1.2-0.4,1.9-0.2c0.7,0.2,1.2,0.6,1.5,1.1c0.3,0.6,0.4,1.2,0.2,1.9
		c-0.2,0.7-0.6,1.2-1.1,1.5c-0.6,0.3-1.2,0.4-1.9,0.2c-0.7-0.2-1.2-0.6-1.5-1.1c-0.3-0.6-0.4-1.2-0.2-1.9
		C1432.2,310,1432.6,309.5,1433.2,309.1z M1437.3,316.2c1.4-0.8,2.3-2,2.7-3.5c0.4-1.5,0.2-3-0.6-4.4c-0.8-1.4-2-2.3-3.5-2.7
		s-3-0.2-4.4,0.6s-2.3,2-2.7,3.5c-0.4,1.5-0.2,3,0.6,4.4c0.8,1.4,2,2.3,3.5,2.7S1435.9,317,1437.3,316.2z M1424.4,323.8l2.1-1.2
		l-0.7-26.1l-2,1.2L1424.4,323.8z"/>
	<g>
		<path class="st15" d="M1336,247.8L1336,247.8l-19.2-33.9l-2.1,0.8l18.1,32.2C1333.5,248,1334.9,248.4,1336,247.8z"/>
		<path class="st15" d="M1317.1,214.8l16.2,28.6c7.9,14,23.6,20,35.1,13.5l20.6-11.7c0,0-6.3-11.3-14.2-25.2l-16.8-29.8
			L1317.1,214.8z"/>
		<path class="st16" d="M1359.4,189.2L1359.4,189.2l-13.7-24.1l-21.2,12.1l0,0c-12.3,7-16.3,24.7-9.2,37.2
			c7.1,12.5,22.6,16.9,35.1,9.8C1362.7,217.1,1366.5,201.8,1359.4,189.2C1359.4,189.3,1359.4,189.2,1359.4,189.2z"/>
		<path class="st15" d="M1378.1,225.7c1.1-0.6,1.5-2.1,0.9-3.2l-18.1-31.8l-3.4,2L1378.1,225.7z"/>
		<path class="st16" d="M1359.5,204.6c1,1.7,3.1,2.3,4.8,1.3c1.7-1,2.3-3.1,1.3-4.8s-3.1-2.3-4.8-1.3
			C1359.2,200.7,1358.6,202.9,1359.5,204.6z"/>
		<path class="st17" d="M1360.8,203.8c0.6,1,1.8,1.4,2.8,0.8c1-0.6,1.4-1.8,0.8-2.8s-1.8-1.4-2.8-0.8
			C1360.6,201.6,1360.3,202.8,1360.8,203.8z"/>
		<path class="st18" d="M1364,205.7c-0.3-0.5-0.9-0.6-1.3-0.4c-0.5,0.3-0.6,0.9-0.4,1.3c0.3,0.5,0.9,0.6,1.3,0.4
			C1364.1,206.8,1364.3,206.2,1364,205.7z"/>
		<path class="st19" d="M1359,205.6l1.6-1.1l-1.8,0.7L1359,205.6z"/>
		<path class="st19" d="M1357.8,204l1.2-1.5l-1.5,1.2L1357.8,204z"/>
		<path class="st19" d="M1358.4,204.9l1.3-1.3l-1.6,1L1358.4,204.9z"/>
		<g>
			<g>
				<path class="st9" d="M1347.5,211.8c1.7,3.2,5.8,4.4,9,2.7s4.4-5.8,2.7-9c-1.7-3.2-5.8-4.4-9-2.7
					C1347,204.5,1345.8,208.5,1347.5,211.8z"/>
				<path class="st20" d="M1349.4,210.7c1.2,2.2,3.9,3,6.1,1.8s3-3.9,1.8-6.1c-1.2-2.2-3.9-3-6.1-1.8
					C1349.1,205.8,1348.3,208.5,1349.4,210.7z"/>
				<path class="st21" d="M1351.2,209.8c0.6,1.2,2,1.7,3.3,1c1.2-0.6,1.6-2.1,1-3.3s-2.1-1.6-3.3-1S1350.6,208.6,1351.2,209.8z"/>
			</g>
			<path class="st22" d="M1350.7,217.7l11.8-6.7l-6.5-11.5l-11.8,6.7L1350.7,217.7z"/>
		</g>
		<g>
			<path class="st19" d="M1328.6,220.7l-1.8,0.8l1.9-0.4L1328.6,220.7z"/>
			<path class="st19" d="M1328.3,218.6l-1.9,0.3l1.9,0.2V218.6z"/>
			<path class="st19" d="M1328.4,219.7l-1.9,0.4h1.9V219.7z"/>
			<g>
				<g>
					<path class="st9" d="M1340.7,215.8c-1.8-3.2-5.9-4.3-9-2.5c-3.2,1.8-4.3,5.8-2.5,9s5.9,4.3,9,2.5
						C1341.4,223,1342.5,219,1340.7,215.8z"/>
					<path class="st20" d="M1338.8,216.9c-1.2-2.2-4-2.9-6.1-1.7c-2.2,1.2-2.9,4-1.7,6.1c1.2,2.2,4,2.9,6.1,1.7
						C1339.3,221.8,1340.1,219,1338.8,216.9z"/>
					<path class="st21" d="M1337.1,217.9c-0.7-1.2-2.2-1.6-3.3-0.9c-1.2,0.7-1.6,2.2-0.9,3.3c0.7,1.2,2.2,1.6,3.3,0.9
						C1337.5,220.4,1337.8,219,1337.1,217.9z"/>
				</g>
				<path class="st22" d="M1332.4,228.1l11.6-6.6l-6.5-11.5l-11.6,6.6L1332.4,228.1z"/>
			</g>
		</g>
		<path class="st15" d="M1343.9,164l-20.3,11.5l0,0c-12.7,7.2-16.9,25.6-9.6,38.5c1.5,2.6,3.3,4.9,5.4,6.8l17.5-8.6l0.4-5.1l2.1,1.5
			l1.9,1.3l0.1-0.9l0.1-1.2l1,0.7l0.9,0.6l0,0l0.1-1l0.1-1.2l1,0.7l0.8,0.6l19.8-9.8c-1.3-2.5-4.1-7.5-5.6-10.1l0,0l0,0l-13.3-23.5
			C1345.7,163.9,1344.7,163.6,1343.9,164z"/>
		<path class="st16" d="M1319,224.4c1,1.7,3.1,2.3,4.8,1.3c1.7-1,2.3-3.1,1.3-4.8s-3.1-2.3-4.8-1.3
			C1318.6,220.5,1318,222.7,1319,224.4z"/>
		<path class="st17" d="M1320.2,223.7c0.6,1,1.8,1.4,2.8,0.8c1-0.6,1.4-1.8,0.8-2.8s-1.8-1.4-2.8-0.8
			C1320,221.4,1319.7,222.7,1320.2,223.7z"/>
		<path class="st18" d="M1325.8,224.4c-0.3-0.5-0.9-0.6-1.3-0.4c-0.5,0.3-0.6,0.9-0.4,1.3c0.3,0.5,0.9,0.6,1.3,0.4
			C1325.9,225.5,1326.1,224.9,1325.8,224.4z"/>
		<g>
			<path class="st23" d="M1313.9,205.5c0.1-0.4,0-0.8-0.2-1.2c-0.5-0.8-1.5-1.1-2.3-0.6c-0.4,0.2-0.7,0.6-0.8,1.1
				c-0.5-0.4-1.3-0.5-1.9-0.2c-0.8,0.5-1.1,1.5-0.6,2.3c0.2,0.3,0.4,0.5,0.7,0.7c-0.6,0.5-0.8,1.4-0.4,2.1c0.5,0.8,1.5,1.1,2.3,0.6
				c0.1-0.1,0.2-0.1,0.3-0.2l0,0c0.5,0.8,1.5,1.1,2.3,0.6c0.7-0.4,1-1.1,0.8-1.8c0.3,0,0.5-0.1,0.8-0.2c0.8-0.5,1.1-1.5,0.6-2.3
				C1315.1,205.8,1314.5,205.4,1313.9,205.5z M1311.2,208L1311.2,208c-0.2-0.3-0.4-0.5-0.7-0.7c0.3-0.2,0.5-0.6,0.6-0.9
				c0.3,0.3,0.8,0.4,1.2,0.4c-0.1,0.2-0.1,0.5,0,0.7c-0.3,0-0.5,0.1-0.8,0.2C1311.4,207.8,1311.3,207.9,1311.2,208z"/>
			<path class="st24" d="M1312.7,206.6c-0.3-0.6-1.1-0.8-1.7-0.5s-0.8,1.1-0.5,1.7c0.3,0.6,1.1,0.8,1.7,0.5
				C1312.8,207.9,1313,207.2,1312.7,206.6z"/>
		</g>
		<g>
			<path d="M1342.2,220.3c1.5,1.8,4.1,2.3,6.3,1.1c2-1.2,2.9-3.6,2.2-5.7c0,0-1-0.5-4.6,1.5C1342.6,219.2,1342.2,220.3,1342.2,220.3
				z"/>
			<path class="st9" d="M1342.7,220.8l8.1-4.6c0-0.2-0.1-0.4-0.1-0.6c0,0-1-0.5-4.6,1.5s-3.9,3.1-3.9,3.1
				C1342.4,220.5,1342.5,220.6,1342.7,220.8L1342.7,220.8z"/>
			<path class="st25" d="M1350.4,219.4c-0.9-0.1-1.8,0.1-2.7,0.6c-0.8,0.5-1.5,1.2-1.9,2c0.9,0.1,1.8-0.2,2.7-0.7
				C1349.3,220.9,1350,220.2,1350.4,219.4z"/>
		</g>
	</g>
</g>
<g>
	<path class="st10" d="M1476.4,76.4c-0.3-1.1,0.1-2.4,1.2-3s2.4-0.4,3.2,0.5l4.7-2.7c-1.7-3.1-0.6-7,2.4-8.7c0.1,0,0.2-0.1,0.3-0.1
		l-46.9-80.7c-0.1,0.1-0.2,0.1-0.2,0.2c-3.1,1.8-7,0.7-8.8-2.4c0-0.1-0.1-0.1-0.1-0.2l-4.6,2.7l0,0l0,0c0.7,1.2,0.3,2.8-1,3.6
		c-1.2,0.7-2.8,0.3-3.6-1l0,0l-3.4,2l0,0l0,0c0.7,1.2,0.3,2.8-1,3.6c-1.2,0.7-2.8,0.3-3.6-1l0,0l-3.5,2c0.3,1.1-0.1,2.4-1.2,3
		s-2.4,0.4-3.2-0.4l-4.4,2.5c0,0.1,0.1,0.1,0.1,0.2c1.8,3.1,0.7,7-2.4,8.8c-0.2,0.1-0.4,0.2-0.6,0.3l47,80.8
		c0.2-0.1,0.4-0.3,0.6-0.4c3.1-1.8,7-0.8,8.8,2.3l4.4-2.5l0,0c-0.3-1.1,0.1-2.4,1.2-3s2.4-0.4,3.2,0.5l3.6-2l0,0
		c-0.3-1.1,0.1-2.4,1.2-3s2.4-0.4,3.2,0.5L1476.4,76.4L1476.4,76.4z"/>
	<path class="st11" d="M1448.6,81.3c0.8,1.4,2.7,1.9,4.1,1.1l29.2-16.9c1.4-0.8,1.9-2.6,1.1-4.1l-8.4-14.6c-0.8-1.4-2.6-1.9-4.1-1.1
		l-29.2,16.8c-1.4,0.8-1.9,2.6-1.1,4.1L1448.6,81.3z"/>
	<path class="st26" d="M1434.1,64.3l41.4-23.9L1434.1,64.3z"/>
	<path class="st13" d="M1434.2,56.1c0.8,1.4,2.7,1.9,4.1,1.1l29.2-16.9c1.4-0.8,1.9-2.6,1.1-4.1l-28.5-49.3
		c-0.8-1.4-2.6-1.9-4.1-1.1l-29.2,16.8c-1.4,0.8-1.9,2.6-1.1,4.1L1434.2,56.1z"/>
	<path class="st14" d="M1450.4,72.6l3-1.7l-0.8-1.4l-3,1.7L1450.4,72.6z M1454.1,70.8c0.5,0.7,1,1.1,1.7,1.2s1.4,0,2.1-0.4
		c0.9-0.5,1.4-1.2,1.5-2s0-1.6-0.4-2.3c-0.5-0.8-1.1-1.3-1.8-1.4s-1.4,0-2,0.3c-0.3,0.2-0.6,0.4-0.7,0.6c-0.1,0.1-0.2,0.3-0.4,0.6
		l-0.7-1.8l3.1-1.8l-0.7-1.3l-4.2,2.4l1.9,4.5l1.4-0.7c0-0.3,0.1-0.6,0.3-0.8c0.1-0.1,0.2-0.2,0.4-0.3c0.4-0.2,0.7-0.3,1.1-0.1
		c0.3,0.2,0.6,0.4,0.8,0.8c0.2,0.4,0.3,0.8,0.3,1.1c0,0.4-0.2,0.7-0.6,0.9c-0.3,0.2-0.6,0.2-0.9,0.2c-0.3-0.1-0.5-0.3-0.8-0.6
		L1454.1,70.8z M1463.3,66.8c-0.4,0.3-0.9,0.2-1.3-0.2s-0.9-1-1.4-1.9s-0.8-1.6-1-2.2c-0.1-0.5,0.1-0.9,0.5-1.2s0.9-0.2,1.3,0.2
		s0.9,1,1.4,1.9s0.8,1.6,0.9,2.1C1463.9,66.2,1463.8,66.6,1463.3,66.8z M1464.4,62.6c-0.7-1.3-1.5-2.1-2.3-2.6s-1.7-0.4-2.6,0.2
		c-1,0.6-1.4,1.3-1.4,2.2s0.4,2,1.1,3.2c0.7,1.3,1.5,2.1,2.3,2.6s1.7,0.4,2.6-0.2c1-0.6,1.5-1.3,1.4-2.2
		C1465.5,65,1465.1,63.9,1464.4,62.6z M1466.7,58.8c0.1,0.2,0.2,0.5,0.1,0.7c-0.1,0.3-0.2,0.5-0.4,0.6c-0.2,0.1-0.5,0.2-0.7,0.1
		s-0.4-0.2-0.6-0.4c-0.1-0.2-0.2-0.5-0.1-0.7c0.1-0.3,0.2-0.5,0.4-0.6c0.2-0.1,0.5-0.2,0.7-0.1S1466.6,58.5,1466.7,58.8z M1467,61.2
		c0.5-0.3,0.9-0.8,1-1.4c0.2-0.6,0.1-1.2-0.2-1.7c-0.3-0.5-0.8-0.9-1.4-1c-0.6-0.2-1.2-0.1-1.7,0.2s-0.9,0.8-1,1.4
		c-0.2,0.6-0.1,1.2,0.2,1.7c0.3,0.5,0.8,0.9,1.4,1C1465.9,61.6,1466.5,61.5,1467,61.2z M1472.7,59.3c0.2-0.1,0.5-0.2,0.7-0.1
		c0.3,0.1,0.5,0.2,0.6,0.4s0.2,0.5,0.1,0.7c-0.1,0.3-0.2,0.5-0.4,0.6s-0.5,0.2-0.7,0.1s-0.5-0.2-0.6-0.4s-0.2-0.5-0.1-0.7
		C1472.3,59.6,1472.5,59.4,1472.7,59.3z M1474.3,62.1c0.5-0.3,0.9-0.8,1-1.4c0.2-0.6,0.1-1.2-0.2-1.7c-0.3-0.5-0.8-0.9-1.4-1
		c-0.6-0.2-1.2-0.1-1.7,0.2s-0.9,0.8-1,1.4c-0.2,0.6-0.1,1.2,0.2,1.7c0.3,0.5,0.8,0.9,1.4,1C1473.2,62.5,1473.8,62.4,1474.3,62.1z
		 M1469.2,65l0.8-0.5l-0.3-10.2l-0.8,0.5L1469.2,65z"/>
	<g>
		<path class="st15" d="M1434.6,35.3L1434.6,35.3l-7.5-13.3l-0.8,0.3l7.1,12.6C1433.6,35.4,1434.2,35.5,1434.6,35.3z"/>
		<path class="st15" d="M1427.3,22.3l6.4,11.2c3.1,5.5,9.3,7.8,13.7,5.3l8.1-4.6c0,0-2.5-4.4-5.6-9.9l-6.6-11.7L1427.3,22.3z"/>
		<path class="st16" d="M1443.8,12.3L1443.8,12.3l-5.4-9.5l-8.3,4.7l0,0c-4.8,2.7-6.4,9.7-3.6,14.6c2.8,4.9,8.8,6.6,13.7,3.9
			C1445.1,23.2,1446.6,17.2,1443.8,12.3L1443.8,12.3z"/>
		<path class="st15" d="M1451.1,26.6c0.4-0.2,0.6-0.8,0.3-1.2l-7.1-12.5l-1.3,0.8L1451.1,26.6z"/>
		<path class="st16" d="M1443.9,18.3c0.4,0.7,1.2,0.9,1.9,0.5c0.7-0.4,0.9-1.2,0.5-1.9s-1.2-0.9-1.9-0.5
			C1443.7,16.8,1443.5,17.7,1443.9,18.3z"/>
		<path class="st17" d="M1444.4,18.1c0.2,0.4,0.7,0.5,1.1,0.3s0.5-0.7,0.3-1.1c-0.2-0.4-0.7-0.5-1.1-0.3
			C1444.3,17.2,1444.1,17.7,1444.4,18.1z"/>
		<path class="st18" d="M1445.6,18.8c-0.1-0.2-0.3-0.2-0.5-0.1c-0.2,0.1-0.3,0.3-0.1,0.5c0.1,0.2,0.3,0.3,0.5,0.1
			C1445.6,19.2,1445.7,19,1445.6,18.8z"/>
		<path class="st19" d="M1443.7,18.8l0.6-0.4l-0.7,0.3L1443.7,18.8z"/>
		<path class="st19" d="M1443.2,18.1l0.5-0.6L1443.2,18.1L1443.2,18.1z"/>
		<path class="st19" d="M1443.4,18.5l0.5-0.5L1443.4,18.5L1443.4,18.5z"/>
		<g>
			<g>
				<path class="st9" d="M1439.2,21.2c0.7,1.3,2.3,1.7,3.5,1.1c1.3-0.7,1.7-2.3,1.1-3.5c-0.7-1.3-2.3-1.7-3.5-1.1
					C1439,18.3,1438.5,19.9,1439.2,21.2z"/>
				<path class="st20" d="M1439.9,20.8c0.5,0.9,1.5,1.2,2.4,0.7s1.2-1.5,0.7-2.4s-1.5-1.2-2.4-0.7
					C1439.8,18.8,1439.5,19.9,1439.9,20.8z"/>
				<path class="st21" d="M1440.6,20.4c0.3,0.5,0.8,0.7,1.3,0.4s0.6-0.8,0.4-1.3c-0.3-0.5-0.8-0.6-1.3-0.4
					C1440.5,19.3,1440.4,19.9,1440.6,20.4z"/>
			</g>
			<path class="st22" d="M1440.4,23.5l4.6-2.6l-2.6-4.5l-4.6,2.6L1440.4,23.5z"/>
		</g>
		<g>
			<path class="st19" d="M1431.7,24.6l-0.7,0.3l0.7-0.1V24.6z"/>
			<path class="st19" d="M1431.6,23.8l-0.7,0.1l0.7,0.1V23.8z"/>
			<path class="st19" d="M1431.7,24.3l-0.7,0.2h0.8L1431.7,24.3z"/>
			<g>
				<g>
					<path class="st9" d="M1436.5,22.7c-0.7-1.2-2.3-1.7-3.5-1c-1.3,0.7-1.7,2.3-1,3.5c0.7,1.3,2.3,1.7,3.5,1
						C1436.8,25.6,1437.2,24,1436.5,22.7z"/>
					<path class="st20" d="M1435.8,23.2c-0.5-0.8-1.5-1.1-2.4-0.7c-0.9,0.5-1.2,1.6-0.7,2.4c0.5,0.8,1.6,1.1,2.4,0.7
						C1435.9,25.1,1436.2,24,1435.8,23.2z"/>
					<path class="st21" d="M1435.1,23.5c-0.3-0.5-0.8-0.6-1.3-0.4c-0.5,0.3-0.6,0.8-0.4,1.3c0.3,0.5,0.8,0.6,1.3,0.4
						S1435.3,24,1435.1,23.5z"/>
				</g>
				<path class="st22" d="M1433.3,27.5l4.6-2.6l-2.6-4.5l-4.6,2.6L1433.3,27.5z"/>
			</g>
		</g>
		<path class="st15" d="M1437.7,2.5l-7.9,4.5l0,0c-5,2.8-6.6,10-3.7,15.1c0.6,1,1.3,1.9,2.1,2.7l6.8-3.4l0.2-2l0.8,0.6l0.7,0.5v-0.4
			v-0.5l0.4,0.3l0.3,0.2l0,0v-0.4v-0.5l0.4,0.3l0.3,0.2l7.7-3.8c-0.5-1-1.6-2.9-2.2-3.9l0,0l0,0l-5.2-9.2
			C1438.5,2.4,1438.1,2.3,1437.7,2.5z"/>
		<path class="st16" d="M1428,26.1c0.4,0.7,1.2,0.9,1.9,0.5c0.7-0.4,0.9-1.2,0.5-1.9s-1.2-0.9-1.9-0.5
			C1427.8,24.6,1427.6,25.4,1428,26.1z"/>
		<path class="st17" d="M1428.5,25.8c0.2,0.4,0.7,0.5,1.1,0.3s0.5-0.7,0.3-1.1c-0.2-0.4-0.7-0.5-1.1-0.3
			C1428.4,24.9,1428.2,25.4,1428.5,25.8z"/>
		<path class="st18" d="M1430.7,26.1c-0.1-0.2-0.3-0.3-0.5-0.1c-0.2,0.1-0.3,0.3-0.1,0.5c0.1,0.2,0.3,0.3,0.5,0.1
			C1430.7,26.5,1430.8,26.3,1430.7,26.1z"/>
		<g>
			<path class="st23" d="M1426,18.7c0-0.2,0-0.3-0.1-0.5c-0.2-0.3-0.6-0.4-0.9-0.3c-0.2,0.1-0.3,0.3-0.3,0.4
				c-0.2-0.2-0.5-0.2-0.8-0.1c-0.3,0.2-0.4,0.6-0.3,0.9c0.1,0.1,0.2,0.2,0.3,0.3c-0.2,0.2-0.3,0.6-0.1,0.8c0.2,0.3,0.6,0.4,0.9,0.3
				l0.1-0.1l0,0c0.2,0.3,0.6,0.4,0.9,0.3c0.3-0.1,0.4-0.4,0.3-0.7c0.1,0,0.2,0,0.3-0.1c0.3-0.2,0.4-0.6,0.3-0.9
				C1426.5,18.8,1426.2,18.7,1426,18.7z M1424.9,19.7L1424.9,19.7c-0.1-0.1-0.2-0.2-0.3-0.3c0.1-0.1,0.2-0.2,0.2-0.4
				c0.1,0.1,0.3,0.2,0.5,0.2c0,0.1,0,0.2,0,0.3c-0.1,0-0.2,0-0.3,0.1C1425,19.6,1425,19.7,1424.9,19.7z"/>
			<path class="st24" d="M1425.5,19.1c-0.1-0.2-0.4-0.3-0.7-0.2c-0.2,0.1-0.3,0.4-0.2,0.7c0.1,0.2,0.4,0.3,0.7,0.2
				C1425.6,19.7,1425.6,19.4,1425.5,19.1z"/>
		</g>
		<g>
			<path d="M1437.1,24.5c0.6,0.7,1.6,0.9,2.4,0.4s1.1-1.4,0.9-2.2c0,0-0.4-0.2-1.8,0.6C1437.2,24.1,1437.1,24.5,1437.1,24.5z"/>
			<path class="st9" d="M1437.3,24.7l3.2-1.8c0-0.1,0-0.1-0.1-0.2c0,0-0.4-0.2-1.8,0.6s-1.5,1.2-1.5,1.2
				C1437.1,24.6,1437.2,24.6,1437.3,24.7L1437.3,24.7z"/>
			<path class="st25" d="M1440.3,24.2c-0.3,0-0.7,0.1-1.1,0.3c-0.3,0.2-0.6,0.5-0.7,0.8c0.3,0,0.7-0.1,1-0.3
				C1439.8,24.7,1440.1,24.5,1440.3,24.2z"/>
		</g>
	</g>
</g>
<g>
	<path class="st10" d="M1152,200c1.1-1.2,3-1.5,4.5-0.7c1.5,0.9,2.2,2.7,1.7,4.3l6.7,3.9c2.6-4.3,8.1-5.7,12.4-3.2
		c0.1,0.1,0.2,0.1,0.4,0.2l65.9-114.9c-0.1-0.1-0.2-0.1-0.4-0.2c-4.4-2.5-5.9-8.1-3.4-12.5c0.1-0.1,0.1-0.2,0.2-0.3l-6.6-3.8l0,0
		l0,0c-1,1.8-3.3,2.4-5.1,1.4c-1.8-1-2.4-3.3-1.4-5.1l0,0l-4.9-2.8l0,0l0,0c-1,1.8-3.3,2.4-5.1,1.4c-1.8-1-2.4-3.3-1.4-5.1l0,0
		l-5-2.9c-1.2,1.2-3,1.5-4.5,0.6s-2.2-2.6-1.7-4.2l-6.2-3.6c-0.1,0.1-0.1,0.2-0.2,0.3c-2.5,4.4-8.1,5.9-12.5,3.4
		c-0.3-0.2-0.6-0.3-0.8-0.5l-65.9,115c0.3,0.1,0.6,0.3,0.9,0.4c4.3,2.5,5.9,8,3.5,12.4l6.2,3.6l0,0c1.1-1.2,3-1.5,4.5-0.7
		c1.5,0.9,2.2,2.7,1.7,4.3l5,2.9l0,0c1.1-1.2,3-1.5,4.5-0.7c1.5,0.9,2.2,2.7,1.7,4.3L1152,200L1152,200z"/>
	<path class="st11" d="M1126.3,169.3c-1.2,2-0.4,4.6,1.5,5.8l41.4,23.9c2,1.2,4.6,0.5,5.8-1.6l12-20.7c1.2-2,0.5-4.6-1.6-5.8
		L1144,147c-2-1.2-4.6-0.5-5.8,1.6L1126.3,169.3z"/>
	<path class="st27" d="M1136.9,139.4l58.7,33.9L1136.9,139.4z"/>
	<path class="st13" d="M1147,133.8c-1.2,2-0.4,4.6,1.5,5.8l41.4,23.9c2,1.2,4.6,0.5,5.8-1.6l40.4-70c1.2-2,0.5-4.6-1.6-5.8
		l-41.4-23.9c-2-1.2-4.6-0.5-5.8,1.6L1147,133.8z"/>
	<g>
		<path class="st28" d="M1207,122.5L1207,122.5l9.8-17l-14.9-8.6l0,0c-8.6-5-20.9-1.1-26,7.7s-2.3,19.8,6.5,24.9
			C1191.2,134.6,1201.9,131.3,1207,122.5L1207,122.5z"/>
		<path class="st28" d="M1201.1,127.2c-1.2-0.7-2.7-0.3-3.4,0.9c-0.7,1.2-0.3,2.7,0.9,3.4c1.2,0.7,2.7,0.3,3.4-0.9
			C1202.7,129.4,1202.3,127.9,1201.1,127.2z M1199.1,130.6c-0.7-0.4-0.9-1.3-0.5-2c0.4-0.7,1.3-0.9,2-0.5c0.7,0.4,0.9,1.3,0.5,2
			S1199.8,131,1199.1,130.6z"/>
		<path class="st28" d="M1201.1,130.1c0.4-0.7,0.2-1.6-0.5-2c-0.7-0.4-1.6-0.2-2,0.5c-0.4,0.7-0.2,1.6,0.5,2
			S1200.7,130.8,1201.1,130.1z"/>
		<path class="st28" d="M1174.3,111.7c-1.2-0.7-2.7-0.3-3.4,0.9c-0.7,1.2-0.3,2.7,0.9,3.4c1.2,0.7,2.7,0.3,3.4-0.9
			C1175.9,113.9,1175.5,112.4,1174.3,111.7z"/>
		<path class="st29" d="M1174.3,114.6c0.4-0.7,0.2-1.6-0.5-2s-1.6-0.2-2,0.5s-0.2,1.6,0.5,2C1173,115.5,1173.9,115.3,1174.3,114.6z"
			/>
		<g>
			<path class="st9" d="M1195.5,121.8c-2.2-1.3-5.1-0.6-6.4,1.6c-1.3,2.2-0.6,5.1,1.6,6.4c2.2,1.3,5.1,0.6,6.4-1.6
				C1198.4,126,1197.7,123.1,1195.5,121.8z M1191.4,128.5c-1.5-0.9-2-2.9-1.1-4.4s2.9-2,4.4-1.1s2,2.9,1.1,4.4
				C1194.8,128.9,1192.9,129.4,1191.4,128.5z"/>
			<path class="st30" d="M1194.7,123.1c-1.5-0.9-3.4-0.4-4.4,1.1c-0.9,1.5-0.4,3.5,1.1,4.4c1.5,0.9,3.4,0.4,4.4-1.1
				C1196.7,126,1196.2,124,1194.7,123.1z M1194.5,126.7c-0.5,0.8-1.6,1.1-2.4,0.6c-0.9-0.6-1.1-1.6-0.6-2.4c0.5-0.8,1.6-1.1,2.4-0.6
				C1194.7,124.8,1195,125.9,1194.5,126.7z"/>
			<path class="st31" d="M1193.9,124.3c-0.8-0.5-1.9-0.2-2.4,0.6s-0.4,1.8,0.6,2.4c0.8,0.5,1.9,0.2,2.4-0.6
				C1195,125.9,1194.7,124.8,1193.9,124.3z"/>
		</g>
		<g>
			<path class="st9" d="M1182.4,114.3c-2.2-1.3-5.1-0.5-6.4,1.7s-0.5,5.1,1.7,6.4c2.2,1.3,5.1,0.5,6.4-1.7
				C1185.4,118.4,1184.7,115.6,1182.4,114.3z M1178.5,121.1c-1.5-0.9-2.1-2.8-1.2-4.3s2.8-2,4.3-1.2c1.5,0.9,2,2.8,1.2,4.3
				C1181.9,121.4,1180,121.9,1178.5,121.1z"/>
			<path class="st30" d="M1181.7,115.6c-1.5-0.9-3.5-0.4-4.3,1.2c-0.9,1.5-0.3,3.5,1.2,4.3c1.5,0.9,3.5,0.4,4.3-1.2
				C1183.7,118.4,1183.2,116.4,1181.7,115.6z M1179.2,119.8c-0.8-0.5-1.1-1.5-0.6-2.4c0.5-0.8,1.5-1.1,2.4-0.6
				c0.8,0.5,1.1,1.5,0.6,2.4C1181.1,120,1180.2,120.4,1179.2,119.8z"/>
			<path class="st31" d="M1181.6,119.2c0.5-0.8,0.2-1.9-0.6-2.4c-0.8-0.5-1.9-0.2-2.4,0.6s-0.2,1.9,0.6,2.4
				C1180.1,120.3,1181.1,120,1181.6,119.2z"/>
		</g>
		<g>
			<path class="st32" d="M1181.9,123.4c-0.2,0-0.4,0.1-0.5,0.3c-0.2,1.3,0.5,3,2,3.8c1.5,0.9,3.3,0.7,4.3-0.2c0.2-0.1,0.2-0.4,0-0.6
				C1186.3,125.2,1184,123.9,1181.9,123.4z"/>
			<path class="st33" d="M1182,126.3c0.3,0.5,0.8,1,1.4,1.3s1.2,0.5,1.8,0.5c-0.2-0.6-0.7-1.1-1.3-1.4
				C1183.3,126.3,1182.7,126.2,1182,126.3z"/>
			<path class="st9" d="M1187.8,126.8c-1.4-1.6-3.8-3-5.9-3.4c-0.2,0-0.4,0.1-0.5,0.2l6.4,3.7C1187.9,127.2,1187.9,127,1187.8,126.8
				z"/>
		</g>
		<path class="st34" d="M1201.1,130.1c0.4-0.7,0.2-1.6-0.5-2c-0.7-0.4-1.6-0.2-2,0.5c-0.4,0.7-0.2,1.6,0.5,2
			S1200.7,130.8,1201.1,130.1z"/>
	</g>
	<path class="st14" d="M1138.2,165.3l4.3,2.5l1.2-2l-4.3-2.5L1138.2,165.3z M1143.1,168.6c-0.5,1.1-0.6,2-0.3,3c0.3,0.9,1,1.7,2,2.3
		c1.3,0.7,2.5,0.9,3.5,0.5c1.1-0.4,1.9-1.1,2.5-2.1c0.7-1.1,0.8-2.2,0.5-3.2s-0.9-1.7-1.8-2.2c-0.4-0.3-0.8-0.4-1.2-0.5
		c-0.2,0-0.6,0-1,0l1.7-2.1l4.4,2.5l1-1.8l-5.9-3.4l-4.2,5.5l1.8,1.2c0.4-0.2,0.7-0.3,1.1-0.2c0.2,0,0.5,0.1,0.7,0.3
		c0.5,0.3,0.8,0.7,0.9,1.3c0,0.5-0.1,1.1-0.4,1.6c-0.3,0.6-0.7,0.9-1.2,1.2c-0.5,0.2-1,0.2-1.5-0.1s-0.7-0.6-0.8-1
		c-0.1-0.4,0-0.8,0.1-1.3L1143.1,168.6z M1154.5,177.1c-0.6-0.4-0.9-0.9-0.7-1.7c0.2-0.8,0.6-1.8,1.3-3c0.7-1.3,1.4-2.2,2-2.7
		s1.2-0.6,1.8-0.2c0.6,0.4,0.9,0.9,0.7,1.7c-0.2,0.7-0.6,1.8-1.4,3.1c-0.7,1.2-1.4,2.1-1.9,2.7
		C1155.7,177.4,1155.1,177.5,1154.5,177.1z M1160.4,175.5c1-1.8,1.5-3.3,1.5-4.6s-0.7-2.3-2-3.1c-1.4-0.8-2.6-0.9-3.7-0.2
		c-1.1,0.6-2.2,1.9-3.2,3.6c-1,1.8-1.5,3.3-1.5,4.6s0.7,2.3,2.1,3.1s2.6,0.9,3.7,0.2C1158.3,178.4,1159.4,177.2,1160.4,175.5z
		 M1166.8,175.6c-0.2,0.3-0.5,0.5-0.8,0.6c-0.4,0.1-0.7,0.1-1-0.1c-0.3-0.2-0.5-0.5-0.6-0.8c-0.1-0.4-0.1-0.7,0.1-1s0.5-0.5,0.8-0.6
		c0.4-0.1,0.7-0.1,1,0.1s0.5,0.5,0.6,0.8C1167.1,174.9,1167,175.3,1166.8,175.6z M1164.1,177.7c0.8,0.4,1.6,0.5,2.4,0.3
		s1.5-0.7,1.9-1.5s0.5-1.6,0.3-2.4c-0.2-0.9-0.7-1.5-1.5-1.9s-1.6-0.5-2.4-0.3c-0.9,0.2-1.5,0.7-1.9,1.5s-0.5,1.6-0.3,2.4
		S1163.3,177.2,1164.1,177.7z M1170.4,183.3c0.3,0.2,0.5,0.5,0.6,0.8c0.1,0.4,0.1,0.7-0.1,1s-0.5,0.5-0.8,0.6
		c-0.4,0.1-0.7,0.1-1-0.1c-0.3-0.2-0.5-0.5-0.6-0.8c-0.1-0.4-0.1-0.7,0.1-1s0.5-0.5,0.8-0.6C1169.8,183.1,1170.1,183.1,1170.4,183.3
		z M1168.2,187.2c0.8,0.4,1.6,0.5,2.4,0.3c0.9-0.2,1.5-0.7,1.9-1.5s0.5-1.6,0.3-2.4c-0.2-0.9-0.7-1.5-1.5-1.9s-1.6-0.5-2.4-0.3
		s-1.5,0.7-1.9,1.5s-0.5,1.6-0.3,2.4C1166.9,186.2,1167.4,186.8,1168.2,187.2z M1160.9,183.1l1.2,0.7l12.4-7.6l-1.1-0.7
		L1160.9,183.1z"/>
</g>
<g>
	<path class="st10" d="M1027.7,703c3.4-2.1,8-1.7,10.9,1.3c3,3,3.4,7.5,1.3,10.9l13.1,13.1c8.6-8.3,22.3-8.2,30.8,0.3
		c0.2,0.2,0.5,0.5,0.7,0.7l224-225.4c-0.2-0.2-0.5-0.5-0.7-0.7c-8.6-8.6-8.6-22.5,0-31.1c0.2-0.2,0.4-0.4,0.6-0.6l-12.9-12.9l0,0
		l0,0c-3.5,3.5-9.1,3.5-12.5,0c-3.5-3.5-3.5-9.1,0-12.5l0,0l-9.5-9.5l0,0l0,0c-3.5,3.5-9.1,3.5-12.5,0c-3.5-3.5-3.5-9.1,0-12.5l0,0
		l-9.7-9.7c-3.4,2.1-7.9,1.6-10.9-1.3c-2.9-2.9-3.4-7.4-1.3-10.9l-12.3-12.3c-0.2,0.2-0.4,0.4-0.6,0.6c-8.6,8.6-22.5,8.6-31.1,0
		c-0.6-0.6-1.1-1.1-1.6-1.7L969.4,614.4c0.6,0.5,1.2,1,1.7,1.6c8.5,8.5,8.6,22.2,0.3,30.8l12.1,12.1l0,0c3.4-2.1,8-1.7,10.9,1.3
		c3,3,3.4,7.5,1.3,10.9l9.9,9.9l0,0c3.4-2.1,8-1.7,10.9,1.3c3,3,3.4,7.5,1.3,10.9L1027.7,703L1027.7,703z"/>
	<path class="st11" d="M987.1,616.1c-4,4-3.9,10.4-0.1,14.4l81.2,81.2c4,4,10.4,4,14.4,0l40.6-40.6c4-4,4-10.4,0-14.4l-81.1-81.1
		c-4-4-10.4-4-14.4,0L987.1,616.1z"/>
	<path class="st35" d="M1030.5,553.3l115.1,115.1L1030.5,553.3z"/>
	<path class="st13" d="M1057.4,546.6c-4,4-3.9,10.4-0.1,14.4l81.2,81.2c4,4,10.4,4,14.4,0l137-137c4-4,4-10.4,0-14.4l-81.1-81.1
		c-4-4-10.4-4-14.4,0L1057.4,546.6z"/>
	<g>
		<path class="st28" d="M1203.3,557.7L1203.3,557.7l33.3-33.3l-29.2-29.2l0,0c-16.9-16.9-47.7-15.5-64.9,1.7
			c-17.3,17.3-17.6,44.5-0.4,61.7C1159.2,575.8,1186,575,1203.3,557.7C1203.2,557.8,1203.3,557.7,1203.3,557.7z"/>
		<path class="st28" d="M1186.8,564.9c-2.3-2.3-6.1-2.3-8.5,0c-2.3,2.3-2.4,6.1,0,8.5c2.3,2.3,6.1,2.3,8.5,0
			C1189.1,571,1189.1,567.2,1186.8,564.9z M1180.1,571.6c-1.4-1.4-1.4-3.6,0-5s3.6-1.4,5,0s1.4,3.6,0,5S1181.4,573,1180.1,571.6z"/>
		<path class="st28" d="M1185,571.6c1.4-1.4,1.4-3.6,0-5s-3.6-1.4-5,0s-1.4,3.6,0,5S1183.7,573,1185,571.6z"/>
		<path class="st28" d="M1134.2,512.3c-2.3-2.3-6.1-2.3-8.5,0c-2.3,2.3-2.4,6.1,0,8.5c2.3,2.3,6.1,2.3,8.5,0
			C1136.5,518.4,1136.5,514.6,1134.2,512.3z"/>
		<path class="st29" d="M1132.4,519c1.4-1.4,1.4-3.6,0-5s-3.6-1.4-5,0s-1.4,3.6,0,5S1131.1,520.4,1132.4,519z"/>
		<g>
			<path class="st9" d="M1177.1,548.9c-4.3-4.5-11.4-4.6-15.9-0.3c-4.5,4.3-4.7,11.4-0.4,15.9c4.3,4.5,11.4,4.6,15.9,0.3
				C1181.2,560.5,1181.3,553.4,1177.1,548.9z M1163.4,562c-2.9-3-2.8-7.9,0.3-10.8c3-2.9,7.9-2.8,10.8,0.2s2.8,7.9-0.3,10.8
				C1171.2,565.1,1166.3,565,1163.4,562z"/>
			<path class="st30" d="M1174.5,551.4c-2.9-3-7.7-3.1-10.8-0.2c-3,2.9-3.1,7.7-0.3,10.8c2.9,3,7.7,3.1,10.8,0.2
				C1177.2,559.3,1177.3,554.5,1174.5,551.4z M1171.8,559.7c-1.7,1.6-4.3,1.5-5.9-0.1c-1.8-1.9-1.5-4.3,0.2-5.9s4.3-1.5,5.9,0.1
				C1173.5,555.4,1173.5,558.1,1171.8,559.7z"/>
			<path class="st31" d="M1171.9,553.8c-1.6-1.7-4.2-1.7-5.9-0.1c-1.7,1.6-2,4-0.2,5.9c1.6,1.7,4.2,1.7,5.9,0.1
				C1173.5,558.1,1173.5,555.4,1171.9,553.8z"/>
		</g>
		<g>
			<path class="st9" d="M1151.5,523.4c-4.4-4.4-11.5-4.4-15.9,0s-4.4,11.5,0,15.9s11.5,4.4,15.9,0S1155.9,527.7,1151.5,523.4z
				 M1138.2,536.7c-3-3-3-7.8,0-10.8s7.8-3,10.8,0s3,7.8,0,10.8C1145.9,539.7,1141.1,539.6,1138.2,536.7z"/>
			<path class="st30" d="M1148.9,525.9c-3-3-7.8-3-10.8,0s-3,7.8,0,10.8s7.8,3,10.8,0S1151.9,528.9,1148.9,525.9z M1140.6,534.3
				c-1.6-1.6-1.6-4.2,0-5.9c1.6-1.6,4.3-1.6,5.9,0s1.6,4.2,0,5.9C1144.9,535.9,1142.5,536.1,1140.6,534.3z"/>
			<path class="st31" d="M1146.5,534.2c1.6-1.6,1.6-4.3,0-5.9s-4.3-1.6-5.9,0s-1.6,4.3,0,5.9
				C1142.3,535.9,1144.9,535.9,1146.5,534.2z"/>
		</g>
		<g>
			<path class="st32" d="M1144.5,544.3c-0.5-0.2-1.1,0-1.3,0.4c-1.3,3-0.6,7.2,2.3,10.1s7.1,3.6,10.1,2.3c0.5-0.2,0.7-0.8,0.4-1.3
				C1153.7,551.2,1149.2,546.6,1144.5,544.3z"/>
			<path class="st33" d="M1143.1,551c0.5,1.4,1.3,2.7,2.4,3.8c1.1,1.1,2.5,1.9,3.8,2.4c-0.2-1.5-0.9-3-2.1-4.1
				C1146.1,551.9,1144.6,551.2,1143.1,551z"/>
			<path class="st9" d="M1156.1,555.8c-2.3-4.7-6.9-9.2-11.5-11.5c-0.4-0.2-0.9-0.1-1.2,0.3l12.4,12.4
				C1156.1,556.8,1156.3,556.2,1156.1,555.8z"/>
		</g>
		<path class="st34" d="M1185,571.6c1.4-1.4,1.4-3.6,0-5s-3.6-1.4-5,0s-1.4,3.6,0,5S1183.7,573,1185,571.6z"/>
	</g>
	<path class="st14" d="M1017.3,614.2l8.4,8.4l3.9-3.9l-8.4-8.4L1017.3,614.2z M1026.6,624.9c-1.8,2.1-2.6,4.4-2.4,6.7
		c0.2,2.4,1.3,4.6,3.3,6.6c2.5,2.5,5.1,3.6,7.9,3.3c2.8-0.3,5.2-1.4,7.1-3.3c2.2-2.2,3.3-4.6,3.2-7.1c-0.1-2.5-1.1-4.6-2.8-6.3
		c-0.9-0.9-1.7-1.5-2.5-1.9c-0.5-0.2-1.3-0.4-2.3-0.7l5.4-3.9l8.6,8.6l3.5-3.5l-11.6-11.6l-13.1,10.2l3.6,3.9c1-0.3,1.9-0.2,2.8,0.2
		c0.5,0.2,1,0.6,1.5,1.1c1.1,1.1,1.5,2.2,1.2,3.5c-0.2,1.2-0.9,2.4-2,3.5s-2.3,1.7-3.5,1.9s-2.4-0.2-3.4-1.3
		c-0.9-0.9-1.3-1.8-1.3-2.8s0.4-2,1.1-3L1026.6,624.9z M1047.8,651.7c-1.2-1.2-1.4-2.7-0.5-4.4c0.9-1.7,2.5-3.7,5-6.2s4.6-4.2,6.2-5
		s3-0.6,4.3,0.6c1.2,1.2,1.4,2.7,0.6,4.3c-0.8,1.6-2.5,3.7-5.1,6.2c-2.4,2.4-4.5,4.1-6.1,5C1050.5,653.1,1049,652.9,1047.8,651.7z
		 M1062.6,651.5c3.5-3.5,5.6-6.7,6.4-9.7s-0.1-5.8-2.8-8.5c-2.7-2.7-5.5-3.6-8.5-2.8c-3,0.8-6.2,3-9.7,6.4c-3.5,3.5-5.6,6.7-6.4,9.7
		s0.1,5.8,2.8,8.5c2.7,2.7,5.5,3.6,8.5,2.8C1055.8,657.1,1059.1,655,1062.6,651.5z M1077.3,655.8c-0.6,0.6-1.4,1-2.3,1
		s-1.7-0.3-2.3-1c-0.6-0.6-1-1.4-1-2.3s0.3-1.7,1-2.3c0.6-0.6,1.4-1,2.3-1s1.7,0.3,2.3,1c0.6,0.6,1,1.4,1,2.3
		C1078.3,654.3,1077.9,655.1,1077.3,655.8z M1069.6,658.9c1.5,1.5,3.3,2.3,5.4,2.2c2.1,0,3.9-0.8,5.4-2.2c1.5-1.5,2.2-3.3,2.2-5.4
		s-0.7-3.9-2.2-5.4s-3.3-2.2-5.4-2.2s-3.9,0.7-5.4,2.2s-2.2,3.3-2.2,5.4S1068.1,657.4,1069.6,658.9z M1080.8,675.9
		c0.6,0.6,1,1.4,1,2.3s-0.3,1.7-1,2.3s-1.4,1-2.3,1s-1.7-0.3-2.3-1c-0.6-0.6-1-1.4-1-2.3s0.3-1.7,1-2.3c0.6-0.6,1.4-1,2.3-1
		S1080.2,675.2,1080.8,675.9z M1073.1,683.6c1.5,1.5,3.3,2.2,5.4,2.2s3.9-0.7,5.4-2.2s2.2-3.3,2.2-5.4s-0.7-3.9-2.2-5.4
		s-3.3-2.2-5.4-2.2s-3.9,0.7-5.4,2.2s-2.2,3.3-2.2,5.4C1070.9,680.3,1071.6,682.1,1073.1,683.6z M1058.9,669.6l2.3,2.3l33.4-9.9
		l-2.2-2.2L1058.9,669.6z"/>
</g>
</svg>
