<?xml version="1.0" encoding="utf-8"?>
<!-- Generator: Adobe Illustrator 22.1.0, SVG Export Plug-In . SVG Version: 6.00 Build 0)  -->
<svg version="1.1" id="Layer_1" xmlns="http://www.w3.org/2000/svg" xmlns:xlink="http://www.w3.org/1999/xlink" x="0px" y="0px"
	 viewBox="0 0 111 100" style="enable-background:new 0 0 111 100;" xml:space="preserve">
<style type="text/css">
	.st0{fill:#34A3DF;}
	.st1{fill:#8BD2FF;}
	.st2{fill:#1B0073;}
	.st3{fill:#145F88;}
	.st4{fill:#A2ECFF;}
	.st5{fill:#FCFCFC;}
	.st6{fill:#272A66;}
	.st7{fill:#EE6427;}
	.st8{fill:#B44C26;}
	.st9{fill:#FEE5A6;}
	.st10{fill:#773517;}
	.st11{fill:#FFFFFF;}
	.st12{fill:#2AAAE2;}
	.st13{fill:#070707;}
	.st14{fill:none;}
	.st15{fill:#EC2227;}
	.st16{fill:#F27BAA;}
	.st17{fill:#C2082C;}
</style>
<g>
	<path class="st0" d="M44.6,150.2c0.8-1.3,2.3-2,3.9-1.5c1.5,0.5,2.4,1.9,2.3,3.4l6.6,2c1.4-4.3,6-6.6,10.3-5.3
		c0.1,0,0.2,0.1,0.4,0.1l34.9-114.1c-0.1,0-0.2-0.1-0.4-0.1c-4.4-1.3-6.8-6-5.5-10.3c0-0.1,0.1-0.2,0.1-0.3l-6.5-2l0,0l0,0
		c-0.5,1.8-2.4,2.7-4.2,2.2c-1.8-0.5-2.7-2.4-2.2-4.2l0,0l-4.8-1.5l0,0l0,0c-0.5,1.8-2.4,2.7-4.2,2.2c-1.8-0.5-2.7-2.4-2.2-4.2l0,0
		l-4.9-1.5c-0.8,1.3-2.3,1.9-3.8,1.5c-1.5-0.5-2.4-1.9-2.3-3.4l-6.2-1.9c0,0.1-0.1,0.2-0.1,0.3c-1.3,4.4-6,6.8-10.3,5.5
		c-0.3-0.1-0.6-0.2-0.8-0.3L9.7,130.9c0.3,0.1,0.6,0.1,0.8,0.2c4.3,1.3,6.7,5.9,5.5,10.2l6.2,1.9l0,0c0.8-1.3,2.3-2,3.9-1.5
		c1.5,0.5,2.4,1.9,2.3,3.4l5,1.5l0,0c0.8-1.3,2.3-2,3.9-1.5c1.5,0.5,2.4,1.9,2.3,3.4L44.6,150.2L44.6,150.2z"/>
	<path class="st1" d="M15.9,128.4c-0.6,2,0.5,4.1,2.5,4.8l41.2,12.7c2,0.6,4.2-0.5,4.8-2.5l6.4-20.6c0.6-2-0.5-4.2-2.5-4.8
		l-41.1-12.7c-2-0.6-4.2,0.5-4.8,2.5L15.9,128.4z"/>
	<path class="st2" d="M27.1,93c-0.6,2,0.5,4.1,2.5,4.8l41.2,12.7c2,0.6,4.2-0.5,4.8-2.5L97,38.5c0.6-2-0.5-4.2-2.5-4.8L53.3,21
		c-2-0.6-4.2,0.5-4.8,2.5L27.1,93z"/>
	<path class="st2" d="M62.8,129l-4.2-1.3l-0.6,2l4.2,1.3L62.8,129z M57.9,127.1c0.2-1,0.1-1.9-0.4-2.7c-0.5-0.7-1.2-1.3-2.3-1.6
		c-1.3-0.4-2.3-0.3-3.2,0.3c-0.9,0.6-1.5,1.4-1.8,2.4c-0.4,1.1-0.3,2.1,0.2,2.9c0.5,0.8,1.2,1.3,2,1.6c0.4,0.1,0.8,0.2,1.2,0.2
		c0.2,0,0.5-0.1,0.9-0.2l-1.1,2.2l-4.4-1.4l-0.6,1.8l5.9,1.8l2.6-5.7l-1.9-0.7c-0.3,0.3-0.6,0.4-0.9,0.4c-0.2,0-0.4,0-0.7-0.1
		c-0.5-0.2-0.9-0.5-1-0.9c-0.1-0.5-0.1-1,0-1.5c0.2-0.6,0.5-1,0.8-1.3c0.4-0.3,0.8-0.3,1.4-0.2c0.5,0.1,0.8,0.4,0.9,0.7
		c0.2,0.3,0.2,0.7,0.2,1.2L57.9,127.1z M46.1,121.9c0.6,0.2,0.9,0.6,0.9,1.4c0,0.7-0.2,1.7-0.6,2.9c-0.4,1.3-0.8,2.2-1.2,2.8
		c-0.4,0.6-0.9,0.7-1.5,0.5c-0.6-0.2-0.9-0.6-0.9-1.3c0-0.7,0.2-1.7,0.6-3c0.4-1.2,0.8-2.1,1.2-2.7C45,121.9,45.5,121.7,46.1,121.9z
		 M41.3,124.6c-0.5,1.8-0.7,3.2-0.4,4.3c0.3,1.1,1.1,1.9,2.4,2.3c1.4,0.4,2.5,0.2,3.3-0.6c0.8-0.8,1.5-2.1,2.1-3.8
		c0.5-1.8,0.7-3.2,0.4-4.3c-0.3-1.1-1.1-1.9-2.4-2.3c-1.4-0.4-2.5-0.2-3.3,0.5C42.5,121.5,41.8,122.8,41.3,124.6z M35.6,125.8
		c0.1-0.3,0.3-0.6,0.6-0.7c0.3-0.2,0.6-0.2,0.9-0.1c0.3,0.1,0.6,0.3,0.7,0.6c0.2,0.3,0.2,0.6,0.1,0.9c-0.1,0.3-0.3,0.6-0.6,0.7
		c-0.3,0.2-0.6,0.2-0.9,0.1c-0.3-0.1-0.6-0.3-0.7-0.6C35.6,126.4,35.5,126.1,35.6,125.8z M37.6,123.4c-0.8-0.2-1.5-0.2-2.2,0.2
		c-0.7,0.4-1.2,0.9-1.4,1.7c-0.2,0.8-0.2,1.5,0.2,2.2c0.4,0.7,0.9,1.2,1.7,1.4c0.8,0.2,1.5,0.2,2.2-0.2c0.7-0.4,1.2-0.9,1.4-1.7
		c0.2-0.8,0.2-1.5-0.2-2.2C39,124.1,38.4,123.6,37.6,123.4z M30.9,119.7c-0.3-0.1-0.6-0.3-0.7-0.6c-0.2-0.3-0.2-0.6-0.1-0.9
		c0.1-0.3,0.3-0.6,0.6-0.7c0.3-0.2,0.6-0.2,0.9-0.1c0.3,0.1,0.6,0.3,0.7,0.6c0.2,0.3,0.2,0.6,0.1,0.9c-0.1,0.3-0.3,0.6-0.6,0.7
		C31.6,119.8,31.2,119.8,30.9,119.7z M32.1,115.8c-0.8-0.2-1.5-0.2-2.2,0.2c-0.7,0.4-1.2,0.9-1.4,1.7c-0.2,0.8-0.2,1.5,0.2,2.2
		c0.4,0.7,0.9,1.2,1.7,1.4c0.8,0.2,1.5,0.2,2.2-0.2c0.7-0.4,1.2-0.9,1.4-1.7c0.2-0.8,0.2-1.5-0.2-2.2
		C33.5,116.5,32.9,116,32.1,115.8z M39.3,117.9l-1.1-0.4l-9.4,9.1l1.1,0.3L39.3,117.9z"/>
	<g>
		<path class="st2" d="M47,75.3L47,75.3l5.9-18.6l-1-0.5l-5.6,17.6C46,74.5,46.4,75.1,47,75.3z"/>
		<path class="st2" d="M52.7,57.2l-5,15.7c-2.4,7.7,0.7,15.5,7,17.5L66,93.9c0,0,2-6.2,4.4-13.8l5.2-16.3L52.7,57.2z"/>
		<path class="st2" d="M76.4,64L76.4,64l4.2-13.2L69,47.1l0,0c-6.7-2.1-14.6,2.4-16.8,9.3c-2.2,6.9,1.5,14,8.3,16.2
			C67.3,74.7,74.2,70.9,76.4,64C76.4,64,76.4,64,76.4,64z"/>
		<path class="st2" d="M69.4,83.3c0.6,0.2,1.3-0.1,1.5-0.8L76.4,65l-1.9-0.6L69.4,83.3z"/>
		<path class="st2" d="M70.8,69.3c-0.3,0.9,0.2,1.9,1.2,2.2c0.9,0.3,1.9-0.2,2.2-1.2c0.3-0.9-0.2-1.9-1.2-2.2
			C72.1,67.8,71.1,68.3,70.8,69.3z"/>
		<path class="st2" d="M71.5,69.5c-0.2,0.5,0.1,1.1,0.7,1.3c0.5,0.2,1.1-0.1,1.3-0.7c0.2-0.5-0.1-1.1-0.7-1.3
			C72.3,68.6,71.7,69,71.5,69.5z"/>
		<path class="st2" d="M71.9,71.3c0.1-0.3-0.1-0.5-0.3-0.6C71.3,70.6,71,70.7,71,71c-0.1,0.3,0.1,0.5,0.3,0.6
			C71.5,71.7,71.8,71.6,71.9,71.3z"/>
		<path class="st2" d="M70.3,69.5l0.9,0.2l-0.9-0.4L70.3,69.5z"/>
		<path class="st2" d="M70.4,68.4l0.9-0.1l-0.9-0.2L70.4,68.4z"/>
		<path class="st2" d="M70.3,69l0.9,0l-0.9-0.2L70.3,69z"/>
		<g>
			<g>
				<path class="st2" d="M64.1,67.3c-0.6,1.7,0.3,3.6,2.1,4.2c1.7,0.6,3.6-0.3,4.2-2.1c0.6-1.7-0.3-3.6-2.1-4.2
					C66.6,64.7,64.7,65.6,64.1,67.3z"/>
				<path class="st2" d="M65.1,67.7c-0.4,1.2,0.2,2.5,1.4,2.9c1.2,0.4,2.5-0.2,2.9-1.4c0.4-1.2-0.2-2.5-1.4-2.9
					C66.8,65.9,65.5,66.5,65.1,67.7z"/>
				<path class="st2" d="M66.1,68c-0.2,0.6,0,1.3,0.8,1.6c0.6,0.2,1.3-0.1,1.6-0.8c0.2-0.6-0.1-1.3-0.8-1.6C67,67,66.3,67.4,66.1,68
					z"/>
			</g>
			<path class="st2" d="M63,70.5l6.5,2.1l2-6.3L65,64.2L63,70.5z"/>
		</g>
		<g>
			<path class="st2" d="M54.4,63.4L53.5,63l0.8,0.6L54.4,63.4z"/>
			<path class="st2" d="M55.1,62.6L54.3,62l0.6,0.8L55.1,62.6z"/>
			<path class="st2" d="M54.7,63l-0.8-0.5l0.7,0.7L54.7,63z"/>
			<g>
				<g>
					<path class="st2" d="M60.3,66.2c0.6-1.8-0.4-3.6-2.2-4.2c-1.8-0.6-3.6,0.4-4.2,2.2c-0.6,1.7,0.4,3.6,2.2,4.2
						C57.9,68.9,59.8,67.9,60.3,66.2z"/>
					<path class="st2" d="M59.3,65.9c0.4-1.2-0.3-2.4-1.5-2.8c-1.2-0.4-2.5,0.3-2.8,1.5c-0.4,1.2,0.3,2.4,1.5,2.8
						C57.6,67.7,58.9,67,59.3,65.9z"/>
					<path class="st2" d="M58.3,65.6c0.2-0.6-0.2-1.3-0.8-1.5c-0.6-0.2-1.3,0.1-1.5,0.8c-0.2,0.6,0.1,1.3,0.8,1.5
						C57.5,66.6,58.1,66.2,58.3,65.6z"/>
				</g>
				<path class="st2" d="M53,67.3l6.4,2l2-6.3L55,61L53,67.3z"/>
			</g>
		</g>
		<path class="st2" d="M80.4,49.8l-11.1-3.5l0,0c-7-2.2-15.1,2.5-17.4,9.6c-0.5,1.4-0.7,2.9-0.7,4.3l9.1,3.5l2-1.6l0.2,1.3l0.2,1.1
			l0.4-0.3l0.5-0.4l0.1,0.6l0.1,0.5l0,0l0.4-0.3l0.5-0.4l0.1,0.6l0.1,0.5L75,69.2c0.5-1.3,1.3-4.1,1.8-5.5l0,0l0,0l4.1-12.9
			C81.1,50.4,80.8,49.9,80.4,49.8z"/>
		<path class="st2" d="M49.7,61.1c-0.3,0.9,0.2,1.9,1.2,2.2c0.9,0.3,1.9-0.2,2.2-1.2c0.3-0.9-0.2-1.9-1.2-2.2
			C51,59.7,50,60.2,49.7,61.1z"/>
		<path class="st2" d="M50.4,61.4c-0.2,0.5,0.1,1.1,0.7,1.3c0.5,0.2,1.1-0.1,1.3-0.7c0.2-0.5-0.1-1.1-0.7-1.3
			C51.2,60.5,50.6,60.8,50.4,61.4z"/>
		<path class="st2" d="M52.1,63.7c0.1-0.3-0.1-0.5-0.3-0.6c-0.3-0.1-0.5,0.1-0.6,0.3c-0.1,0.3,0.1,0.5,0.3,0.6
			C51.7,64.1,52,63.9,52.1,63.7z"/>
		<g>
			<path class="st2" d="M55,52.8c0.2-0.1,0.3-0.3,0.4-0.5c0.1-0.4-0.1-0.9-0.6-1.1c-0.2-0.1-0.5,0-0.7,0.1c0-0.3-0.2-0.7-0.6-0.8
				c-0.4-0.1-0.9,0.1-1.1,0.6c0,0.2-0.1,0.3,0,0.5c-0.4,0-0.8,0.2-0.9,0.6c-0.1,0.4,0.1,0.9,0.6,1.1c0.1,0,0.1,0,0.2,0c0,0,0,0,0,0
				c-0.1,0.4,0.1,0.9,0.6,1.1c0.4,0.1,0.7,0,1-0.3c0.1,0.1,0.2,0.2,0.4,0.2c0.4,0.1,0.9-0.1,1.1-0.6C55.3,53.4,55.2,53.1,55,52.8z
				 M53.1,52.7C53.1,52.7,53.1,52.7,53.1,52.7c0.1-0.2,0.1-0.3,0-0.5c0.2,0,0.4,0,0.5-0.1c0,0.2,0.1,0.4,0.3,0.6
				c-0.1,0.1-0.2,0.1-0.3,0.3c-0.1-0.1-0.2-0.2-0.3-0.2C53.3,52.7,53.2,52.7,53.1,52.7z"/>
			<path class="st2" d="M54.1,52.8c0.1-0.3-0.1-0.7-0.4-0.8c-0.3-0.1-0.7,0.1-0.8,0.4c-0.1,0.3,0.1,0.7,0.4,0.8
				C53.7,53.3,54,53.1,54.1,52.8z"/>
		</g>
		<g>
			<path class="st2" d="M59.2,68.3c-0.2,1.2,0.5,2.3,1.7,2.7c1.1,0.3,2.3-0.1,2.9-1.1c0,0-0.2-0.5-2.1-1.2
				C59.7,68,59.2,68.3,59.2,68.3z"/>
			<path class="st2" d="M59.2,68.6l4.4,1.4c0.1-0.1,0.1-0.2,0.2-0.2c0,0-0.2-0.5-2.1-1.2c-1.9-0.6-2.5-0.4-2.5-0.4
				C59.2,68.4,59.2,68.5,59.2,68.6L59.2,68.6z"/>
			<path class="st2" d="M62.2,71c-0.3-0.3-0.7-0.6-1.1-0.8c-0.5-0.1-1-0.1-1.4,0c0.3,0.3,0.7,0.6,1.2,0.7
				C61.3,71.1,61.8,71.1,62.2,71z"/>
		</g>
	</g>
</g>
<g>
	<path class="st3" d="M46.6,15c-0.3,1.5-1.6,2.6-3.2,2.6c-1.6,0-2.9-1.1-3.3-2.5l-6.9,0.1c0,4.5-3.6,8.1-8.1,8.2c-0.1,0-0.2,0-0.4,0
		l2.1,119.2c0.1,0,0.2,0,0.4,0c4.6-0.1,8.3,3.6,8.4,8.1c0,0.1,0,0.2,0,0.3l6.9-0.1l0,0l0,0c0-1.8,1.4-3.4,3.3-3.4
		c1.8,0,3.4,1.4,3.4,3.3l0,0l5.1-0.1l0,0l0,0c0-1.8,1.4-3.4,3.3-3.4c1.8,0,3.4,1.4,3.4,3.3l0,0l5.2-0.1c0.3-1.5,1.6-2.6,3.2-2.6
		c1.6,0,2.9,1,3.3,2.5l6.5-0.1c0-0.1,0-0.2,0-0.3c-0.1-4.6,3.6-8.3,8.1-8.4c0.3,0,0.6,0,0.9,0L85.7,22.5c-0.3,0-0.6,0.1-0.9,0.1
		c-4.5,0.1-8.2-3.5-8.4-8L70,14.6l0,0c-0.3,1.5-1.6,2.6-3.2,2.6c-1.6,0-2.9-1.1-3.3-2.5l-5.2,0.1l0,0c-0.3,1.5-1.6,2.6-3.2,2.6
		c-1.6,0-2.9-1.1-3.3-2.5L46.6,15L46.6,15z"/>
	<path class="st0" d="M80.6,26.8c0-2.1-1.8-3.8-3.8-3.8l-43.1,0.6c-2.1,0-3.8,1.8-3.8,3.9l0.3,21.5c0,2.1,1.8,3.8,3.9,3.8l43-0.6
		c2.1,0,3.8-1.8,3.8-3.9L80.6,26.8z"/>
	<path class="st4" d="M81,63.9c0-2.1-1.8-3.8-3.8-3.8L34,60.7c-2.1,0-3.8,1.8-3.8,3.9l1.1,72.7c0,2.1,1.8,3.8,3.9,3.8l43-0.6
		c2.1,0,3.8-1.8,3.8-3.9L81,63.9z"/>
	<path class="st5" d="M35.8,40.7l4.4-0.1l0-2.1l-4.4,0.1L35.8,40.7z M41.1,41c0.1,1,0.5,1.9,1.2,2.4c0.7,0.6,1.6,0.8,2.6,0.8
		c1.3,0,2.3-0.4,3-1.3c0.7-0.8,1-1.8,1-2.8c0-1.2-0.4-2.1-1.1-2.7c-0.7-0.6-1.5-0.9-2.4-0.9c-0.5,0-0.8,0.1-1.2,0.2
		c-0.2,0.1-0.5,0.2-0.8,0.5l0.4-2.5l4.6-0.1l0-1.9l-6.2,0.1l-0.7,6.2l2,0.1c0.2-0.3,0.4-0.6,0.8-0.7c0.2-0.1,0.4-0.1,0.7-0.1
		c0.6,0,1,0.2,1.3,0.6c0.3,0.4,0.4,0.9,0.4,1.4c0,0.6-0.1,1.1-0.4,1.5c-0.3,0.4-0.7,0.6-1.2,0.6c-0.5,0-0.8-0.1-1.1-0.4
		c-0.3-0.3-0.4-0.6-0.5-1.1L41.1,41z M53.9,42.3c-0.7,0-1.1-0.3-1.3-1c-0.2-0.7-0.3-1.7-0.4-2.9c0-1.3,0.1-2.3,0.3-3
		c0.2-0.7,0.6-1,1.3-1c0.7,0,1.1,0.3,1.3,1c0.2,0.6,0.3,1.6,0.3,3c0,1.3-0.1,2.3-0.3,3C54.9,41.9,54.5,42.3,53.9,42.3z M57.7,38.3
		c0-1.8-0.3-3.3-0.9-4.3c-0.6-1-1.6-1.5-3-1.5c-1.4,0-2.4,0.5-3,1.6c-0.6,1-0.8,2.4-0.8,4.3c0,1.8,0.3,3.3,0.9,4.3
		c0.6,1,1.6,1.5,3,1.5c1.4,0,2.4-0.5,3-1.5C57.4,41.5,57.7,40.1,57.7,38.3z M62.7,35.4c0,0.3-0.1,0.6-0.3,0.9
		c-0.2,0.2-0.5,0.4-0.9,0.4c-0.3,0-0.6-0.1-0.9-0.3c-0.2-0.2-0.4-0.5-0.4-0.9c0-0.3,0.1-0.6,0.3-0.9c0.2-0.2,0.5-0.4,0.9-0.4
		c0.3,0,0.6,0.1,0.9,0.3C62.5,34.8,62.7,35.1,62.7,35.4z M61.5,38.3c0.8,0,1.5-0.3,2-0.9c0.6-0.6,0.8-1.3,0.8-2c0-0.8-0.3-1.5-0.9-2
		c-0.6-0.6-1.3-0.8-2-0.8c-0.8,0-1.5,0.3-2,0.9c-0.6,0.6-0.8,1.3-0.8,2c0,0.8,0.3,1.5,0.9,2C60,38,60.7,38.3,61.5,38.3z M69,39.7
		c0.3,0,0.6,0.1,0.9,0.3c0.2,0.2,0.4,0.5,0.4,0.9c0,0.3-0.1,0.6-0.3,0.9c-0.2,0.2-0.5,0.4-0.9,0.4c-0.3,0-0.6-0.1-0.9-0.3
		c-0.2-0.2-0.4-0.5-0.4-0.9c0-0.3,0.1-0.6,0.3-0.9C68.4,39.8,68.7,39.7,69,39.7z M69.1,43.8c0.8,0,1.5-0.3,2-0.9
		c0.6-0.6,0.8-1.3,0.8-2c0-0.8-0.3-1.5-0.9-2c-0.6-0.6-1.3-0.8-2-0.8c-0.8,0-1.5,0.3-2,0.9c-0.6,0.6-0.8,1.2-0.8,2
		c0,0.8,0.3,1.5,0.9,2C67.6,43.5,68.3,43.8,69.1,43.8z M61.6,44l1.2,0l6.1-11.6l-1.2,0L61.6,44z"/>
	<g>
		<path class="st6" d="M67.5,86.9L67.5,86.9l0.2,19.5l1.1,0.1L68.7,88C68.7,87.4,68.1,86.9,67.5,86.9z"/>
		<path class="st6" d="M67.7,105.9l-0.1-16.4c-0.1-8-5.5-14.5-12-14.4l-11.9,0.1c0,0,0,6.5,0,14.5l0.1,17.1L67.7,105.9z"/>
		<path class="st7" d="M43,106.7L43,106.7l0.1,13.9l12.2-0.1l0,0c7.1-0.1,13.2-6.8,13.1-14c-0.1-7.2-5.7-12.9-12.9-12.8
			C48.3,93.7,43,99.5,43,106.7C43,106.7,43,106.7,43,106.7z"/>
		<path class="st6" d="M43.7,86.3c-0.6,0-1.2,0.5-1.1,1.2l0.1,18.3l2,0L43.7,86.3z"/>
		<path class="st7" d="M46.7,100c0-1-0.8-1.8-1.8-1.8c-1,0-1.8,0.8-1.8,1.8c0,1,0.8,1.8,1.8,1.8C45.9,101.8,46.7,101,46.7,100z"/>
		<path class="st8" d="M46,100c0-0.6-0.5-1-1.1-1c-0.6,0-1,0.5-1,1.1c0,0.6,0.5,1,1.1,1C45.5,101.1,46,100.6,46,100z"/>
		<path class="st9" d="M45,98.4c0,0.3,0.2,0.5,0.5,0.5c0.3,0,0.5-0.2,0.5-0.5c0-0.3-0.2-0.5-0.5-0.5C45.2,97.9,45,98.1,45,98.4z"/>
		<path class="st10" d="M47.2,99.7l-1,0.1l1,0.1L47.2,99.7z"/>
		<path class="st10" d="M47.3,100.7l-0.9,0.4l0.9-0.1L47.3,100.7z"/>
		<path class="st10" d="M47.3,100.1l-0.9,0.3l0.9,0L47.3,100.1z"/>
		<g>
			<g>
				<path class="st11" d="M53.7,99.8c0-1.8-1.4-3.3-3.3-3.4c-1.8,0-3.3,1.4-3.4,3.3c0,1.8,1.4,3.3,3.3,3.4
					C52.1,103.1,53.7,101.6,53.7,99.8z"/>
				<path class="st12" d="M52.6,99.8c0-1.2-1-2.3-2.2-2.3c-1.2,0-2.3,1-2.3,2.2c0,1.2,1,2.3,2.2,2.3C51.6,102,52.6,101,52.6,99.8z"
					/>
				<path class="st13" d="M51.6,99.8c0-0.7-0.4-1.2-1.2-1.3c-0.7,0-1.2,0.5-1.3,1.2c0,0.7,0.5,1.2,1.2,1.3
					C51,101,51.6,100.4,51.6,99.8z"/>
			</g>
			<path class="st14" d="M53.7,96.4l-6.8,0.1l0.1,6.6l6.8-0.1L53.7,96.4z"/>
		</g>
		<g>
			<path class="st10" d="M64.1,100.5l1,0.1l-0.9-0.3L64.1,100.5z"/>
			<path class="st10" d="M63.7,101.5l0.9,0.3l-0.8-0.5L63.7,101.5z"/>
			<path class="st10" d="M64,101l0.9,0.3l-0.8-0.5L64,101z"/>
			<g>
				<g>
					<path class="st11" d="M57.6,99.7c0,1.8,1.5,3.3,3.3,3.3c1.8,0,3.3-1.5,3.3-3.3c0-1.8-1.5-3.3-3.3-3.3
						C59.1,96.3,57.6,97.8,57.6,99.7z"/>
					<path class="st12" d="M58.7,99.7c0,1.2,1,2.2,2.3,2.2c1.3,0,2.2-1,2.2-2.3c0-1.2-1-2.2-2.3-2.2C59.7,97.4,58.7,98.4,58.7,99.7z
						"/>
					<path class="st13" d="M59.7,99.7c0,0.7,0.6,1.2,1.2,1.2c0.7,0,1.2-0.6,1.2-1.2c0-0.7-0.6-1.2-1.2-1.2
						C60.2,98.4,59.7,99,59.7,99.7z"/>
				</g>
				<path class="st14" d="M64.3,96.3l-6.7,0.1l0.1,6.6l6.7-0.1L64.3,96.3z"/>
			</g>
		</g>
		<path class="st6" d="M43.6,121.5l11.7-0.1l0,0c7.3-0.1,13.6-7.1,13.6-14.5c0-1.5-0.3-3-0.7-4.3l-9.7-0.5l-1.4,2.1l-0.6-1.2l-0.5-1
			l-0.3,0.4l-0.3,0.5l-0.3-0.5l-0.2-0.5l0,0l-0.3,0.4l-0.3,0.5l-0.3-0.5l-0.2-0.4l-11-0.6c0,1.4,0,4.3,0,5.8l0,0l0,0l0.1,13.5
			C42.8,121.1,43.2,121.5,43.6,121.5z"/>
		<path class="st7" d="M69.2,101.2c0-1-0.8-1.8-1.8-1.8c-1,0-1.8,0.8-1.8,1.8c0,1,0.8,1.8,1.8,1.8C68.5,103,69.3,102.2,69.2,101.2z"
			/>
		<path class="st8" d="M68.5,101.2c0-0.6-0.5-1-1.1-1c-0.6,0-1,0.5-1,1.1c0,0.6,0.5,1,1.1,1C68.1,102.3,68.5,101.8,68.5,101.2z"/>
		<path class="st9" d="M66.2,99.6c0,0.3,0.2,0.5,0.5,0.5c0.3,0,0.5-0.2,0.5-0.5c0-0.3-0.2-0.5-0.5-0.5
			C66.5,99.1,66.2,99.3,66.2,99.6z"/>
		<g>
			<path class="st15" d="M66.8,110.7c-0.1,0.2-0.2,0.4-0.2,0.6c0,0.5,0.4,0.9,0.9,0.8c0.3,0,0.5-0.1,0.6-0.3
				c0.1,0.3,0.4,0.6,0.8,0.6c0.5,0,0.9-0.4,0.8-0.9c0-0.2-0.1-0.3-0.1-0.4c0.4-0.1,0.7-0.4,0.7-0.8c0-0.5-0.4-0.9-0.9-0.8
				c-0.1,0-0.1,0-0.2,0c0,0,0,0,0,0c0-0.5-0.4-0.9-0.9-0.8c-0.4,0-0.7,0.3-0.8,0.6c-0.1-0.1-0.3-0.1-0.4-0.1c-0.5,0-0.9,0.4-0.8,0.9
				C66.4,110.3,66.6,110.6,66.8,110.7z M68.6,110.3C68.6,110.3,68.6,110.3,68.6,110.3c0,0.2,0.1,0.3,0.1,0.5c-0.2,0-0.3,0.1-0.5,0.3
				c-0.1-0.2-0.2-0.4-0.4-0.5c0.1-0.1,0.2-0.2,0.2-0.3c0.1,0.1,0.3,0.1,0.4,0.1C68.5,110.3,68.6,110.3,68.6,110.3z"/>
			<path class="st16" d="M67.7,110.5c0,0.3,0.3,0.6,0.6,0.6c0.3,0,0.6-0.3,0.6-0.6c0-0.3-0.3-0.6-0.6-0.6
				C67.9,109.9,67.6,110.2,67.7,110.5z"/>
		</g>
		<g>
			<path d="M58.1,97.4c-0.2-1.2-1.2-2-2.5-2c-1.2,0-2.1,0.9-2.4,2c0,0,0.3,0.4,2.4,0.4C57.7,97.8,58.1,97.4,58.1,97.4z"/>
			<path class="st11" d="M58,97l-4.7,0c0,0.1-0.1,0.2-0.1,0.3c0,0,0.3,0.4,2.4,0.4c2,0,2.5-0.4,2.5-0.4C58.1,97.2,58,97.1,58,97
				L58,97z"/>
			<path class="st17" d="M54.3,95.7c0.4,0.2,0.8,0.4,1.3,0.4c0.5,0,1-0.2,1.3-0.4c-0.4-0.2-0.8-0.4-1.3-0.3
				C55.1,95.4,54.7,95.5,54.3,95.7z"/>
		</g>
	</g>
</g>
</svg>
