<?xml version="1.0" encoding="utf-8"?>
<!-- Generator: Adobe Illustrator 22.1.0, SVG Export Plug-In . SVG Version: 6.00 Build 0)  -->
<svg version="1.1" xmlns="http://www.w3.org/2000/svg" xmlns:xlink="http://www.w3.org/1999/xlink" x="0px" y="0px"
	 viewBox="0 0 146.5 153" style="enable-background:new 0 0 146.5 153;" xml:space="preserve">
<style type="text/css">
	.skinclor{fill:#EF6326;}
	.st0{display:none;}
	.st1{display:inline;fill:#EF6326;}
	.st2{fill:#EF6326;}
	.st3{opacity:0.25;fill:#020202;enable-background:new    ;}
	.st4{fill:#FFFFFF;}
	.st5{fill:#29ABE2;}
	.st6{fill:#050505;}
	.st7{fill:#FF6D93;}
	.st8{fill:#562912;}
	.st9{fill:#CC342F;}
	.st10{fill:#D8D8D8;}
	.st11{fill:#231F20;}
	.st12{opacity:0.15;fill:#E5F4F7;}
</style>
<g id="Layer_1" class="st0">
	<path class="st1" d="M71.4,50.2c-15.6,0-28.1,12.6-28.1,28.1s12.6,28.1,28.1,28.1s28.1-12.8,28.1-28.1C99.5,62.7,87,50.2,71.4,50.2
		z M71.4,86.5c-4.6,0-8.2-3.6-8.2-8.2s3.6-8.2,8.2-8.2c4.4,0,8.2,3.6,8.2,8.2C79.6,82.6,75.9,86.4,71.4,86.5z"/>
	<path class="st1" d="M129.1,21.1L72,21c-30.3,0-56.4,23.7-57.9,54c-1.8,33.2,24.4,60.4,57.1,60.4c31.6,0,57.3-25.5,57.3-57.1
		 M71.3,115c-20.4,0-37-16.3-37-36.7c0-21.2,17.9-38.2,39.3-36.7c18.4,1,33.2,15.8,34.5,33.9C109.7,97.1,92.5,115,71.3,115z"/>
</g>
<g id="Layer_2">
	<g>
		<path class="skinclor" d="M125.6,80v-0.1V20.4H73.3h0C43,20.4,16.7,49.2,16.7,80c0,30.9,24.1,55.5,54.8,55.5S125.6,110.9,125.6,80
			C125.6,80,125.6,80,125.6,80z"/>
		<path class="st2" d="M117.2,101.1c-4.2,0-7.6,3.4-7.6,7.6c0,4.2,3.4,7.6,7.6,7.6s7.6-3.4,7.6-7.6
			C124.8,104.5,121.4,101.1,117.2,101.1z M117.2,113.2c-2.5,0-4.5-2-4.5-4.5c0-2.4,2-4.5,4.5-4.5c2.5,0,4.5,2,4.5,4.5
			C121.7,111.2,119.7,113.2,117.2,113.2z"/>
		<ellipse class="st2" cx="117.2" cy="108.7" rx="4.5" ry="4.5"/>
		<ellipse class="st3" cx="117.2" cy="108.7" rx="4.5" ry="4.5"/>
		<path class="st2" d="M23.1,101.1c-4.2,0-7.6,3.4-7.6,7.6c0,4.2,3.4,7.6,7.6,7.6s7.6-3.4,7.6-7.6C30.7,104.5,27.3,101.1,23.1,101.1
			z"/>
		<ellipse class="st3" cx="23.1" cy="108.7" rx="4.5" ry="4.5"/>
		<path class="st4" d="M92.3,95.4c-7.8,0.5-13.7,7.3-13.2,15.2c0.5,7.8,7.3,13.8,15.1,13.2c7.8-0.5,13.7-7.3,13.2-15.2
			C107,100.9,100.2,94.9,92.3,95.4z M94,119.3c-5.3,0.3-9.9-3.7-10.2-9c-0.3-5.3,3.7-9.9,8.9-10.3c5.3-0.3,9.9,3.7,10.2,9
			S99.3,118.9,94,119.3z"/>
		<path class="st5" d="M92.7,100c-5.3,0.3-9.3,5-8.9,10.3c0.3,5.3,5,9.3,10.2,9c5.3-0.3,9.3-5,8.9-10.3S98,99.7,92.7,100z
			 M98.6,109.3c0.2,2.9-2,5.4-4.9,5.6c-3.3,0.2-5.4-2-5.6-4.9c-0.2-2.9,2-5.4,4.9-5.6C95.8,104.2,98.4,106.4,98.6,109.3z"/>
		<path class="st6" d="M93,104.4c-2.9,0.2-5.1,2.7-4.9,5.6c0.2,2.9,2.3,5.1,5.6,4.9c2.9-0.2,5.1-2.7,4.9-5.6
			C98.4,106.4,95.8,104.2,93,104.4z"/>
		<path class="st4" d="M48.5,95.5c-7.9,0-14.2,6.4-14.2,14.2S40.7,124,48.5,124s14.2-6.4,14.2-14.2S56.4,95.5,48.5,95.5z
			 M48.5,119.4c-5.3,0-9.7-4.3-9.7-9.6c0-5.4,4.3-9.6,9.7-9.6c5.3,0,9.6,4.3,9.6,9.6C58.1,115.1,53.8,119.4,48.5,119.4z"/>
		<path class="st5" d="M48.5,100.1c-5.3,0-9.7,4.3-9.7,9.6c0,5.4,4.4,9.6,9.7,9.6c5.3,0,9.6-4.3,9.6-9.6
			C58.1,104.4,53.8,100.1,48.5,100.1z M48.5,115c-2.9,0-5.2-2.3-5.2-5.3c0-2.9,2.3-5.3,5.2-5.3c2.9,0,5.2,2.3,5.2,5.3
			C53.8,112.7,51.8,115,48.5,115z"/>
		<ellipse class="st6" cx="48.5" cy="109.7" rx="5.2" ry="5.3"/>
		<path class="st7" d="M32.5,97.7"/>
		<g>
			<g>
				<path class="st8" d="M61,120.5c-0.6,0.2-1,0.9-0.8,1.6c1.5,3.8,5.9,7,11.1,7c5.2,0,9.6-3.2,11.1-7c0.2-0.6-0.1-1.3-0.8-1.6
					C75.4,118.4,67.2,118.4,61,120.5z"/>
			</g>
		</g>
		<g>
			<g>
				<path class="st9" d="M65.8,127.7c1.6,0.8,3.5,1.3,5.5,1.3c2,0,3.9-0.5,5.5-1.3c-1.5-1.2-3.4-1.8-5.5-1.8
					C69.2,125.9,67.3,126.6,65.8,127.7z"/>
			</g>
		</g>
		<path class="st4" d="M81.6,120.5c-6.2-2.1-14.4-2.1-20.6,0c-0.6,0.2-0.9,0.8-0.8,1.3h22.3C82.5,121.3,82.2,120.7,81.6,120.5z"/>
		<g>
			<circle class="st10" cx="93.6" cy="106.8" r="30.9"/>
			
				<rect x="115.5" y="123.9" transform="matrix(0.6048 -0.7964 0.7964 0.6048 -55.0924 145.3952)" class="st10" width="6.9" height="8.6"/>
			<path class="st11" d="M145.1,150.4L145.1,150.4c-2.2,2.7-6.2,3-8.9,0.8l-15.4-12.8c-2.7-2.2-3-6.2-0.8-8.9h0
				c2.2-2.7,6.2-3,8.9-0.8l15.4,12.8C147,143.7,147.3,147.7,145.1,150.4z"/>
		</g>
		<path class="st2" d="M94.2,83c-6.4,0-12.5,2.5-17,7c-4.5,4.5-7,10.6-7,17c0,6.4,2.5,12.5,7,17c4.5,4.5,10.6,7,17,7
			c6.4,0,12.5-2.5,17-7c4.5-4.5,7-10.6,7-17c0-6.4-2.5-12.5-7-17C106.7,85.5,100.7,83,94.2,83z"/>
		<path class="st4" d="M92.8,88c-10.8,0.7-19,10.1-18.2,21c0.7,10.8,10.1,19,20.9,18.3c10.8-0.7,19-10.1,18.2-21
			C113,95.5,103.6,87.2,92.8,88z M95.1,120.9c-7.3,0.5-13.7-5.1-14.2-12.4c-0.5-7.3,5.1-13.7,12.4-14.2c7.3-0.5,13.7,5.1,14.2,12.4
			C107.9,114,102.4,120.4,95.1,120.9z"/>
		<path class="st5" d="M93.3,94.3c-7.3,0.5-12.8,6.9-12.4,14.2c0.5,7.3,6.9,12.9,14.2,12.4c7.3-0.5,12.8-6.9,12.4-14.2
			C107,99.4,100.6,93.8,93.3,94.3z"/>
		<path class="st6" d="M101.4,107.1c0.2,4-2.8,7.5-6.8,7.7c-4.6,0.3-7.5-2.8-7.7-6.8c-0.2-4,2.8-7.4,6.8-7.7
			C97.6,100.1,101.1,103.1,101.4,107.1z"/>
		<path class="st12" d="M94.2,83c-6.4,0-12.5,2.5-17,7c-4.5,4.5-7,10.6-7,17c0,6.4,2.5,12.5,7,17c4.5,4.5,10.6,7,17,7
			c6.4,0,12.5-2.5,17-7c4.5-4.5,7-10.6,7-17c0-6.4-2.5-12.5-7-17C106.7,85.5,100.7,83,94.2,83z"/>
	</g>
</g>
</svg>
