<?xml version="1.0" encoding="utf-8"?>
<!-- Generator: Adobe Illustrator 22.1.0, SVG Export Plug-In . SVG Version: 6.00 Build 0)  -->
<svg version="1.1" id="Layer_1" xmlns="http://www.w3.org/2000/svg" xmlns:xlink="http://www.w3.org/1999/xlink" x="0px" y="0px"
	 viewBox="0 0 1140.6 1938.3" style="enable-background:new 0 0 1140.6 1938.3;" xml:space="preserve">
<style type="text/css">
	.st0{fill:#FBAE17;}
	.st1{fill:#ED9C0C;}
	.st2{fill:#FFFFFF;}
	.st3{fill:#E08300;}
	.st4{fill:#FBEEBE;}
	.st5{fill:#FEF6F2;}
	.st6{fill:#AA5A50;}
	.st7{fill:#272A66;}
	.st8{fill:#EE6427;}
	.st9{fill:#773517;}
	.st10{fill:#2AAAE2;}
	.st11{fill:#070707;}
	.st12{fill:#B44C26;}
	.st13{fill:#FEE5A6;}
	.st14{fill:#EC2227;}
	.st15{fill:#F27BAA;}
	.st16{fill:#C2082C;}
	.st17{fill:#EE6224;}
	.st18{fill:#EC662B;}
	.st19{fill:#FFD756;}
	.st20{fill:#FEFFFE;}
	.st21{fill:#FDFEFF;}
</style>
<path class="st0" d="M481.6,1937.3H1138v-47.8H523.2C521.8,1913.2,504.4,1932.7,481.6,1937.3z"/>
<path class="st0" d="M523,46.9H1138V0H471.3C498.3,0,520.5,20.6,523,46.9z"/>
<path class="st1" d="M471.3,1834.2V104.1c-22.9,0-42.4-14.8-49.3-35.4h-3.6v1834.5h3.7c-1.8-5.3-2.8-10.9-2.8-16.8
	C419.2,1857.5,442.5,1834.2,471.3,1834.2z"/>
<path class="st0" d="M594.5,199l-88-108.7c-9.3,8.5-21.6,13.7-35.2,13.7v1730.2c13.1,0,25.1,4.9,34.3,12.9l89-109.8H1138v-3.2H594.5
	V199z"/>
<polygon class="st2" points="601.5,1727.2 1138,1727.2 1138,1723 905.3,1723 629.5,1723 629.5,1708.9 629.5,1512.7 629.5,1185.1 
	629.5,1042 629.5,519.6 629.5,297.1 629.5,237.4 1138,237.4 1138,206 601.5,206 "/>
<polygon class="st3" points="594.5,1734.2 1138,1734.2 1138,1727.2 601.5,1727.2 601.5,206 1138,206 1138,199 594.5,199 "/>
<path class="st1" d="M523.3,52c0,15.2-6.5,28.8-16.8,38.3l88,108.7H1138V46.9H523C523.2,48.6,523.3,50.3,523.3,52z"/>
<path class="st1" d="M505.5,1847.1c10.9,9.5,17.8,23.5,17.8,39.1c0,1.1,0,2.1-0.1,3.2H1138v-152.1H594.5L505.5,1847.1z"/>
<path class="st0" d="M471.3,104.1c13.6,0,25.9-5.2,35.2-13.7c10.3-9.5,16.8-23.2,16.8-38.3c0-1.7-0.1-3.4-0.3-5.1
	C520.5,20.6,498.3,0,471.3,0c-28.7,0-52,23.3-52,52c0,5.8,1,11.4,2.7,16.6C428.9,89.2,448.3,104.1,471.3,104.1z"/>
<path class="st0" d="M523.2,1889.4c0.1-1,0.1-2.1,0.1-3.2c0-15.6-6.9-29.6-17.8-39.1c-9.2-8-21.1-12.9-34.3-12.9
	c-28.7,0-52,23.3-52,52c0,5.9,1,11.6,2.8,16.8c7,20.5,26.4,35.2,49.2,35.2c3.5,0,7-0.4,10.4-1
	C504.4,1932.7,521.8,1913.2,523.2,1889.4z"/>
<path class="st4" d="M629.5,297.1c25.4,14.2,45.1,37.7,54.6,66.4c8.8-3.3,18.2-5.2,27.9-5.2c44.2,0,79.6,35.8,79.6,80.6
	c0,44.8-35.4,80.6-79.6,80.6h-82.5V1042c8-3.1,16.6-4.7,25.7-4.7c32.2,0,59.5,20.9,69.4,50.6c5.5-2.1,11.3-3.2,17.4-3.2
	c27.6,0,49.7,22.3,49.7,50.3c0,27.9-22.1,50.3-49.7,50.3H629.5v327.5h275.9v-0.4c0-58.5,23.1-111.5,60.6-150.3
	c-56.1-50.5-93.9-130.1-98.9-220.8l-0.2,29.9c0,0,0.1,0,0.1,0l-0.1,0.1l0-0.1c-12.9-0.2-23.5-10.8-23.4-24.1l2.3-246.7
	c-6.3-6.6-10.1-15.6-10-25.5c0.1-10,4-19,10.5-25.5l0.5-56.9c-1.3-11.5-1.9-23.3-1.8-35.1c0.1-12,1-23.8,2.6-35.6
	c-5.9-2.8-9.9-8.9-9.9-16c0-0.1,0-0.1,0-0.2c-1.3,0.2-2.5,0.4-3.8,0.4c-9.6,0-17.4-8-17.3-17.7c0-8.7,6.1-15.7,14.2-17.2
	c-1.6-2.7-2.5-5.9-2.5-9.3c0-9.7,7.9-17.6,17.5-17.5c7.5,0.1,13.8,5,16.2,11.7c1.1-1.2,2.4-2.2,3.7-3.1
	c6.3-15.9,13.9-31.3,22.7-45.9c-18.2-1.6-32.3-16.9-32.3-35.8c-0.2-19.6,15.8-35.7,35.1-35.7c6.7,0,12.9,1.9,18,5
	c7.7-12.3,21.3-20.6,36.7-20.6c5.5,0,10.8,1.1,15.7,3c33.1-26.5,71.3-45.7,112.1-54.6c-8.2-23.5-16.8-47.4-25.7-69.9
	c0,0,13.1,10.6,21.6,16c20.5,13.8,51,6.4,62.6-16c2.1-4.3,4.4-11.3,6-16.5V237.4H629.5V297.1z"/>
<rect x="629.5" y="1708.9" class="st4" width="275.9" height="14.2"/>
<path class="st5" d="M961.5,522.5c-4.9-1.9-10.2-3-15.7-3c-15.4,0-29,8.3-36.7,20.6c-5.1-3.1-11.3-5-18-5
	c-19.4,0-35.3,16.1-35.1,35.7c0,18.9,14.1,34.2,32.3,35.8C907.6,574.4,932.6,545.7,961.5,522.5z"/>
<path class="st5" d="M791.7,439c0-44.8-35.4-80.6-79.6-80.6c-9.8,0-19.1,1.9-27.9,5.2c-9.5-28.7-29.2-52.2-54.6-66.4v222.4H712
	C756.3,519.6,791.7,483.7,791.7,439z"/>
<path class="st5" d="M791.7,1134.8c0-27.9-22.1-50.3-49.7-50.3c-6.1,0-11.9,1.2-17.4,3.2c-9.9-29.7-37.2-50.6-69.4-50.6
	c-9,0-17.7,1.7-25.7,4.7v143.2H742C769.6,1185.1,791.7,1162.8,791.7,1134.8z"/>
<rect x="629.5" y="1512.7" class="st6" width="275.9" height="196.2"/>
<path class="st7" d="M866.9,1171.1c0,0-0.1,0-0.1,0l0,0.1L866.9,1171.1z"/>
<path class="st7" d="M846.7,792.2l-0.5,56.9c3-3.1,6.6-5.6,10.6-7.5C852,825.8,848.6,809.2,846.7,792.2z"/>
<path class="st7" d="M867.9,911.3c-8.7-0.9-16.5-5-22.2-11.1l-2.3,246.7c-0.1,13.3,10.5,24,23.4,24.1l0.2-29.9
	c-0.4-7.7-0.6-15.4-0.6-23.2L867.9,911.3z"/>
<path class="st7" d="M1013.5,1325l-50.9-89.3l2.9-1.7c-20-15.2-33-39.4-33-66.7c0-46,36.9-83.3,82.3-83.3c17.7,0,34.1,5.7,47.5,15.3
	h2.5h31.1v-65.7c-84.8-6-157.2-52-200.2-119.6c-1.6,3.7-5.2,6.2-9.4,6.1c-5,0-9.2-3.9-9.9-8.9c-1.6,0.2-3.2,0.3-4.8,0.3
	c-1.2,0-2.5-0.1-3.7-0.2l-1.4,206.7c-0.1,7.8,0.1,15.5,0.6,23.2c5,90.7,42.7,170.3,98.9,220.8C979.9,1347.5,995.9,1335,1013.5,1325z
	"/>
<path class="st7" d="M1018.1,1253.2v-2.7c-0.5,0-1,0-1.5,0L1018.1,1253.2z"/>
<path class="st7" d="M1135.6,1099.2h2.4v-66c-0.8,0.1-1.6,0.2-2.4,0.2V1099.2z"/>
<path class="st8" d="M1129.8,863.8h-0.2l-4.7-10l-5.3-11.3l-6.9,10.3l-5.3,7.9l-10.2-21.3l-11.4-24l-29.7,43.7l-6.7-0.4
	c13.8,12.6,22.4,31,22.3,51.3c-0.2,37.9-30.7,68.2-68.1,67.9c-37.4-0.2-67.4-31.1-67.1-68.9c0-4.7,0.6-9.3,1.5-13.8l-18.2-6.3
	l19.2,1.9c0.5-1.8,1.1-3.6,1.7-5.3l-16.3-9.5l18,5.4c0.9-2.1,1.9-4.1,3-6.1L929.7,864l18.1,7.4l-0.4,0.6c4.8-7.5,11-13.9,18.2-18.9
	l-68.8-4.6c6.9,6.7,11.2,16.2,11.1,26.6c-0.1,11.5-5.4,21.8-13.6,28.4c1.4,1.8,2.2,4,2.2,6.4c0,1.4-0.3,2.8-0.8,4
	c43,67.6,115.4,113.6,200.2,119.6v-22.1h39.7v21.9c0.8-0.1,1.6-0.2,2.4-0.2v-41c-6.1,4.1-13.9,6.6-22.1,7.3c-0.1,0-0.2,0-0.3,0
	c-0.5,0-0.9,0.1-1.4,0.1c-0.3,0-0.7,0-1,0c-0.4,0-0.8,0-1.2,0c-0.2,0-0.4,0-0.7,0c0,0-0.1,0-0.1,0c0,0-0.1,0-0.1,0
	c-10,0-19.5-2.7-26.9-7.6c0.1-0.1,0.3-0.2,0.4-0.2c-9.7-6.2-17.2-15.7-20.8-27l0,0c-0.1-0.2-0.1-0.3-0.1-0.5
	c-0.1-0.3-0.2-0.5-0.2-0.8c-0.1-0.4-0.3-0.9-0.4-1.3c-0.1-0.2-0.1-0.5-0.2-0.7c-0.1-0.5-0.2-1-0.3-1.4c0-0.2-0.1-0.4-0.1-0.6
	c-0.1-0.7-0.3-1.4-0.4-2.1c0,0,8.7-8.1,50.4-7.3c10.8,0.2,19.2,1,25.7,2V851.3l-2.5,3.8L1129.8,863.8z"/>
<path class="st8" d="M1138,992.2v-0.2c-0.1,0-0.1,0.1-0.2,0.1C1137.8,992.1,1137.9,992.2,1138,992.2z"/>
<path class="st9" d="M919.8,888.9l18.2,6.3c0.3-1.5,0.7-2.9,1.1-4.3L919.8,888.9z"/>
<path class="st9" d="M947.8,871.4l-18.1-7.4l15.7,11.3c0.6-1.1,1.3-2.2,2-3.3L947.8,871.4z"/>
<path class="st9" d="M924.4,876l16.3,9.5c0.5-1.4,1.1-2.7,1.7-4.1L924.4,876z"/>
<path class="st2" d="M947.4,872c-0.7,1.1-1.4,2.2-2,3.3c-1.1,2-2.1,4-3,6.1c-0.6,1.3-1.2,2.7-1.7,4.1c-0.6,1.7-1.2,3.5-1.7,5.3
	c-0.4,1.4-0.8,2.9-1.1,4.3c-0.9,4.4-1.4,9-1.5,13.8c-0.3,37.9,29.7,68.7,67.1,68.9c37.4,0.4,67.9-30,68.1-67.9
	c0.1-20.4-8.5-38.7-22.3-51.3l-83.7-5.6C958.4,858.1,952.2,864.6,947.4,872z M1004.1,863.1c25.4,0.2,45.6,21,45.4,46.7
	c-0.2,25.7-20.8,46.2-46.1,46c-25.3-0.2-45.9-21-45.6-46.7C958,883.4,978.6,862.8,1004.1,863.1z"/>
<path class="st10" d="M1003.4,955.7c25.3,0.2,45.9-20.3,46.1-46c0.2-25.7-20-46.4-45.4-46.7c-25.5-0.2-46.1,20.3-46.3,46
	C957.5,934.7,978.1,955.5,1003.4,955.7z M1004.2,884.2c13.8,0.1,24.9,11.5,24.8,25.4c-0.1,14.1-9.4,25.2-25.1,25.1
	c-13.9-0.1-24.9-11.5-24.8-25.4C979.2,895.2,990.4,884.1,1004.2,884.2z"/>
<path class="st11" d="M1003.8,934.7c15.8,0.1,25-11,25.1-25.1c0.1-14-11-25.3-24.8-25.4c-13.8-0.1-25,11-25.1,25.1
	C978.9,923.2,989.9,934.6,1003.8,934.7z"/>
<path class="st7" d="M1073.6,468c-40.8,8.8-79,28-112.1,54.6c-28.9,23.2-53.9,51.9-73.2,84.2c-8.8,14.6-16.4,30-22.7,45.9
	c2.7-1.6,5.8-2.6,9.1-2.6c9.6,0,17.4,8,17.3,17.7c0,4.6-1.7,8.7-4.6,11.8c5.8,2.9,9.7,8.9,9.7,16.2c0,9.7-7.9,17.6-17.5,17.5
	c-2.9,0-5.7-0.8-8.1-2.1c-2.3,7-8.9,12.1-16.7,12.1c-2.7,0-5.2-0.6-7.4-1.7c-1.6,11.8-2.5,23.6-2.6,35.6
	c-0.1,11.9,0.5,23.6,1.8,35.1c1.9,17,5.3,33.5,10.1,49.4c4.7-2.2,9.8-3.4,15.3-3.3c9.7,0.1,18.4,3.9,24.8,10.2l68.8,4.6l83.7,5.6
	l6.7,0.4l29.7-43.7l11.4,24l10.2,21.3l5.3-7.9l6.9-10.3l5.3,11.3l4.7,10h0.2l5.7-8.7l2.5-3.8V486.4c-18,2.7-36.1,6.3-54.4,10.6
	C1080.3,487.5,1077,477.8,1073.6,468z"/>
<path class="st8" d="M867.9,911.3c1.2,0.1,2.4,0.2,3.7,0.2c1.6,0,3.3-0.1,4.8-0.3c-0.1-0.5-0.1-1-0.1-1.5c0-5.5,4.6-10.2,10.2-10.1
	c3.1,0,6,1.5,7.8,3.9c8.2-6.6,13.6-16.9,13.6-28.4c0.1-10.4-4.2-19.9-11.1-26.6c-6.4-6.3-15.1-10.1-24.8-10.2
	c-5.5,0-10.7,1.2-15.3,3.3c-4,1.8-7.5,4.4-10.6,7.5c-6.4,6.6-10.4,15.6-10.5,25.5c-0.1,9.9,3.8,18.9,10,25.5
	C851.4,906.3,859.2,910.3,867.9,911.3z M871.8,853.5c11.8,0,21.2,9.7,21.1,21.6c0,12-9.6,21.5-21.3,21.3c-11.8,0-21.2-9.7-21.1-21.6
	C850.6,862.8,860.1,853.3,871.8,853.5z"/>
<path class="st12" d="M871.6,896.4c11.7,0.1,21.3-9.4,21.3-21.3c0.1-11.8-9.3-21.6-21.1-21.6c-11.7-0.1-21.2,9.4-21.3,21.3
	C850.4,886.6,859.8,896.4,871.6,896.4z"/>
<path class="st13" d="M886.5,899.7c-5.6-0.1-10.2,4.6-10.2,10.1c0,0.5,0,1,0.1,1.5c0.6,5,4.9,8.9,9.9,8.9c4.2,0.1,7.8-2.4,9.4-6.1
	c0.5-1.2,0.8-2.6,0.8-4c0-2.4-0.8-4.7-2.2-6.4C892.5,901.2,889.6,899.7,886.5,899.7z"/>
<path class="st14" d="M871.5,711.1c2.4,1.3,5.2,2.1,8.1,2.1c9.6,0.1,17.5-7.7,17.5-17.5c0-7.3-3.9-13.2-9.7-16.2
	c2.9-3.2,4.6-7.3,4.6-11.8c0.1-9.7-7.6-17.7-17.3-17.7c-3.4,0-6.5,0.9-9.1,2.6c-1.4,0.8-2.6,1.9-3.7,3.1
	c-2.4-6.7-8.7-11.6-16.2-11.7c-9.6-0.1-17.5,7.7-17.5,17.5c0,3.4,0.9,6.6,2.5,9.3c-8.1,1.5-14.2,8.6-14.2,17.2
	c-0.1,9.7,7.6,17.7,17.3,17.7c1.3,0,2.5-0.1,3.8-0.4c0,0.1,0,0.1,0,0.2c-0.1,7,4,13.1,9.9,16c2.2,1.1,4.7,1.7,7.4,1.7
	C862.5,723.2,869.1,718.2,871.5,711.1z M845.7,683c0-7,5.8-12.7,12.6-12.7c7,0.2,12.5,5.7,12.5,12.8c0,7-5.8,12.7-12.6,12.7
	C851.4,695.8,845.7,689.9,845.7,683z"/>
<path class="st15" d="M870.9,683.1c0-7-5.6-12.5-12.5-12.8c-6.8,0-12.6,5.6-12.6,12.7c0,6.9,5.7,12.8,12.5,12.8
	C865.1,695.8,870.9,690.1,870.9,683.1z"/>
<path d="M1111.3,999.7c0.2,0,0.4,0,0.7,0c-0.3,0-0.5,0-0.8,0C1111.2,999.7,1111.3,999.7,1111.3,999.7z"/>
<path d="M1084.5,991.9c7.3-4.7,16.8-7.8,26.5-7.8c9.9,0,19.4,3.1,26.7,8c0.1,0,0.1-0.1,0.2-0.1v-26.4l-74.3-0.7
	C1067.3,976.1,1074.8,985.6,1084.5,991.9z"/>
<path class="st2" d="M1061.8,957.5c0.1,0.7,0.3,1.4,0.4,2.1c0,0.2,0.1,0.4,0.1,0.6c0.1,0.5,0.2,1,0.3,1.4c0.1,0.2,0.1,0.5,0.2,0.7
	c0.1,0.4,0.2,0.9,0.4,1.3c0.1,0.3,0.2,0.5,0.2,0.8c0,0.2,0.1,0.3,0.1,0.5l0,0l74.3,0.7v-13.4c-6.5-1-14.9-1.8-25.7-2
	C1070.5,949.4,1061.8,957.5,1061.8,957.5z"/>
<path class="st16" d="M1111,984.1c-9.8,0-19.2,3-26.5,7.8c-0.1,0.1-0.3,0.2-0.4,0.2c7.4,4.9,16.9,7.6,26.9,7.6c0,0,0.1,0,0.1,0
	c0.3,0,0.5,0,0.8,0c0.4,0,0.8,0,1.2,0c0.3,0,0.7,0,1,0c0.5,0,0.9-0.1,1.4-0.1c0.1,0,0.2,0,0.3,0c8.2-0.7,16-3.2,22.1-7.3
	c-0.1,0-0.1-0.1-0.2-0.1C1130.4,987.2,1121,984.1,1111,984.1z"/>
<path class="st17" d="M1014.8,1250.6c-18.5,0-35.6-6.2-49.3-16.6l-2.9,1.7l50.9,89.3c1.5-0.9,3.1-1.7,4.6-2.6v-69.3l-1.5-2.6
	C1016,1250.6,1015.4,1250.6,1014.8,1250.6z"/>
<polygon class="st18" points="1135.6,1099.2 1135.6,1033.4 1135.6,1011.5 1095.8,1011.5 1095.8,1033.6 1095.8,1099.2 "/>
<path class="st19" d="M1069.4,414c-8.4-5.3-21.6-16-21.6-16c8.9,22.5,17.5,46.4,25.7,69.9c3.4,9.8,6.8,19.5,10,29.1
	c18.3-4.4,36.4-7.9,54.4-10.6V381.6c-1.6,5.1-3.9,12.1-6,16.5C1120.4,420.4,1089.9,427.9,1069.4,414z"/>
<path class="st17" d="M1063.5,1100.1c0.4-0.3,0.8-0.6,1.2-0.9h-2.5C1062.7,1099.5,1063.1,1099.8,1063.5,1100.1z"/>
<path class="st17" d="M1095.8,1099.2h-31.1c0.1,0.7,0.3,1.5,0.5,2.2c0.1,0.1,0.2,0.1,0.3,0.2c0.2,1,0.4,2.1,0.6,3.1
	c0.1,0.5,0.3,1,0.4,1.4c9.8,32,41.6,49.7,71.5,40.3v-47.3h-2.4H1095.8z"/>
<path class="st20" d="M1066.4,1106.2c-0.1-0.5-0.3-1-0.4-1.4c0.5,2.7,1.2,5.3,2.1,8c5,15.3,14.7,27.8,26.9,36.2c1.3,5.9,2,12,2,18.3
	c0,44.9-35.1,81.5-79,83.2v2.7v69.3c29.6-15.9,63.5-25,99.4-25c6.9,0,13.7,0.3,20.5,1v-152C1108,1155.9,1076.3,1138.3,1066.4,1106.2
	z"/>
<path class="st20" d="M1065.2,1101.4c-0.2-0.7-0.3-1.5-0.5-2.2c-0.4,0.3-0.8,0.6-1.2,0.9C1064,1100.6,1064.6,1101,1065.2,1101.4z"/>
<path class="st21" d="M1062.2,1099.2c-13.4-9.6-29.8-15.3-47.5-15.3c-45.5,0-82.3,37.3-82.3,83.3c0,27.3,13,51.5,33,66.7
	c13.7,10.4,30.8,16.6,49.3,16.6c0.6,0,1.2,0,1.8,0c0.5,0,1,0,1.5,0c43.9-1.8,79-38.4,79-83.2c0-6.3-0.7-12.4-2-18.3
	c-12.2-8.4-21.9-20.9-26.9-36.2c-0.9-2.7-1.6-5.3-2.1-8c-0.2-1-0.4-2.1-0.6-3.1c-0.1-0.1-0.2-0.1-0.3-0.2c-0.6-0.4-1.1-0.9-1.7-1.3
	C1063.1,1099.8,1062.7,1099.5,1062.2,1099.2z"/>
<path class="st20" d="M1018.1,1322.5c-1.6,0.8-3.1,1.7-4.6,2.6c-17.6,10-33.6,22.5-47.6,37c-37.5,38.7-60.6,91.7-60.6,150.3v0.4
	v196.2v14.2H1138v-424.5c-6.7-0.7-13.6-1-20.5-1C1081.6,1297.5,1047.7,1306.5,1018.1,1322.5z"/>
</svg>
