<?xml version="1.0" encoding="utf-8"?>
<!-- Generator: Adobe Illustrator 22.1.0, SVG Export Plug-In . SVG Version: 6.00 Build 0)  -->
<svg version="1.1" id="Layer_1" xmlns="http://www.w3.org/2000/svg" xmlns:xlink="http://www.w3.org/1999/xlink" x="0px" y="0px"
	 viewBox="0 0 1616.4 1938.3" style="enable-background:new 0 0 1616.4 1938.3;" xml:space="preserve">
<style type="text/css">
	.st0{fill:#FBAE17;}
	.st1{fill:#ED9C0C;}
	.st2{fill:#FFFFFF;}
	.st3{fill:#E08300;}
	.st4{fill:#FFFFFF;stroke:#E08300;stroke-width:7;stroke-miterlimit:10;}
	.st5{clip-path:url(#SVGID_2_);}
	.st6{fill:#FBEEBE;}
	.st7{opacity:0.62;fill:#FEF6F2;}
	.st8{fill:#F3804B;}
	.st9{fill:#AA5A50;}
	.st10{fill:#272A66;}
	.st11{fill:#EE6427;}
	.st12{fill:#B44C26;}
	.st13{fill:#FEE5A6;}
	.st14{fill:#773517;}
	.st15{fill:#2AAAE2;}
	.st16{fill:#070707;}
	.st17{fill:none;}
	.st18{fill:#EC2227;}
	.st19{fill:#F27BAA;}
	.st20{fill:#C2082C;}
	.st21{fill:#EE6224;}
	.st22{fill:#EC662B;}
	.st23{fill:#FFD756;}
	.st24{fill:#FEFFFE;}
	.st25{fill:#FDFEFF;}
</style>
<g>
	<rect x="52.9" y="1874" class="st0" width="1507.9" height="63.3"/>
	<polygon class="st1" points="1560.8,1886.3 1432,1734.2 176.1,1734.2 52.9,1886.3 	"/>
	<g>
		<rect x="52.9" class="st0" width="1507.9" height="46.9"/>
		
			<rect x="670" y="959.4" transform="matrix(-1.836970e-16 1 -1 -1.836970e-16 2573.0913 -601.3424)" class="st1" width="1834.5" height="52.9"/>
		
			<rect x="-890.8" y="959.4" transform="matrix(-1.836970e-16 1 -1 -1.836970e-16 1012.3298 959.4193)" class="st1" width="1834.5" height="52.9"/>
		
			<rect x="-112.8" y="212.7" transform="matrix(-1.836970e-16 1 -1 -1.836970e-16 1773.4285 159.7563)" class="st0" width="1839.4" height="1507.9"/>
		<g>
			<rect x="179.6" y="202.5" class="st2" width="1248.8" height="1528.2"/>
			<path class="st3" d="M1425,206v1521.2H183.1V206H1425 M1432,199H176.1v1535.2H1432V199L1432,199z"/>
		</g>
		<path class="st4" d="M1432,199"/>
		<polygon class="st1" points="1560.8,46.9 1432,199 176.1,199 52.9,46.9 		"/>
		<polygon class="st1" points="1560.8,1889.4 1432,1737.3 176.1,1737.3 52.9,1889.4 		"/>
		<circle class="st0" cx="1564.4" cy="52" r="52"/>
		<circle class="st0" cx="52.9" cy="52" r="52"/>
	</g>
	<circle class="st0" cx="1564.4" cy="1886.3" r="52"/>
	<circle class="st0" cx="52.9" cy="1886.3" r="52"/>
</g>
<g>
	<defs>
		<rect id="SVGID_1_" x="211.1" y="227.8" width="1185.1" height="1474.9"/>
	</defs>
	<clipPath id="SVGID_2_">
		<use xlink:href="#SVGID_1_"  style="overflow:visible;"/>
	</clipPath>
	<g id="document" transform="matrix(1,0,0,1,1024.0,1024.0)" class="st5">
		<path class="st6" d="M370.5,699V-786.6H-812.9V699H370.5z"/>
		<path class="st7" d="M-551.3-488.8c6.7,0,12.9,1.9,18,5c7.7-12.3,21.3-20.6,36.7-20.6c19,0,35.1,12.3,41,29.8
			c3.3-1.2,6.7-1.9,10.3-1.9c16.3,0,29.3,13.2,29.3,29.7s-13,29.7-29.3,29.7h-105.6c-19.7,0-35.5-16-35.5-35.9
			C-586.6-472.7-570.6-488.8-551.3-488.8z"/>
		<path class="st7" d="M145.8-789.3c6.7,0,12.9,1.9,18,5c7.7-12.3,21.3-20.6,36.7-20.6c19,0,35.1,12.3,41,29.8
			c3.3-1.2,6.7-1.9,10.3-1.9c16.3,0,29.3,13.2,29.3,29.7c0,16.5-13,29.7-29.3,29.7H146.1c-19.7,0-35.5-16-35.5-35.9
			C110.5-773.1,126.4-789.3,145.8-789.3z"/>
		<path class="st7" d="M129.4-4.7c6.7,0,12.9,1.9,18,5c7.7-12.3,21.3-20.6,36.7-20.6c19,0,35.1,12.3,41,29.8
			c3.3-1.2,6.7-1.9,10.3-1.9c16.3,0,29.3,13.2,29.3,29.7c0,16.5-13,29.7-29.3,29.7H129.8c-19.7,0-35.5-16-35.5-35.9
			C94.1,11.5,110.1-4.7,129.4-4.7z"/>
		<path class="st7" d="M340.6-304.8c11.3,0,21.8,3.2,30.5,8.5c13.1-20.9,36-35,62.2-35c32.2,0,59.5,20.9,69.4,50.6
			c5.5-2.1,11.3-3.2,17.4-3.2c27.6,0,49.7,22.3,49.7,50.3c0,27.9-22.1,50.3-49.7,50.3H341.2c-33.4,0-60.1-27.1-60.1-60.9
			C280.8-277.5,307.8-304.8,340.6-304.8z"/>
		<path class="st7" d="M-1018.2-699.1c18.2,0,34.9,5.2,48.9,13.7c21-33.5,57.8-56.1,99.7-56.1c51.7,0,95.5,33.5,111.3,81.1
			c8.8-3.3,18.2-5.2,27.9-5.2c44.2,0,79.6,35.8,79.6,80.6c0,44.8-35.4,80.6-79.6,80.6h-286.9c-53.6,0-96.4-43.4-96.4-97.6
			C-1114.1-655.3-1070.8-699.1-1018.2-699.1z"/>
		<path class="st7" d="M-879.9,39.7c11.3,0,21.8,3.2,30.5,8.5c13.1-20.9,36-35,62.2-35c32.2,0,59.5,20.9,69.4,50.6
			c5.5-2.1,11.3-3.2,17.4-3.2c27.6,0,49.7,22.3,49.7,50.3s-22.1,50.3-49.7,50.3h-178.9c-33.4,0-60.1-27.1-60.1-60.9
			C-939.7,67-912.7,39.7-879.9,39.7z"/>
		<path class="st8" d="M255.5,534.2c0-64.4-51.6-116.6-115.2-116.6c-63.6,0-115.2,52.2-115.2,116.6c0,64.4,51.6,116.6,115.2,116.6
			C203.9,650.9,255.5,598.6,255.5,534.2z"/>
		<path class="st9" d="M-825.8,684.9H544.8V488.7H-825.8V684.9z"/>
		<path class="st9" d="M-400.2,293h-25v25.3h25V293z"/>
		<path class="st9" d="M-375.5,293v25.3h25V293H-375.5z"/>
		<path class="st9" d="M543.6,488.7H305.2V361.3h238.4V488.7z"/>
		<path class="st9" d="M544.2,391.5H255.5V264.2h288.7V391.5z"/>
		<path class="st9" d="M466.4,213.6h25v25.3h-25V213.6z"/>
		<path class="st9" d="M491.4,238.9v25.3h-25v-25.3H491.4z"/>
		<path class="st9" d="M411.9,238.9h25v25.3h-25V238.9z"/>
		<path class="st9" d="M382,238.9v25.3h-25v-25.3H382z"/>
		<path class="st9" d="M305.2,238.9h25v25.3h-25V238.9z"/>
		<path class="st9" d="M280.5,238.9v25.3h-25v-25.3H280.5z"/>
		<g>
			<g>
				<path class="st10" d="M-575.4,147.1l-0.1,0.1l2.8-401.6l-22.7-3.4l-3.5,380.7C-599.1,136.3-588.4,147-575.4,147.1z"/>
				<path class="st10" d="M-573.6-244.8L-575.9,94c-1.2,165.6,106.7,300.4,240.8,301.3l241.4,1.8c0,0,1.7-133.4,3.5-298.5l3.5-352.9
					L-573.6-244.8z"/>
				<path class="st11" d="M-70.9-254.8v-0.6l2-285.6l-248.7-1.8h-0.2c-144.1-1.1-270,136.4-270.9,284.4
					c-1,148.2,112.9,267.6,259.2,268.6C-183.2,11.1-71.9-106.4-70.9-254.8C-70.9-254.6-70.9-254.8-70.9-254.8z"/>
				<path class="st10" d="M-91.5,166.7c13.2,0.1,23.9-10.7,23.7-23.8l2.5-377.4l-40.5,0.1L-91.5,166.7z"/>
				<path class="st11" d="M-147.7-117.4c-0.1,20.2,15.9,36.7,35.9,36.8c19.9,0.1,36.3-16.1,36.4-36.3c0.1-20.3-15.9-36.7-35.9-36.8
					C-131.3-153.9-147.6-137.6-147.7-117.4z"/>
				<path class="st12" d="M-132.7-117.3c-0.1,11.8,9.3,21.6,21.1,21.6c11.7,0.1,21.3-9.4,21.3-21.3c0.1-11.8-9.3-21.6-21.1-21.6
					C-123.1-138.6-132.6-129-132.7-117.3z"/>
				<path class="st13" d="M-114.3-84c0.1-5.5-4.5-10.2-10-10.3c-5.6-0.1-10.2,4.6-10.2,10.1c-0.1,5.6,4.5,10.3,10,10.3
					C-118.9-73.8-114.3-78.3-114.3-84z"/>
				<path class="st14" d="M-157.5-110.3l19.7-1.5l-19.7-2.9V-110.3z"/>
				<path class="st14" d="M-160.5-131.4l17.8-7l-19.1,2.6L-160.5-131.4z"/>
				<path class="st14" d="M-159.1-120.2l18.6-5.2l-19.2,0.7L-159.1-120.2z"/>
				<g>
					<g>
						<path class="st2" d="M-290.1-115c-1,37.6,28.3,69.3,65.7,70.3c37.2,1.1,68.5-28.6,69.5-66.5c1-37.6-28.3-69.3-65.7-70.3
							C-257.8-182.5-289.1-152.7-290.1-115z"/>
						<path class="st15" d="M-268.1-114.4c-0.8,25.4,19.2,46.9,44.4,47.7c25.1,0.8,46.3-19.5,47.1-44.9
							c0.8-25.4-19.2-46.9-44.4-47.7C-246.2-160.1-267.3-139.8-268.1-114.4z"/>
						<path class="st16" d="M-247.6-113.8c-0.5,14.1,8.5,25.6,24.2,26.1c13.9,0.5,25.3-10.7,25.8-24.5c0.5-14.1-10.5-25.6-24.2-26.1
							C-235.7-138.5-247.1-127.6-247.6-113.8z"/>
					</g>
					<path class="st17" d="M-292.3-45.6l138.5,1.1l0.9-136l-138.5-0.9L-292.3-45.6z"/>
				</g>
				<g>
					<path class="st14" d="M-502.9-133.1l-19.7-2l18.6,6.4L-502.9-133.1z"/>
					<path class="st14" d="M-494.6-152.6l-18.1-7.4l15.8,11.4L-494.6-152.6z"/>
					<path class="st14" d="M-499.3-142.4L-518-148l16.9,9.8L-499.3-142.4z"/>
					<g>
						<g>
							<path class="st2" d="M-370.8-114c0.2-37.9-29.8-68.7-67.1-68.9c-37.4-0.4-67.8,30-68.1,67.9s29.7,68.7,67.1,68.9
								C-401.4-45.8-371-76.2-370.8-114z"/>
							<path class="st15" d="M-392.9-114.3c0.2-25.7-20-46.4-45.4-46.7c-25.5-0.2-46.1,20.3-46.3,46c-0.2,25.7,20.4,46.4,45.6,46.7
								C-413.7-68.1-393.1-88.6-392.9-114.3z"/>
							<path class="st16" d="M-413.4-114.4c0.1-14-11-25.3-24.8-25.4c-13.8-0.1-25,11-25.1,25.1c-0.1,14,10.9,25.3,24.8,25.4
								C-422.8-89.2-413.5-100.3-413.4-114.4z"/>
						</g>
						<path class="st17" d="M-506.5-47l136.4,0.9l0.9-136l-136.3-0.9L-506.5-47z"/>
					</g>
				</g>
				<path class="st10" d="M-79.1-559.8l-237.7-1.6h-0.2c-149-1.1-279.5,141.4-280.5,294.5c-0.2,31,4.4,61,13.2,88.9l197.9,13.1
					l29.7-43.7l11.4,24l10.2,21.3l5.3-7.9l6.9-10.3l5.3,11.3l4.7,10h0.2l5.7-8.7l6.9-10.3l5.3,11.3l4.3,9.1L-66.1-144
					c1-28.7,1.4-87.9,1.6-118.8v-0.2v-0.6l2.3-278.8C-62.2-551.8-69.8-559.7-79.1-559.8z"/>
				<path class="st11" d="M-606.7-149.3c-0.1,20.2,15.9,36.7,35.9,36.8c19.9,0.1,36.3-16.1,36.4-36.3c0.1-20.2-15.9-36.7-35.9-36.8
					C-590.4-185.8-606.6-169.5-606.7-149.3z"/>
				<path class="st12" d="M-591.9-149.2c-0.1,11.8,9.3,21.6,21.1,21.6c11.7,0.1,21.3-9.4,21.3-21.3c0.1-11.8-9.3-21.6-21.1-21.6
					C-582.3-170.7-591.8-161.2-591.9-149.2z"/>
				<path class="st13" d="M-545.9-114c0-5.7-4.5-10.3-10-10.3c-5.6-0.1-10.2,4.6-10.2,10.1c-0.1,5.6,4.5,10.3,10,10.3
					C-550.5-103.8-545.9-108.3-545.9-114z"/>
				<g>
					<path class="st18" d="M-555-344.4c2.9-3.2,4.6-7.3,4.6-11.8c0.1-9.7-7.6-17.7-17.3-17.7c-5.1,0-9.6,2.1-12.9,5.6
						c-2.4-6.7-8.7-11.6-16.2-11.7c-9.6-0.1-17.5,7.7-17.5,17.5c0,3.4,0.9,6.6,2.5,9.3c-8.1,1.5-14.2,8.6-14.2,17.2
						c-0.1,9.7,7.6,17.7,17.3,17.7c1.3,0,2.5-0.1,3.8-0.4c0,0.1,0,0.1,0,0.2c-0.1,9.7,7.6,17.7,17.3,17.7c7.8,0,14.4-5,16.7-12.1
						c2.4,1.3,5.2,2.1,8.1,2.1c9.6,0.1,17.5-7.7,17.5-17.5C-545.3-335.5-549.2-341.5-555-344.4z M-591.3-335.7c0-0.1,0-0.1,0-0.2
						c0-3.4-0.9-6.6-2.5-9.3c3.7-0.7,7.1-2.6,9.5-5.3c1.5,4.3,4.6,8,8.7,10c-1.7,1.9-3.1,4.1-3.8,6.7c-2.4-1.3-5.2-2.1-8.1-2.2
						C-588.9-336.1-590.1-336-591.3-335.7z"/>
					<path class="st19" d="M-571.5-340.9c0-7-5.6-12.5-12.5-12.8c-6.8,0-12.6,5.6-12.6,12.7c0,6.9,5.7,12.8,12.5,12.8
						C-577.3-328.2-571.5-333.9-571.5-340.9z"/>
				</g>
				<g>
					<path d="M-380.5-66.5c4,24,24.6,42.3,49.4,42.3c23.9,0,44-17,48.9-39.7c0,0-6.2-9.1-48-9.9C-371.8-74.6-380.5-66.5-380.5-66.5z
						"/>
					<path class="st2" d="M-378.7-59.1l95,0.9c0.6-1.9,1.2-3.8,1.6-5.7c0,0-6.2-9.1-48-9.9c-41.7-0.8-50.4,7.3-50.4,7.3
						C-380.1-64-379.5-61.5-378.7-59.1L-378.7-59.1z"/>
					<path class="st20" d="M-304.4-31.8c-7.4-5-16.9-8.1-26.9-8.1c-10,0-19.5,3.1-26.9,8c7.4,4.9,16.9,7.6,26.9,7.6
						C-321.3-24.3-311.7-26.9-304.4-31.8z"/>
				</g>
			</g>
			<path class="st21" d="M-179.2,397.1V196.5h-39.5v200.6H-179.2z"/>
			<path class="st21" d="M-346.5,365.4l-99.1-173.7l-34.2,20l99.1,173.7L-346.5,365.4z"/>
			<path class="st22" d="M-306.8,189.3V-12.5h-39.7v201.8H-306.8z"/>
			<path class="st23" d="M-117-625.9c-3.7-8-7.9-22.9-7.9-22.9s-8.9,10.1-13.1,15.4c-18.4,18.6-51,16.5-66.8-4.8
				c-3.7-4.8-8.9-18.1-8.9-18.1s-5.8,13.3-8.9,18.1c-15.2,21.8-49.4,23.4-67.3,4.8c-4.2-4.3-12.6-15.4-12.6-15.4s-4.2,15.4-7.9,22.9
				c-11.6,22.3-42.1,29.8-62.6,16c-8.4-5.3-21.6-16-21.6-16c12.6,31.9,24.7,66.5,35.7,99c98.3-23.4,191.3-23.4,289.6,0
				c12.1-31.9,24.2-66.5,35.7-99c0,0-13.1,10.1-21.6,16C-75.4-596.6-105.9-603.6-117-625.9z"/>
			<path class="st21" d="M-223.2,191.7V75.2h-207v116.5H-223.2z"/>
			<path class="st24" d="M-377.7,75.2c-28.2,20-46.6,54.3-46.6,93.5v140.4h207V168.7c0-38.4-18.7-72-46.9-92.2
				c-4.4,20.6-18.4,38.3-38.5,45.4c-30.5,10.8-63.3-7-73.4-39.7C-376.6,79.9-377.2,77.6-377.7,75.2L-377.7,75.2z"/>
			<path class="st25" d="M-264.7,77.6c-3,19-13.6,36.3-29.6,47.4c-1.3,5.9-2,12-2,18.3c0,46,36.9,83.3,82.3,83.3
				c45.5,0,82.3-37.3,82.3-83.3S-168.5,60-214,60C-233.1,60-250.7,66.6-264.7,77.6L-264.7,77.6z"/>
			<path class="st25" d="M-347.3,125c-12.2-8.4-21.9-20.9-26.9-36.2c-1.2-3.7-2.1-7.4-2.7-11.1c-14-11.1-31.6-17.7-50.7-17.7
				c-45.5,0-82.3,37.3-82.3,83.3s36.9,83.3,82.3,83.3s82.3-37.3,82.3-83.3C-345.3,137-346,130.9-347.3,125L-347.3,125z"/>
			<path class="st24" d="M-112.7,703V488.2c0-118.7-94.9-214.7-212.1-214.7c-117.2,0-212.1,96.1-212.1,214.7V703H-112.7L-112.7,703z
				"/>
		</g>
	</g>
</g>
</svg>
