<?xml version="1.0" encoding="utf-8"?>
<!-- Generator: Adobe Illustrator 22.1.0, SVG Export Plug-In . SVG Version: 6.00 Build 0)  -->
<svg version="1.1" id="Layer_1" xmlns="http://www.w3.org/2000/svg" xmlns:xlink="http://www.w3.org/1999/xlink" x="0px" y="0px"
	 viewBox="0 0 115 140" style="enable-background:new 0 0 115 140;" xml:space="preserve">
<style type="text/css">
	.st0{fill:#145F88;}
	.st1{fill:#34A3DF;}
	.st2{fill:#FFFBFB;}
	.st3{fill:#FCFCFC;}
	.st4{fill:#272A66;}
	.st5{fill:#EE6427;}
	.st6{fill:#B44C26;}
	.st7{fill:#FEE5A6;}
	.st8{fill:#773517;}
	.st9{fill:#FFFFFF;}
	.st10{fill:#2AAAE2;}
	.st11{fill:#070707;}
	.st12{fill:none;}
	.st13{fill:#EC2227;}
	.st14{fill:#F27BAA;}
	.st15{fill:#C2082C;}
	.st16{fill:#005D8F;stroke:#005D8F;stroke-width:1.23;stroke-linecap:square;stroke-dasharray:2.4637,4.9275;stroke-dashoffset:-1;}
	.st17{fill:#EF6326;}
	.st18{fill:#BC6138;}
	.st19{fill:#29ABE2;}
	.st20{fill:#050505;}
	.st21{fill:#562912;}
	.st22{fill:#CC342F;}
	.st23{fill:#AB471B;}
</style>
<g>
	<path class="st0" d="M17.5,85l2.1,1.4c0.5-0.5,1.3-0.7,2-0.3c0.6,0.4,0.9,1.2,0.7,1.8l0,0l2.2,1.2c0.5-0.5,1.3-0.7,2-0.3
		c0.6,0.4,0.9,1.2,0.7,1.8l0,0l2.7,1.5c1.1-1.8,3.5-2.5,5.4-1.4c0.1,0,0.2,0.1,0.4,0.2l28.8-49.5c-0.1,0-0.2-0.1-0.4-0.2
		c-1.9-1.1-2.5-3.5-1.4-5.4c0,0,0-0.1,0.1-0.1L60,34.3c-0.5,0.5-1.3,0.6-1.9,0.3c-0.6-0.4-0.9-1.1-0.7-1.8l-2.1-1.2l0,0
		c-0.4,0.8-1.4,1-2.2,0.6c-0.7-0.4-1-1.4-0.6-2.2l0,0l0,0l-2.1-1.2l0,0c-0.4,0.8-1.4,1-2.2,0.6c-0.7-0.4-1-1.4-0.6-2.2l0,0l0,0
		l-2.9-1.7c0,0,0,0.1-0.1,0.1c-1.1,1.9-3.5,2.5-5.4,1.4c0,0-0.1-0.1-0.1-0.1L10.3,76.3c0.1,0,0.1,0.1,0.2,0.1
		c1.9,1.1,2.5,3.5,1.5,5.3l2.9,1.7c0.5-0.5,1.3-0.7,2-0.3C17.5,83.5,17.8,84.3,17.5,85L17.5,85z"/>
	<path class="st1" d="M39.7,79c0.5-0.9,0.2-2-0.7-2.5L21.1,66.2c-0.9-0.5-2-0.2-2.5,0.7l-5.2,8.9c-0.5,0.9-0.2,2,0.7,2.5L32,88.6
		c0.9,0.5,2,0.2,2.5-0.7L39.7,79z"/>
	<path class="st2" d="M60.8,42.3c0.5-0.9,0.2-2-0.7-2.5L42.2,29.5c-0.9-0.5-2-0.2-2.5,0.7L22.3,60.3c-0.5,0.9-0.2,2,0.7,2.5
		l17.9,10.3c0.9,0.5,2,0.2,2.5-0.7L60.8,42.3z"/>
	<path class="st3" d="M34,81.8l-1.8-1.1l-0.5,0.9l1.8,1.1L34,81.8z M30.3,81c-0.2,0.2-0.3,0.3-0.5,0.3s-0.4,0-0.6-0.1
		c-0.2-0.1-0.4-0.3-0.4-0.5c0-0.2,0-0.5,0.2-0.7c0.1-0.2,0.3-0.4,0.5-0.5c0.2-0.1,0.4-0.1,0.7,0c0.1,0.1,0.2,0.1,0.3,0.2
		c0.1,0.1,0.2,0.3,0.2,0.5l0.8,0.4l1.2-2.8l-2.6-1.5l-0.5,0.8l1.9,1.1l-0.4,1.1c-0.1-0.2-0.1-0.3-0.2-0.4c-0.1-0.1-0.2-0.2-0.4-0.4
		c-0.4-0.2-0.8-0.3-1.2-0.2c-0.4,0.1-0.8,0.4-1.1,0.9c-0.2,0.4-0.3,0.9-0.2,1.4c0.1,0.5,0.4,0.9,0.9,1.2c0.4,0.2,0.9,0.3,1.3,0.3
		c0.4-0.1,0.8-0.3,1.1-0.7L30.3,81z M25.2,78.3c0.1-0.3,0.3-0.8,0.6-1.3c0.3-0.6,0.6-1,0.8-1.2c0.2-0.2,0.5-0.3,0.8-0.1
		c0.3,0.2,0.4,0.4,0.3,0.7c0,0.3-0.3,0.8-0.6,1.3c-0.3,0.5-0.6,0.9-0.8,1.2c-0.3,0.2-0.5,0.3-0.8,0.1C25.2,78.9,25.1,78.7,25.2,78.3
		z M24.2,78.5c0,0.6,0.3,1,0.9,1.3c0.6,0.3,1.1,0.4,1.6,0.1c0.5-0.3,1-0.8,1.4-1.6c0.5-0.8,0.7-1.4,0.7-2c0-0.6-0.3-1-0.9-1.3
		s-1.1-0.4-1.6-0.1c-0.5,0.3-1,0.8-1.4,1.6C24.4,77.3,24.2,77.9,24.2,78.5z M23.8,73.9c0.2,0,0.3,0,0.5,0c0.1,0.1,0.2,0.2,0.3,0.4
		c0,0.2,0,0.3,0,0.5c-0.1,0.1-0.2,0.2-0.4,0.3c-0.2,0-0.3,0-0.5,0c-0.1-0.1-0.2-0.2-0.3-0.4c0-0.2,0-0.3,0-0.5
		C23.5,74,23.6,73.9,23.8,73.9z M24.3,75.8c0.4-0.1,0.6-0.3,0.8-0.6c0.2-0.3,0.2-0.7,0.1-1.1c-0.1-0.4-0.3-0.6-0.6-0.8
		C24.3,73,24,73,23.6,73.1s-0.6,0.3-0.8,0.6c-0.2,0.3-0.2,0.7-0.1,1.1c0.1,0.4,0.3,0.6,0.6,0.8C23.6,75.8,23.9,75.9,24.3,75.8z
		 M20,74.8c0,0.2,0,0.3,0,0.5c-0.1,0.1-0.2,0.2-0.4,0.3c-0.2,0-0.3,0-0.5,0c-0.1-0.1-0.2-0.2-0.3-0.4c0-0.2,0-0.3,0-0.5
		c0.1-0.1,0.2-0.2,0.4-0.3c0.2,0,0.3,0,0.5,0C19.9,74.6,20,74.7,20,74.8z M19.8,76.3c0.4-0.1,0.6-0.3,0.8-0.6
		c0.2-0.3,0.2-0.7,0.1-1.1c-0.1-0.4-0.3-0.6-0.6-0.8c-0.3-0.2-0.7-0.2-1.1-0.1c-0.4,0.1-0.6,0.3-0.8,0.6c-0.2,0.3-0.2,0.7-0.1,1.1
		c0.1,0.4,0.3,0.6,0.6,0.8C19.1,76.4,19.5,76.4,19.8,76.3z M22,71.7l-0.5-0.3l-0.2,6.3l0.5,0.3L22,71.7z"/>
	<g>
		<path class="st4" d="M43.9,59.5l4.3-7.7l-0.5-0.2l-4.6,8.1l0,0C43.3,59.9,43.7,59.8,43.9,59.5z"/>
		<path class="st4" d="M37.8,45.9l-4,7.1c-1.9,3.3-3.4,6-3.4,6l4.9,2.8c2.8,1.6,6.5,0.1,8.4-3.2l3.9-6.9L37.8,45.9z"/>
		<path class="st5" d="M37.5,45.7c-1.7,3-0.8,6.7,2.2,8.4c3,1.7,6.7,0.6,8.4-2.4c1.7-3,0.7-7.2-2.2-8.9l0,0l-5.1-2.9L37.5,45.7
			L37.5,45.7C37.5,45.7,37.5,45.7,37.5,45.7z"/>
		<path class="st4" d="M37.9,46.5l-0.8-0.5l-4.3,7.6c-0.1,0.3,0,0.6,0.2,0.8L37.9,46.5z"/>
		<path class="st5" d="M37.1,48.2c-0.4-0.2-0.9-0.1-1.2,0.3c-0.2,0.4-0.1,0.9,0.3,1.2c0.4,0.2,0.9,0.1,1.2-0.3
			C37.7,49,37.5,48.5,37.1,48.2z"/>
		<path class="st6" d="M36.9,48.5c-0.2-0.1-0.5,0-0.7,0.2c-0.1,0.2,0,0.5,0.2,0.7c0.2,0.1,0.5,0,0.7-0.2
			C37.3,49,37.2,48.7,36.9,48.5z"/>
		<path class="st7" d="M36.5,50c0.1,0,0.2,0,0.3-0.1c0-0.1,0-0.2-0.1-0.3c-0.1,0-0.2,0-0.3,0.1C36.3,49.8,36.3,49.9,36.5,50z"/>
		<path class="st8" d="M37.6,49.5l-0.4-0.2L37.6,49.5L37.6,49.5z"/>
		<path class="st8" d="M37.9,49.2l-0.4-0.3L37.9,49.2L37.9,49.2z"/>
		<path class="st8" d="M37.8,49.4l-0.4-0.2L37.8,49.4L37.8,49.4z"/>
		<g>
			<g>
				<path class="st9" d="M39.7,49c-0.8-0.4-1.8-0.1-2.2,0.6c-0.4,0.8-0.1,1.8,0.6,2.2c0.8,0.4,1.8,0.1,2.2-0.6
					C40.7,50.3,40.4,49.4,39.7,49z"/>
				<path class="st10" d="M39.4,49.4c-0.5-0.3-1.2-0.1-1.5,0.4c-0.3,0.5-0.1,1.2,0.4,1.5c0.5,0.3,1.2,0.1,1.5-0.4
					C40.1,50.3,39.9,49.7,39.4,49.4z"/>
				<path class="st11" d="M39.2,49.9c-0.3-0.1-0.6,0-0.8,0.2s0,0.6,0.2,0.8c0.3,0.2,0.6,0,0.8-0.2C39.6,50.4,39.5,50,39.2,49.9z"/>
			</g>
			<path class="st12" d="M41.1,49.8l-2.8-1.6l-1.6,2.8l2.8,1.6L41.1,49.8z"/>
		</g>
		<g>
			<path class="st8" d="M44.8,53.4l0.5,0.1L44.8,53.4L44.8,53.4z"/>
			<path class="st8" d="M44.9,52.9l0.5,0l-0.5-0.1V52.9z"/>
			<path class="st8" d="M44.9,53.1h0.5H44.9L44.9,53.1z"/>
			<g>
				<g>
					<path class="st9" d="M42.6,54.2c0.7,0.4,1.7,0.2,2.2-0.6s0.2-1.7-0.6-2.2c-0.7-0.4-1.7-0.2-2.2,0.6
						C41.5,52.9,41.8,53.8,42.6,54.2z"/>
					<path class="st10" d="M42.8,53.8c0.5,0.3,1.2,0.1,1.5-0.4c0.3-0.5,0.1-1.2-0.4-1.5c-0.5-0.3-1.2-0.1-1.5,0.4
						C42.1,52.9,42.3,53.5,42.8,53.8z"/>
					<path class="st11" d="M43,53.4c0.3,0.2,0.6,0.1,0.8-0.2c0.2-0.3,0.1-0.6-0.2-0.8c-0.3-0.2-0.6-0.1-0.8,0.2
						C42.7,52.9,42.7,53.2,43,53.4z"/>
				</g>
				<path class="st12" d="M45.5,52.3l-2.8-1.6l-1.6,2.8l2.8,1.6L45.5,52.3z"/>
			</g>
		</g>
		<path class="st4" d="M40.6,39.9l-3.2,5.6l0,0l0,0c-0.4,0.6-1,1.8-1.3,2.4l4.7,2.4l0.2-0.1l0.2-0.2l0,0.3l0,0.2l0,0l0.2-0.1
			l0.2-0.2l0,0.3l0,0.2l0.5-0.3l0.5-0.4l0.1,1.2l4.2,2.1c0.5-0.5,0.9-1,1.3-1.6c1.8-3.1,0.7-7.5-2.3-9.2l0,0l-4.9-2.8
			C41,39.6,40.8,39.6,40.6,39.9z"/>
		<path class="st5" d="M46.8,53c-0.4-0.2-0.9-0.1-1.2,0.3c-0.2,0.4-0.1,0.9,0.3,1.2c0.4,0.2,0.9,0.1,1.2-0.3
			C47.4,53.7,47.3,53.2,46.8,53z"/>
		<path class="st6" d="M46.7,53.3c-0.2-0.1-0.5,0-0.7,0.2c-0.1,0.2,0,0.5,0.2,0.7c0.2,0.1,0.5,0,0.7-0.2
			C47,53.7,46.9,53.4,46.7,53.3z"/>
		<path class="st7" d="M45.6,54.5c0.1,0,0.2,0,0.3-0.1c0-0.1,0-0.2-0.1-0.3c-0.1,0-0.2,0-0.3,0.1S45.5,54.4,45.6,54.5z"/>
		<g>
			<path class="st13" d="M48,49.8c-0.1,0.2,0,0.4,0.1,0.6c0.1,0,0.1,0,0.2,0c0,0.2,0,0.3,0.2,0.4c0.2,0.1,0.4,0,0.6-0.1l0,0
				c0,0,0,0,0.1,0c0.2,0.1,0.4,0,0.6-0.1c0.1-0.2,0-0.4-0.1-0.5c0.1,0,0.1-0.1,0.2-0.2c0.1-0.2,0-0.4-0.1-0.6c-0.1-0.1-0.3,0-0.5,0
				c0-0.1-0.1-0.2-0.2-0.3c-0.2-0.1-0.4,0-0.6,0.1c0,0.1-0.1,0.2,0,0.3C48.2,49.6,48.1,49.7,48,49.8z M49,50.1c-0.1,0-0.1,0-0.2,0
				c0,0,0-0.1,0-0.2c0.1,0,0.2,0,0.3-0.1c0,0.1,0.1,0.2,0.1,0.2C49.1,50.1,49.1,50.1,49,50.1L49,50.1C49,50.2,49,50.2,49,50.1z"/>
			<path class="st14" d="M48.8,50.3c0.1,0.1,0.3,0,0.4-0.1c0.1-0.1,0-0.3-0.1-0.4c-0.1-0.1-0.3,0-0.4,0.1
				C48.6,50,48.6,50.2,48.8,50.3z"/>
		</g>
		<g>
			<path d="M40.7,52.4c-0.9-0.5-1.1-0.4-1.1-0.4c-0.2,0.5,0,1.1,0.5,1.4c0.5,0.3,1.2,0.2,1.5-0.3C41.6,53.2,41.5,52.9,40.7,52.4z"/>
			<path class="st9" d="M41.5,53.3c0,0,0.1-0.1,0.1-0.1c0,0-0.1-0.3-0.9-0.7c-0.9-0.5-1.1-0.4-1.1-0.4c0,0,0,0.1,0,0.1L41.5,53.3
				L41.5,53.3z"/>
			<path class="st15" d="M40.1,53.4c0.2,0.1,0.4,0.2,0.6,0.2c-0.1-0.2-0.3-0.4-0.5-0.5c-0.2-0.1-0.4-0.2-0.6-0.1
				C39.7,53.1,39.9,53.3,40.1,53.4z"/>
		</g>
	</g>
</g>
<g>
	<path class="st0" d="M9.4,18.7l0.8,0.6c0.2-0.2,0.5-0.3,0.8-0.1c0.3,0.1,0.4,0.5,0.3,0.7l0,0l0.9,0.5c0.2-0.2,0.5-0.3,0.8-0.1
		c0.3,0.1,0.4,0.5,0.3,0.7l0,0l1.1,0.6c0.4-0.7,1.4-1,2.1-0.6c0,0,0.1,0.1,0.1,0.1L27.8,1.7c0,0-0.1,0-0.1-0.1
		c-0.7-0.4-1-1.4-0.6-2.1c0,0,0,0,0,0L26-1.2c-0.2,0.2-0.5,0.2-0.8,0.1C25-1.2,24.9-1.5,25-1.8l-0.8-0.5l0,0
		c-0.2,0.3-0.6,0.4-0.9,0.2C23-2.2,22.9-2.6,23-2.9l0,0l0,0l-0.8-0.5l0,0C22-3,21.6-3,21.4-3.1C21-3.3,20.9-3.7,21.1-4l0,0l0,0
		L20-4.6c0,0,0,0,0,0c-0.4,0.7-1.4,1-2.1,0.6c0,0,0,0,0,0L6.6,15.3c0,0,0,0,0.1,0c0.7,0.4,1,1.3,0.6,2.1l1.1,0.6
		c0.2-0.2,0.5-0.3,0.8-0.1C9.4,18.1,9.5,18.4,9.4,18.7L9.4,18.7z"/>
	<path class="st1" d="M18.1,16.3c0.2-0.4,0.1-0.8-0.3-1l-7-4c-0.4-0.2-0.8-0.1-1,0.3l-2,3.5c-0.2,0.4-0.1,0.8,0.3,1l7,4.1
		c0.3,0.2,0.8,0.1,1-0.3L18.1,16.3z"/>
	<path class="st16" d="M9.6,10l9.9,5.7L9.6,10z"/>
	<path class="st2" d="M26.4,1.9c0.2-0.4,0.1-0.8-0.3-1l-7-4c-0.4-0.2-0.8-0.1-1,0.3L11.3,9c-0.2,0.4-0.1,0.8,0.3,1l7,4.1
		c0.3,0.2,0.8,0.1,1-0.3L26.4,1.9z"/>
	<path class="st3" d="M15.8,17.4L15.1,17l-0.2,0.3l0.7,0.4L15.8,17.4z M14.4,17.1c-0.1,0.1-0.1,0.1-0.2,0.1c-0.1,0-0.1,0-0.2,0
		c-0.1,0-0.1-0.1-0.1-0.2c0-0.1,0-0.2,0.1-0.3c0-0.1,0.1-0.1,0.2-0.2c0.1,0,0.2,0,0.3,0c0,0,0.1,0,0.1,0.1c0,0,0.1,0.1,0.1,0.2
		l0.3,0.2l0.5-1.1l-1-0.6l-0.2,0.3l0.7,0.4l-0.2,0.4c0-0.1-0.1-0.1-0.1-0.1c0,0-0.1-0.1-0.2-0.1c-0.1-0.1-0.3-0.1-0.5-0.1
		s-0.3,0.1-0.4,0.3c-0.1,0.2-0.1,0.4-0.1,0.6c0,0.2,0.1,0.4,0.4,0.5c0.2,0.1,0.3,0.1,0.5,0.1c0.2,0,0.3-0.1,0.4-0.3L14.4,17.1z
		 M12.5,16c0-0.1,0.1-0.3,0.2-0.5c0.1-0.2,0.2-0.4,0.3-0.5c0.1-0.1,0.2-0.1,0.3,0c0.1,0.1,0.1,0.2,0.1,0.3c0,0.1-0.1,0.3-0.2,0.5
		c-0.1,0.2-0.2,0.4-0.3,0.5c-0.1,0.1-0.2,0.1-0.3,0C12.4,16.3,12.4,16.2,12.5,16z M12,16.1c0,0.2,0.1,0.4,0.3,0.5
		c0.2,0.1,0.4,0.2,0.6,0c0.2-0.1,0.4-0.3,0.6-0.6c0.2-0.3,0.3-0.6,0.3-0.8c0-0.2-0.1-0.4-0.3-0.5c-0.2-0.1-0.4-0.2-0.6,0
		c-0.2,0.1-0.4,0.3-0.6,0.6C12.1,15.7,12,15.9,12,16.1z M11.9,14.3c0,0,0.1,0,0.2,0c0,0,0.1,0.1,0.1,0.1c0,0,0,0.1,0,0.2
		c0,0-0.1,0.1-0.1,0.1c0,0-0.1,0-0.2,0c0,0-0.1-0.1-0.1-0.1c0,0,0-0.1,0-0.2C11.8,14.4,11.8,14.4,11.9,14.3z M12.1,15.1
		c0.1,0,0.3-0.1,0.3-0.2c0.1-0.1,0.1-0.3,0-0.4c0-0.1-0.1-0.3-0.2-0.3C12.1,14,12,14,11.8,14c-0.1,0-0.3,0.1-0.3,0.2
		c-0.1,0.1-0.1,0.3,0,0.4c0,0.1,0.1,0.3,0.2,0.3C11.8,15.1,11.9,15.1,12.1,15.1z M10.4,14.7c0,0,0,0.1,0,0.2s-0.1,0.1-0.1,0.1
		s-0.1,0-0.2,0c0,0-0.1-0.1-0.1-0.1c0,0,0-0.1,0-0.2s0.1-0.1,0.1-0.1c0,0,0.1,0,0.2,0C10.3,14.6,10.4,14.6,10.4,14.7z M10.3,15.3
		c0.1,0,0.3-0.1,0.3-0.2c0.1-0.1,0.1-0.3,0-0.4c0-0.1-0.1-0.3-0.2-0.3c-0.1-0.1-0.3-0.1-0.4,0c-0.1,0-0.3,0.1-0.3,0.2
		c-0.1,0.1-0.1,0.3,0,0.4c0,0.1,0.1,0.3,0.2,0.3C10,15.3,10.2,15.3,10.3,15.3z M11.2,13.5L11,13.4l-0.1,2.4l0.2,0.1L11.2,13.5z"/>
	<g>
		<path class="st4" d="M19.7,8.7l1.7-3l-0.2-0.1l-1.8,3.2l0,0C19.5,8.8,19.7,8.8,19.7,8.7z"/>
		<path class="st4" d="M17.4,3.4l-1.6,2.8c-0.7,1.3-1.3,2.4-1.3,2.4l1.9,1.1c1.1,0.6,2.5,0,3.3-1.3l1.5-2.7L17.4,3.4z"/>
		<path class="st5" d="M17.2,3.3c-0.7,1.2-0.3,2.6,0.9,3.3c1.2,0.6,2.6,0.2,3.3-0.9c0.7-1.2,0.3-2.9-0.9-3.5l0,0l-2-1.1L17.2,3.3
			L17.2,3.3L17.2,3.3z"/>
		<path class="st4" d="M17.4,3.6l-0.3-0.2l-1.7,3c-0.1,0.1,0,0.2,0.1,0.3L17.4,3.6z"/>
		<path class="st5" d="M17.1,4.3c-0.2-0.1-0.4,0-0.5,0.1s0,0.4,0.1,0.5c0.2,0.1,0.4,0,0.5-0.1C17.3,4.6,17.3,4.4,17.1,4.3z"/>
		<path class="st6" d="M17,4.4c-0.1,0-0.2,0-0.3,0.1c0,0.1,0,0.2,0.1,0.3s0.2,0,0.3-0.1C17.2,4.6,17.1,4.5,17,4.4z"/>
		<path class="st7" d="M16.8,5c0,0,0.1,0,0.1,0c0,0,0-0.1,0-0.1c0,0-0.1,0-0.1,0C16.8,4.9,16.8,4.9,16.8,5z"/>
		<path class="st8" d="M17.3,4.8l-0.2-0.1L17.3,4.8L17.3,4.8z"/>
		<path class="st8" d="M17.4,4.6l-0.1-0.1L17.4,4.6L17.4,4.6z"/>
		<path class="st8" d="M17.4,4.7l-0.1-0.1L17.4,4.7L17.4,4.7z"/>
		<g>
			<g>
				<path class="st9" d="M18.1,4.6c-0.3-0.1-0.7,0-0.8,0.3c-0.1,0.3,0,0.7,0.3,0.8c0.3,0.1,0.7,0,0.8-0.3
					C18.5,5.1,18.4,4.7,18.1,4.6z"/>
				<path class="st10" d="M18,4.7c-0.2-0.1-0.5,0-0.6,0.2c-0.1,0.2,0,0.5,0.2,0.6s0.5,0,0.6-0.2C18.3,5.1,18.2,4.8,18,4.7z"/>
				<path class="st11" d="M17.9,4.9c-0.1,0-0.2,0-0.3,0.1c0,0.1,0,0.2,0.1,0.3c0.1,0.1,0.2,0,0.3-0.1C18,5.1,18,5,17.9,4.9z"/>
			</g>
			<path class="st12" d="M18.7,4.9l-1.1-0.6l-0.6,1.1L18,6L18.7,4.9z"/>
		</g>
		<g>
			<path class="st8" d="M20.1,6.3l0.2,0L20.1,6.3L20.1,6.3z"/>
			<path class="st8" d="M20.2,6.1l0.2,0L20.2,6.1L20.2,6.1z"/>
			<path class="st8" d="M20.1,6.2h0.2H20.1L20.1,6.2z"/>
			<g>
				<g>
					<path class="st9" d="M19.2,6.6c0.3,0.2,0.7,0.1,0.8-0.2c0.2-0.3,0.1-0.7-0.2-0.8c-0.3-0.2-0.7,0-0.8,0.2
						C18.8,6.1,18.9,6.5,19.2,6.6z"/>
					<path class="st10" d="M19.3,6.5c0.2,0.1,0.5,0,0.6-0.2c0.1-0.2,0-0.5-0.2-0.6c-0.2-0.1-0.5,0-0.6,0.2
						C19.1,6.1,19.1,6.4,19.3,6.5z"/>
					<path class="st11" d="M19.4,6.3c0.1,0,0.2,0,0.3-0.1c0-0.1,0-0.2-0.1-0.3c-0.1,0-0.2,0-0.3,0.1C19.3,6.1,19.3,6.2,19.4,6.3z"/>
				</g>
				<path class="st12" d="M20.4,5.8l-1.1-0.6l-0.6,1.1l1.1,0.6L20.4,5.8z"/>
			</g>
		</g>
		<path class="st4" d="M18.5,1l-1.2,2.2l0,0l0,0c-0.1,0.2-0.4,0.7-0.5,0.9l1.8,0.9l0.1,0l0.1-0.1v0.1v0.1l0,0l0.1,0L18.9,5v0.1v0.1
			l0.2-0.1L19.3,5l0,0.5L21,6.3c0.2-0.2,0.4-0.4,0.5-0.6c0.7-1.2,0.3-2.9-0.9-3.6l0,0l-1.9-1.1C18.6,0.9,18.5,0.9,18.5,1z"/>
		<path class="st5" d="M20.9,6.1c-0.2-0.1-0.4,0-0.5,0.1c-0.1,0.2,0,0.4,0.1,0.5c0.2,0.1,0.4,0,0.5-0.1C21.1,6.4,21.1,6.2,20.9,6.1z
			"/>
		<path class="st6" d="M20.8,6.3c-0.1,0-0.2,0-0.3,0.1c0,0.1,0,0.2,0.1,0.3s0.2,0,0.3-0.1C21,6.4,20.9,6.3,20.8,6.3z"/>
		<path class="st7" d="M20.4,6.7c0,0,0.1,0,0.1,0c0,0,0-0.1,0-0.1c0,0-0.1,0-0.1,0S20.4,6.7,20.4,6.7z"/>
		<g>
			<path class="st13" d="M21.4,4.9c0,0.1,0,0.2,0.1,0.2c0,0,0,0,0.1,0c0,0.1,0,0.1,0.1,0.2c0.1,0,0.2,0,0.2-0.1l0,0l0,0
				c0.1,0,0.2,0,0.2-0.1c0,0,0-0.1,0-0.2c0,0,0,0,0.1-0.1c0-0.1,0-0.2-0.1-0.2c-0.1,0-0.1,0-0.2,0c0,0,0-0.1-0.1-0.1
				c-0.1,0-0.2,0-0.2,0.1c0,0,0,0.1,0,0.1C21.5,4.8,21.4,4.8,21.4,4.9z M21.7,5C21.7,5,21.7,5,21.7,5C21.7,5,21.7,5,21.7,5
				c0-0.1,0-0.1,0-0.1C21.8,4.9,21.8,5,21.7,5C21.8,5,21.8,5,21.7,5L21.7,5C21.7,5.1,21.7,5,21.7,5z"/>
			<path class="st14" d="M21.7,5.1c0.1,0,0.1,0,0.2,0c0-0.1,0-0.1,0-0.2c-0.1,0-0.1,0-0.2,0C21.6,5,21.6,5.1,21.7,5.1z"/>
		</g>
		<g>
			<path d="M18.5,5.9C18.1,5.7,18,5.8,18,5.8c0,0.2,0,0.4,0.2,0.5s0.4,0.1,0.6-0.1C18.8,6.2,18.8,6.1,18.5,5.9z"/>
			<path class="st9" d="M18.8,6.3C18.8,6.2,18.8,6.2,18.8,6.3c0,0,0-0.1-0.3-0.3C18.1,5.7,18,5.8,18,5.8c0,0,0,0,0,0L18.8,6.3
				L18.8,6.3z"/>
			<path class="st15" d="M18.3,6.3c0.1,0,0.2,0.1,0.2,0.1c0-0.1-0.1-0.1-0.2-0.2c-0.1,0-0.2-0.1-0.3-0.1C18.1,6.2,18.2,6.3,18.3,6.3
				z"/>
		</g>
	</g>
</g>
<g>
	<path class="st0" d="M87.2,48.3l1.3-0.7c-0.1-0.4,0-0.8,0.4-1c0.4-0.2,0.8-0.1,1.1,0.2l0,0l1.2-0.7c-0.1-0.4,0-0.8,0.4-1
		c0.4-0.2,0.8-0.1,1.1,0.2l0,0l1.5-0.9c-0.6-1.1-0.2-2.4,0.8-3c0.1,0,0.1-0.1,0.2-0.1L79.4,13.7c0,0-0.1,0.1-0.2,0.1
		c-1.1,0.6-2.4,0.2-3-0.8c0,0,0,0,0-0.1l-1.5,0.9c0.1,0.4,0,0.8-0.4,1c-0.4,0.2-0.8,0.1-1.1-0.1L72,15.3l0,0c0.2,0.4,0.1,1-0.3,1.2
		c-0.4,0.2-1,0.1-1.2-0.3l0,0l0,0l-1.2,0.7l0,0c0.2,0.4,0.1,1-0.3,1.2c-0.4,0.2-1,0.1-1.2-0.3l0,0l0,0l-1.6,0.9c0,0,0,0,0,0.1
		c0.6,1.1,0.2,2.4-0.8,3c0,0-0.1,0-0.1,0L81,49.4c0,0,0.1,0,0.1,0c1-0.6,2.4-0.3,3,0.8l1.6-0.9c-0.1-0.4,0-0.8,0.4-1
		C86.5,47.9,86.9,48,87.2,48.3L87.2,48.3z"/>
	<path class="st1" d="M90.5,36c-0.3-0.5-0.9-0.7-1.4-0.4l-9.9,5.7c-0.5,0.3-0.7,0.9-0.4,1.4l2.9,5c0.3,0.5,0.9,0.7,1.4,0.4l9.9-5.7
		c0.5-0.3,0.6-0.9,0.4-1.4L90.5,36z"/>
	<path class="st2" d="M78.7,15.6c-0.3-0.5-0.9-0.7-1.4-0.4L67.4,21c-0.5,0.3-0.7,0.9-0.4,1.4l9.7,16.8c0.3,0.5,0.9,0.7,1.4,0.4
		l9.9-5.7c0.5-0.3,0.6-0.9,0.4-1.4L78.7,15.6z"/>
	<g>
		<path class="st17" d="M74,29.7c1.2,2.1,3.8,2.9,5.9,1.7c2.1-1.2,2.8-3.9,1.6-6c-1.2-2.1-4.2-3-6.2-1.8l0,0l-3.6,2.1L74,29.7
			L74,29.7L74,29.7z"/>
		<path class="st17" d="M75.2,31.7c0.2,0.3,0.5,0.4,0.8,0.2c0.3-0.2,0.4-0.5,0.2-0.8c-0.2-0.3-0.5-0.4-0.8-0.2
			C75.1,31,75.1,31.4,75.2,31.7z M75.4,31.5c-0.1-0.2,0-0.4,0.1-0.5s0.4,0,0.5,0.1s0,0.4-0.1,0.5C75.7,31.7,75.5,31.7,75.4,31.5z"/>
		<path class="st17" d="M75.9,31.7c0.2-0.1,0.2-0.3,0.1-0.5s-0.3-0.2-0.5-0.1s-0.2,0.3-0.1,0.5C75.5,31.7,75.7,31.7,75.9,31.7z"/>
		<path class="st17" d="M81.6,27.9c0.2,0.3,0.5,0.4,0.8,0.2c0.3-0.2,0.4-0.5,0.2-0.8c-0.2-0.3-0.5-0.4-0.8-0.2
			C81.6,27.3,81.5,27.6,81.6,27.9z"/>
		<path class="st18" d="M82.3,27.9c0.2-0.1,0.2-0.3,0.1-0.5s-0.3-0.2-0.5-0.1c-0.2,0.1-0.2,0.3-0.1,0.5S82.2,28,82.3,27.9z"/>
		<g>
			<path class="st9" d="M76.4,31.1c0.3,0.5,1,0.7,1.5,0.4c0.5-0.3,0.7-1,0.4-1.5c-0.3-0.5-1-0.7-1.5-0.4
				C76.3,29.9,76.1,30.5,76.4,31.1z M76.7,30.9c-0.2-0.4-0.1-0.8,0.3-1.1c0.4-0.2,0.8-0.1,1.1,0.3c0.2,0.4,0.1,0.8-0.3,1.1
				C77.4,31.4,76.9,31.2,76.7,30.9z"/>
			<path class="st19" d="M76.7,30.9c0.2,0.4,0.7,0.5,1.1,0.3s0.5-0.7,0.3-1.1c-0.2-0.4-0.7-0.5-1.1-0.3
				C76.6,30.1,76.5,30.5,76.7,30.9z M77.2,30.1c0.2-0.1,0.5,0,0.6,0.1c0.1,0.2,0.1,0.4-0.1,0.6c-0.2,0.1-0.5,0-0.6-0.1
				C76.9,30.5,77,30.3,77.2,30.1z"/>
			<path class="st20" d="M77,30.7c0.1,0.2,0.4,0.3,0.6,0.1c0.2-0.1,0.3-0.4,0.1-0.6c-0.1-0.2-0.4-0.3-0.6-0.1S76.9,30.5,77,30.7z"/>
		</g>
		<g>
			<path class="st9" d="M79.5,29.3c0.3,0.5,1,0.7,1.5,0.4c0.5-0.3,0.7-1,0.4-1.5c-0.3-0.5-1-0.7-1.5-0.4
				C79.4,28.1,79.2,28.7,79.5,29.3z M79.8,29.1c-0.2-0.4-0.1-0.8,0.3-1c0.4-0.2,0.8-0.1,1,0.3c0.2,0.4,0.1,0.8-0.3,1
				C80.5,29.6,80,29.4,79.8,29.1z"/>
			<path class="st19" d="M79.8,29.1c0.2,0.4,0.7,0.5,1,0.3c0.4-0.2,0.5-0.7,0.3-1c-0.2-0.4-0.7-0.5-1-0.3
				C79.7,28.2,79.6,28.7,79.8,29.1z M80.1,28.9c-0.1-0.2,0-0.5,0.1-0.6c0.2-0.1,0.5,0,0.6,0.1c0.1,0.2,0,0.5-0.1,0.6
				C80.4,29.2,80.2,29.1,80.1,28.9z"/>
			<path class="st20" d="M80.7,29.1c0.2-0.1,0.3-0.4,0.1-0.6c-0.1-0.2-0.4-0.3-0.6-0.1c-0.2,0.1-0.3,0.4-0.1,0.6
				C80.2,29.1,80.5,29.2,80.7,29.1z"/>
		</g>
		<g>
			<path class="st21" d="M78.6,30.7c0,0,0,0.1,0,0.1c0.2,0.2,0.7,0.3,1,0c0.4-0.2,0.5-0.6,0.5-0.9c0,0-0.1-0.1-0.1-0.1
				C79.5,30,79,30.4,78.6,30.7z"/>
			<path class="st22" d="M79.6,30.7c-0.1,0.1-0.3,0.2-0.3,0.3c0.1,0,0.3,0,0.4-0.1c0.1-0.1,0.3-0.2,0.3-0.3
				C79.8,30.6,79.7,30.6,79.6,30.7z"/>
			<path class="st9" d="M78.6,30.9l1.5-0.9c0,0-0.1,0-0.1,0c-0.5,0.1-1.1,0.4-1.4,0.8C78.6,30.8,78.6,30.8,78.6,30.9z"/>
		</g>
		<path class="st23" d="M75.9,31.7c0.2-0.1,0.2-0.3,0.1-0.5s-0.3-0.2-0.5-0.1s-0.2,0.3-0.1,0.5C75.5,31.7,75.7,31.7,75.9,31.7z"/>
	</g>
	<path class="st3" d="M90.2,39.5l-1,0.6l0.3,0.5l1-0.6L90.2,39.5z M88.9,41.1c0,0.1,0,0.2,0,0.3c0,0.1-0.1,0.2-0.2,0.2
		c-0.1,0.1-0.2,0.1-0.4,0c-0.1-0.1-0.2-0.1-0.3-0.3C88,41.3,88,41.1,88,41c0-0.1,0.1-0.2,0.2-0.3c0,0,0.1-0.1,0.2-0.1
		c0.1,0,0.2,0,0.3,0l0.4-0.3l-1-1.3l-1.4,0.8l0.2,0.4l1.1-0.6l0.4,0.5c-0.1,0-0.2,0-0.2,0c-0.1,0-0.2,0-0.3,0.1
		c-0.2,0.1-0.4,0.3-0.4,0.5c-0.1,0.2,0,0.5,0.1,0.8c0.1,0.2,0.3,0.4,0.6,0.5c0.2,0.1,0.5,0,0.8-0.1c0.2-0.1,0.4-0.3,0.5-0.6
		c0.1-0.2,0-0.5-0.1-0.7L88.9,41.1z M86.2,42.8c-0.1-0.1-0.3-0.4-0.5-0.6c-0.2-0.3-0.3-0.6-0.3-0.7c0-0.2,0-0.3,0.2-0.4
		c0.1-0.1,0.3-0.1,0.4,0s0.3,0.3,0.5,0.6c0.2,0.3,0.3,0.5,0.3,0.7c0,0.2,0,0.3-0.2,0.4C86.5,42.9,86.3,42.9,86.2,42.8z M85.9,43.3
		c0.3,0.2,0.6,0.1,0.9,0s0.5-0.4,0.5-0.7s-0.1-0.7-0.4-1.1c-0.2-0.4-0.5-0.7-0.8-0.9c-0.3-0.2-0.6-0.1-0.9,0
		c-0.3,0.2-0.5,0.4-0.5,0.7c0,0.3,0.1,0.7,0.4,1.1C85.4,42.8,85.7,43.1,85.9,43.3z M83.6,42.2c0-0.1,0.1-0.1,0.1-0.2
		c0.1,0,0.1,0,0.2,0c0.1,0,0.1,0.1,0.2,0.1s0,0.1,0,0.2c0,0.1-0.1,0.1-0.1,0.2c-0.1,0-0.1,0-0.2,0c-0.1,0-0.1-0.1-0.2-0.1
		S83.6,42.3,83.6,42.2z M84.7,42.5c0-0.2,0-0.4-0.1-0.6c-0.1-0.2-0.2-0.3-0.5-0.4c-0.2,0-0.4,0-0.6,0.1c-0.2,0.1-0.3,0.2-0.4,0.5
		c0,0.2,0,0.4,0.1,0.6s0.3,0.3,0.5,0.4s0.4,0,0.6-0.1C84.5,42.8,84.6,42.7,84.7,42.5z M83,44.3c0.1,0,0.1,0.1,0.2,0.1s0,0.1,0,0.2
		c0,0.1-0.1,0.1-0.1,0.2c-0.1,0-0.1,0-0.2,0c-0.1,0-0.1-0.1-0.2-0.1s0-0.1,0-0.2c0-0.1,0.1-0.1,0.1-0.2C82.9,44.2,82.9,44.2,83,44.3
		z M83.7,44.8c0-0.2,0-0.4-0.1-0.6s-0.3-0.3-0.5-0.4s-0.4,0-0.6,0.1c-0.2,0.1-0.3,0.2-0.4,0.5c0,0.2,0,0.4,0.1,0.6
		c0.1,0.2,0.2,0.3,0.5,0.4c0.2,0,0.4,0,0.6-0.1C83.5,45.1,83.6,45,83.7,44.8z M82.1,42.4l-0.3,0.2l3,1.8l0.3-0.2L82.1,42.4z"/>
</g>
<g>
	<path class="st0" d="M114,174.9l2.4-2.4c-0.5-0.8-0.4-1.9,0.3-2.6c0.7-0.7,1.8-0.8,2.6-0.3l0,0l2.4-2.4c-0.5-0.8-0.4-1.9,0.3-2.6
		c0.7-0.7,1.8-0.8,2.6-0.3l0,0l2.9-2.9c-2-2.1-2-5.3,0.1-7.4c0.1-0.1,0.3-0.3,0.4-0.4L74.3,99.6c-0.1,0.1-0.2,0.3-0.4,0.4
		c-2.1,2.1-5.4,2.1-7.5,0c0,0-0.1-0.1-0.1-0.1l-2.9,2.9c0.5,0.8,0.4,1.9-0.3,2.6c-0.7,0.7-1.8,0.8-2.6,0.3l-2.3,2.3l0,0
		c0.8,0.8,0.8,2.2,0,3c-0.8,0.8-2.2,0.8-3,0l0,0l0,0l-2.3,2.3l0,0c0.8,0.8,0.8,2.2,0,3c-0.8,0.8-2.2,0.8-3,0l0,0l0,0l-3.1,3.1
		c0,0,0.1,0.1,0.1,0.1c2.1,2.1,2.1,5.4,0,7.5c0,0-0.1,0.1-0.2,0.2l53.7,54.1c0,0,0.1-0.1,0.2-0.2c2-2,5.3-2.1,7.4-0.1l3.1-3.1
		c-0.5-0.8-0.4-1.9,0.3-2.6C112.1,174.5,113.2,174.4,114,174.9L114,174.9z"/>
	<path class="st1" d="M114,144.4c-1-1-2.5-1-3.5,0l-19.4,19.4c-1,1-1,2.5,0,3.5l9.7,9.7c1,1,2.5,1,3.5,0l19.5-19.5
		c0.9-1,0.9-2.5,0-3.5L114,144.4z"/>
	<path class="st2" d="M74,104.6c-1-1-2.5-1-3.5,0L51.1,124c-1,1-1,2.5,0,3.5L84,160.3c1,1,2.5,1,3.5,0l19.5-19.5
		c0.9-1,0.9-2.5,0-3.5L74,104.6z"/>
	<g>
		<path class="st17" d="M71.9,140.1c4.1,4.1,10.6,4.3,14.7,0.2c4.1-4.1,4.1-10.6-0.1-14.8c-4.1-4.1-11.5-4.5-15.6-0.4l0,0l-7,7
			L71.9,140.1L71.9,140.1C71.9,140.1,71.9,140.1,71.9,140.1z"/>
		<path class="st17" d="M75.9,143.8c0.6,0.6,1.5,0.6,2,0c0.6-0.6,0.6-1.5,0-2c-0.6-0.6-1.5-0.6-2,0S75.3,143.3,75.9,143.8z
			 M76.3,143.4c-0.3-0.3-0.3-0.9,0-1.2c0.3-0.3,0.9-0.3,1.2,0c0.3,0.3,0.3,0.9,0,1.2C77.2,143.7,76.6,143.7,76.3,143.4z"/>
		<path class="st17" d="M77.5,143.4c0.3-0.3,0.3-0.9,0-1.2c-0.3-0.3-0.9-0.3-1.2,0c-0.3,0.3-0.3,0.9,0,1.2
			C76.6,143.7,77.2,143.7,77.5,143.4z"/>
		<path class="st17" d="M88.5,131.2c0.6,0.6,1.5,0.6,2,0c0.6-0.6,0.6-1.5,0-2c-0.6-0.6-1.5-0.6-2,0
			C87.9,129.7,87.9,130.7,88.5,131.2z"/>
		<path class="st18" d="M90.1,130.8c0.3-0.3,0.3-0.9,0-1.2c-0.3-0.3-0.9-0.3-1.2,0c-0.3,0.3-0.3,0.9,0,1.2
			C89.2,131.1,89.8,131.1,90.1,130.8z"/>
		<g>
			<path class="st9" d="M78.3,141.8c1.1,1,2.8,1,3.8-0.1c1-1.1,1-2.8-0.1-3.8c-1.1-1-2.8-1-3.8,0.1C77.2,139,77.2,140.7,78.3,141.8z
				 M78.9,141.2c-0.7-0.7-0.8-1.9-0.1-2.6c0.7-0.7,1.9-0.7,2.6,0c0.7,0.7,0.8,1.9,0.1,2.6C80.8,141.8,79.6,141.9,78.9,141.2z"/>
			<path class="st19" d="M78.9,141.2c0.7,0.7,1.9,0.7,2.6,0c0.7-0.7,0.6-1.9-0.1-2.6c-0.7-0.7-1.9-0.7-2.6,0
				C78.1,139.3,78.2,140.5,78.9,141.2z M79.4,139.1c0.4-0.4,1-0.4,1.4,0s0.5,1,0,1.4c-0.4,0.4-1,0.4-1.4,0
				C79.1,140.2,79.1,139.5,79.4,139.1z"/>
			<path class="st20" d="M79.5,140.6c0.4,0.4,1,0.4,1.4,0c0.4-0.5,0.4-1,0-1.4c-0.4-0.4-1-0.4-1.4,0
				C79.1,139.5,79.1,140.2,79.5,140.6z"/>
		</g>
		<g>
			<path class="st9" d="M84.3,135.7c1.1,1.1,2.8,1.1,3.8,0c1.1-1.1,1.1-2.8,0-3.8c-1.1-1.1-2.8-1.1-3.8,0
				C83.3,132.9,83.3,134.6,84.3,135.7z M84.9,135c-0.7-0.7-0.7-1.9,0-2.6c0.7-0.7,1.9-0.7,2.6,0s0.7,1.9,0,2.6
				C86.8,135.7,85.7,135.8,84.9,135z"/>
			<path class="st19" d="M85,135c0.7,0.7,1.9,0.7,2.6,0c0.7-0.7,0.7-1.9,0-2.6c-0.7-0.7-1.9-0.7-2.6,0C84.2,133.2,84.2,134.3,85,135
				z M85.5,134.5c-0.4-0.4-0.4-1,0-1.4c0.4-0.4,1-0.4,1.4,0c0.4,0.4,0.4,1,0,1.4C86.5,134.9,85.9,134.9,85.5,134.5z"/>
			<path class="st20" d="M86.9,134.4c0.4-0.4,0.4-1,0-1.4c-0.4-0.4-1-0.4-1.4,0c-0.4,0.4-0.4,1,0,1.4
				C85.9,134.9,86.5,134.9,86.9,134.4z"/>
		</g>
		<g>
			<path class="st21" d="M83.3,139.6c-0.1,0.1,0,0.3,0.1,0.3c0.7,0.3,1.7,0.1,2.4-0.6c0.7-0.7,0.9-1.7,0.6-2.4
				c0-0.1-0.2-0.1-0.3-0.1C84.9,137.4,83.8,138.5,83.3,139.6z"/>
			<path class="st22" d="M85.4,139c-0.3,0.3-0.5,0.6-0.5,1c0.3-0.1,0.6-0.3,0.9-0.6c0.3-0.3,0.5-0.6,0.6-0.9
				C86,138.5,85.6,138.7,85.4,139z"/>
			<path class="st9" d="M83.3,139.9l3-3c-0.1-0.1-0.2-0.1-0.3-0.1c-1.1,0.6-2.2,1.6-2.8,2.8C83.2,139.7,83.2,139.9,83.3,139.9z"/>
		</g>
		<path class="st23" d="M77.5,143.4c0.3-0.3,0.3-0.9,0-1.2c-0.3-0.3-0.9-0.3-1.2,0c-0.3,0.3-0.3,0.9,0,1.2
			C76.6,143.7,77.2,143.7,77.5,143.4z"/>
	</g>
	<path class="st3" d="M115.6,152.7l-2,2l0.9,0.9l2-2L115.6,152.7z M113.3,157.2c0.2,0.2,0.3,0.5,0.3,0.7c0,0.2-0.1,0.5-0.3,0.7
		c-0.2,0.3-0.5,0.4-0.8,0.3c-0.3,0-0.6-0.2-0.8-0.5s-0.4-0.6-0.5-0.8c-0.1-0.3,0-0.6,0.3-0.8c0.1-0.1,0.2-0.2,0.4-0.3
		c0.2-0.1,0.4-0.1,0.7,0l0.9-0.9l-3.1-2.4l-2.8,2.8l0.8,0.8l2.1-2.1l1.3,0.9c-0.2,0.1-0.4,0.1-0.6,0.2c-0.2,0.1-0.4,0.2-0.6,0.5
		c-0.4,0.4-0.6,0.9-0.7,1.5c0,0.6,0.2,1.2,0.8,1.7c0.5,0.5,1,0.7,1.7,0.8c0.7,0.1,1.3-0.2,1.9-0.8c0.5-0.5,0.7-1,0.8-1.6
		c0-0.6-0.1-1.1-0.6-1.6L113.3,157.2z M108.1,162.7c-0.4-0.2-0.9-0.6-1.5-1.2c-0.6-0.6-1-1.1-1.2-1.5c-0.2-0.4-0.1-0.7,0.1-1
		c0.3-0.3,0.6-0.3,1-0.1s0.9,0.6,1.5,1.2c0.6,0.6,1,1.1,1.2,1.5c0.2,0.4,0.2,0.8-0.1,1.1S108.6,163,108.1,162.7z M108,164.1
		c0.7,0.2,1.4,0,2-0.7c0.6-0.6,0.9-1.3,0.7-2c-0.2-0.7-0.7-1.5-1.5-2.3c-0.8-0.8-1.6-1.3-2.3-1.5c-0.7-0.2-1.4,0-2,0.7
		c-0.6,0.6-0.9,1.3-0.7,2c0.2,0.7,0.7,1.5,1.5,2.3S107.3,163.9,108,164.1z M101.9,163.1c0-0.2,0.1-0.4,0.2-0.6
		c0.1-0.2,0.3-0.2,0.6-0.2c0.2,0,0.4,0.1,0.6,0.2c0.2,0.1,0.2,0.3,0.2,0.6c0,0.2-0.1,0.4-0.2,0.6c-0.1,0.2-0.3,0.2-0.6,0.2
		c-0.2,0-0.4-0.1-0.6-0.2C102,163.4,101.9,163.2,101.9,163.1z M104.5,163.1c0-0.5-0.2-0.9-0.5-1.3c-0.4-0.4-0.8-0.5-1.3-0.5
		c-0.5,0-0.9,0.2-1.3,0.5c-0.4,0.4-0.5,0.8-0.5,1.3c0,0.5,0.2,0.9,0.5,1.3c0.4,0.3,0.8,0.5,1.3,0.5c0.5,0,0.9-0.2,1.3-0.5
		S104.5,163.6,104.5,163.1z M101.8,168.2c0.2,0,0.4,0.1,0.6,0.2c0.2,0.1,0.2,0.3,0.2,0.6c0,0.2-0.1,0.4-0.2,0.6
		c-0.1,0.2-0.3,0.2-0.6,0.2c-0.2,0-0.4-0.1-0.6-0.2c-0.2-0.1-0.2-0.3-0.2-0.6c0-0.2,0.1-0.4,0.2-0.6
		C101.4,168.3,101.6,168.2,101.8,168.2z M103.7,169c0-0.5-0.2-0.9-0.5-1.3s-0.8-0.5-1.3-0.5c-0.5,0-0.9,0.2-1.3,0.5
		c-0.4,0.4-0.5,0.8-0.5,1.3c0,0.5,0.2,0.9,0.5,1.3c0.4,0.4,0.8,0.5,1.3,0.5c0.5,0,0.9-0.2,1.3-0.5
		C103.5,169.9,103.7,169.5,103.7,169z M98.5,164.6l-0.5,0.5l8,2.4l0.6-0.6L98.5,164.6z"/>
</g>
</svg>
