<?xml version="1.0" encoding="utf-8"?>
<!-- Generator: Adobe Illustrator 22.1.0, SVG Export Plug-In . SVG Version: 6.00 Build 0)  -->
<svg version="1.1" id="Layer_1" xmlns="http://www.w3.org/2000/svg" xmlns:xlink="http://www.w3.org/1999/xlink" x="0px" y="0px"
	 viewBox="0 0 115 214" style="enable-background:new 0 0 115 214;" xml:space="preserve">
<style type="text/css">
	.st0{enable-background:new    ;}
	.st1{clip-path:url(#SVGID_2_);}
	.st2{fill:#145F88;}
	.st3{fill:#34A3DF;}
	.st4{fill:#FFFBFB;}
	.st5{fill:#FCFCFC;}
	.st6{fill:#272A66;}
	.st7{fill:#EE6427;}
	.st8{fill:#B44C26;}
	.st9{fill:#FEE5A6;}
	.st10{fill:#773517;}
	.st11{fill:#FFFFFF;}
	.st12{fill:#2AAAE2;}
	.st13{fill:#070707;}
	.st14{fill:#EC2227;}
	.st15{fill:#F27BAA;}
	.st16{fill:#C2082C;}
	.st17{clip-path:url(#SVGID_4_);}
	.st18{fill:#005D8F;}
	.st19{clip-path:url(#SVGID_6_);}
	.st20{fill:#EF6326;}
	.st21{fill:#BC6138;}
	.st22{fill:#29ABE2;}
	.st23{fill:#050505;}
	.st24{fill:#562912;}
	.st25{fill:#CC342F;}
	.st26{fill:#AB471B;}
</style>
<g>
	<g>
		<g class="st0">
			<defs>
				<polygon id="SVGID_1_" class="st0" points="11.3,116.5 11.5,52.5 59.6,45.8 59.5,109.7 				"/>
			</defs>
			<clipPath id="SVGID_2_">
				<use xlink:href="#SVGID_1_"  style="overflow:visible;"/>
			</clipPath>
			<g class="st1">
				<g>
					<g>
						<g>
							<path class="st2" d="M31.5,110.7c-0.3,0-0.6,0-0.8-0.1l-15.9-7.7c-0.8-0.4-1.1-1.4-0.6-2.3l4.6-9.2c0.3-0.6,0.8-1,1.4-1.1
								c0.3,0,0.6,0,0.8,0.1l15.9,7.6c0.8,0.4,1.1,1.4,0.6,2.3l-4.6,9.3C32.6,110.2,32,110.6,31.5,110.7 M39.4,94.6
								c-0.3,0-0.6,0-0.8-0.1l-15.9-7.7c-0.8-0.4-1.1-1.4-0.6-2.3l15.5-31.3c0.3-0.6,0.8-1,1.4-1.1c0.3,0,0.6,0,0.8,0.1L55.8,60
								c0.8,0.4,1.1,1.4,0.6,2.3L40.8,93.5C40.5,94.2,40,94.6,39.4,94.6 M42.1,48.2c-0.1,0-0.1,0.1-0.1,0.1c-0.6,1.3-1.8,2.1-3,2.3
								c-0.6,0.1-1.2,0-1.8-0.3l-0.1-0.1l-25.7,51.2c0.1,0.1,0.2,0.1,0.2,0.1c1.7,0.7,2.2,3,1.3,4.9l2.6,1.3
								c0.3-0.3,0.7-0.6,1.1-0.7c0.2,0,0.5,0,0.7,0.1c0.5,0.2,0.8,1,0.6,1.6l1.7,1.1c0.3-0.3,0.7-0.6,1.1-0.7c0.2,0,0.5,0,0.7,0.1
								c0.5,0.2,0.8,0.9,0.6,1.6l2,0.9c0.3-0.3,0.7-0.6,1.1-0.6c0.2,0,0.5,0,0.7,0.1c0.5,0.2,0.8,0.9,0.6,1.6l2.4,1.1
								c0.6-1.3,1.8-2.1,3-2.3c0.6-0.1,1.2,0,1.8,0.3c0.2,0,0.3,0.1,0.4,0.1L59.6,61c-0.2-0.1-0.3-0.1-0.4-0.1
								c-1.7-0.8-2.2-3.1-1.2-5c0.1,0,0.1-0.1,0.1-0.1l-2.4-1.2c-0.2,0.3-0.6,0.6-1,0.6c-0.2,0-0.5,0-0.7-0.1
								c-0.5-0.3-0.8-0.9-0.6-1.6l-1.9-0.9c-0.2,0.5-0.7,0.9-1.2,0.9c-0.2,0-0.5,0-0.7-0.1c-0.7-0.3-0.9-1.2-0.5-2l-1.9-0.9
								c-0.2,0.5-0.7,0.9-1.2,0.9c-0.3,0-0.5,0-0.8-0.1c-0.7-0.3-0.9-1.2-0.5-2L42.1,48.2"/>
							<path class="st3" d="M26.3,98.7c-0.1,0-0.3,0.1-0.4,0.3c-0.2,0.2-0.4,0.6-0.7,1.3c-0.3,0.5-0.4,1-0.5,1.3
								c0,0.3,0.1,0.5,0.3,0.6c0.1,0.1,0.2,0.1,0.3,0.1c0.1,0,0.3-0.1,0.4-0.3c0.2-0.2,0.4-0.6,0.7-1.3c0.3-0.6,0.4-1,0.5-1.3
								c0.1-0.3,0-0.6-0.3-0.6C26.5,98.7,26.4,98.6,26.3,98.7 M19.6,98.4c-0.1,0-0.2,0-0.3,0.1c-0.2,0-0.3,0.1-0.4,0.3
								c-0.1,0.1-0.1,0.3,0,0.5c0,0.2,0.1,0.3,0.3,0.3c0,0,0.1,0.1,0.2,0c0.1,0,0.2,0,0.3-0.1c0.2,0,0.3-0.1,0.4-0.3
								c0.1-0.1,0.1-0.3,0-0.5c-0.1-0.2-0.2-0.3-0.3-0.3C19.8,98.4,19.7,98.4,19.6,98.4 M23.7,97.1c-0.1,0-0.2,0-0.3,0.1
								c-0.2,0.1-0.4,0.2-0.4,0.3c-0.1,0.1-0.1,0.3,0,0.5c0,0.2,0.1,0.3,0.3,0.3c0,0,0.1,0.1,0.2,0s0.2,0,0.3-0.1
								c0.2,0,0.3-0.1,0.4-0.3c0.1-0.1,0.1-0.3,0-0.5c0-0.2-0.1-0.3-0.3-0.3C23.9,97.1,23.8,97.1,23.7,97.1 M32,104.5l-1.6-0.8
								l0.4-0.9l1.6,0.8L32,104.5 M29.8,101.7l0.4-1.1l-1.7-0.8l0.5-0.8l2.3,1.2l-1.1,2.8l-0.7-0.3c0-0.2,0-0.3-0.2-0.4
								c-0.1-0.1-0.1-0.1-0.3-0.2c-0.1,0-0.2,0-0.3,0s-0.2,0.1-0.3,0.1c-0.2,0.1-0.4,0.3-0.4,0.5c-0.1,0.2-0.2,0.5-0.2,0.7
								c0,0.2,0.1,0.4,0.4,0.4c0.2,0.1,0.4,0,0.5,0c0.2,0,0.3-0.2,0.4-0.3l0.9,0.2c-0.3,0.4-0.5,0.7-1,0.8c-0.1,0-0.2,0.1-0.3,0.1
								c-0.3,0-0.6,0-0.9-0.2c-0.5-0.2-0.8-0.6-0.8-1c-0.1-0.5,0-1,0.2-1.4c0.3-0.5,0.5-0.8,1-1c0.1,0,0.2-0.1,0.3-0.1
								c0.3,0,0.5,0,0.7,0.1c0.2,0.1,0.3,0.2,0.4,0.3C29.7,101.5,29.7,101.5,29.8,101.7 M25.4,103c-0.3,0-0.5,0-0.9-0.1
								c-0.5-0.2-0.8-0.7-0.8-1.1c0-0.6,0.2-1.2,0.6-2c0.4-0.8,0.8-1.4,1.3-1.7c0.2-0.1,0.4-0.2,0.6-0.3c0.3,0,0.6,0,0.9,0.1
								c0.5,0.2,0.8,0.7,0.8,1.1c0,0.6-0.2,1.2-0.6,2c-0.4,0.8-0.8,1.4-1.3,1.7C25.8,102.9,25.6,103,25.4,103 M19.5,100.3
								c-0.2,0-0.4,0-0.5-0.1c-0.3-0.2-0.5-0.4-0.5-0.7c-0.1-0.4,0-0.7,0.1-1.1c0.2-0.3,0.4-0.6,0.7-0.7c0.1,0,0.2-0.1,0.3-0.1
								c0.2,0,0.4,0,0.7,0c0.4,0,0.5,0.4,0.5,0.7c0.1,0.4,0,0.7-0.1,1.1c-0.2,0.3-0.4,0.6-0.7,0.7C19.8,100.2,19.6,100.2,19.5,100.3
								 M23.5,99.2c-0.2,0-0.4,0-0.6-0.1c-0.3-0.2-0.5-0.4-0.5-0.7c-0.1-0.4,0-0.7,0.1-1.1c0.2-0.3,0.4-0.6,0.7-0.7
								c0.1,0,0.2-0.1,0.3-0.1c0.2,0,0.4,0,0.7,0c0.4,0,0.5,0.4,0.5,0.7c0.1,0.4,0,0.7-0.1,1.1c-0.2,0.3-0.4,0.6-0.7,0.7
								C23.8,99.1,23.6,99.1,23.5,99.2 M21.7,101.5l-0.4-0.2l0.2-6.1l0.4,0.2L21.7,101.5 M20.2,90.3c-0.6,0.1-1.1,0.5-1.4,1.1
								l-4.6,9.2c-0.5,0.9-0.2,2,0.6,2.3l15.9,7.7c0.3,0.1,0.5,0.2,0.8,0.1c0.6-0.1,1.1-0.5,1.4-1.1l4.6-9.3c0.4-0.9,0.2-2-0.6-2.3
								L21,90.4C20.7,90.3,20.5,90.2,20.2,90.3"/>
							<path class="st4" d="M35.6,68.7c0.1-0.1,0.1-0.2,0.2-0.3l2.7-5.8c0.1-0.2,0.2-0.3,0.3-0.3c0.1,0,0.1,0,0.2,0l4.4,2.1
								c2.1,1,3.1,3.6,2.7,6.3c0,0,0,0.1,0,0.1c0-0.1,0.1-0.1,0.2-0.1c0.1,0,0.2,0,0.3,0c0.2,0.1,0.3,0.3,0.1,0.6
								c0,0.1-0.1,0.1-0.2,0.2c0.1,0.1,0.2,0.3,0.1,0.5c-0.1,0.1-0.2,0.2-0.3,0.3c-0.1,0-0.2,0-0.2-0.1c0,0,0,0-0.1,0
								c0,0.1-0.2,0.2-0.3,0.2c-0.1,0.2-0.2,0.4-0.3,0.6c-0.1,0.2-0.3,0.5-0.4,0.7l-0.6,1.2c0,0.2,0,0.4-0.1,0.6
								c-0.1,0.2-0.2,0.4-0.4,0.4l-2.5,5.3c-0.1,0.2-0.3,0.3-0.5,0.3c-0.1,0-0.1,0-0.2,0l2.7-5.5c0,0,0,0,0,0l-2.1,4.4
								c-1.2,2.5-3.3,4.2-5.3,4.5c-0.8,0.1-1.5,0-2.2-0.3l-4.4-2.1c0,0,1-2,2.3-4.7c-0.3-0.1-0.3-0.4-0.2-0.7l3.8-7.8l0.1,0.1
								C35.5,68.9,35.5,68.8,35.6,68.7C35.6,68.7,35.6,68.7,35.6,68.7 M39,52.2c-0.6,0.1-1.1,0.5-1.4,1.1L22.1,84.6
								c-0.4,0.9-0.2,1.9,0.6,2.3l15.9,7.7c0.3,0.1,0.5,0.2,0.8,0.1c0.6-0.1,1.1-0.5,1.4-1.1l15.5-31.2c0.5-0.9,0.2-1.9-0.6-2.3
								l-15.9-7.7C39.6,52.2,39.3,52.1,39,52.2"/>
							<path class="st5" d="M30.8,102.7l-0.4,0.9l1.6,0.8l0.4-0.9L30.8,102.7 M28.9,99l-0.5,0.8l1.7,0.8l-0.4,1.1
								c-0.1-0.2-0.1-0.3-0.2-0.4c-0.1-0.2-0.2-0.3-0.4-0.3c-0.3-0.1-0.5-0.2-0.7-0.1c-0.1,0-0.2,0-0.3,0.1c-0.4,0.2-0.7,0.5-1,1
								c-0.2,0.4-0.3,0.9-0.2,1.4c0,0.5,0.3,0.8,0.8,1c0.3,0.2,0.6,0.2,0.9,0.2c0.1,0,0.2,0,0.3-0.1c0.4-0.1,0.7-0.4,1-0.8l-0.9-0.2
								c-0.2,0.1-0.3,0.3-0.4,0.3c-0.2,0-0.4,0.1-0.5,0c-0.3-0.1-0.4-0.2-0.4-0.4c0-0.2,0.1-0.5,0.2-0.7c0.1-0.2,0.3-0.4,0.4-0.5
								c0.1-0.1,0.2-0.1,0.3-0.1s0.2,0,0.3,0c0.2,0.1,0.2,0.1,0.3,0.2c0.2,0.2,0.2,0.3,0.2,0.4l0.7,0.3l1.1-2.8L28.9,99 M25.2,102.2
								c-0.1,0-0.2,0-0.3-0.1c-0.2-0.2-0.3-0.4-0.3-0.6c0.1-0.3,0.3-0.8,0.5-1.3c0.3-0.6,0.5-1,0.7-1.3c0.2-0.1,0.3-0.2,0.4-0.3
								c0.1,0,0.2,0,0.3,0.1c0.3,0.1,0.4,0.3,0.3,0.6c-0.1,0.3-0.3,0.7-0.5,1.3c-0.3,0.6-0.5,1-0.7,1.3
								C25.4,102.1,25.3,102.2,25.2,102.2 M26.2,97.7c-0.2,0-0.4,0.1-0.6,0.3c-0.4,0.4-0.9,0.9-1.3,1.7c-0.4,0.8-0.6,1.4-0.6,2
								c0,0.5,0.3,0.9,0.8,1.1c0.3,0.1,0.6,0.2,0.9,0.1c0.2,0,0.4-0.1,0.6-0.3c0.4-0.4,0.9-0.9,1.3-1.7c0.4-0.8,0.6-1.4,0.6-2
								c0-0.5-0.3-0.9-0.8-1.1C26.7,97.8,26.4,97.7,26.2,97.7 M19.5,99.7c-0.1,0-0.1,0-0.2,0c-0.2-0.1-0.3-0.2-0.3-0.3
								c-0.1-0.2-0.1-0.4,0-0.5c0.1-0.2,0.2-0.3,0.4-0.3c0.1-0.1,0.2-0.1,0.3-0.1s0.1,0,0.2,0c0.1,0.1,0.2,0.2,0.3,0.3
								c0.1,0.2,0.1,0.4,0,0.5c-0.1,0.2-0.2,0.3-0.4,0.3C19.6,99.6,19.6,99.7,19.5,99.7 M19.5,97.7c-0.1,0-0.2,0-0.3,0.1
								c-0.3,0-0.5,0.4-0.7,0.7c-0.1,0.4-0.2,0.7-0.1,1.1c0,0.3,0.3,0.5,0.5,0.7c0.2,0.1,0.3,0.1,0.5,0.1c0.1,0,0.3-0.1,0.4-0.1
								c0.3,0,0.5-0.4,0.7-0.7c0.1-0.4,0.2-0.7,0.1-1.1c0-0.3-0.2-0.6-0.5-0.7C19.9,97.7,19.7,97.6,19.5,97.7 M23.6,98.4
								c-0.1,0-0.1,0-0.2,0c-0.2-0.1-0.3-0.2-0.3-0.3c-0.1-0.2-0.1-0.4,0-0.5c0-0.1,0.2-0.2,0.4-0.3c0.1-0.1,0.2-0.1,0.3-0.1
								s0.1,0,0.2,0c0.2,0.1,0.3,0.2,0.3,0.3c0.1,0.2,0.1,0.4,0,0.5c-0.1,0.2-0.2,0.3-0.4,0.3C23.7,98.4,23.7,98.4,23.6,98.4
								 M23.5,96.5c-0.1,0-0.2,0-0.3,0.1c-0.3,0-0.5,0.4-0.7,0.7c-0.1,0.4-0.2,0.7-0.1,1.1c0,0.3,0.3,0.5,0.5,0.7
								c0.2,0.1,0.4,0.1,0.6,0.1c0.1,0,0.3-0.1,0.4-0.2c0.3,0,0.5-0.4,0.7-0.7c0.1-0.4,0.2-0.7,0.1-1.1c0-0.3-0.2-0.6-0.5-0.7
								C23.9,96.5,23.7,96.5,23.5,96.5 M21.4,95.2l-0.2,6.1l0.4,0.2l0.2-6.1L21.4,95.2"/>
							<path class="st6" d="M43.3,75.9l-2.7,5.5c0.1,0,0.1,0,0.2,0c0.2,0,0.4-0.1,0.5-0.3l2.5-5.3c-0.1,0-0.1,0.1-0.2,0.1
								C43.5,75.9,43.4,75.9,43.3,75.9 M44.9,73.7c-0.2,0.3-0.4,0.6-0.7,0.9c0,0.1,0.1,0.2,0.1,0.3L44.9,73.7"/>
							<path class="st6" d="M34.4,72.4l-2.8,5.2c0,0,0,0,0,0c-1.3,2.7-2.3,4.7-2.3,4.7l4.4,2.1c0.7,0.3,1.4,0.4,2.2,0.3
								c2-0.3,4.1-1.9,5.3-4.5l2.1-4.4c0,0-0.1,0-0.1,0C43.1,75.9,43,76,42.9,76c-0.1-0.1-0.2-0.1-0.2-0.3c-0.8,0.5-1.6,0.9-2.5,1
								c-0.9,0.1-1.8,0-2.7-0.4c-1.5-0.7-2.4-2-2.6-3.6c-0.1,0.1-0.1,0.1-0.2,0.1c-0.1-0.1-0.2-0.2-0.1-0.2c0,0,0,0-0.1,0
								C34.5,72.5,34.4,72.5,34.4,72.4"/>
							<path class="st7" d="M37.5,74.4C37.5,74.4,37.5,74.4,37.5,74.4c0.2,0,0.4,0,1,0.2c0.4,0.2,0.6,0.3,0.7,0.4
								c0.1,0.1,0.1,0.2,0.1,0.2c0,0-0.1,0.1-0.1,0.1c0,0,0,0,0,0l0,0c-0.2,0.2-0.5,0.4-0.8,0.4c-0.2,0-0.3,0-0.5-0.1
								C37.5,75.5,37.3,74.9,37.5,74.4 M35.6,72.2c-0.1,0.2-0.3,0.4-0.6,0.4c0,0,0,0,0,0c0,0,0,0-0.1,0.1c0.3,1.6,1.2,2.9,2.6,3.6
								c0.9,0.4,1.8,0.5,2.7,0.4c0.9-0.1,1.7-0.5,2.5-1c0,0,0-0.1,0-0.1c0,0,0.1-0.1,0.1-0.1c-0.1-0.2-0.1-0.5,0.1-0.8
								c0.1-0.2,0.2-0.3,0.4-0.4l-1.1-0.4c0.1,0.2,0.1,0.4,0.1,0.6l0.4,0l-0.4,0.1c0,0,0,0.1,0,0.1l0.4,0l-0.4,0c0,0.1,0,0.2,0,0.3
								l0.3,0.1l-0.3-0.1c0,0.1-0.1,0.3-0.1,0.4c-0.2,0.5-0.7,0.9-1.2,0.9c-0.3,0-0.5,0-0.8-0.1c-0.7-0.4-1-1.2-0.5-2
								c0.2-0.5,0.6-0.8,1-0.9l-0.2-0.1L40.3,72l-0.4,0.4l-0.4,0.3l0-0.2l0-0.3l-0.2,0.2l-0.2,0.1l0-0.2l0-0.3l-0.2,0.2l-0.2,0.1
								l-0.5-0.2c0,0.3,0,0.7-0.2,1c-0.2,0.5-0.7,0.9-1.2,1c-0.3,0-0.5,0-0.7-0.1C35.4,73.9,35.2,73,35.6,72.2L35.6,72.2 M35.7,72
								C35.6,72,35.6,72.1,35.7,72c0,0.1-0.1,0.1-0.1,0.2l0,0c0,0,0,0,0,0C35.6,72.1,35.7,72.1,35.7,72L35.7,72 M35.5,71.2
								c0.1,0.2,0.2,0.5,0.1,0.8l0,0c0.1-0.1,0.1-0.2,0.2-0.3l-0.2-0.2l0.2,0.2c0.1-0.1,0.2-0.2,0.3-0.3L35.5,71.2 M35.6,68.7
								C35.6,68.7,35.6,68.7,35.6,68.7C35.6,68.7,35.6,68.7,35.6,68.7"/>
							<path class="st6" d="M35.3,69l-3.8,7.8c-0.2,0.3-0.1,0.7,0.2,0.7c0,0,0,0,0,0l2.8-5.2c-0.2-0.2-0.3-0.6-0.1-1
								c0.1-0.2,0.3-0.4,0.5-0.5l-0.3-0.1c0.2-0.4,0.5-1.2,0.8-1.8L35.3,69"/>
							<path class="st7" d="M34.9,72.2c-0.1,0-0.1,0-0.2,0c-0.2-0.1-0.3-0.4-0.2-0.6c0.1-0.1,0.2-0.3,0.4-0.3c0.1,0,0.1,0,0.2,0
								c0.2,0.2,0.3,0.4,0.2,0.6C35.3,72.1,35.1,72.2,34.9,72.2 M34.8,70.9c-0.2,0.1-0.4,0.3-0.5,0.5c-0.2,0.4-0.1,0.8,0.1,1
								c0.1,0.1,0.1,0.1,0.2,0.1c0,0,0,0,0.1,0c0,0,0,0,0,0c0.1-0.1,0.2-0.1,0.3-0.1c0.1,0.1,0.1,0.1,0.1,0.2c0.2,0,0.4-0.2,0.6-0.4
								L35.4,72l0.2,0.1c0,0,0-0.1,0-0.1c0,0,0,0,0-0.1l-0.1-0.1l0.1,0.1c0.1-0.3,0-0.6-0.1-0.8L34.8,70.9"/>
							<path class="st8" d="M35,71.3c-0.2,0-0.3,0.1-0.4,0.3c-0.1,0.3,0,0.6,0.2,0.6c0.1,0,0.1,0,0.2,0c0.2,0,0.3-0.1,0.4-0.3
								c0.1-0.2,0-0.5-0.2-0.6C35.1,71.3,35,71.3,35,71.3"/>
							<path class="st9" d="M34.9,72.4c-0.1,0-0.2,0-0.3,0.1c0,0,0,0,0,0c0,0.1,0,0.2,0.1,0.2c0.1,0,0.1,0,0.2-0.1c0,0,0,0,0.1-0.1
								c0,0,0,0,0,0C35,72.5,35,72.5,34.9,72.4"/>
							<polyline class="st10" points="35.4,72 35.6,72.2 35.6,72.2 35.6,72.2 35.4,72 							"/>
							<polyline class="st10" points="35.7,71.6 35.9,71.8 35.7,71.6 							"/>
							<polyline class="st10" points="35.5,71.9 35.7,72 35.7,72.1 35.7,72 35.5,71.9 							"/>
							<path class="st11" d="M36.2,71.5c-0.1,0.1-0.2,0.2-0.3,0.3c-0.1,0.1-0.1,0.2-0.2,0.3c0,0,0,0.1-0.1,0.1c0,0,0,0,0,0
								c-0.4,0.8-0.2,1.7,0.5,2c0.2,0.1,0.5,0.2,0.7,0.1c0.5-0.1,1-0.4,1.2-1c0.2-0.4,0.2-0.7,0.2-1l-0.6-0.2
								c0.2,0.3,0.2,0.7,0.1,1.1c-0.2,0.3-0.5,0.6-0.8,0.6c-0.2,0-0.3,0-0.5-0.1c-0.4-0.2-0.6-0.8-0.3-1.4c0.2-0.3,0.5-0.6,0.8-0.6
								c0,0,0,0,0,0L36.2,71.5"/>
							<path class="st12" d="M37,73.3c-0.1,0-0.2,0-0.3-0.1c-0.3-0.1-0.4-0.4-0.2-0.7c0.1-0.2,0.3-0.3,0.4-0.4c0.1,0,0.2,0,0.3,0.1
								c0.2,0.2,0.3,0.5,0.2,0.7C37.3,73.2,37.2,73.3,37,73.3 M36.9,71.8c-0.3,0-0.7,0.3-0.8,0.6c-0.3,0.6-0.1,1.2,0.3,1.4
								c0.2,0.1,0.3,0.1,0.5,0.1c0.3,0,0.7-0.3,0.8-0.6c0.2-0.4,0.2-0.9-0.1-1.1L36.9,71.8C36.9,71.8,36.9,71.8,36.9,71.8"/>
							<path class="st13" d="M36.9,72.2c-0.2,0-0.3,0.2-0.4,0.4c-0.2,0.3-0.1,0.7,0.2,0.7c0.1,0.1,0.2,0.1,0.3,0.1
								c0.2,0,0.3-0.2,0.4-0.4c0.1-0.2,0-0.6-0.2-0.7C37.1,72.2,37,72.2,36.9,72.2"/>
							<polyline class="st10" points="42.2,74.9 42.6,75.1 42.2,74.9 							"/>
							<path class="st10" d="M42.3,74.4C42.3,74.5,42.3,74.5,42.3,74.4l0.4,0L42.3,74.4"/>
							<polyline class="st10" points="42.3,74.6 42.6,74.7 42.3,74.6 							"/>
							<path class="st11" d="M40.8,75.7c-0.2,0-0.3,0-0.5-0.1c-0.4-0.2-0.6-0.8-0.3-1.4c0.2-0.3,0.5-0.6,0.9-0.6
								c0.2,0,0.3,0,0.5,0.1c0.4,0.2,0.6,0.9,0.4,1.4C41.5,75.4,41.1,75.7,40.8,75.7 M40.6,73.2c-0.4,0.1-0.8,0.4-1,0.9
								c-0.4,0.8-0.2,1.7,0.5,2c0.2,0.1,0.5,0.1,0.8,0.1c0.5-0.1,1-0.4,1.2-0.9c0.1-0.1,0.1-0.3,0.1-0.4c0-0.1,0-0.2,0-0.3
								c0,0,0-0.1,0-0.1c0,0,0-0.1,0-0.1c0-0.2,0-0.4-0.1-0.6L40.6,73.2"/>
							<path class="st12" d="M40.8,75.3c-0.1,0-0.2,0-0.3-0.1c-0.3-0.2-0.3-0.4-0.2-0.7c0.1-0.2,0.3-0.3,0.4-0.4
								c0.1,0,0.2,0,0.3,0.1c0.3,0.2,0.4,0.4,0.2,0.7C41.1,75.2,41,75.3,40.8,75.3 M40.9,73.6c-0.3,0-0.7,0.3-0.9,0.6
								c-0.3,0.6-0.1,1.2,0.3,1.4c0.1,0.1,0.3,0.1,0.5,0.1c0.3,0,0.7-0.3,0.9-0.6c0.3-0.5,0.1-1.2-0.4-1.4
								C41.2,73.6,41,73.6,40.9,73.6"/>
							<path class="st13" d="M40.8,74.2c-0.2,0-0.3,0.1-0.4,0.4c-0.1,0.3-0.1,0.6,0.2,0.7c0.1,0.1,0.2,0.1,0.3,0.1
								c0.2,0,0.3-0.2,0.4-0.4c0.2-0.3,0.1-0.6-0.2-0.7C41,74.2,40.9,74.1,40.8,74.2"/>
							<path class="st6" d="M38.7,62.3c-0.1,0-0.2,0.1-0.3,0.3l-2.7,5.8c0,0.1-0.1,0.2-0.2,0.3c0,0,0,0,0,0
								c-0.1,0.1-0.1,0.2-0.2,0.3c-0.3,0.6-0.7,1.3-0.8,1.8l0.3,0.1l0.7,0.3l0.7,0.3l0.7,0.3l0.8,0.3l0.6,0.2l0.5,0.2l0.2-0.1
								l0.2-0.2l0,0.3l0,0.2l0.2-0.1l0.2-0.2l0,0.3l0,0.2l0.4-0.3l0.4-0.4l0.1,1.1l0.2,0.1l1.5,0.6l1.1,0.4c0.1,0,0.2-0.1,0.3-0.1
								c0.1,0,0.3,0,0.4,0.1c0.1,0.1,0.2,0.2,0.3,0.3c0.2-0.3,0.5-0.6,0.7-0.9c0.1-0.2,0.3-0.5,0.4-0.7c0.1-0.2,0.2-0.4,0.3-0.6
								c0,0,0,0,0,0c-0.1,0-0.2,0-0.2-0.1c-0.2-0.1-0.2-0.3-0.2-0.4c-0.1,0-0.1,0-0.2,0c-0.2-0.1-0.3-0.3-0.1-0.6
								c0.2-0.3,0.4-0.4,0.4-0.5c0-0.1,0-0.2,0-0.3c0.1-0.1,0.2-0.2,0.3-0.2c0.1,0,0.2,0,0.2,0.1c0.1,0,0.1,0,0.2,0.2
								c0.4-2.6-0.7-5.3-2.7-6.3l-4.4-2.1C38.9,62.3,38.8,62.3,38.7,62.3"/>
							<path class="st7" d="M43.6,75.6c-0.1,0-0.1,0-0.2,0c-0.2-0.1-0.3-0.3-0.2-0.6c0.1-0.1,0.2-0.3,0.4-0.3c0.1,0,0.1,0,0.2,0
								c0.2,0.1,0.3,0.4,0.2,0.6C43.9,75.5,43.8,75.6,43.6,75.6 M43.6,74.2c-0.1,0-0.2,0-0.3,0.1c-0.2,0.1-0.3,0.2-0.4,0.4
								c-0.2,0.3-0.2,0.6-0.1,0.8c0,0,0,0,0.1,0c0.1,0,0.1,0,0.2,0c0.1,0.1,0.1,0.2,0.1,0.3c0,0,0.1,0,0.1,0c0,0,0,0,0,0
								c0.1,0,0.2,0,0.3,0c0.1,0,0.2,0,0.2-0.1c0.2-0.1,0.3-0.2,0.4-0.4c0.1-0.2,0.1-0.4,0.1-0.6c0-0.1,0-0.2-0.1-0.3
								c-0.1-0.1-0.1-0.2-0.3-0.3C43.8,74.2,43.7,74.2,43.6,74.2"/>
							<path class="st8" d="M43.6,74.7c-0.2,0-0.3,0.1-0.4,0.3c-0.1,0.3,0,0.6,0.2,0.6c0.1,0,0.1,0,0.2,0c0.2,0,0.3-0.1,0.4-0.3
								c0.1-0.3,0-0.6-0.2-0.6C43.7,74.7,43.7,74.7,43.6,74.7"/>
							<path class="st9" d="M42.9,75.5C42.9,75.5,42.9,75.5,42.9,75.5c-0.1,0-0.1,0.1-0.2,0.1c0,0,0,0.1,0,0.1c0,0.1,0,0.2,0.2,0.3
								c0.1,0,0.2,0,0.3-0.1c0-0.1,0-0.2-0.1-0.3C43.1,75.5,43,75.5,42.9,75.5"/>
							<path class="st14" d="M45.8,71.6C45.7,71.6,45.7,71.6,45.8,71.6c-0.2-0.1-0.3-0.3-0.2-0.4c0.1-0.1,0.2-0.2,0.3-0.2
								c0,0,0.1,0,0.1,0c0.1,0.1,0.2,0.3,0.1,0.4C46,71.5,45.9,71.6,45.8,71.6 M45.6,70.4c-0.1,0-0.3,0.1-0.3,0.2c0,0.1,0,0.2,0,0.3
								c-0.1,0-0.3,0.1-0.4,0.5c-0.2,0.2-0.1,0.5,0.1,0.6c0.1,0,0.1,0,0.2,0c0,0.1,0,0.3,0.2,0.4c0.1,0.1,0.2,0.1,0.2,0.1
								c0,0,0,0,0,0c0.1,0,0.2-0.1,0.3-0.2c0.1,0,0.1,0,0.1,0c0.1,0.1,0.1,0.1,0.2,0.1c0.1,0,0.3-0.1,0.3-0.3c0.1-0.2,0-0.4-0.1-0.5
								c0.1-0.1,0.2-0.1,0.2-0.2c0.2-0.2,0.1-0.5-0.1-0.6c-0.1,0-0.2,0-0.3,0c-0.1,0-0.1,0-0.2,0.1c0,0,0-0.1,0-0.1
								c0-0.1-0.1-0.2-0.2-0.2C45.8,70.4,45.7,70.4,45.6,70.4"/>
							<path class="st15" d="M45.9,71c-0.1,0-0.2,0.1-0.3,0.2c-0.1,0.1,0,0.3,0.1,0.4c0,0,0.1,0,0.1,0c0.1,0,0.2-0.1,0.3-0.2
								C46.1,71.3,46,71.1,45.9,71C45.9,71,45.9,71,45.9,71"/>
							<path d="M39.3,75.2C39.3,75.2,39.2,75.2,39.3,75.2C39.2,75.3,39.2,75.3,39.3,75.2 M38.5,74.7c0.4,0.2,0.6,0.3,0.7,0.4
								C39,75,38.8,74.8,38.5,74.7 M38.5,75.6c-0.2,0-0.4,0.1-0.5-0.1c-0.2,0-0.4-0.1-0.4-0.3c0.2,0,0.4,0,0.5,0
								C38.2,75.3,38.4,75.5,38.5,75.6 M37.5,74.4c-0.2,0.5,0,1.1,0.4,1.3c0.2,0.1,0.3,0.1,0.5,0.1c0.3,0,0.5-0.2,0.8-0.4L37.5,74.4
								L37.5,74.4"/>
							<path class="st11" d="M37.5,74.4C37.5,74.4,37.5,74.4,37.5,74.4l-0.1,0.1l1.7,0.8l0,0c0,0,0,0,0,0c0-0.1,0.1-0.1,0.1-0.1
								s0-0.1-0.1-0.2c-0.1-0.1-0.3-0.2-0.7-0.4C37.9,74.4,37.6,74.4,37.5,74.4"/>
							<path class="st16" d="M37.5,75.2c0.1,0.2,0.3,0.3,0.4,0.3c0.2,0.2,0.4,0.1,0.5,0.1c-0.1-0.2-0.3-0.3-0.4-0.4
								C37.8,75.1,37.7,75.2,37.5,75.2"/>
						</g>
					</g>
				</g>
			</g>
		</g>
	</g>
</g>
<g>
	<g>
		<g class="st0">
			<defs>
				<polygon id="SVGID_3_" class="st0" points="19.4,30.1 19.5,6.4 40.4,3.5 40.3,27.1 				"/>
			</defs>
			<clipPath id="SVGID_4_">
				<use xlink:href="#SVGID_3_"  style="overflow:visible;"/>
			</clipPath>
			<g class="st17">
				<g>
					<g>
						<g>
							<path class="st2" d="M27.8,12l-0.1,0.1l0.2,0.3l0.1-0.1L27.8,12 M33.3,26.9c-0.2,0-0.3,0-0.5-0.1l-8.1-8.7
								c-0.2-0.2-0.2-0.7,0-1l5.4-5.9c0.1-0.1,0.3-0.2,0.5-0.2c0.2,0,0.3,0,0.5,0.1l8,8.7c0.2,0.2,0.3,0.7,0,1l-5.4,5.9
								C33.6,26.8,33.4,26.9,33.3,26.9 M30.8,9.3l-0.2,0.3l0.4,0.4l-2.5,2.7L28,12.3l-0.1,0.1l0.4,0.4l-2.4,2.6l0,0l-2.5,2.7
								l-0.4-0.4L23,17.7l9.5,10.4c0,0,0,0,0,0c0.1,0,0.1-0.1,0.1-0.1c0.3-0.3,0.6-0.5,0.9-0.5c0.4-0.1,0.8,0.1,1,0.4l0.8-0.9
								c-0.1-0.2,0-0.5,0.1-0.8c0.1-0.1,0.2-0.2,0.3-0.2c0.1,0,0.2,0,0.3,0.1l0.6-0.7c-0.2-0.2-0.2-0.7,0.1-0.9
								c0.1-0.1,0.2-0.2,0.4-0.2c0.2,0,0.3,0,0.4,0.2l0.6-0.7c-0.3-0.3-0.2-0.6,0-0.9c0.1-0.1,0.2-0.2,0.4-0.2c0.2,0,0.3,0,0.4,0.2
								l0.8-0.9c-0.6-0.5-0.4-1.5,0.2-2.2L30.8,9.3 M27.1,5.4C27.1,5.5,27.1,5.5,27.1,5.4c-0.3,0.4-0.6,0.5-1,0.6
								c-0.4,0.1-0.8,0-1-0.3l-0.8,0.9c0.1,0.2,0,0.5-0.1,0.8c-0.1,0.1-0.2,0.2-0.3,0.2c-0.1,0-0.2,0-0.3-0.1L22.8,8
								c0.1,0.2,0,0.5-0.1,0.8C22.6,9,22.4,9,22.3,9.1c-0.1,0-0.2,0-0.3-0.1l-0.7,0.8c0.1,0.2,0,0.5-0.1,0.8
								c-0.1,0.1-0.2,0.2-0.3,0.2c-0.1,0-0.2,0-0.3-0.1l-0.8,0.9c0.6,0.5,0.4,1.5-0.1,2.1l-0.1,0.1l3.6,3.9l0.1-0.1l-0.4-0.4
								l0.8-0.9c-0.2,0-0.3,0-0.4-0.1l-2.5-2.6c-0.2-0.2-0.3-0.7,0-1l5.4-5.9c0.1-0.1,0.3-0.2,0.5-0.2c0.2,0,0.3,0,0.5,0.1l2.4,2.6
								c0.1,0.2,0.2,0.4,0.2,0.6l0.6-0.6l0.4,0.4l0.2-0.3L27.1,5.4"/>
							<path class="st3" d="M24.7,10.9c-0.1,0-0.1,0.1-0.2,0.1c-0.1,0.1-0.1,0.2-0.1,0.3c0,0.1,0.1,0.2,0.3,0.4
								c0.1,0.1,0.3,0.3,0.4,0.3c0,0,0.1,0,0.1,0c0,0,0.1,0,0.1-0.1c0.1-0.1,0.1-0.2,0.1-0.3c-0.1-0.1-0.1-0.2-0.3-0.4
								c-0.1-0.1-0.3-0.3-0.4-0.3C24.8,10.9,24.7,10.9,24.7,10.9 M26.2,10.5C26.2,10.5,26.2,10.6,26.2,10.5c0,0.1-0.1,0.2-0.1,0.3
								c0,0,0,0.1,0.1,0.1c0,0,0.1,0,0.2,0c0,0,0,0,0.1,0c0,0,0,0,0-0.1c0,0,0-0.1,0.1-0.2c-0.1,0-0.1-0.1-0.1-0.1
								S26.3,10.6,26.2,10.5C26.2,10.5,26.2,10.5,26.2,10.5 M26.5,8.8C26.4,8.8,26.4,8.8,26.5,8.8c0,0.1-0.1,0.2-0.1,0.3
								c0,0.1,0,0.1,0.1,0.1c0,0,0.1,0,0.2,0c0,0,0,0,0.1,0c0,0,0,0,0.1-0.1c0,0,0-0.1,0.1-0.2c0-0.1,0-0.1-0.1-0.1
								C26.7,8.8,26.6,8.8,26.5,8.8C26.5,8.8,26.5,8.8,26.5,8.8 M22.7,13.9l-0.2-0.2l0.5-0.6l0.2,0.2L22.7,13.9 M23.1,12.9
								c-0.1-0.1-0.2-0.2-0.1-0.4c0.1-0.2,0.1-0.3,0.2-0.5c0.1-0.2,0.3-0.2,0.5-0.3c0.2,0,0.3,0.1,0.5,0.2c0.1,0.1,0.2,0.3,0.1,0.4
								c-0.1,0.2-0.1,0.3-0.2,0.5c0,0.1-0.1,0.1-0.1,0.2c0,0,0,0,0,0c0,0-0.1,0-0.1,0.1l0.3,0.3l0.5-0.6l0.2,0.2l-0.8,0.8l-0.8-0.7
								l0.2-0.3c0,0,0.1,0,0.1,0c0,0,0.1,0,0.1-0.1c0,0,0,0,0.1-0.1c0-0.1,0.1-0.2,0.1-0.3c0-0.1-0.1-0.1-0.1-0.2
								c-0.1,0-0.1-0.1-0.2-0.2c0,0-0.1,0-0.1,0c0,0-0.1,0-0.1,0.1c0,0.1,0,0.1-0.1,0.2c0,0.1,0.1,0.1,0,0.2L23.1,12.9 M26.3,11.1
								C26.3,11.2,26.3,11.2,26.3,11.1c-0.1,0-0.3-0.1-0.4-0.1c-0.1-0.1-0.1-0.2-0.1-0.3c0-0.2,0-0.3,0.1-0.4
								c0.1-0.1,0.2-0.1,0.3-0.1c0,0,0,0,0.1,0c0.1,0,0.2,0.1,0.3,0.1c0.1,0.1,0.1,0.2,0.1,0.3c0,0.1-0.1,0.3-0.1,0.4
								C26.5,11.1,26.4,11.1,26.3,11.1 M25.4,12.3c-0.1,0-0.1,0-0.2,0c-0.2,0-0.4-0.2-0.6-0.4c-0.2-0.2-0.3-0.5-0.3-0.7
								c0-0.2,0-0.4,0.2-0.6c0.1-0.1,0.2-0.2,0.4-0.2c0.1,0,0.1,0,0.2,0c0.2,0,0.3,0.2,0.6,0.4c0.2,0.2,0.3,0.5,0.3,0.7
								c0,0.2,0,0.4-0.2,0.6C25.6,12.3,25.5,12.3,25.4,12.3 M27.3,10.3l-2-0.5l0.1-0.2l2,0.5L27.3,10.3 M26.7,9.4
								C26.6,9.4,26.6,9.4,26.7,9.4c-0.1,0-0.3-0.1-0.4-0.1c-0.1-0.1-0.1-0.2-0.1-0.3c-0.1-0.1,0-0.2,0.1-0.4
								c0.1-0.1,0.2-0.1,0.3-0.1c0,0,0,0,0.1,0c0.1,0,0.3,0.1,0.3,0.1C27,8.7,27.1,8.8,27,8.9c0,0.1-0.1,0.3-0.1,0.4
								C26.8,9.3,26.7,9.4,26.7,9.4 M26.6,6.5c-0.2,0-0.3,0.1-0.5,0.2l-5.4,5.9c-0.3,0.3-0.2,0.8,0,1l2.5,2.6
								c0.1,0.1,0.3,0.2,0.4,0.1l1.5-1.7l0,0l2.5-2.7l0.1,0.1l0.1-0.1l-0.1-0.1l1.9-2.1c0-0.2,0-0.4-0.2-0.6l-2.4-2.6
								C26.9,6.5,26.8,6.5,26.6,6.5"/>
							<path class="st18" d="M23.1,17.7L23.1,17.7L23.1,17.7L23.1,17.7L23.1,17.7 M28,12.3l-0.1,0.1L28,12.3 M30.8,9.3L30.8,9.3
								l-0.3,0.3L30.8,9.3L30.8,9.3"/>
							<path class="st18" d="M27.6,12l-2.5,2.7l0,0l-1.5,1.7l-0.8,0.9l0.4,0.4l0.4,0.4l2.5-2.7l0,0l2.4-2.6l-0.4-0.4l-0.2-0.3
								L27.6,12 M30.2,9.2l-0.6,0.6l-1.9,2.1l0.1,0.1l0.2,0.3l0.4,0.4l2.5-2.7l-0.4-0.4L30.2,9.2"/>
							<path class="st4" d="M30.4,20.4l-1.1-1.2c-0.9-0.9-1-2.4-0.2-3.4l1.5-1.6c0,0,0.7,0.7,1.6,1.6l-0.3-0.3c0,0,0-0.1,0.1-0.1
								c0.1,0,0.1,0,0.2,0l2,2.2l0,0c0,0,0.1,0.1,0.1,0.1l1.6,1.7c0.1,0,0.1,0.1,0,0.2l-1.5,1.6C34,21.7,33.4,22,32.9,22
								c-0.4,0.1-0.8,0-1.1-0.1c0,0,0,0.1-0.1,0.2c0,0,0,0.1-0.1,0.1s-0.1,0-0.1,0c0,0,0,0-0.1-0.1c0,0,0,0-0.1,0c0,0-0.1,0-0.1-0.1
								c-0.1,0-0.1-0.1,0-0.2c-0.1,0-0.1-0.1,0-0.2c0,0-0.1-0.1-0.1-0.1c0,0,0,0-0.1-0.1l0,0l-0.6-0.6c0,0,0,0-0.1,0
								c0,0,0,0-0.1-0.1L29,19.2c-0.1-0.1,0-0.2,0-0.3L30.4,20.4C30.4,20.4,30.4,20.4,30.4,20.4 M30.7,11c-0.2,0-0.3,0.1-0.5,0.2
								l-5.4,5.9c-0.3,0.3-0.2,0.8,0,1l8.1,8.7c0.1,0.1,0.3,0.2,0.5,0.1c0.2,0,0.3-0.1,0.5-0.2l5.4-5.9c0.3-0.3,0.2-0.8,0-1l-8-8.7
								C31,11,30.8,10.9,30.7,11"/>
							<path class="st5" d="M23.1,13.1l-0.5,0.6l0.2,0.2l0.5-0.6L23.1,13.1 M23.8,11.7c-0.2,0.1-0.4,0.1-0.5,0.3
								c-0.1,0.2-0.2,0.3-0.2,0.5c-0.1,0.2,0,0.3,0.1,0.4l0.3-0.3c0-0.1-0.1-0.1,0-0.2c0-0.1,0-0.1,0.1-0.2c0,0,0-0.1,0.1-0.1
								c0,0,0.1,0,0.1,0c0.1,0,0.1,0.1,0.2,0.2c0.1,0.1,0.1,0.1,0.1,0.2c0.1,0.1-0.1,0.2-0.1,0.3c-0.1,0.1-0.1,0.1-0.1,0.1
								c-0.1,0-0.1,0.1-0.1,0.1c0,0,0,0-0.1,0l-0.2,0.3l0.8,0.7l0.8-0.8l-0.2-0.2l-0.5,0.6l-0.3-0.3c0-0.1,0.1-0.1,0.1-0.1
								c0,0,0,0,0,0c0-0.1,0.1-0.1,0.1-0.2c0.1-0.2,0.2-0.3,0.2-0.5c0-0.1,0-0.3-0.1-0.4C24.1,11.8,23.9,11.7,23.8,11.7 M26.4,11
								C26.4,11,26.4,11,26.4,11c-0.2,0-0.2,0-0.2,0c-0.1,0-0.1-0.1-0.1-0.1c0-0.1,0.1-0.2,0.1-0.2c0-0.1,0-0.1,0-0.1c0,0,0,0,0.1,0
								c0.1,0,0.2,0,0.2,0s0,0.1,0.1,0.1C26.5,10.8,26.4,10.9,26.4,11C26.4,10.9,26.4,11,26.4,11 M26.2,10.2c-0.1,0-0.2,0.1-0.3,0.1
								c-0.1,0.1-0.1,0.2-0.1,0.4c0,0.1,0,0.2,0.1,0.3c0.1,0,0.3,0.1,0.3,0.1c0,0,0,0,0.1,0c0.1,0,0.2-0.1,0.3-0.1
								c0-0.1,0.1-0.3,0.1-0.4c0-0.1,0-0.2-0.1-0.3C26.5,10.3,26.3,10.3,26.2,10.2C26.3,10.2,26.2,10.2,26.2,10.2 M25.3,11.9
								c-0.1,0-0.1,0-0.1,0c-0.1,0-0.2-0.2-0.4-0.3c-0.2-0.2-0.4-0.3-0.3-0.4c0-0.1,0-0.2,0.1-0.3c0.1,0,0.1-0.1,0.2-0.1
								c0,0,0.1,0,0.1,0.1c0.1,0,0.2,0.2,0.4,0.3c0.2,0.1,0.3,0.3,0.3,0.4c0,0.1,0,0.2-0.1,0.3C25.4,11.9,25.3,11.9,25.3,11.9
								 M24.8,10.4c-0.1,0-0.3,0.1-0.4,0.2c-0.1,0.2-0.2,0.4-0.2,0.6c0,0.2,0.1,0.4,0.3,0.7c0.2,0.2,0.4,0.4,0.6,0.4
								c0.1,0,0.1,0,0.2,0c0.1,0,0.2-0.1,0.3-0.2c0.1-0.2,0.2-0.4,0.2-0.6c0-0.2-0.1-0.4-0.3-0.7c-0.3-0.3-0.4-0.4-0.6-0.4
								C24.9,10.4,24.8,10.4,24.8,10.4 M25.5,9.6l-0.1,0.2l2,0.5l0.1-0.2L25.5,9.6 M26.6,9.2C26.6,9.2,26.6,9.2,26.6,9.2
								c-0.1,0-0.2,0-0.2,0c-0.1,0-0.1,0-0.1-0.1c0-0.1,0.1-0.2,0.1-0.2c0-0.1,0-0.1,0-0.1c0,0,0,0,0.1,0c0.1,0,0.2,0,0.2,0
								c0.1,0,0.1,0,0.1,0.1C26.7,9,26.7,9.1,26.6,9.2C26.7,9.2,26.7,9.2,26.6,9.2 M26.6,8.5c-0.1,0-0.2,0.1-0.3,0.1
								c-0.1,0.2-0.2,0.3-0.1,0.4c0,0.1,0,0.2,0.1,0.3c0.1,0,0.3,0.1,0.3,0.1c0,0,0,0,0.1,0c0.1,0,0.2-0.1,0.3-0.1
								C26.9,9.2,27,9,27,8.9c0-0.1,0-0.2-0.1-0.3C26.9,8.5,26.7,8.5,26.6,8.5C26.6,8.5,26.6,8.5,26.6,8.5"/>
							<path class="st6" d="M30.5,20.8l0.6,0.6l0,0c-0.1-0.1-0.3-0.3-0.3-0.5c0,0,0,0-0.1,0C30.6,20.9,30.5,20.9,30.5,20.8 M29,18.9
								c0,0.1-0.1,0.2,0,0.3l1.4,1.5c0-0.1,0-0.2,0-0.3L29,18.9"/>
							<path class="st6" d="M30.6,14.2l-1.5,1.6c-0.8,0.9-0.7,2.5,0.2,3.4l1.1,1.2c0,0,0-0.1,0.1-0.1c0,0,0-0.1,0-0.1c0,0,0,0,0,0
								l0.1,0c0,0,0,0,0,0c-0.1-0.7,0.1-1.5,0.7-2.1c0.4-0.5,0.9-0.7,1.3-0.8c0.1,0,0.2,0,0.3,0c0,0,0,0,0,0c0,0,0-0.1,0-0.1
								c0,0,0,0,0,0c0,0,0,0,0.1,0c0,0,0-0.1,0.1-0.1c0,0,0,0,0,0l-1-1.2C31.3,15,30.6,14.2,30.6,14.2"/>
							<path class="st7" d="M34.2,17.7L34.2,17.7c0,0.1,0.1,0.2,0.1,0.2l1.5,1.6L34.2,17.7C34.2,17.8,34.2,17.7,34.2,17.7
								 M31.1,20.3l0.1-0.2L31.1,20.3 M33,17.7l0.1-0.1L33,17.7 M32.6,17.2c-0.5,0.1-1,0.3-1.3,0.8c-0.6,0.6-0.8,1.4-0.7,2.1
								c0,0,0,0,0.1,0c0.1,0,0.2,0,0.3,0.1c0,0.1,0.1,0.2,0,0.3l0.6-0.8c-0.1,0.1-0.3,0.2-0.4,0.2c-0.1,0-0.2,0-0.2,0l-0.1,0.2
								L31,20c0,0,0,0,0,0l-0.1,0.2L31,20c-0.1,0-0.1-0.1-0.1-0.1c-0.2-0.2-0.2-0.7,0.1-0.8c0.1-0.1,0.2-0.2,0.3-0.2
								c0,0,0.1,0,0.1,0c-0.1-0.1-0.1-0.2,0-0.3c0,0,0,0,0,0c0-0.1,0-0.2,0.1-0.2c0,0,0-0.1,0.1-0.1c0,0,0,0,0,0
								c0-0.1,0.1-0.1,0.2-0.1c0,0,0,0,0,0c0,0,0,0,0,0c0,0,0.1,0,0.1,0l0-0.1c0,0,0,0,0,0.1c0,0,0.1,0,0.1,0.1c0,0,0,0.1-0.2,0.4
								c-0.2,0.2-0.4,0.3-0.4,0.3c0.1,0,0.2,0.1,0.3,0.2c0.1,0.2,0.2,0.4,0.1,0.6l0.1-0.2l0.4,0.1l0-0.2l0-0.2l-0.1,0l0.1,0l0,0
								l0.1,0l-0.1-0.1l0-0.1l0.2,0l-0.1-0.1l0-0.1l0.2-0.2c0,0,0,0,0,0c-0.1,0-0.3,0-0.4-0.1c-0.2-0.2-0.2-0.7,0-0.8
								c0.1-0.1,0.3-0.2,0.4-0.2s0.3,0,0.3,0.1c0.1,0.1,0.1,0.3,0.1,0.5l0.4-0.5c-0.1,0-0.1,0-0.1,0c-0.1,0-0.2,0-0.2-0.1L33,17.6
								l0.1-0.1L33,17.6l0.1-0.1C33,17.5,33,17.4,33,17.3c0,0,0,0,0,0C32.9,17.2,32.8,17.2,32.6,17.2"/>
							<path class="st6" d="M32,15.5C31.9,15.5,31.9,15.5,32,15.5l0.2,0.4l1,1.2c0.1-0.1,0.1-0.1,0.2-0.1c0.1,0,0.2,0,0.3,0.1
								c0.1,0.1,0.1,0.2,0.1,0.3l0.1-0.1c0.1,0.1,0.3,0.3,0.4,0.5l0,0l0,0l-2-2.2C32.1,15.5,32,15.5,32,15.5"/>
							<path class="st7" d="M33.2,17.5C33.2,17.5,33.1,17.5,33.2,17.5c-0.2-0.1-0.1-0.3-0.1-0.4c0,0,0-0.1,0.1-0.1
								c0.1,0,0.1,0,0.2,0c0.1,0,0,0.2,0,0.3C33.3,17.4,33.3,17.5,33.2,17.5 M33.3,16.9c-0.1,0-0.1,0-0.2,0.1c0,0,0,0,0,0
								c0,0,0,0.1-0.1,0.1c0,0,0,0,0,0l0,0.1c0,0,0,0-0.1,0c0,0,0,0,0,0c0,0.1,0,0.2,0.1,0.3c0,0.1,0.1,0.1,0.2,0.1c0,0,0.1,0,0.1,0
								l0.2-0.3c0-0.1,0-0.2-0.1-0.3C33.5,17,33.4,16.9,33.3,16.9"/>
							<path class="st8" d="M33.2,17.1C33.1,17.1,33.1,17.1,33.2,17.1c-0.1,0.2-0.2,0.3-0.1,0.4c0,0,0.1,0.1,0.1,0.1
								c0.1,0,0.1-0.1,0.2-0.1c0-0.1,0.1-0.3,0-0.3C33.3,17.1,33.2,17.1,33.2,17.1"/>
							<path class="st9" d="M33,17.1C32.9,17.1,33,17.2,33,17.1c0,0.1,0,0.1,0,0.1c0,0,0,0,0,0c0,0,0,0,0,0c0,0,0.1,0,0.1,0l0-0.1
								C33.1,17.1,33.1,17.1,33,17.1C33,17.1,33,17.1,33,17.1C33,17.1,33,17.1,33,17.1"/>
							<polyline class="st10" points="33.1,17.5 33,17.6 33.1,17.5 							"/>
							<polyline class="st10" points="33.1,17.6 33,17.7 33.1,17.6 							"/>
							<polyline class="st10" points="33.1,17.5 33,17.6 33.1,17.5 							"/>
							<path class="st11" d="M32.6,18.4c-0.1,0-0.2,0-0.3-0.1c-0.1-0.1-0.1-0.4,0-0.6c0.1-0.1,0.2-0.1,0.3-0.2c0.1,0,0.2,0,0.3,0.1
								c0.1,0.1,0.1,0.4,0,0.6C32.8,18.4,32.7,18.4,32.6,18.4 M32.5,17.5c-0.1,0-0.3,0.1-0.4,0.2c-0.1,0.2-0.2,0.6,0,0.8
								c0.1,0.1,0.3,0.1,0.4,0.1c0,0,0,0,0,0l0.4-0.5c0-0.2,0-0.4-0.1-0.5C32.8,17.5,32.7,17.5,32.5,17.5"/>
							<path class="st12" d="M32.5,18.3c0,0-0.1,0-0.1-0.1c-0.1-0.1-0.1-0.2,0-0.3c0,0,0.1,0,0.1-0.1c0.1,0,0.1,0,0.2,0
								c0.1,0.1,0,0.2,0,0.3C32.6,18.2,32.6,18.2,32.5,18.3 M32.6,17.6c-0.1,0-0.2,0.1-0.3,0.2c-0.1,0.2-0.1,0.5,0,0.6
								c0.1,0.1,0.2,0.1,0.3,0.1c0.1,0,0.2-0.1,0.3-0.2c0.1-0.2,0.1-0.5,0-0.6C32.8,17.6,32.7,17.6,32.6,17.6"/>
							<path class="st13" d="M32.6,17.8c0,0-0.1,0-0.1,0.1c-0.1,0.1-0.1,0.2,0,0.3c0,0.1,0.1,0.1,0.1,0.1c0.1,0,0.1-0.1,0.2-0.1
								c0-0.1,0.1-0.2,0-0.3C32.7,17.8,32.6,17.8,32.6,17.8"/>
							<polyline class="st10" points="31,20 30.8,20.2 31,20 							"/>
							<polyline class="st10" points="31.1,20.1 31.1,20.3 31.1,20.1 							"/>
							<polyline class="st10" points="31,20 30.9,20.2 31,20 							"/>
							<path class="st11" d="M31.2,20c-0.1,0-0.2,0-0.3-0.1c-0.1-0.1-0.1-0.4,0-0.6c0.1-0.1,0.2-0.2,0.3-0.2c0.1,0,0.2,0,0.3,0.1
								c0.1,0.1,0.1,0.4,0,0.6C31.4,19.9,31.3,20,31.2,20 M31.2,18.9c-0.1,0-0.2,0.1-0.3,0.2c-0.2,0.2-0.3,0.6-0.1,0.8
								c0,0.1,0.1,0.1,0.1,0.1c0,0,0,0,0,0c0.1,0,0.1,0,0.2,0c0.1,0,0.3-0.1,0.4-0.2l0.1-0.2c0.1-0.2,0.1-0.5-0.1-0.6
								c-0.1-0.1-0.2-0.2-0.3-0.2c0,0,0,0,0,0c0,0,0,0,0,0C31.3,18.9,31.3,18.9,31.2,18.9"/>
							<path class="st12" d="M31.2,19.6c-0.1,0-0.1,0-0.1,0c-0.1-0.1,0-0.2,0-0.3c0,0,0.1,0,0.1-0.1c0.1,0,0.1,0,0.1,0
								c0.1,0.1,0,0.2,0,0.3C31.3,19.6,31.3,19.6,31.2,19.6 M31.2,19.1c-0.1,0-0.2,0.1-0.3,0.2c-0.1,0.2-0.1,0.5,0,0.6
								C31,20,31.1,20,31.2,20c0.1,0,0.2-0.1,0.3-0.2c0.1-0.2,0.1-0.5,0-0.6C31.4,19.1,31.3,19.1,31.2,19.1"/>
							<path class="st13" d="M31.2,19.3c0,0-0.1,0-0.1,0.1c0,0.1-0.1,0.2,0,0.3c0,0,0.1,0,0.1,0c0,0,0.1,0,0.1-0.1
								c0-0.1,0.1-0.2,0-0.3C31.3,19.3,31.3,19.3,31.2,19.3"/>
							<path class="st6" d="M32.1,19.1L32.1,19.1L32.1,19.1L32.1,19.1 M33.7,17.3L33.7,17.3l-0.3,0.3L33,18.1l-0.4,0.5l-0.2,0.2
								l0,0.1l0.1,0.1l-0.2,0l0,0.1l0.1,0.1l-0.1,0l0,0.2l0,0.2l-0.4-0.1l-0.1,0.2l-0.1,0.2l-0.6,0.8c0,0.1,0,0.1-0.1,0.2
								c0,0-0.1,0.1-0.1,0.1c0,0.2,0.2,0.4,0.3,0.5c0,0,0,0,0.1,0.1c0,0,0.1,0.1,0.1,0.1c0,0,0,0,0,0c0,0,0-0.1,0.1-0.1s0.1,0,0.1,0
								c0,0,0,0,0-0.1c0,0,0-0.1,0.1-0.1c0,0,0.1,0,0.1,0c0.1,0.1,0.1,0.2,0.1,0.2l0.1,0c0.1,0,0.1,0.1,0,0.2l-0.1,0.1c0,0,0,0,0,0
								c0.4,0.1,0.7,0.2,1.1,0.1c0.5-0.1,1.1-0.3,1.5-0.8l1.5-1.6c0-0.1,0.1-0.2,0-0.2l-1.5-1.6c0,0-0.1-0.1-0.2-0.2
								C34,17.6,33.8,17.4,33.7,17.3"/>
							<path class="st7" d="M30.6,20.8C30.6,20.8,30.5,20.8,30.6,20.8c-0.2-0.1-0.1-0.3-0.1-0.4c0,0,0-0.1,0.1-0.1
								c0.1,0,0.1,0,0.2,0c0.1,0,0,0.2,0,0.3C30.7,20.7,30.7,20.8,30.6,20.8 M30.6,20.2C30.6,20.2,30.6,20.2,30.6,20.2
								C30.6,20.2,30.5,20.2,30.6,20.2L30.6,20.2c-0.1,0,0,0.1-0.1,0.1c0,0,0,0,0,0c0,0,0,0-0.1,0c0,0,0,0,0,0c0,0-0.1,0.1-0.1,0.1
								c0,0,0,0,0,0c-0.1,0.1-0.1,0.2,0,0.3c0,0,0,0.1,0.1,0.1c0,0,0,0,0.1,0c0.1,0,0.1,0.1,0.2,0.1c0,0,0,0,0.1,0
								c0,0,0.1,0,0.1-0.1c0.1-0.1,0.1-0.1,0.1-0.2c0-0.1,0-0.2,0-0.3C30.8,20.2,30.7,20.2,30.6,20.2"/>
							<path class="st8" d="M30.6,20.3C30.5,20.3,30.5,20.4,30.6,20.3c-0.1,0.2-0.2,0.3-0.1,0.4c0,0,0.1,0.1,0.1,0.1
								c0.1,0,0.1-0.1,0.2-0.1c0-0.1,0.1-0.3,0-0.3C30.7,20.4,30.7,20.3,30.6,20.3"/>
							<path class="st9" d="M30.5,20.2C30.4,20.2,30.4,20.3,30.5,20.2c0,0.1,0,0.1,0,0.1c0,0,0.1,0,0.1,0c0,0,0,0,0,0
								c0,0,0-0.1,0-0.1L30.5,20.2L30.5,20.2C30.5,20.2,30.5,20.2,30.5,20.2"/>
							<path class="st14" d="M31.4,21.8c0,0,0-0.1,0.1-0.2c0,0,0.1,0,0.2,0c0,0,0.1,0.1-0.1,0.2c0,0,0,0-0.1,0S31.4,21.9,31.4,21.8
								 M31.5,21.4C31.5,21.4,31.5,21.4,31.5,21.4c-0.1,0.2-0.1,0.2-0.1,0.2c0,0-0.1,0-0.1,0s-0.1,0-0.1,0.1c0,0,0,0,0,0
								c0,0.1-0.1,0.2,0,0.2c0,0.1-0.1,0.2,0,0.2c0,0.1,0.1,0.1,0.1,0.1c0,0,0.1,0,0.1,0c0.1,0.1,0.1,0.1,0.1,0.1c0,0,0.1,0,0.1,0
								s0.1,0,0.1-0.1c0-0.1,0-0.1,0.1-0.2c0,0,0,0,0,0l0.1-0.1c0-0.1,0.1-0.2,0-0.2l-0.1,0c0,0,0-0.1-0.1-0.2
								C31.6,21.4,31.6,21.4,31.5,21.4"/>
							<path class="st15" d="M31.5,21.6c-0.1,0.1-0.1,0.2-0.1,0.2c0,0.1,0.1,0.1,0.1,0.1s0.1,0,0.1,0c0.1-0.1,0.1-0.2,0.1-0.2
								C31.6,21.7,31.5,21.6,31.5,21.6"/>
							<path d="M31.3,18.8C31.3,18.8,31.3,18.8,31.3,18.8C31.3,18.8,31.3,18.8,31.3,18.8 M31.4,18.2C31.4,18.3,31.4,18.3,31.4,18.2
								c0,0.1-0.1,0.1-0.1,0.1c0,0,0,0,0,0c0,0,0,0,0,0C31.4,18.3,31.4,18.3,31.4,18.2 M31.7,18.1C31.7,18.1,31.6,18.1,31.7,18.1
								C31.6,18.1,31.6,18.1,31.7,18.1c-0.1,0.1-0.1,0.2-0.2,0.3c0,0.1-0.1,0.1-0.2,0.1c0,0.1,0,0.3,0,0.3c0,0,0,0,0,0c0,0,0,0,0,0
								c0,0,0.1-0.1,0.4-0.3c0.2-0.3,0.2-0.4,0.2-0.4c0,0-0.1,0-0.1-0.1c0,0.1-0.1,0.1-0.2,0.3c-0.1,0.3-0.2,0.4-0.3,0.4
								c0,0,0,0,0,0c0,0,0,0,0,0c0,0,0,0,0-0.1l0.5-0.6C31.8,18.1,31.7,18.1,31.7,18.1"/>
							<path class="st11" d="M31.3,18.8C31.3,18.8,31.3,18.8,31.3,18.8C31.3,18.8,31.3,18.8,31.3,18.8
								C31.3,18.8,31.3,18.8,31.3,18.8 M31.8,18.1L31.8,18.1l-0.6,0.7c0,0,0.1,0,0.1,0c0,0,0,0,0,0c0.1,0,0.2-0.1,0.3-0.4
								C31.7,18.3,31.8,18.2,31.8,18.1C31.8,18.1,31.8,18.1,31.8,18.1"/>
							<path class="st16" d="M31.6,18.1c-0.1,0-0.1,0-0.2,0.1c0,0,0,0.1-0.1,0.1c0,0,0,0,0,0c0,0,0,0,0,0c-0.1,0-0.1,0.1-0.1,0.2
								c0,0,0,0,0,0c0.1-0.1,0.2,0,0.2-0.1C31.6,18.3,31.6,18.2,31.6,18.1C31.6,18.1,31.6,18.1,31.6,18.1
								C31.6,18.1,31.6,18.1,31.6,18.1"/>
						</g>
					</g>
				</g>
			</g>
		</g>
	</g>
</g>
<g>
	<g>
		<g class="st0">
			<defs>
				<polygon id="SVGID_5_" class="st0" points="77.9,71.4 85.3,38 105.9,33 98.5,66.3 				"/>
			</defs>
			<clipPath id="SVGID_6_">
				<use xlink:href="#SVGID_5_"  style="overflow:visible;"/>
			</clipPath>
			<g class="st19">
				<g>
					<g>
						<g>
							<path class="st2" d="M90.2,66.8c-0.2,0.1-0.4-0.1-0.5-0.3l-1-4c-0.1-0.4,0.1-1,0.6-1.3l7.9-6.7c0.1-0.1,0.3-0.2,0.4-0.2
								c0.2-0.1,0.4,0.1,0.5,0.3l1,4c0.1,0.4-0.1,1-0.5,1.3l-7.9,6.8C90.4,66.7,90.3,66.8,90.2,66.8 M88.4,60
								c-0.2,0.1-0.4-0.1-0.5-0.3l-3.3-13.4c-0.1-0.4,0.1-1,0.5-1.3l7.9-6.8c0.1-0.1,0.3-0.2,0.4-0.2c0.2-0.1,0.4,0.1,0.5,0.3
								l3.3,13.4c0.1,0.4-0.1,1-0.6,1.3l-7.9,6.7C88.7,59.9,88.5,60,88.4,60 M92.8,36.2l-1.2,1c0,0.3-0.2,0.7-0.5,1
								c-0.1,0.1-0.3,0.2-0.4,0.2c-0.2,0-0.3,0-0.4-0.2l-1,0.8c0.1,0.3-0.1,0.9-0.4,1.1c-0.1,0.1-0.2,0.2-0.3,0.2
								c-0.2,0.1-0.4-0.1-0.4-0.3l-1,0.8c0.1,0.3-0.1,0.9-0.4,1.1c-0.1,0.1-0.2,0.2-0.3,0.2c-0.2,0.1-0.4-0.1-0.4-0.3l-1.3,1.1
								c0,0.1,0,0.1,0,0.1c0.2,0.9-0.3,2.1-1.1,2.8c-0.1,0-0.1,0-0.1,0l5.4,22c0.1,0,0.1,0,0.1,0c0.3-0.2,0.6-0.4,0.8-0.4
								c0.5-0.1,1,0.1,1.1,0.6l1.3-1.1c0-0.3,0.2-0.7,0.5-1c0.1-0.1,0.2-0.1,0.3-0.2c0.2,0,0.3,0,0.4,0.2l1-0.8c0-0.3,0.2-0.7,0.5-1
								c0.1-0.1,0.2-0.1,0.3-0.2c0.2,0,0.3,0,0.4,0.2l1-0.8c0-0.3,0.2-0.7,0.5-1c0.1-0.1,0.2-0.1,0.3-0.2c0.2,0,0.3,0,0.4,0.2
								l1.2-1.1c-0.2-0.9,0.3-2.1,1.1-2.8c0.1,0,0.1-0.1,0.2-0.1l-5.4-22.2c-0.1,0-0.1,0.1-0.2,0.1c-0.3,0.2-0.6,0.4-0.9,0.5
								C93.3,37,92.9,36.8,92.8,36.2C92.8,36.2,92.8,36.2,92.8,36.2"/>
							<path class="st3" d="M91.2,63.2c0,0-0.1,0-0.1,0.1c-0.1,0-0.1,0.1-0.1,0.2c0,0.1,0,0.2,0,0.2s0,0.1,0.1,0.1
								c0.1,0,0.1,0,0.1,0c0.1,0,0.1-0.1,0.1-0.2s0-0.2,0-0.2C91.4,63.3,91.3,63.3,91.2,63.2C91.2,63.3,91.2,63.2,91.2,63.2
								 M92.4,61.1c-0.1,0-0.1,0-0.1,0s-0.1,0.1-0.1,0.2c-0.1,0.1-0.1,0.2,0,0.2c0,0.1,0,0.1,0.1,0.1c0.1,0,0.1,0,0.1,0
								c0.1,0,0.1-0.1,0.1-0.2c0-0.1,0-0.2,0-0.2S92.4,61.1,92.4,61.1 M93.8,59.9c0,0-0.1,0-0.1,0.1c-0.1,0.1-0.2,0.2-0.2,0.4
								c0,0.2,0,0.3,0.1,0.6c0.1,0.2,0.1,0.4,0.2,0.5c0,0,0.1,0,0.1,0c0.1,0,0.1,0,0.2-0.1c0.1-0.1,0.2-0.2,0.2-0.4
								c0-0.2,0-0.3-0.1-0.6c-0.1-0.2-0.1-0.4-0.2-0.5C93.9,59.9,93.8,59.9,93.8,59.9 M90.8,64.2c-0.1,0-0.2-0.1-0.3-0.3
								c0-0.2,0-0.3,0-0.5c0-0.2,0.2-0.4,0.4-0.5c0.2-0.1,0.3-0.2,0.4-0.2c0.1,0,0.2,0.2,0.2,0.4c0,0.2,0,0.3,0,0.5
								c0,0.2-0.2,0.3-0.4,0.4C91.1,64.2,90.9,64.2,90.8,64.2 M92.4,63.1L90.7,62l0.2-0.2l1.7,1.1L92.4,63.1 M92,62
								c-0.1,0-0.2-0.1-0.3-0.3c0-0.2,0-0.3,0.1-0.5c0-0.2,0.2-0.4,0.4-0.5c0.2-0.1,0.3-0.2,0.4-0.2c0.1,0,0.2,0.1,0.3,0.3
								c0,0.2,0,0.3-0.1,0.5c-0.1,0.3-0.2,0.4-0.4,0.5S92.1,62,92,62 M93.7,61.9c-0.1,0-0.2,0-0.2,0c-0.2-0.1-0.2-0.4-0.4-0.7
								c-0.1-0.3-0.1-0.6-0.1-0.9c0.1-0.3,0.3-0.6,0.5-0.7c0.1-0.1,0.2-0.2,0.3-0.2c0.1,0,0.2,0,0.3,0.1c0.2,0,0.2,0.4,0.4,0.7
								c0.1,0.3,0.1,0.6,0.1,0.9c-0.1,0.3-0.3,0.6-0.5,0.7C94,61.8,93.8,61.9,93.7,61.9 M96.4,58.9l-0.1-0.4l0.8-0.7l0.1,0.4
								L96.4,58.9 M94.7,59.2l-0.1-0.3l1.1-0.9l0.4,1l-0.3,0.3c0,0-0.1,0-0.1,0c0,0,0,0-0.1,0.1c0,0-0.1,0-0.2,0.1
								c-0.1,0.1-0.2,0.2-0.2,0.3s-0.1,0.3,0,0.3c0,0.1,0.1,0.1,0.1,0.2c0.1,0,0.1,0,0.3-0.1c0.1-0.1,0.2-0.1,0.2-0.2s0-0.2,0.1-0.3
								l0.4-0.6c0,0.2,0,0.4-0.1,0.6c-0.1,0.2-0.2,0.4-0.5,0.6c-0.1,0.1-0.3,0.2-0.4,0.2c-0.1,0-0.1,0-0.2,0c-0.2,0-0.3-0.2-0.3-0.3
								c-0.1-0.2,0-0.4,0.1-0.7c0.1-0.2,0.2-0.4,0.4-0.5c0.1-0.1,0.2-0.1,0.2-0.1c0,0,0.1,0,0.1,0l-0.2-0.4L94.7,59.2 M97.5,54.2
								c-0.1,0-0.2,0.1-0.4,0.2l-7.9,6.7c-0.4,0.4-0.7,0.9-0.6,1.3l1,4c0.1,0.3,0.3,0.4,0.5,0.3c0.1,0,0.2-0.1,0.4-0.2l7.9-6.8
								c0.4-0.3,0.7-0.9,0.5-1.3l-1-4C98,54.3,97.8,54.2,97.5,54.2"/>
							<path class="st4" d="M88.6,52.9c-0.1,0.1-0.1,0.2-0.1,0.4c0,0.1,0.1,0.1,0.1,0.1c0.1,0,0.1-0.1,0.2-0.1
								c0.1,0,0.1-0.1,0.1-0.2c0,0,0,0,0,0c0,0,0,0,0,0.1c0,0-0.1,0.1-0.2,0.1c-0.1,0-0.2,0-0.2-0.1c0-0.1,0-0.1,0-0.2
								C88.6,52.9,88.6,52.9,88.6,52.9C88.6,52.9,88.6,52.9,88.6,52.9 M88.5,52.8c-0.3-0.2-0.5-0.6-0.6-1l-0.8-3.3L90,46
								c0.5-0.4,1-0.7,1.5-0.8c1.1-0.3,2.1,0.2,2.4,1.4c0.1,0.4,0.1,0.9,0,1.5C94,48,94.1,48,94.1,48c0.1,0,0.2,0,0.3,0.2
								c0.1,0.2,0,0.5-0.3,0.7C94,49,93.9,49,93.9,49.1c-0.1,0-0.1,0-0.1,0c-0.4,1.1-1.1,2.3-2.1,3.2c-0.5,0.5-1.1,0.8-1.6,0.9
								c-0.3,0.1-0.7,0.1-0.9,0c0,0.1-0.1,0.1-0.1,0.2c-0.1,0.1-0.2,0.1-0.2,0.1c-0.1,0-0.2,0-0.3-0.2C88.4,53.2,88.4,53,88.5,52.8
								 M93.4,38.1c-0.1,0-0.2,0.1-0.4,0.2L85.1,45c-0.4,0.3-0.7,0.9-0.5,1.3l3.3,13.4c0.1,0.3,0.3,0.4,0.5,0.3
								c0.1,0,0.2-0.1,0.4-0.2l7.9-6.7c0.4-0.3,0.7-0.9,0.6-1.3L94,38.4C93.9,38.1,93.7,38,93.4,38.1"/>
							<path class="st20" d="M89,53.1C89,53.1,89,53.1,89,53.1C89,53.1,89,53.1,89,53.1C89,53.1,89,53.1,89,53.1 M88.7,52.8
								C88.7,52.8,88.7,52.8,88.7,52.8c-0.1,0-0.1,0.1-0.1,0.1c0,0,0,0,0,0C88.7,52.8,88.7,52.8,88.7,52.8 M90.2,51.5
								c-0.1,0-0.1,0.1-0.2,0.1c-0.1,0.2-0.2,0.4-0.2,0.6c0,0.1,0.1,0.2,0.2,0.1c0,0,0.1,0,0.2-0.1c0,0,0,0,0,0
								c-0.1,0-0.2,0-0.3-0.1c-0.1-0.2,0-0.3,0.2-0.6C90.1,51.6,90.1,51.5,90.2,51.5c0.1,0,0.1,0,0.2,0.1
								C90.3,51.5,90.2,51.5,90.2,51.5 M90.3,51.1c-0.1,0-0.2,0.1-0.3,0.2c-0.2,0.2-0.4,0.5-0.4,0.8c0.1-0.2,0.2-0.4,0.4-0.6
								c0.1-0.1,0.2-0.1,0.3-0.2c0.2,0,0.3,0,0.4,0.2c0,0.1,0,0.2,0,0.3c0-0.2,0.1-0.3,0-0.4C90.7,51.1,90.5,51.1,90.3,51.1
								 M92.4,49.7c-0.1,0.1-0.2,0.3-0.1,0.5c0,0.1,0.1,0.1,0.3,0.1c0,0,0.1,0,0.1-0.1c0.1-0.1,0.3-0.4,0.2-0.5
								c0,0.2-0.1,0.4-0.2,0.4c-0.1,0.1-0.1,0.1-0.2,0.1c-0.1,0-0.2,0-0.2-0.1C92.3,49.9,92.3,49.8,92.4,49.7 M92.8,49.2
								C92.8,49.2,92.8,49.2,92.8,49.2c0.1,0,0.3,0.1,0.3,0.3c0.1,0.3-0.1,0.7-0.4,0.9c-0.1,0-0.1,0.1-0.2,0.1
								c0.1,0,0.2-0.1,0.2-0.1c0.3-0.2,0.5-0.7,0.4-0.9C93.1,49.2,92.9,49.1,92.8,49.2 M92.1,50.9C92.1,50.9,92.2,50.9,92.1,50.9
								c0,0.3-0.2,0.7-0.5,1c0,0.1-0.1,0.1-0.2,0.1c-0.1,0.1-0.2,0.1-0.3,0.1c-0.1,0-0.2,0-0.3-0.1l0-0.1c0,0,0.1-0.1,0.1-0.1
								L90.9,52c0,0,0,0,0-0.1C91.2,51.5,91.7,51.1,92.1,50.9L92.1,50.9 M89.9,52.9c-0.3,0.1-0.5-0.1-0.6-0.3
								c-0.1-0.4,0.1-1,0.6-1.4c0.1-0.1,0.3-0.2,0.4-0.2c0.3-0.1,0.5,0,0.6,0.3c0.1,0.4-0.2,1.1-0.6,1.4
								C90.1,52.8,90,52.8,89.9,52.9 M92.4,50.7c-0.3,0.1-0.5-0.1-0.6-0.3c-0.1-0.4,0.1-1,0.6-1.4c0.1-0.1,0.3-0.2,0.4-0.2
								c0.3-0.1,0.5,0.1,0.6,0.3c0.1,0.4-0.2,1.1-0.6,1.4C92.6,50.6,92.5,50.7,92.4,50.7 M91.5,45.2c-0.5,0.1-1,0.4-1.5,0.8
								l-2.9,2.5l0.8,3.3c0.1,0.4,0.3,0.8,0.6,1c0.1-0.1,0.1-0.2,0.2-0.3c0.1-0.1,0.2-0.1,0.2-0.1c0.1,0,0.2,0,0.3,0.2
								c0.1,0.2,0,0.4-0.1,0.6c0.3,0.1,0.6,0.1,0.9,0c0.5-0.1,1-0.4,1.6-0.9c1-0.9,1.7-2,2.1-3.2c-0.1,0-0.1-0.1-0.1-0.2
								c-0.1-0.2,0-0.5,0.3-0.7c0,0,0,0,0.1-0.1c0.1-0.5,0.1-1,0-1.5C93.6,45.4,92.6,44.9,91.5,45.2"/>
							<path class="st20" d="M88.7,52.8C88.7,52.7,88.8,52.7,88.7,52.8c0.1-0.1,0.2-0.1,0.2-0.2c0.1,0,0.2,0,0.2,0.1
								c0,0,0,0.1,0,0.1c0,0.1-0.1,0.2-0.1,0.3c0,0,0,0,0,0c0,0.1-0.1,0.1-0.1,0.2c0,0-0.1,0-0.2,0.1c-0.1,0-0.1,0-0.1-0.1
								c0-0.1,0-0.3,0.1-0.4C88.6,52.8,88.7,52.8,88.7,52.8C88.7,52.8,88.7,52.8,88.7,52.8 M89,52.4c-0.1,0-0.1,0.1-0.2,0.1
								c-0.1,0.1-0.2,0.2-0.2,0.3c-0.1,0.2-0.1,0.4-0.1,0.5c0,0.1,0.1,0.2,0.3,0.2c0.1,0,0.2-0.1,0.2-0.1c0.1-0.1,0.1-0.1,0.1-0.2
								c0.1-0.2,0.2-0.4,0.1-0.6C89.2,52.4,89.1,52.3,89,52.4"/>
							<path class="st20" d="M93.9,48.9c-0.1,0-0.1,0-0.1-0.1c0-0.2,0.1-0.4,0.2-0.5c0,0,0.1-0.1,0.1-0.1c0.1,0,0.2,0,0.2,0.1
								c0,0.1-0.1,0.4-0.2,0.5C94,48.8,93.9,48.8,93.9,48.9 M94.1,48c-0.1,0-0.1,0-0.2,0.1c0,0,0,0-0.1,0.1
								c-0.2,0.2-0.4,0.5-0.3,0.7c0,0.1,0.1,0.2,0.1,0.2c0,0,0.1,0,0.1,0c0.1,0,0.1-0.1,0.2-0.1c0.2-0.2,0.4-0.5,0.3-0.7
								C94.3,48,94.2,47.9,94.1,48"/>
							<path class="st21" d="M94,48.2c0,0-0.1,0-0.1,0.1c-0.1,0.1-0.2,0.3-0.2,0.5c0,0.1,0.1,0.1,0.1,0.1c0.1,0,0.1-0.1,0.2-0.1
								c0.1-0.1,0.2-0.4,0.2-0.5C94.2,48.2,94.1,48.2,94,48.2"/>
							<path class="st11" d="M89.6,52c0-0.3,0.2-0.6,0.4-0.8c0.1-0.1,0.2-0.1,0.3-0.2c0.2,0,0.4,0,0.4,0.2c0,0.1,0,0.3,0,0.4
								c0,0.3-0.2,0.5-0.4,0.8c-0.1,0.1-0.2,0.1-0.3,0.2c-0.2,0-0.3,0-0.4-0.2C89.5,52.3,89.5,52.2,89.6,52 M90.3,50.9
								c-0.1,0-0.3,0.1-0.4,0.2c-0.4,0.4-0.7,1-0.6,1.4c0.1,0.3,0.3,0.4,0.6,0.3c0.1,0,0.3-0.1,0.4-0.2c0.4-0.3,0.7-1,0.6-1.4
								C90.8,51,90.5,50.8,90.3,50.9"/>
							<path class="st22" d="M90,52.3c-0.1,0-0.2,0-0.2-0.1c0-0.2,0.1-0.4,0.2-0.6c0.1-0.1,0.1-0.1,0.2-0.1c0.1,0,0.1,0,0.2,0.1
								c0,0,0.1,0,0.1,0.1c0,0.2,0,0.3-0.2,0.6c0,0-0.1,0-0.1,0.1C90.1,52.3,90,52.3,90,52.3 M90.2,51.3c-0.1,0-0.2,0.1-0.3,0.2
								c-0.2,0.1-0.3,0.3-0.4,0.6c0,0.1-0.1,0.3,0,0.5c0.1,0.2,0.2,0.3,0.4,0.2c0.1,0,0.2-0.1,0.3-0.2c0.2-0.2,0.4-0.5,0.4-0.8
								c0-0.1,0-0.2,0-0.3C90.6,51.3,90.4,51.3,90.2,51.3"/>
							<path class="st23" d="M90.2,51.5c0,0-0.1,0-0.1,0.1c-0.2,0.2-0.3,0.4-0.2,0.6c0,0.1,0.1,0.1,0.3,0.1c0,0,0,0,0,0
								c0,0,0.1,0,0.1-0.1c0.2-0.2,0.2-0.4,0.2-0.6c0,0-0.1,0-0.1-0.1C90.3,51.5,90.2,51.5,90.2,51.5"/>
							<path class="st11" d="M92.8,49.2C92.8,49.2,92.8,49.2,92.8,49.2c0.2,0,0.3,0,0.4,0.2c0.1,0.2-0.1,0.7-0.4,0.9
								c-0.1,0.1-0.2,0.1-0.2,0.1c0,0-0.1,0-0.1,0c-0.2,0-0.3,0-0.3-0.3c-0.1-0.3,0.1-0.8,0.4-0.9C92.5,49.2,92.6,49.2,92.8,49.2
								C92.7,49.2,92.7,49.2,92.8,49.2 M92.8,48.8c-0.1,0-0.3,0.1-0.4,0.2c-0.4,0.4-0.7,1-0.6,1.4c0.1,0.3,0.3,0.4,0.6,0.3
								c0.1,0,0.3-0.1,0.4-0.2c0.4-0.3,0.7-1,0.6-1.4C93.3,48.8,93,48.7,92.8,48.8"/>
							<path class="st22" d="M92.4,49.7c0-0.1,0.1-0.1,0.1-0.2c0,0,0.1-0.1,0.1-0.1c0.1,0,0.2,0,0.3,0.1c0,0,0,0.1,0,0.1
								c0.1,0.2-0.1,0.4-0.2,0.5c0,0-0.1,0.1-0.1,0.1c-0.1,0-0.2,0-0.3-0.1C92.2,50,92.3,49.8,92.4,49.7 M92.7,49.2
								c-0.1,0-0.2,0.1-0.3,0.2c-0.3,0.2-0.5,0.6-0.4,0.9c0,0.2,0.2,0.3,0.3,0.3c0,0,0.1,0,0.1,0c0.1,0,0.1-0.1,0.2-0.1
								c0.3-0.2,0.5-0.6,0.4-0.9C93,49.2,92.9,49.1,92.7,49.2C92.7,49.2,92.7,49.2,92.7,49.2"/>
							<path class="st23" d="M92.6,49.4c0,0-0.1,0-0.1,0.1c0,0-0.1,0.1-0.1,0.2c-0.1,0.1-0.1,0.3-0.1,0.4c0,0.1,0.1,0.2,0.2,0.1
								c0.1,0,0.1-0.1,0.2-0.1c0.1-0.1,0.2-0.3,0.2-0.4c0,0,0-0.1,0-0.1C92.8,49.4,92.7,49.4,92.6,49.4"/>
							<path class="st24" d="M92.1,50.9l-1,0.9c0,0-0.1,0.1-0.1,0.1l0,0.1c0,0.1,0.1,0.1,0.3,0.1c0.1,0,0.2-0.1,0.3-0.1
								c0,0-0.1,0-0.1,0c0-0.1,0.2-0.3,0.3-0.3c0.1-0.1,0.2-0.1,0.3-0.2c-0.1,0.1-0.2,0.2-0.3,0.3C91.9,51.6,92.1,51.3,92.1,50.9
								C92.2,50.9,92.1,50.9,92.1,50.9"/>
							<path class="st25" d="M91.9,51.6c-0.1,0-0.2,0-0.3,0.2c-0.1,0-0.2,0.2-0.3,0.3c0,0,0.1,0,0.1,0c0.1,0,0.1-0.1,0.2-0.1
								C91.7,51.8,91.8,51.7,91.9,51.6"/>
							<path class="st11" d="M92.1,50.9L92.1,50.9c-0.4,0.2-0.9,0.6-1.2,1c0,0.1,0,0.1,0,0.1l0.2-0.1L92.1,50.9"/>
							<path class="st26" d="M88.9,52.6c0,0-0.1,0-0.1,0.1c0,0,0,0.1-0.1,0.1c0,0-0.1,0.1-0.1,0.1c0,0,0,0,0,0.1c0,0.1,0,0.1,0,0.2
								c0,0.1,0.1,0.1,0.2,0.1c0.1,0,0.1-0.1,0.2-0.1c0.1-0.1,0.1-0.2,0.2-0.3c0-0.1,0-0.1,0-0.1C89.1,52.6,89,52.6,88.9,52.6"/>
							<path class="st5" d="M91,63.8c-0.1,0-0.1-0.1-0.1-0.1s0-0.1,0-0.2c0-0.1,0-0.2,0.1-0.2c0-0.1,0.1-0.1,0.1-0.1c0,0,0,0,0,0.1
								c0.1,0,0.1,0,0.1,0.1c0,0,0,0.1,0,0.2s0,0.2-0.1,0.2C91.2,63.7,91.1,63.7,91,63.8 M91.4,62.7c-0.1,0-0.3,0.1-0.4,0.2
								c-0.2,0.1-0.3,0.3-0.4,0.5c0,0.2-0.1,0.4,0,0.5c0,0.2,0.1,0.3,0.3,0.3c0.1,0,0.3-0.1,0.4-0.2c0.2-0.1,0.3-0.3,0.4-0.4
								c0-0.2,0.1-0.4,0-0.5C91.6,62.9,91.5,62.7,91.4,62.7 M91,61.8L90.7,62l1.7,1.1l0.2-0.2L91,61.8 M92.2,61.5
								c-0.1,0-0.1,0-0.1-0.1c-0.1,0,0-0.1,0-0.2c0-0.1,0.1-0.2,0.1-0.2s0.1,0,0.1,0c0.1,0,0.1,0.1,0.1,0.1s0,0.1,0,0.2
								c0,0.1,0,0.2-0.1,0.2C92.3,61.5,92.3,61.5,92.2,61.5 M92.6,60.5c-0.1,0-0.3,0.1-0.4,0.2c-0.2,0.1-0.3,0.3-0.4,0.5
								c0,0.2-0.1,0.4-0.1,0.5c0,0.2,0.1,0.3,0.3,0.3c0.1,0,0.3-0.1,0.4-0.2s0.2-0.2,0.4-0.5c0-0.2,0.1-0.4,0.1-0.5
								C92.8,60.6,92.7,60.5,92.6,60.5 M93.8,61.5c-0.1,0-0.1,0-0.1,0c-0.1-0.1-0.1-0.2-0.2-0.5c-0.1-0.2-0.1-0.4-0.1-0.6
								c0-0.2,0.1-0.3,0.2-0.4c0-0.1,0.1-0.1,0.1-0.1c0,0,0.1,0,0.1,0c0.1,0.1,0.1,0.2,0.2,0.5c0.1,0.2,0.1,0.4,0.1,0.6
								c0,0.2-0.1,0.3-0.2,0.4C93.9,61.4,93.9,61.4,93.8,61.5 M93.9,59.4c-0.1,0-0.2,0.1-0.3,0.2c-0.2,0.1-0.4,0.4-0.5,0.7
								c-0.1,0.3,0,0.6,0.1,0.9c0.1,0.3,0.2,0.5,0.4,0.7c0.1,0.1,0.1,0.1,0.2,0c0.1,0,0.2-0.1,0.4-0.2c0.2-0.1,0.4-0.4,0.5-0.7
								c0.1-0.3,0-0.6-0.1-0.9c-0.1-0.3-0.2-0.6-0.4-0.7C94.1,59.4,94,59.4,93.9,59.4 M97.1,57.8l-0.8,0.7l0.1,0.4l0.8-0.7
								L97.1,57.8 M95.7,57.9l-1.1,0.9l0.1,0.3l0.9-0.7l0.2,0.4c-0.1,0-0.1,0-0.1,0c-0.1,0-0.1,0-0.2,0.1c-0.2,0.1-0.3,0.3-0.4,0.5
								c-0.1,0.3-0.2,0.5-0.1,0.7c0,0.2,0.1,0.3,0.3,0.3c0,0,0.1,0,0.2,0c0.1,0,0.2-0.1,0.4-0.2c0.2-0.2,0.4-0.4,0.5-0.6
								c0-0.2,0.1-0.4,0.1-0.6l-0.4,0.6c0,0.1,0,0.2-0.1,0.3s-0.1,0.1-0.2,0.2c-0.1,0-0.2,0-0.3,0.1c0-0.1-0.1-0.1-0.1-0.2
								c0-0.1,0-0.3,0-0.3s0.1-0.2,0.2-0.3c0.1-0.1,0.2-0.1,0.2-0.1c0,0,0.1-0.1,0.1-0.1c0,0,0.1,0,0.1,0l0.3-0.3L95.7,57.9"/>
						</g>
					</g>
				</g>
			</g>
		</g>
	</g>
</g>
<g>
	<path class="st2" d="M101.1,118.8l-3.2-3c-1,0.7-2.4,0.6-3.4-0.3c-0.9-0.9-1.1-2.3-0.5-3.3l0,0l-3.2-3c-1,0.7-2.4,0.6-3.4-0.3
		s-1.1-2.3-0.5-3.3l0,0l-3.8-3.6c-2.6,2.7-6.9,2.7-9.5,0.1c-0.3-0.1-0.4-0.4-0.5-0.5L5.3,172.8c0.1,0.1,0.4,0.4,0.5,0.5
		c2.8,2.6,2.9,6.9,0.3,9.7L6,183.1l3.8,3.6c1-0.7,2.4-0.6,3.4,0.3c0.9,0.9,1.1,2.3,0.5,3.3l3.1,2.9l0,0c1-1.1,2.8-1.1,3.9-0.1
		s1.1,2.8,0.1,3.9l0,0l0,0l3.1,2.9l0,0c1-1.1,2.8-1.1,3.9-0.1c1.1,1,1.1,2.8,0.1,3.9l0,0l0,0l4.1,3.9l0.1-0.1
		c2.6-2.8,6.9-2.9,9.7-0.3c0.1,0.1,0.3,0.3,0.3,0.3l67.7-71.3c-0.1-0.1-0.3-0.3-0.3-0.3c-2.8-2.6-2.9-6.8-0.4-9.5l-4.1-3.9
		c-1,0.7-2.4,0.6-3.4-0.3C100.6,121.3,100.4,119.8,101.1,118.8L101.1,118.8z"/>
	<path class="st3" d="M61.7,119.8c-1.3,1.3-1.2,3.3,0.1,4.5l25.7,24.4c1.3,1.3,3.3,1.2,4.5-0.1l12.1-12.9c1.3-1.3,1.2-3.3-0.1-4.5
		l-25.7-24.4c-1.3-1.1-3.3-1.2-4.5,0.1L61.7,119.8z"/>
	<path class="st4" d="M11.9,172.9c-1.3,1.3-1.2,3.3,0.1,4.5l25.8,24.5c1.3,1.3,3.3,1.2,4.5-0.1l41.2-43.7c1.3-1.3,1.2-3.3-0.1-4.5
		l-25.9-24.4c-1.3-1.1-3.3-1.2-4.5,0.1L11.9,172.9z"/>
	<g>
		<path class="st20" d="M57.8,174.4c5.1-5.6,5.1-13.8-0.3-19c-5.4-5.1-13.9-4.8-19.1,0.7c-5.1,5.6-5.4,15,0.1,20.1l0,0l9.3,8.8
			L57.8,174.4L57.8,174.4L57.8,174.4z"/>
		<path class="st20" d="M62.4,169.1c0.8-0.7,0.7-1.8-0.1-2.6c-0.7-0.8-1.8-0.7-2.6,0.1c-0.8,0.7-0.7,1.8,0.1,2.6
			C60.6,169.9,61.8,169.9,62.4,169.1z M61.8,168.6c-0.4,0.4-1.1,0.4-1.5,0c-0.4-0.4-0.4-1.1,0-1.5s1.1-0.4,1.5,0
			S62.2,168.2,61.8,168.6z"/>
		<path class="st20" d="M61.8,167c-0.4-0.4-1.2-0.4-1.5,0s-0.4,1.2,0,1.5c0.4,0.4,1.2,0.4,1.5,0S62.2,167.4,61.8,167z"/>
		<path class="st20" d="M45.7,153.3c0.8-0.7,0.7-1.8-0.1-2.6c-0.7-0.8-1.8-0.7-2.6,0.1c-0.8,0.7-0.7,1.8,0.1,2.6
			C43.7,154.1,45,154.1,45.7,153.3z"/>
		<path class="st21" d="M45.1,151.3c-0.4-0.4-1.2-0.4-1.5,0s-0.4,1.2,0,1.5c0.4,0.4,1.2,0.4,1.5,0C45.5,152.4,45.5,151.6,45.1,151.3
			z"/>
		<g>
			<path class="st11" d="M59.7,166.1c1.2-1.5,1.2-3.6-0.3-4.9c-1.5-1.2-3.6-1.2-4.9,0.3c-1.2,1.5-1.2,3.6,0.3,4.9
				C56.1,167.6,58.3,167.5,59.7,166.1z M58.8,165.3c-0.9,1.1-2.4,1.1-3.3,0.2c-0.9-0.9-1-2.4-0.1-3.4c0.9-1.1,2.4-1.1,3.3-0.2
				C59.6,162.9,59.8,164.4,58.8,165.3z"/>
			<path class="st22" d="M58.9,165.3c0.9-1.1,0.8-2.5-0.1-3.4c-1.1-0.7-2.5-0.7-3.3,0.2c-0.9,1.1-0.8,2.5,0.1,3.4
				C56.5,166.3,58,166.3,58.9,165.3z M56.3,164.6c-0.5-0.5-0.6-1.3-0.1-1.8c0.5-0.5,1.1-0.5,1.8-0.1c0.5,0.5,0.6,1.3,0.1,1.8
				C57.6,165.1,56.7,165.1,56.3,164.6z"/>
			<path class="st23" d="M58,164.6c0.5-0.5,0.5-1.3-0.1-1.8c-0.5-0.6-1.3-0.5-1.8,0.1c-0.5,0.5-0.5,1.3,0.1,1.8S57.6,165.1,58,164.6
				z"/>
		</g>
		<g>
			<path class="st11" d="M51.6,158.6c1.4-1.3,1.3-3.5-0.1-4.9c-1.3-1.4-3.5-1.3-4.9,0.1c-1.4,1.3-1.3,3.5,0.1,4.9
				C48,160,50.2,159.9,51.6,158.6z M50.7,157.8c-0.9,0.9-2.4,1-3.4,0.1c-0.9-0.9-1-2.4-0.1-3.4c0.9-0.9,2.4-1,3.4-0.1
				C51.5,155.3,51.7,156.8,50.7,157.8z"/>
			<path class="st22" d="M50.8,157.7c0.9-0.9,0.8-2.5-0.1-3.4c-0.9-0.9-2.5-0.8-3.4,0.1c-0.9,0.9-0.8,2.5,0.1,3.4
				C48.4,158.7,49.8,158.6,50.8,157.7z M50,156.9c-0.5,0.5-1.3,0.6-1.8,0.1c-0.5-0.5-0.6-1.3-0.1-1.8s1.3-0.6,1.8-0.1
				C50.5,155.8,50.5,156.5,50,156.9z"/>
			<path class="st23" d="M49.8,155.3c-0.5-0.5-1.3-0.5-1.8,0.1c-0.5,0.5-0.5,1.3,0.1,1.8s1.3,0.5,1.8-0.1
				C50.5,156.5,50.5,155.6,49.8,155.3z"/>
		</g>
		<g>
			<path class="st24" d="M56.8,159.8c0.1,0.1,0.4,0,0.4-0.1c0.4-0.9,0.1-2.2-0.9-3.1c-0.9-0.9-2.2-1.1-3.1-0.7
				c-0.1,0-0.1,0.3-0.1,0.4C53.8,157.7,55.2,159.1,56.8,159.8z"/>
			<path class="st25" d="M55.8,157c0.4,0.4,0.8,0.6,1.3,0.6c-0.1-0.4-0.4-0.8-0.8-1.1c-0.4-0.4-0.8-0.6-1.2-0.7
				C55.2,156.3,55.4,156.8,55.8,157z"/>
			<path class="st11" d="M57.1,159.7l-4-3.8c-0.1,0.1-0.1,0.3-0.1,0.4c0.8,1.4,2.3,2.8,3.7,3.5C56.8,159.8,57.1,159.8,57.1,159.7z"
				/>
		</g>
		<path class="st26" d="M61.8,167c-0.4-0.4-1.2-0.4-1.5,0s-0.4,1.2,0,1.5c0.4,0.4,1.2,0.4,1.5,0S62.2,167.4,61.8,167z"/>
	</g>
	<path class="st5" d="M72.4,117.6l2.7,2.5l1.1-1.2l-2.7-2.5L72.4,117.6z M78.1,120.6c0.3-0.3,0.6-0.4,0.9-0.4c0.4,0,0.6,0.1,0.9,0.4
		c0.4,0.2,0.4,0.6,0.4,1c-0.1,0.3-0.2,0.7-0.6,1.1c-0.2,0.4-0.6,0.7-1,0.7c-0.4,0.1-0.6,0-1-0.4c-0.3-0.3-0.4-0.4-0.4-0.5
		c0-0.3-0.1-0.6,0-0.9l-1.2-1.1l-3,4.1l3.7,3.5l1-1.1l-2.8-2.6l1.1-1.7c0.1,0.4,0.3,0.6,0.3,0.8c0.1,0.3,0.4,0.5,0.7,0.8
		c0.5,0.5,1.2,0.9,2,0.8c0.8,0,1.5-0.4,2.2-1.1c0.6-0.7,0.9-1.3,1-2.2c0.1-0.9-0.3-1.7-1.1-2.4c-0.7-0.6-1.3-1-2.1-1
		c-0.6,0-1.4,0.3-2,0.8L78.1,120.6z M85.4,126.7c-0.2,0.5-0.7,1.2-1.5,2c-0.8,0.8-1.4,1.3-1.9,1.6c-0.5,0.3-0.9,0.3-1.3-0.1
		c-0.3-0.4-0.4-0.8-0.2-1.3s0.7-1.2,1.5-2s1.4-1.3,1.9-1.6c0.6-0.3,1-0.3,1.4,0.1C85.8,125.8,85.9,126.2,85.4,126.7z M87.4,126.9
		c0.2-0.9-0.2-1.8-1-2.6c-0.8-0.9-1.7-1.1-2.6-0.8c-0.9,0.3-1.9,1-2.9,2c-1,1.1-1.6,2.1-1.8,3c-0.2,0.9,0.2,1.8,1,2.6
		c0.8,0.9,1.7,1.1,2.6,0.8s1.9-1,2.9-2C86.5,128.9,87.1,127.8,87.4,126.9z M86.2,134.8c-0.4,0-0.6-0.1-0.8-0.2
		c-0.1-0.3-0.3-0.5-0.3-0.8c0-0.4,0.1-0.6,0.2-0.8c0.3-0.1,0.5-0.3,0.8-0.3c0.4,0,0.6,0.1,0.8,0.2c0.1,0.3,0.3,0.5,0.3,0.8
		c0,0.4-0.1,0.6-0.2,0.8C86.7,134.7,86.4,134.8,86.2,134.8z M86.1,131.5c-0.6,0-1.2,0.2-1.7,0.7c-0.4,0.5-0.6,1.1-0.6,1.7
		s0.2,1.2,0.7,1.7c0.5,0.4,1.1,0.6,1.7,0.6s1.2-0.2,1.7-0.7c0.4-0.5,0.6-1.1,0.6-1.7c0.1-0.6-0.2-1.2-0.7-1.7
		C87.4,131.7,86.8,131.5,86.1,131.5z M92.9,134.6c0-0.4,0.1-0.6,0.2-0.8c0.3-0.1,0.5-0.3,0.8-0.3c0.4,0,0.6,0.1,0.8,0.2
		c0.1,0.3,0.3,0.4,0.3,0.8c0,0.4-0.1,0.5-0.2,0.8c-0.3,0.1-0.5,0.3-0.8,0.3c-0.4,0-0.6-0.1-0.8-0.2C93,135.3,92.9,135,92.9,134.6z
		 M93.8,132.4c-0.6,0-1.2,0.2-1.7,0.7c-0.4,0.5-0.6,1.1-0.6,1.7c0,0.6,0.2,1.2,0.7,1.7c0.5,0.4,1.1,0.6,1.7,0.6s1.2-0.2,1.7-0.7
		c0.4-0.5,0.6-1.1,0.6-1.7c0-0.6-0.2-1.2-0.7-1.7C95,132.5,94.5,132.3,93.8,132.4z M88.4,139.2l0.7,0.6l2.8-10.4l-0.8-0.8
		L88.4,139.2z"/>
</g>
</svg>
