<?xml version="1.0" encoding="utf-8"?>
<!-- Generator: Adobe Illustrator 22.1.0, SVG Export Plug-In . SVG Version: 6.00 Build 0)  -->
<svg version="1.1" id="Layer_1" xmlns="http://www.w3.org/2000/svg" xmlns:xlink="http://www.w3.org/1999/xlink" x="0px" y="0px"
	 viewBox="0 0 2061 778" style="enable-background:new 0 0 2061 778;" xml:space="preserve">
<style type="text/css">
	.st0{fill:#FFFFFF;fill-opacity:0.6;}
	.st1{fill:#FEFBFB;}
	.st2{fill:#432918;}
	.st3{fill:#EA2313;}
	.st4{fill:#DADADA;}
	.st5{fill:#F39200;}
	.st6{fill:#8C6244;}
	.st7{fill:#CCA183;}
	.st8{fill:#FFFFFF;}
	.st9{fill:#145F88;}
	.st10{fill:#34A3DF;}
	
		.st11{fill:#005D8F;stroke:#005D8F;stroke-width:3.15;stroke-linecap:square;stroke-dasharray:6.2919,12.5837;stroke-dashoffset:-3;}
	.st12{fill:#FFFBFB;}
	.st13{fill:#FCFCFC;}
	.st14{fill:#272A66;}
	.st15{fill:#EE6427;}
	.st16{fill:#B44C26;}
	.st17{fill:#FEE5A6;}
	.st18{fill:#773517;}
	.st19{fill:#2AAAE2;}
	.st20{fill:#070707;}
	.st21{fill:none;}
	.st22{fill:#EC2227;}
	.st23{fill:#F27BAA;}
	.st24{fill:#C2082C;}
	.st25{fill:#005D8F;stroke:#005D8F;stroke-width:1.23;stroke-linecap:square;stroke-dasharray:2.4637,4.9275;stroke-dashoffset:-1;}
	.st26{fill:#005D8F;stroke:#005D8F;stroke-width:1.75;stroke-linecap:square;stroke-dasharray:3.4953,6.9906;stroke-dashoffset:-1;}
	.st27{fill:#EF6326;}
	.st28{fill:#BC6138;}
	.st29{fill:#29ABE2;}
	.st30{fill:#050505;}
	.st31{fill:#562912;}
	.st32{fill:#CC342F;}
	.st33{fill:#AB471B;}
	
		.st34{fill:#005D8F;stroke:#005D8F;stroke-width:4.19;stroke-linecap:square;stroke-dasharray:8.3852,16.7704;stroke-dashoffset:-4;}
</style>
<title>Artboard 1</title>
<path class="st0" d="M421.8,516.6l3.2-3.7c0.4-0.6,0-1.4-0.6-1.4l-2.7-0.2c-0.5,0-0.8-0.6-0.6-1l5.8-10.6c0.1-0.3-0.1-0.6-0.4-0.6
	h-9c-0.1,0-0.2,0.1-0.3,0.2c-5.2,7.9-12,10.8-15.4,11s-23.5,0-33.9,0c-12.3,0-14.6,3-19,6.9c-4.8,4.1-3.2,8.1,2.4,8.5
	c3.9,0.4,34.1,0.3,51.3,0.2C410,525.7,417.1,522.3,421.8,516.6z"/>
<path class="st1" d="M1710.6,132.9c-3.5,0-6.7,1-9.3,2.6c-4-6.3-11-10.6-19-10.6c-9.9,0-18.2,6.3-21.2,15.3c-1.7-0.6-3.5-1-5.3-1
	c-8.4,0-15.2,6.8-15.2,15.2s6.8,15.2,15.2,15.2h54.8c10.2,0,18.4-8.2,18.4-18.4C1729,141.1,1720.7,132.9,1710.6,132.9z"/>
<path class="st1" d="M1175.6,317.5c-4.9,0-9.4,1.4-13.2,3.6c-5.6-8.9-15.5-14.9-26.8-14.9c-13.9,0-25.7,8.9-30,21.6
	c-2.4-0.9-4.9-1.4-7.5-1.4c-11.9,0-21.4,9.5-21.4,21.4s9.5,21.4,21.4,21.4h77.2c14.4,0,26-11.5,26-26
	C1201.4,329.1,1189.7,317.5,1175.6,317.5z"/>
<path class="st1" d="M1562.2,206.2c-6.2,0-11.9,1.7-16.7,4.6c-7.2-11.3-19.7-18.9-34-18.9c-17.6,0-32.6,11.3-38,27.3
	c-3-1.1-6.2-1.7-9.5-1.7c-15.1,0-27.2,12.1-27.2,27.2c0,15.1,12.1,27.2,27.2,27.2h97.9c18.3,0,32.9-14.6,32.9-32.9
	C1594.9,221,1580.2,206.2,1562.2,206.2z"/>
<path class="st1" d="M2124.7,180.8c-9.7,0-18.7,2.7-26.2,7.2c-11.2-17.7-30.9-29.7-53.4-29.7c-27.7,0-51.1,17.7-59.6,42.9
	c-4.7-1.7-9.7-2.7-15-2.7c-23.7,0-42.6,19-42.6,42.6c0,23.7,19,42.6,42.6,42.6h153.6c28.7,0,51.6-22.9,51.6-51.6
	C2176.1,204,2152.9,180.8,2124.7,180.8z"/>
<g>
	<g>
		<path class="st2" d="M335.1,143c0.3,0.4,2.6,11.7,2.6,11.7L335.1,143z"/>
		<path d="M337.3,154.8l0.7-0.1c-0.7-3.4-2.4-11.4-2.6-11.8l-0.5,0.3C335,143.7,336.4,150.4,337.3,154.8z"/>
	</g>
	<g>
		<path class="st2" d="M343.8,154.7c0,0,2.3-11.3,2.6-11.7L343.8,154.7z"/>
		<path d="M344.1,154.8c0.9-4.4,2.3-11.1,2.6-11.6l-0.6-0.3c-0.3,0.4-1.9,8.4-2.6,11.8L344.1,154.8z"/>
	</g>
	<path class="st3" d="M340.7,93.8c-12.1,0-21.1,9.8-21.1,20.3c0,15.1,12.8,28.5,16,31.5c1.3-1.6,3-2.3,5.1-2.3s3.8,0.7,5.1,2.3
		c3.2-3.1,16-16.4,16-31.5C361.8,103.6,352.8,93.8,340.7,93.8z"/>
	<path class="st4" d="M338.8,149.4c0,0.4,0.3,0.7,0.7,0.7h2.2c0.4,0,0.7-0.3,0.7-0.7v-2.2h-3.6L338.8,149.4L338.8,149.4z"/>
	<path class="st5" d="M340.7,146.9c0.9,0,1.1-1,0.7-1.4s-0.5-1.5-0.5-1.5s-0.6,0.5-0.4,1.2c0.3,0.8-0.1,0.8-0.1,0.8
		c-0.2,0-0.2-0.7-0.2-0.7c-0.1,0.4-0.4,0.6-0.3,0.9C339.9,146.9,340.4,146.9,340.7,146.9z"/>
	<path class="st2" d="M346.3,159c0-0.1-0.1-0.3-0.3-0.3h-10.7c-0.1,0-0.3,0.1-0.3,0.3s0.1,0.3,0.3,0.3H346
		C346.2,159.2,346.3,159.1,346.3,159z"/>
	<path class="st6" d="M342.3,153.4h-1.9h-4.2c-0.4,0-0.7,0.3-0.7,0.7v4.6h2.7h2.3h0.3h1.4h3.8v-3.1v-0.5V154c0-0.4-0.3-0.7-0.7-0.7
		L342.3,153.4L342.3,153.4z"/>
	<path class="st7" d="M336.1,156.5c-0.2,0.3-0.1,0.7,0.1,0.9l1.9,1.3h2.3l-3.5-2.4C336.7,156.1,336.3,156.2,336.1,156.5z"/>
	<path class="st7" d="M336.2,155.1c-0.1,0.2-0.1,0.4,0.1,0.5l4.5,3.1h1.4l-5.4-3.8C336.6,154.8,336.4,154.9,336.2,155.1z"/>
	<path class="st7" d="M345.6,156.3c0.2-0.3,0.1-0.6-0.1-0.8l-3.1-2.2h-1.9l4.4,3.1C345.1,156.6,345.4,156.5,345.6,156.3z"/>
	<path class="st7" d="M344.1,153.8c-0.1-0.1-0.2-0.1-0.3,0.1c-0.1,0.1-0.1,0.2,0.1,0.3l2.2,1.5v-0.5L344.1,153.8z"/>
	<path class="st8" d="M340.7,93.8c13.7,8.3,2.2,46.8,0.9,49.6l0,0c0.7,0.1,1.2,0.2,1.8,0.5l0,0C362.7,108.8,349.8,96.4,340.7,93.8z"
		/>
	<path class="st8" d="M340.7,93.8c-9.1,2.6-21.9,15-2.7,50.1l0,0c0.6-0.3,1.2-0.4,1.8-0.5l0,0C338.5,140.6,327,102.1,340.7,93.8z"/>
</g>
<g>
	<path class="st9" d="M1852.1,419.5c-0.8-2.7,0.3-5.7,2.8-7.2c2.5-1.5,5.7-0.9,7.7,1.1l11.3-6.5c-4-7.4-1.5-16.7,5.8-20.9
		c0.2-0.1,0.4-0.2,0.7-0.4L1768,192.3c-0.2,0.1-0.4,0.3-0.6,0.4c-7.4,4.3-16.9,1.8-21.2-5.6c-0.1-0.2-0.2-0.4-0.3-0.6l-11.2,6.5l0,0
		l0,0c1.7,3,0.7,6.8-2.3,8.5c-3,1.7-6.8,0.8-8.5-2.3l0,0l-8.3,4.8l0,0l0,0c1.7,3,0.7,6.8-2.3,8.5c-3,1.7-6.8,0.8-8.5-2.3l0,0
		l-8.3,4.9c0.8,2.7-0.4,5.6-2.9,7.1s-5.7,0.9-7.6-1l-10.5,6.1c0.1,0.2,0.2,0.4,0.3,0.5c4.3,7.4,1.8,16.9-5.6,21.2
		c-0.5,0.3-0.9,0.6-1.4,0.8l112.5,193.5c0.5-0.3,0.9-0.7,1.4-0.8c7.3-4.2,16.7-1.8,21,5.4l10.5-6l0,0c-0.8-2.7,0.3-5.7,2.8-7.2
		c2.5-1.5,5.7-0.9,7.7,1.1l8.5-4.9l0,0c-0.8-2.7,0.3-5.7,2.8-7.2c2.5-1.5,5.7-0.9,7.7,1.1L1852.1,419.5L1852.1,419.5z"/>
	<path class="st10" d="M1785.7,431.2c2,3.4,6.4,4.5,9.8,2.6l70-40.4c3.4-2,4.6-6.4,2.6-9.8l-20.2-35c-2-3.4-6.4-4.6-9.8-2.6
		l-69.9,40.3c-3.4,2-4.6,6.4-2.6,9.8L1785.7,431.2z"/>
	<path class="st11" d="M1750.8,390.3l99.1-57.2L1750.8,390.3z"/>
	<path class="st12" d="M1751.2,370.8c2,3.4,6.4,4.5,9.8,2.6l70-40.4c3.4-2,4.6-6.4,2.6-9.8l-68.2-118.1c-2-3.4-6.4-4.6-9.8-2.6
		l-69.9,40.3c-3.4,2-4.6,6.4-2.6,9.8L1751.2,370.8z"/>
	<path class="st13" d="M1789.8,410.4l7.2-4.1l-2-3.4l-7.2,4.1L1789.8,410.4z M1798.8,406.1c1.1,1.6,2.5,2.6,4.1,2.9
		c1.7,0.3,3.4-0.1,5.1-1c2.2-1.2,3.4-2.8,3.7-4.8c0.3-2,0-3.8-0.9-5.4c-1.1-2-2.5-3.1-4.2-3.5c-1.7-0.4-3.3-0.1-4.8,0.8
		c-0.8,0.5-1.3,0.8-1.7,1.4c-0.3,0.3-0.6,0.8-0.8,1.5l-1.7-4.3l7.4-4.3l-1.8-3l-10,5.8l4.5,10.8l3.3-1.7c0-0.8,0.2-1.3,0.7-1.9
		c0.3-0.3,0.6-0.6,1-0.8c0.9-0.6,1.8-0.6,2.6-0.2c0.8,0.4,1.5,1,2,2c0.6,0.9,0.8,1.9,0.7,2.7c-0.1,0.9-0.6,1.6-1.5,2.1
		c-0.8,0.5-1.5,0.6-2.2,0.4s-1.2-0.7-1.9-1.3L1798.8,406.1z M1820.9,396.5c-1,0.7-2.1,0.5-3.1-0.5c-0.9-0.9-2.1-2.4-3.3-4.5
		c-1.2-2.2-2.1-3.9-2.3-5.2c-0.3-1.2,0.1-2.2,1.2-2.8c1-0.7,2.1-0.5,3,0.4s2.1,2.3,3.3,4.6c1.2,2.1,2,3.8,2.3,5.1
		C1822.4,394.9,1822,395.9,1820.9,396.5z M1823.4,386.5c-1.7-3-3.6-5.1-5.4-6.1c-1.9-1.1-3.9-0.9-6.3,0.4c-2.3,1.3-3.5,3.1-3.5,5.3
		c0,2.2,0.8,4.8,2.6,7.8c1.7,3,3.6,5.1,5.4,6.1c1.9,1.1,3.9,0.9,6.3-0.4c2.3-1.3,3.5-3.1,3.5-5.3
		C1826,392,1825.2,389.5,1823.4,386.5z M1829,377.2c0.3,0.6,0.4,1.1,0.2,1.8c-0.2,0.7-0.6,1.1-1,1.4c-0.6,0.3-1.1,0.4-1.8,0.2
		c-0.7-0.2-1.1-0.6-1.4-1c-0.3-0.6-0.4-1.1-0.2-1.8s0.6-1,1-1.4c0.6-0.3,1.1-0.4,1.8-0.2C1828.3,376.3,1828.7,376.6,1829,377.2z
		 M1829.7,383c1.3-0.8,2.2-1.9,2.5-3.3c0.4-1.4,0.2-2.8-0.6-4.1c-0.8-1.3-1.9-2.2-3.3-2.5s-2.8-0.2-4.1,0.6
		c-1.3,0.8-2.2,1.9-2.5,3.3c-0.4,1.4-0.2,2.8,0.6,4.1s1.9,2.2,3.3,2.5C1827,384,1828.5,383.8,1829.7,383z M1843.4,378.4
		c0.6-0.3,1.1-0.4,1.8-0.2c0.7,0.2,1.1,0.6,1.4,1c0.3,0.6,0.4,1.1,0.2,1.8c-0.2,0.7-0.6,1.1-1,1.4c-0.6,0.3-1.1,0.4-1.8,0.2
		c-0.7-0.2-1.1-0.6-1.4-1c-0.3-0.6-0.4-1.1-0.2-1.8C1842.4,379.3,1842.8,378.8,1843.4,378.4z M1847.2,385.1c1.3-0.8,2.2-1.9,2.5-3.3
		c0.4-1.4,0.2-2.8-0.6-4.1c-0.8-1.3-1.9-2.2-3.3-2.5c-1.4-0.4-2.8-0.2-4.1,0.6c-1.3,0.8-2.2,1.9-2.5,3.3c-0.4,1.4-0.2,2.8,0.6,4.1
		c0.8,1.3,1.9,2.2,3.3,2.5S1845.9,385.8,1847.2,385.1z M1835.1,392.2l2-1.1l-0.7-24.5l-1.9,1.1L1835.1,392.2z"/>
	<g>
		<path class="st14" d="M1752.2,320.9L1752.2,320.9l-18-31.8l-2,0.8l17,30.2C1749.9,321.1,1751.2,321.5,1752.2,320.9z"/>
		<path class="st14" d="M1734.5,290l15.2,26.8c7.4,13.1,22.1,18.8,32.9,12.7l19.3-11c0,0-5.9-10.6-13.3-23.6l-15.8-27.9L1734.5,290z
			"/>
		<path class="st15" d="M1774.1,266L1774.1,266l-12.8-22.6l-19.9,11.3l0,0c-11.5,6.6-15.3,23.2-8.6,34.9
			c6.7,11.7,21.2,15.9,32.9,9.2C1777.2,292.1,1780.8,277.8,1774.1,266C1774.1,266.1,1774.1,266,1774.1,266z"/>
		<path class="st14" d="M1791.7,300.2c1-0.6,1.4-2,0.8-3l-17-29.8l-3.2,1.9L1791.7,300.2z"/>
		<path class="st15" d="M1774.2,280.4c0.9,1.6,2.9,2.2,4.5,1.2c1.6-0.9,2.2-2.9,1.2-4.5c-0.9-1.6-2.9-2.2-4.5-1.2
			C1774,276.8,1773.4,278.8,1774.2,280.4z"/>
		<path class="st16" d="M1775.5,279.7c0.6,0.9,1.7,1.3,2.6,0.8c0.9-0.6,1.3-1.7,0.8-2.6c-0.6-0.9-1.7-1.3-2.6-0.8
			C1775.3,277.6,1775,278.7,1775.5,279.7z"/>
		<path class="st17" d="M1778.5,281.4c-0.3-0.5-0.8-0.6-1.2-0.4c-0.5,0.3-0.6,0.8-0.4,1.2c0.3,0.5,0.8,0.6,1.2,0.4
			C1778.6,282.5,1778.7,281.9,1778.5,281.4z"/>
		<path class="st18" d="M1773.8,281.3l1.5-1l-1.7,0.7L1773.8,281.3z"/>
		<path class="st18" d="M1772.6,279.8l1.1-1.4l-1.4,1.1L1772.6,279.8z"/>
		<path class="st18" d="M1773.2,280.7l1.2-1.2l-1.5,0.9L1773.2,280.7z"/>
		<g>
			<g>
				<path class="st8" d="M1763,287.2c1.6,3,5.4,4.1,8.4,2.5c3-1.6,4.1-5.4,2.5-8.4s-5.4-4.1-8.4-2.5
					C1762.5,280.3,1761.4,284.1,1763,287.2z"/>
				<path class="st19" d="M1764.8,286.1c1.1,2.1,3.7,2.8,5.7,1.7s2.8-3.7,1.7-5.7c-1.1-2.1-3.7-2.8-5.7-1.7
					C1764.5,281.5,1763.7,284.1,1764.8,286.1z"/>
				<path class="st20" d="M1766.5,285.3c0.6,1.1,1.9,1.6,3.1,0.9c1.1-0.6,1.5-2,0.9-3.1s-2-1.5-3.1-0.9
					C1766.3,282.8,1765.9,284.2,1766.5,285.3z"/>
			</g>
			<path class="st21" d="M1766,292.7l11.1-6.3l-6.1-10.8l-11.1,6.3L1766,292.7z"/>
		</g>
		<g>
			<path class="st18" d="M1745.3,295.5l-1.7,0.8l1.8-0.4L1745.3,295.5z"/>
			<path class="st18" d="M1745,293.5l-1.8,0.3l1.8,0.2V293.5z"/>
			<path class="st18" d="M1745.1,294.6l-1.8,0.4h1.8V294.6z"/>
			<g>
				<g>
					<path class="st8" d="M1756.6,290.9c-1.7-3-5.5-4-8.4-2.3c-3,1.7-4,5.4-2.3,8.4c1.7,3,5.5,4,8.4,2.3
						C1757.3,297.7,1758.3,293.9,1756.6,290.9z"/>
					<path class="st19" d="M1754.8,291.9c-1.1-2.1-3.8-2.7-5.7-1.6c-2.1,1.1-2.7,3.8-1.6,5.7c1.1,2.1,3.8,2.7,5.7,1.6
						C1755.3,296.5,1756,293.9,1754.8,291.9z"/>
					<path class="st20" d="M1753.2,292.9c-0.7-1.1-2.1-1.5-3.1-0.8c-1.1,0.7-1.5,2.1-0.8,3.1c0.7,1.1,2.1,1.5,3.1,0.8
						C1753.6,295.2,1753.9,293.9,1753.2,292.9z"/>
				</g>
				<path class="st21" d="M1748.8,302.5l10.9-6.2l-6.1-10.8l-10.9,6.2L1748.8,302.5z"/>
			</g>
		</g>
		<path class="st14" d="M1759.6,242.3l-19,10.8l0,0c-11.9,6.8-15.9,24-9,36.1c1.4,2.4,3.1,4.6,5.1,6.4l16.4-8.1l0.4-4.8l2,1.4
			l1.8,1.2l0.1-0.8l0.1-1.1l0.9,0.7l0.8,0.6l0,0l0.1-0.9l0.1-1.1l0.9,0.7l0.8,0.6l18.6-9.2c-1.2-2.3-3.8-7-5.3-9.5l0,0l0,0l-12.5-22
			C1761.3,242.2,1760.4,242,1759.6,242.3z"/>
		<path class="st15" d="M1736.3,299c0.9,1.6,2.9,2.2,4.5,1.2c1.6-0.9,2.2-2.9,1.2-4.5c-0.9-1.6-2.9-2.2-4.5-1.2
			C1735.9,295.3,1735.3,297.4,1736.3,299z"/>
		<path class="st16" d="M1737.4,298.3c0.6,0.9,1.7,1.3,2.6,0.8c0.9-0.6,1.3-1.7,0.8-2.6c-0.6-0.9-1.7-1.3-2.6-0.8
			C1737.2,296.2,1736.9,297.4,1737.4,298.3z"/>
		<path class="st17" d="M1742.6,299c-0.3-0.5-0.8-0.6-1.2-0.4c-0.5,0.3-0.6,0.8-0.4,1.2c0.3,0.5,0.8,0.6,1.2,0.4
			C1742.7,300,1742.9,299.4,1742.6,299z"/>
		<g>
			<path class="st22" d="M1731.5,281.3c0.1-0.4,0-0.8-0.2-1.1c-0.5-0.8-1.4-1-2.2-0.6c-0.4,0.2-0.7,0.6-0.8,1
				c-0.5-0.4-1.2-0.5-1.8-0.2c-0.8,0.5-1,1.4-0.6,2.2c0.2,0.3,0.4,0.5,0.7,0.7c-0.6,0.5-0.8,1.3-0.4,2c0.5,0.8,1.4,1,2.2,0.6
				c0.1-0.1,0.2-0.1,0.3-0.2l0,0c0.5,0.8,1.4,1,2.2,0.6c0.7-0.4,0.9-1,0.8-1.7c0.3,0,0.5-0.1,0.8-0.2c0.8-0.5,1-1.4,0.6-2.2
				C1732.6,281.5,1732,281.2,1731.5,281.3z M1728.9,283.6L1728.9,283.6c-0.2-0.3-0.4-0.5-0.7-0.7c0.3-0.2,0.5-0.6,0.6-0.8
				c0.3,0.3,0.8,0.4,1.1,0.4c-0.1,0.2-0.1,0.5,0,0.7c-0.3,0-0.5,0.1-0.8,0.2C1729.1,283.4,1729,283.5,1728.9,283.6z"/>
			<path class="st23" d="M1730.3,282.3c-0.3-0.6-1-0.8-1.6-0.5c-0.6,0.3-0.8,1-0.5,1.6c0.3,0.6,1,0.8,1.6,0.5
				C1730.4,283.5,1730.6,282.8,1730.3,282.3z"/>
		</g>
		<g>
			<path d="M1758,295.1c1.4,1.7,3.8,2.2,5.9,1c1.9-1.1,2.7-3.4,2.1-5.3c0,0-0.9-0.5-4.3,1.4C1758.4,294.1,1758,295.1,1758,295.1z"/>
			<path class="st8" d="M1758.5,295.6l7.6-4.3c0-0.2-0.1-0.4-0.1-0.6c0,0-0.9-0.5-4.3,1.4s-3.7,2.9-3.7,2.9
				C1758.2,295.3,1758.3,295.4,1758.5,295.6L1758.5,295.6z"/>
			<path class="st24" d="M1765.7,294.3c-0.8-0.1-1.7,0.1-2.5,0.6c-0.8,0.5-1.4,1.1-1.8,1.9c0.8,0.1,1.7-0.2,2.5-0.7
				C1764.7,295.7,1765.3,295,1765.7,294.3z"/>
		</g>
	</g>
</g>
<g>
	<path class="st9" d="M1625.4,105.7c-0.3-1.1,0.1-2.4,1.2-3s2.4-0.4,3.2,0.5l4.7-2.7c-1.7-3.1-0.6-7,2.4-8.7c0.1,0,0.2-0.1,0.3-0.1
		L1590.3,11c-0.1,0.1-0.2,0.1-0.2,0.2c-3.1,1.8-7,0.7-8.8-2.4c0-0.1-0.1-0.1-0.1-0.2l-4.6,2.7l0,0l0,0c0.7,1.2,0.3,2.8-1,3.6
		c-1.2,0.7-2.8,0.3-3.6-1l0,0l-3.4,2l0,0l0,0c0.7,1.2,0.3,2.8-1,3.6c-1.2,0.7-2.8,0.3-3.6-1l0,0l-3.5,2c0.3,1.1-0.1,2.4-1.2,3
		s-2.4,0.4-3.2-0.4l-4.4,2.5c0,0.1,0.1,0.1,0.1,0.2c1.8,3.1,0.7,7-2.4,8.8c-0.2,0.1-0.4,0.2-0.6,0.3l47,80.8
		c0.2-0.1,0.4-0.3,0.6-0.4c3.1-1.8,7-0.8,8.8,2.3l4.4-2.5l0,0c-0.3-1.1,0.1-2.4,1.2-3s2.4-0.4,3.2,0.5l3.6-2l0,0
		c-0.3-1.1,0.1-2.4,1.2-3s2.4-0.4,3.2,0.5L1625.4,105.7L1625.4,105.7z"/>
	<path class="st10" d="M1597.6,110.6c0.8,1.4,2.7,1.9,4.1,1.1l29.2-16.9c1.4-0.8,1.9-2.6,1.1-4.1l-8.4-14.6
		c-0.8-1.4-2.6-1.9-4.1-1.1l-29.2,16.8c-1.4,0.8-1.9,2.6-1.1,4.1L1597.6,110.6z"/>
	<path class="st25" d="M1583.1,93.6l41.4-23.9L1583.1,93.6z"/>
	<path class="st12" d="M1583.2,85.4c0.8,1.4,2.7,1.9,4.1,1.1l29.2-16.9c1.4-0.8,1.9-2.6,1.1-4.1l-28.5-49.3
		c-0.8-1.4-2.6-1.9-4.1-1.1l-29.2,16.8c-1.4,0.8-1.9,2.6-1.1,4.1L1583.2,85.4z"/>
	<path class="st13" d="M1599.4,101.9l3-1.7l-0.8-1.4l-3,1.7L1599.4,101.9z M1603.1,100.1c0.5,0.7,1,1.1,1.7,1.2s1.4,0,2.1-0.4
		c0.9-0.5,1.4-1.2,1.5-2s0-1.6-0.4-2.3c-0.5-0.8-1.1-1.3-1.8-1.4s-1.4,0-2,0.3c-0.3,0.2-0.6,0.4-0.7,0.6c-0.1,0.1-0.2,0.3-0.4,0.6
		l-0.7-1.8l3.1-1.8l-0.7-1.3l-4.2,2.4l1.9,4.5l1.4-0.7c0-0.3,0.1-0.6,0.3-0.8c0.1-0.1,0.2-0.2,0.4-0.3c0.4-0.2,0.7-0.3,1.1-0.1
		c0.3,0.2,0.6,0.4,0.8,0.8c0.2,0.4,0.3,0.8,0.3,1.1c0,0.4-0.2,0.7-0.6,0.9c-0.3,0.2-0.6,0.2-0.9,0.2c-0.3-0.1-0.5-0.3-0.8-0.6
		L1603.1,100.1z M1612.3,96.1c-0.4,0.3-0.9,0.2-1.3-0.2s-0.9-1-1.4-1.9s-0.8-1.6-1-2.2c-0.1-0.5,0.1-0.9,0.5-1.2s0.9-0.2,1.3,0.2
		s0.9,1,1.4,1.9s0.8,1.6,0.9,2.1C1612.9,95.5,1612.8,95.9,1612.3,96.1z M1613.4,91.9c-0.7-1.3-1.5-2.1-2.3-2.6s-1.7-0.4-2.6,0.2
		c-1,0.6-1.4,1.3-1.4,2.2s0.4,2,1.1,3.2c0.7,1.3,1.5,2.1,2.3,2.6s1.7,0.4,2.6-0.2c1-0.6,1.5-1.3,1.4-2.2
		C1614.5,94.3,1614.1,93.2,1613.4,91.9z M1615.7,88.1c0.1,0.2,0.2,0.5,0.1,0.7c-0.1,0.3-0.2,0.5-0.4,0.6c-0.2,0.1-0.5,0.2-0.7,0.1
		s-0.4-0.2-0.6-0.4c-0.1-0.2-0.2-0.5-0.1-0.7c0.1-0.3,0.2-0.5,0.4-0.6c0.2-0.1,0.5-0.2,0.7-0.1S1615.6,87.8,1615.7,88.1z M1616,90.5
		c0.5-0.3,0.9-0.8,1-1.4c0.2-0.6,0.1-1.2-0.2-1.7c-0.3-0.5-0.8-0.9-1.4-1c-0.6-0.2-1.2-0.1-1.7,0.2s-0.9,0.8-1,1.4
		c-0.2,0.6-0.1,1.2,0.2,1.7c0.3,0.5,0.8,0.9,1.4,1C1614.9,90.9,1615.5,90.8,1616,90.5z M1621.7,88.6c0.2-0.1,0.5-0.2,0.7-0.1
		c0.3,0.1,0.5,0.2,0.6,0.4s0.2,0.5,0.1,0.7c-0.1,0.3-0.2,0.5-0.4,0.6s-0.5,0.2-0.7,0.1s-0.5-0.2-0.6-0.4s-0.2-0.5-0.1-0.7
		C1621.3,88.9,1621.5,88.7,1621.7,88.6z M1623.3,91.4c0.5-0.3,0.9-0.8,1-1.4c0.2-0.6,0.1-1.2-0.2-1.7c-0.3-0.5-0.8-0.9-1.4-1
		c-0.6-0.2-1.2-0.1-1.7,0.2s-0.9,0.8-1,1.4c-0.2,0.6-0.1,1.2,0.2,1.7c0.3,0.5,0.8,0.9,1.4,1C1622.2,91.8,1622.8,91.7,1623.3,91.4z
		 M1618.2,94.3l0.8-0.5l-0.3-10.2l-0.8,0.5L1618.2,94.3z"/>
	<g>
		<path class="st14" d="M1583.6,64.6L1583.6,64.6l-7.5-13.3l-0.8,0.3l7.1,12.6C1582.6,64.7,1583.2,64.8,1583.6,64.6z"/>
		<path class="st14" d="M1576.3,51.6l6.4,11.2c3.1,5.5,9.3,7.8,13.7,5.3l8.1-4.6c0,0-2.5-4.4-5.6-9.9l-6.6-11.7L1576.3,51.6z"/>
		<path class="st15" d="M1592.8,41.6L1592.8,41.6l-5.4-9.5l-8.3,4.7l0,0c-4.8,2.7-6.4,9.7-3.6,14.6c2.8,4.9,8.8,6.6,13.7,3.9
			C1594.1,52.5,1595.6,46.5,1592.8,41.6L1592.8,41.6z"/>
		<path class="st14" d="M1600.1,55.9c0.4-0.2,0.6-0.8,0.3-1.2l-7.1-12.5L1592,43L1600.1,55.9z"/>
		<path class="st15" d="M1592.9,47.6c0.4,0.7,1.2,0.9,1.9,0.5c0.7-0.4,0.9-1.2,0.5-1.9s-1.2-0.9-1.9-0.5
			C1592.7,46.1,1592.5,47,1592.9,47.6z"/>
		<path class="st16" d="M1593.4,47.4c0.2,0.4,0.7,0.5,1.1,0.3s0.5-0.7,0.3-1.1c-0.2-0.4-0.7-0.5-1.1-0.3
			C1593.3,46.5,1593.1,47,1593.4,47.4z"/>
		<path class="st17" d="M1594.6,48.1c-0.1-0.2-0.3-0.2-0.5-0.1c-0.2,0.1-0.3,0.3-0.1,0.5c0.1,0.2,0.3,0.3,0.5,0.1
			C1594.6,48.5,1594.7,48.3,1594.6,48.1z"/>
		<path class="st18" d="M1592.7,48.1l0.6-0.4l-0.7,0.3L1592.7,48.1z"/>
		<path class="st18" d="M1592.2,47.4l0.5-0.6L1592.2,47.4L1592.2,47.4z"/>
		<path class="st18" d="M1592.4,47.8l0.5-0.5L1592.4,47.8L1592.4,47.8z"/>
		<g>
			<g>
				<path class="st8" d="M1588.2,50.5c0.7,1.3,2.3,1.7,3.5,1.1c1.3-0.7,1.7-2.3,1.1-3.5c-0.7-1.3-2.3-1.7-3.5-1.1
					C1588,47.6,1587.5,49.2,1588.2,50.5z"/>
				<path class="st19" d="M1588.9,50.1c0.5,0.9,1.5,1.2,2.4,0.7s1.2-1.5,0.7-2.4s-1.5-1.2-2.4-0.7
					C1588.8,48.1,1588.5,49.2,1588.9,50.1z"/>
				<path class="st20" d="M1589.6,49.7c0.3,0.5,0.8,0.7,1.3,0.4s0.6-0.8,0.4-1.3c-0.3-0.5-0.8-0.6-1.3-0.4
					C1589.5,48.6,1589.4,49.2,1589.6,49.7z"/>
			</g>
			<path class="st21" d="M1589.4,52.8l4.6-2.6l-2.6-4.5l-4.6,2.6L1589.4,52.8z"/>
		</g>
		<g>
			<path class="st18" d="M1580.7,53.9l-0.7,0.3l0.7-0.1V53.9z"/>
			<path class="st18" d="M1580.6,53.1l-0.7,0.1l0.7,0.1V53.1z"/>
			<path class="st18" d="M1580.7,53.6l-0.7,0.2h0.8L1580.7,53.6z"/>
			<g>
				<g>
					<path class="st8" d="M1585.5,52c-0.7-1.2-2.3-1.7-3.5-1c-1.3,0.7-1.7,2.3-1,3.5c0.7,1.3,2.3,1.7,3.5,1
						C1585.8,54.9,1586.2,53.3,1585.5,52z"/>
					<path class="st19" d="M1584.8,52.5c-0.5-0.8-1.5-1.1-2.4-0.7c-0.9,0.5-1.2,1.6-0.7,2.4c0.5,0.8,1.6,1.1,2.4,0.7
						C1584.9,54.4,1585.2,53.3,1584.8,52.5z"/>
					<path class="st20" d="M1584.1,52.8c-0.3-0.5-0.8-0.6-1.3-0.4c-0.5,0.3-0.6,0.8-0.4,1.3c0.3,0.5,0.8,0.6,1.3,0.4
						S1584.3,53.3,1584.1,52.8z"/>
				</g>
				<path class="st21" d="M1582.3,56.8l4.6-2.6l-2.6-4.5l-4.6,2.6L1582.3,56.8z"/>
			</g>
		</g>
		<path class="st14" d="M1586.7,31.8l-7.9,4.5l0,0c-5,2.8-6.6,10-3.7,15.1c0.6,1,1.3,1.9,2.1,2.7l6.8-3.4l0.2-2l0.8,0.6l0.7,0.5
			v-0.4v-0.5l0.4,0.3l0.3,0.2l0,0V49v-0.5l0.4,0.3l0.3,0.2l7.7-3.8c-0.5-1-1.6-2.9-2.2-3.9l0,0l0,0l-5.2-9.2
			C1587.5,31.7,1587.1,31.6,1586.7,31.8z"/>
		<path class="st15" d="M1577,55.4c0.4,0.7,1.2,0.9,1.9,0.5c0.7-0.4,0.9-1.2,0.5-1.9s-1.2-0.9-1.9-0.5
			C1576.8,53.9,1576.6,54.7,1577,55.4z"/>
		<path class="st16" d="M1577.5,55.1c0.2,0.4,0.7,0.5,1.1,0.3s0.5-0.7,0.3-1.1c-0.2-0.4-0.7-0.5-1.1-0.3
			C1577.4,54.2,1577.2,54.7,1577.5,55.1z"/>
		<path class="st17" d="M1579.7,55.4c-0.1-0.2-0.3-0.3-0.5-0.1c-0.2,0.1-0.3,0.3-0.1,0.5c0.1,0.2,0.3,0.3,0.5,0.1
			C1579.7,55.8,1579.8,55.6,1579.7,55.4z"/>
		<g>
			<path class="st22" d="M1575,48c0-0.2,0-0.3-0.1-0.5c-0.2-0.3-0.6-0.4-0.9-0.3c-0.2,0.1-0.3,0.3-0.3,0.4c-0.2-0.2-0.5-0.2-0.8-0.1
				c-0.3,0.2-0.4,0.6-0.3,0.9c0.1,0.1,0.2,0.2,0.3,0.3c-0.2,0.2-0.3,0.6-0.1,0.8c0.2,0.3,0.6,0.4,0.9,0.3l0.1-0.1l0,0
				c0.2,0.3,0.6,0.4,0.9,0.3c0.3-0.1,0.4-0.4,0.3-0.7c0.1,0,0.2,0,0.3-0.1c0.3-0.2,0.4-0.6,0.3-0.9C1575.5,48.1,1575.2,48,1575,48z
				 M1573.9,49L1573.9,49c-0.1-0.1-0.2-0.2-0.3-0.3c0.1-0.1,0.2-0.2,0.2-0.4c0.1,0.1,0.3,0.2,0.5,0.2c0,0.1,0,0.2,0,0.3
				c-0.1,0-0.2,0-0.3,0.1C1574,48.9,1574,49,1573.9,49z"/>
			<path class="st23" d="M1574.5,48.4c-0.1-0.2-0.4-0.3-0.7-0.2c-0.2,0.1-0.3,0.4-0.2,0.7c0.1,0.2,0.4,0.3,0.7,0.2
				C1574.6,49,1574.6,48.7,1574.5,48.4z"/>
		</g>
		<g>
			<path d="M1586.1,53.8c0.6,0.7,1.6,0.9,2.4,0.4s1.1-1.4,0.9-2.2c0,0-0.4-0.2-1.8,0.6C1586.2,53.4,1586.1,53.8,1586.1,53.8z"/>
			<path class="st8" d="M1586.3,54l3.2-1.8c0-0.1,0-0.1-0.1-0.2c0,0-0.4-0.2-1.8,0.6s-1.5,1.2-1.5,1.2
				C1586.1,53.9,1586.2,53.9,1586.3,54L1586.3,54z"/>
			<path class="st24" d="M1589.3,53.5c-0.3,0-0.7,0.1-1.1,0.3c-0.3,0.2-0.6,0.5-0.7,0.8c0.3,0,0.7-0.1,1-0.3
				C1588.8,54,1589.1,53.8,1589.3,53.5z"/>
		</g>
	</g>
</g>
<g>
	<path class="st9" d="M1295.5,239.6c1.1-1.2,3-1.5,4.5-0.7c1.5,0.9,2.2,2.7,1.7,4.3l6.7,3.9c2.6-4.3,8.1-5.7,12.4-3.2
		c0.1,0.1,0.2,0.1,0.4,0.2l65.9-114.9c-0.1-0.1-0.2-0.1-0.4-0.2c-4.4-2.5-5.9-8.1-3.4-12.5c0.1-0.1,0.1-0.2,0.2-0.3l-6.6-3.8l0,0
		l0,0c-1,1.8-3.3,2.4-5.1,1.4c-1.8-1-2.4-3.3-1.4-5.1l0,0l-4.9-2.8l0,0l0,0c-1,1.8-3.3,2.4-5.1,1.4c-1.8-1-2.4-3.3-1.4-5.1l0,0
		l-5-2.9c-1.2,1.2-3,1.5-4.5,0.6s-2.2-2.6-1.7-4.2l-6.2-3.6c-0.1,0.1-0.1,0.2-0.2,0.3c-2.5,4.4-8.1,5.9-12.5,3.4
		c-0.3-0.2-0.6-0.3-0.8-0.5l-65.9,115c0.3,0.1,0.6,0.3,0.9,0.4c4.3,2.5,5.9,8,3.5,12.4l6.2,3.6l0,0c1.1-1.2,3-1.5,4.5-0.7
		c1.5,0.9,2.2,2.7,1.7,4.3l5,2.9l0,0c1.1-1.2,3-1.5,4.5-0.7c1.5,0.9,2.2,2.7,1.7,4.3L1295.5,239.6L1295.5,239.6z"/>
	<path class="st10" d="M1269.8,208.9c-1.2,2-0.4,4.6,1.5,5.8l41.4,23.9c2,1.2,4.6,0.5,5.8-1.6l12-20.7c1.2-2,0.5-4.6-1.6-5.8
		l-41.4-23.9c-2-1.2-4.6-0.5-5.8,1.6L1269.8,208.9z"/>
	<path class="st26" d="M1280.4,179l58.7,33.9L1280.4,179z"/>
	<path class="st12" d="M1290.5,173.4c-1.2,2-0.4,4.6,1.5,5.8l41.4,23.9c2,1.2,4.6,0.5,5.8-1.6l40.4-70c1.2-2,0.5-4.6-1.6-5.8
		l-41.4-23.9c-2-1.2-4.6-0.5-5.8,1.6L1290.5,173.4z"/>
	<g>
		<path class="st27" d="M1350.5,162.1L1350.5,162.1l9.8-17l-14.9-8.6l0,0c-8.6-5-20.9-1.1-26,7.7s-2.3,19.8,6.5,24.9
			C1334.7,174.2,1345.4,170.9,1350.5,162.1L1350.5,162.1z"/>
		<path class="st27" d="M1344.6,166.8c-1.2-0.7-2.7-0.3-3.4,0.9c-0.7,1.2-0.3,2.7,0.9,3.4c1.2,0.7,2.7,0.3,3.4-0.9
			C1346.2,169,1345.8,167.5,1344.6,166.8z M1342.6,170.2c-0.7-0.4-0.9-1.3-0.5-2s1.3-0.9,2-0.5s0.9,1.3,0.5,2
			S1343.3,170.6,1342.6,170.2z"/>
		<path class="st27" d="M1344.6,169.7c0.4-0.7,0.2-1.6-0.5-2s-1.6-0.2-2,0.5s-0.2,1.6,0.5,2S1344.2,170.4,1344.6,169.7z"/>
		<path class="st27" d="M1317.8,151.3c-1.2-0.7-2.7-0.3-3.4,0.9c-0.7,1.2-0.3,2.7,0.9,3.4c1.2,0.7,2.7,0.3,3.4-0.9
			C1319.4,153.5,1319,152,1317.8,151.3z"/>
		<path class="st28" d="M1317.8,154.2c0.4-0.7,0.2-1.6-0.5-2s-1.6-0.2-2,0.5s-0.2,1.6,0.5,2C1316.5,155.1,1317.4,154.9,1317.8,154.2
			z"/>
		<g>
			<path class="st8" d="M1339,161.4c-2.2-1.3-5.1-0.6-6.4,1.6c-1.3,2.2-0.6,5.1,1.6,6.4c2.2,1.3,5.1,0.6,6.4-1.6
				C1341.9,165.6,1341.2,162.7,1339,161.4z M1334.9,168.1c-1.5-0.9-2-2.9-1.1-4.4s2.9-2,4.4-1.1s2,2.9,1.1,4.4
				C1338.3,168.5,1336.4,169,1334.9,168.1z"/>
			<path class="st29" d="M1338.2,162.7c-1.5-0.9-3.4-0.4-4.4,1.1c-0.9,1.5-0.4,3.5,1.1,4.4s3.4,0.4,4.4-1.1
				C1340.2,165.6,1339.7,163.6,1338.2,162.7z M1338,166.3c-0.5,0.8-1.6,1.1-2.4,0.6c-0.9-0.6-1.1-1.6-0.6-2.4
				c0.5-0.8,1.6-1.1,2.4-0.6C1338.2,164.4,1338.5,165.5,1338,166.3z"/>
			<path class="st30" d="M1337.4,163.9c-0.8-0.5-1.9-0.2-2.4,0.6s-0.4,1.8,0.6,2.4c0.8,0.5,1.9,0.2,2.4-0.6
				C1338.5,165.5,1338.2,164.4,1337.4,163.9z"/>
		</g>
		<g>
			<path class="st8" d="M1325.9,153.9c-2.2-1.3-5.1-0.5-6.4,1.7s-0.5,5.1,1.7,6.4c2.2,1.3,5.1,0.5,6.4-1.7
				C1328.9,158,1328.2,155.2,1325.9,153.9z M1322,160.7c-1.5-0.9-2.1-2.8-1.2-4.3s2.8-2,4.3-1.2c1.5,0.9,2,2.8,1.2,4.3
				C1325.4,161,1323.5,161.5,1322,160.7z"/>
			<path class="st29" d="M1325.2,155.2c-1.5-0.9-3.5-0.4-4.3,1.2c-0.9,1.5-0.3,3.5,1.2,4.3c1.5,0.9,3.5,0.4,4.3-1.2
				C1327.2,158,1326.7,156,1325.2,155.2z M1322.7,159.4c-0.8-0.5-1.1-1.5-0.6-2.4c0.5-0.8,1.5-1.1,2.4-0.6c0.8,0.5,1.1,1.5,0.6,2.4
				C1324.6,159.6,1323.7,160,1322.7,159.4z"/>
			<path class="st30" d="M1325.1,158.8c0.5-0.8,0.2-1.9-0.6-2.4c-0.8-0.5-1.9-0.2-2.4,0.6s-0.2,1.9,0.6,2.4
				C1323.6,159.9,1324.6,159.6,1325.1,158.8z"/>
		</g>
		<g>
			<path class="st31" d="M1325.4,163c-0.2,0-0.4,0.1-0.5,0.3c-0.2,1.3,0.5,3,2,3.8c1.5,0.9,3.3,0.7,4.3-0.2c0.2-0.1,0.2-0.4,0-0.6
				C1329.8,164.8,1327.5,163.5,1325.4,163z"/>
			<path class="st32" d="M1325.5,165.9c0.3,0.5,0.8,1,1.4,1.3s1.2,0.5,1.8,0.5c-0.2-0.6-0.7-1.1-1.3-1.4
				C1326.8,165.9,1326.2,165.8,1325.5,165.9z"/>
			<path class="st8" d="M1331.3,166.4c-1.4-1.6-3.8-3-5.9-3.4c-0.2,0-0.4,0.1-0.5,0.2l6.4,3.7
				C1331.4,166.8,1331.4,166.6,1331.3,166.4z"/>
		</g>
		<path class="st33" d="M1344.6,169.7c0.4-0.7,0.2-1.6-0.5-2s-1.6-0.2-2,0.5s-0.2,1.6,0.5,2S1344.2,170.4,1344.6,169.7z"/>
	</g>
	<path class="st13" d="M1281.7,204.9l4.3,2.5l1.2-2l-4.3-2.5L1281.7,204.9z M1286.6,208.2c-0.5,1.1-0.6,2-0.3,3c0.3,0.9,1,1.7,2,2.3
		c1.3,0.7,2.5,0.9,3.5,0.5c1.1-0.4,1.9-1.1,2.5-2.1c0.7-1.1,0.8-2.2,0.5-3.2s-0.9-1.7-1.8-2.2c-0.4-0.3-0.8-0.4-1.2-0.5
		c-0.2,0-0.6,0-1,0l1.7-2.1l4.4,2.5l1-1.8l-5.9-3.4l-4.2,5.5l1.8,1.2c0.4-0.2,0.7-0.3,1.1-0.2c0.2,0,0.5,0.1,0.7,0.3
		c0.5,0.3,0.8,0.7,0.9,1.3c0,0.5-0.1,1.1-0.4,1.6c-0.3,0.6-0.7,0.9-1.2,1.2c-0.5,0.2-1,0.2-1.5-0.1s-0.7-0.6-0.8-1
		c-0.1-0.4,0-0.8,0.1-1.3L1286.6,208.2z M1298,216.7c-0.6-0.4-0.9-0.9-0.7-1.7c0.2-0.8,0.6-1.8,1.3-3c0.7-1.3,1.4-2.2,2-2.7
		s1.2-0.6,1.8-0.2c0.6,0.4,0.9,0.9,0.7,1.7c-0.2,0.7-0.6,1.8-1.4,3.1c-0.7,1.2-1.4,2.1-1.9,2.7C1299.2,217,1298.6,217.1,1298,216.7z
		 M1303.9,215.1c1-1.8,1.5-3.3,1.5-4.6s-0.7-2.3-2-3.1c-1.4-0.8-2.6-0.9-3.7-0.2c-1.1,0.6-2.2,1.9-3.2,3.6c-1,1.8-1.5,3.3-1.5,4.6
		s0.7,2.3,2.1,3.1s2.6,0.9,3.7,0.2C1301.8,218,1302.9,216.8,1303.9,215.1z M1310.3,215.2c-0.2,0.3-0.5,0.5-0.8,0.6
		c-0.4,0.1-0.7,0.1-1-0.1c-0.3-0.2-0.5-0.5-0.6-0.8c-0.1-0.4-0.1-0.7,0.1-1s0.5-0.5,0.8-0.6c0.4-0.1,0.7-0.1,1,0.1s0.5,0.5,0.6,0.8
		C1310.6,214.5,1310.5,214.9,1310.3,215.2z M1307.6,217.3c0.8,0.4,1.6,0.5,2.4,0.3s1.5-0.7,1.9-1.5s0.5-1.6,0.3-2.4
		c-0.2-0.9-0.7-1.5-1.5-1.9s-1.6-0.5-2.4-0.3c-0.9,0.2-1.5,0.7-1.9,1.5s-0.5,1.6-0.3,2.4S1306.8,216.8,1307.6,217.3z M1313.9,222.9
		c0.3,0.2,0.5,0.5,0.6,0.8c0.1,0.4,0.1,0.7-0.1,1s-0.5,0.5-0.8,0.6c-0.4,0.1-0.7,0.1-1-0.1c-0.3-0.2-0.5-0.5-0.6-0.8
		c-0.1-0.4-0.1-0.7,0.1-1s0.5-0.5,0.8-0.6C1313.3,222.7,1313.6,222.7,1313.9,222.9z M1311.7,226.8c0.8,0.4,1.6,0.5,2.4,0.3
		c0.9-0.2,1.5-0.7,1.9-1.5s0.5-1.6,0.3-2.4c-0.2-0.9-0.7-1.5-1.5-1.9s-1.6-0.5-2.4-0.3s-1.5,0.7-1.9,1.5s-0.5,1.6-0.3,2.4
		C1310.4,225.8,1310.9,226.4,1311.7,226.8z M1304.4,222.7l1.2,0.7l12.4-7.6l-1.1-0.7L1304.4,222.7z"/>
</g>
<g>
	<path class="st9" d="M1266.2,723.9c3.4-2.1,8-1.7,10.9,1.3c3,3,3.4,7.5,1.3,10.9l13.1,13.1c8.6-8.3,22.3-8.2,30.8,0.3
		c0.2,0.2,0.5,0.5,0.7,0.7l224-225.4c-0.2-0.2-0.5-0.5-0.7-0.7c-8.6-8.6-8.6-22.5,0-31.1c0.2-0.2,0.4-0.4,0.6-0.6l-12.9-12.9l0,0
		l0,0c-3.5,3.5-9.1,3.5-12.5,0c-3.5-3.5-3.5-9.1,0-12.5l0,0l-9.5-9.5l0,0l0,0c-3.5,3.5-9.1,3.5-12.5,0c-3.5-3.5-3.5-9.1,0-12.5l0,0
		l-9.7-9.7c-3.4,2.1-7.9,1.6-10.9-1.3c-2.9-2.9-3.4-7.4-1.3-10.9l-12.3-12.3c-0.2,0.2-0.4,0.4-0.6,0.6c-8.6,8.6-22.5,8.6-31.1,0
		c-0.6-0.6-1.1-1.1-1.6-1.7l-224.1,225.6c0.6,0.5,1.2,1,1.7,1.6c8.5,8.5,8.6,22.2,0.3,30.8l12.1,12.1l0,0c3.4-2.1,8-1.7,10.9,1.3
		c3,3,3.4,7.5,1.3,10.9l9.9,9.9l0,0c3.4-2.1,8-1.7,10.9,1.3c3,3,3.4,7.5,1.3,10.9L1266.2,723.9L1266.2,723.9z"/>
	<path class="st10" d="M1225.6,637c-4,4-3.9,10.4-0.1,14.4l81.2,81.2c4,4,10.4,4,14.4,0l40.6-40.6c4-4,4-10.4,0-14.4l-81.1-81.1
		c-4-4-10.4-4-14.4,0L1225.6,637z"/>
	<path class="st34" d="M1269,574.2l115.1,115.1L1269,574.2z"/>
	<path class="st12" d="M1295.9,567.5c-4,4-3.9,10.4-0.1,14.4l81.2,81.2c4,4,10.4,4,14.4,0l137-137c4-4,4-10.4,0-14.4l-81.1-81.1
		c-4-4-10.4-4-14.4,0L1295.9,567.5z"/>
	<g>
		<path class="st27" d="M1441.8,578.6L1441.8,578.6l33.3-33.3l-29.2-29.2l0,0c-16.9-16.9-47.7-15.5-64.9,1.7
			c-17.3,17.3-17.6,44.5-0.4,61.7C1397.7,596.7,1424.5,595.9,1441.8,578.6C1441.7,578.7,1441.8,578.6,1441.8,578.6z"/>
		<path class="st27" d="M1425.3,585.8c-2.3-2.3-6.1-2.3-8.5,0c-2.3,2.3-2.4,6.1,0,8.5c2.3,2.3,6.1,2.3,8.5,0
			C1427.6,591.9,1427.6,588.1,1425.3,585.8z M1418.6,592.5c-1.4-1.4-1.4-3.6,0-5s3.6-1.4,5,0s1.4,3.6,0,5S1419.9,593.9,1418.6,592.5
			z"/>
		<path class="st27" d="M1423.5,592.5c1.4-1.4,1.4-3.6,0-5s-3.6-1.4-5,0s-1.4,3.6,0,5S1422.2,593.9,1423.5,592.5z"/>
		<path class="st27" d="M1372.7,533.2c-2.3-2.3-6.1-2.3-8.5,0c-2.3,2.3-2.4,6.1,0,8.5c2.3,2.3,6.1,2.3,8.5,0
			C1375,539.3,1375,535.5,1372.7,533.2z"/>
		<path class="st28" d="M1370.9,539.9c1.4-1.4,1.4-3.6,0-5s-3.6-1.4-5,0s-1.4,3.6,0,5S1369.6,541.3,1370.9,539.9z"/>
		<g>
			<path class="st8" d="M1415.6,569.8c-4.3-4.5-11.4-4.6-15.9-0.3c-4.5,4.3-4.7,11.4-0.4,15.9c4.3,4.5,11.4,4.6,15.9,0.3
				C1419.7,581.4,1419.8,574.3,1415.6,569.8z M1401.9,582.9c-2.9-3-2.8-7.9,0.3-10.8c3-2.9,7.9-2.8,10.8,0.2s2.8,7.9-0.3,10.8
				C1409.7,586,1404.8,585.9,1401.9,582.9z"/>
			<path class="st29" d="M1413,572.3c-2.9-3-7.7-3.1-10.8-0.2c-3,2.9-3.1,7.7-0.3,10.8c2.9,3,7.7,3.1,10.8,0.2
				C1415.7,580.2,1415.8,575.4,1413,572.3z M1410.3,580.6c-1.7,1.6-4.3,1.5-5.9-0.1c-1.8-1.9-1.5-4.3,0.2-5.9s4.3-1.5,5.9,0.1
				C1412,576.3,1412,579,1410.3,580.6z"/>
			<path class="st30" d="M1410.4,574.7c-1.6-1.7-4.2-1.7-5.9-0.1c-1.7,1.6-2,4-0.2,5.9c1.6,1.7,4.2,1.7,5.9,0.1
				C1412,579,1412,576.3,1410.4,574.7z"/>
		</g>
		<g>
			<path class="st8" d="M1390,544.3c-4.4-4.4-11.5-4.4-15.9,0s-4.4,11.5,0,15.9s11.5,4.4,15.9,0S1394.4,548.6,1390,544.3z
				 M1376.7,557.6c-3-3-3-7.8,0-10.8s7.8-3,10.8,0s3,7.8,0,10.8C1384.4,560.6,1379.6,560.5,1376.7,557.6z"/>
			<path class="st29" d="M1387.4,546.8c-3-3-7.8-3-10.8,0s-3,7.8,0,10.8s7.8,3,10.8,0S1390.4,549.8,1387.4,546.8z M1379.1,555.2
				c-1.6-1.6-1.6-4.2,0-5.9c1.6-1.6,4.3-1.6,5.9,0s1.6,4.2,0,5.9C1383.4,556.8,1381,557,1379.1,555.2z"/>
			<path class="st30" d="M1385,555.1c1.6-1.6,1.6-4.3,0-5.9s-4.3-1.6-5.9,0s-1.6,4.3,0,5.9C1380.8,556.8,1383.4,556.8,1385,555.1z"
				/>
		</g>
		<g>
			<path class="st31" d="M1383,565.2c-0.5-0.2-1.1,0-1.3,0.4c-1.3,3-0.6,7.2,2.3,10.1s7.1,3.6,10.1,2.3c0.5-0.2,0.7-0.8,0.4-1.3
				C1392.2,572.1,1387.7,567.5,1383,565.2z"/>
			<path class="st32" d="M1381.6,571.9c0.5,1.4,1.3,2.7,2.4,3.8c1.1,1.1,2.5,1.9,3.8,2.4c-0.2-1.5-0.9-3-2.1-4.1
				C1384.6,572.8,1383.1,572.1,1381.6,571.9z"/>
			<path class="st8" d="M1394.6,576.7c-2.3-4.7-6.9-9.2-11.5-11.5c-0.4-0.2-0.9-0.1-1.2,0.3l12.4,12.4
				C1394.6,577.7,1394.8,577.1,1394.6,576.7z"/>
		</g>
		<path class="st33" d="M1423.5,592.5c1.4-1.4,1.4-3.6,0-5s-3.6-1.4-5,0s-1.4,3.6,0,5S1422.2,593.9,1423.5,592.5z"/>
	</g>
	<path class="st13" d="M1255.8,635.1l8.4,8.4l3.9-3.9l-8.4-8.4L1255.8,635.1z M1265.1,645.8c-1.8,2.1-2.6,4.4-2.4,6.7
		c0.2,2.4,1.3,4.6,3.3,6.6c2.5,2.5,5.1,3.6,7.9,3.3c2.8-0.3,5.2-1.4,7.1-3.3c2.2-2.2,3.3-4.6,3.2-7.1c-0.1-2.5-1.1-4.6-2.8-6.3
		c-0.9-0.9-1.7-1.5-2.5-1.9c-0.5-0.2-1.3-0.4-2.3-0.7l5.4-3.9l8.6,8.6l3.5-3.5l-11.6-11.6l-13.1,10.2l3.6,3.9c1-0.3,1.9-0.2,2.8,0.2
		c0.5,0.2,1,0.6,1.5,1.1c1.1,1.1,1.5,2.2,1.2,3.5c-0.2,1.2-0.9,2.4-2,3.5s-2.3,1.7-3.5,1.9s-2.4-0.2-3.4-1.3
		c-0.9-0.9-1.3-1.8-1.3-2.8s0.4-2,1.1-3L1265.1,645.8z M1286.3,672.6c-1.2-1.2-1.4-2.7-0.5-4.4c0.9-1.7,2.5-3.7,5-6.2s4.6-4.2,6.2-5
		s3-0.6,4.3,0.6c1.2,1.2,1.4,2.7,0.6,4.3c-0.8,1.6-2.5,3.7-5.1,6.2c-2.4,2.4-4.5,4.1-6.1,5C1289,674,1287.5,673.8,1286.3,672.6z
		 M1301.1,672.4c3.5-3.5,5.6-6.7,6.4-9.7s-0.1-5.8-2.8-8.5c-2.7-2.7-5.5-3.6-8.5-2.8c-3,0.8-6.2,3-9.7,6.4c-3.5,3.5-5.6,6.7-6.4,9.7
		s0.1,5.8,2.8,8.5c2.7,2.7,5.5,3.6,8.5,2.8C1294.3,678,1297.6,675.9,1301.1,672.4z M1315.8,676.7c-0.6,0.6-1.4,1-2.3,1
		s-1.7-0.3-2.3-1c-0.6-0.6-1-1.4-1-2.3s0.3-1.7,1-2.3c0.6-0.6,1.4-1,2.3-1s1.7,0.3,2.3,1c0.6,0.6,1,1.4,1,2.3
		C1316.8,675.2,1316.4,676,1315.8,676.7z M1308.1,679.8c1.5,1.5,3.3,2.3,5.4,2.2c2.1,0,3.9-0.8,5.4-2.2c1.5-1.5,2.2-3.3,2.2-5.4
		s-0.7-3.9-2.2-5.4s-3.3-2.2-5.4-2.2s-3.9,0.7-5.4,2.2s-2.2,3.3-2.2,5.4S1306.6,678.3,1308.1,679.8z M1319.3,696.8
		c0.6,0.6,1,1.4,1,2.3s-0.3,1.7-1,2.3s-1.4,1-2.3,1s-1.7-0.3-2.3-1c-0.6-0.6-1-1.4-1-2.3s0.3-1.7,1-2.3c0.6-0.6,1.4-1,2.3-1
		S1318.7,696.1,1319.3,696.8z M1311.6,704.5c1.5,1.5,3.3,2.2,5.4,2.2s3.9-0.7,5.4-2.2s2.2-3.3,2.2-5.4s-0.7-3.9-2.2-5.4
		s-3.3-2.2-5.4-2.2s-3.9,0.7-5.4,2.2s-2.2,3.3-2.2,5.4C1309.4,701.2,1310.1,703,1311.6,704.5z M1297.4,690.5l2.3,2.3l33.4-9.9
		l-2.2-2.2L1297.4,690.5z"/>
</g>
</svg>
