<?xml version="1.0" encoding="utf-8"?>
<!-- Generator: Adobe Illustrator 22.1.0, SVG Export Plug-In . SVG Version: 6.00 Build 0)  -->
<svg version="1.1" id="Layer_1" xmlns="http://www.w3.org/2000/svg" xmlns:xlink="http://www.w3.org/1999/xlink" x="0px" y="0px"
	 viewBox="0 0 100 100" style="enable-background:new 0 0 100 100;" xml:space="preserve">
<style type="text/css">
	.st0{fill:#EF6326;}
	.st1{fill:#29ABE2;}
	.st2{fill:#34A9D1;}
	.st3{fill:#FFFFFF;}
	.st4{fill:none;}
	.st5{fill:#BE1622;}
	.st6{fill:#1269FF;}
	.st7{fill:#18D000;}
	.st8{fill:#BC6138;}
	.st9{fill:#050505;}
	.st10{fill:#562912;}
	.st11{fill:#CC342F;}
	.st12{fill:#AB471B;}
</style>
<g>
	<path class="st0" d="M49,74.8c1.7,0,3.1-1.4,3.1-3.1v-6.3c0-1.7-1.4-3.1-3.1-3.1c-1.7,0-3.1,1.4-3.1,3.1v6.3
		C45.9,73.4,47.3,74.8,49,74.8z"/>
	<g>
		<path class="st1" d="M55.9,75.2c-0.4-0.7-1.2-0.9-1.9-0.5c-0.7,0.4-0.9,1.2-0.5,1.9l12.3,21.6c0.4,0.7,1.2,0.9,1.9,0.5
			c0.7-0.4,0.9-1.2,0.5-1.9L55.9,75.2z"/>
		<path class="st2" d="M55.9,75.2c-0.4-0.7-1.2-0.9-1.9-0.5c-0.7,0.4-0.9,1.2-0.5,1.9l12.3,21.6c0.4,0.7,1.2,0.9,1.9,0.5
			c0.7-0.4,0.9-1.2,0.5-1.9L55.9,75.2z"/>
	</g>
	<path class="st2" d="M42.4,74.5l-14.8,20c-0.5,0.6-0.3,1.5,0.3,1.9c0.6,0.5,1.5,0.3,1.9-0.3l14.8-20c0.5-0.6,0.3-1.5-0.3-1.9
		C43.7,73.8,42.8,73.9,42.4,74.5z"/>
	<path class="st2" d="M43.3,100h11.2V74.5H43.3V100z"/>
	<g>
		<path class="st3" d="M52.2,74.6l-3.2,5l-3.2-5H52.2z"/>
		<path class="st3" d="M49.4,74.9l-3.7-6.3l-3.6,6.3H49.4z"/>
		<path class="st3" d="M55.8,74.9l-3.6-6.3l-3.7,6.3H55.8z"/>
		<path class="st4" d="M45.9,84h8.7v-6.5h-8.7V84z"/>
	</g>
	<path class="st5" d="M61.3,87.2l0-1.1l-26.2-0.1l0,1.1L61.3,87.2z"/>
	<path class="st5" d="M61.3,83.2l0-1.1l-26.2-0.1l0,1.1L61.3,83.2z"/>
	<path class="st6" d="M61.3,92.3l0-1.1l-26.2-0.1l0,1.1L61.3,92.3z"/>
	<path class="st6" d="M61.3,88.4l0-1.1l-26.2-0.1l0,1.1L61.3,88.4z"/>
	<path class="st3" d="M60.7,86.2l0-3l-25.2-0.1l0,3L60.7,86.2z"/>
	<path class="st3" d="M60.7,96.6l0-3l-25.2-0.1l0,3L60.7,96.6z"/>
	<path class="st7" d="M35.1,97.4l0-1.1l26.2,0.1l0,1.1L35.1,97.4z"/>
	<path class="st7" d="M61.3,93.5l0-1.1l-26.2-0.1l0,1.1L61.3,93.5z"/>
	<g>
		<g>
			<path class="st0" d="M29.7,97l14.5,1.9l0.3-2.5l-14.5-1.9L29.7,97z"/>
			<path class="st0" d="M50.2,98.3c0-2.2-1.8-4-4-4c-2.2,0-4,1.8-4,4c0,2.2,1.8,4,4,4C48.4,102.3,50.2,100.5,50.2,98.3z"/>
		</g>
		<path class="st2" d="M28.7,96.9l4.5,0.7l0.4-2.7l-4.5-0.7c-0.8-0.1-1.5,0.4-1.6,1.2C27.5,96.1,28,96.8,28.7,96.9z"/>
	</g>
	<g>
		<g>
			<path class="st0" d="M66.1,96.6l-14.7,0.8l0.1,2.5L66.2,99L66.1,96.6z"/>
			<path class="st0" d="M53.7,99.1c0-2.2-1.8-4-4-4c-2.2,0-4,1.8-4,4c0,2.2,1.8,4,4,4C51.9,103.1,53.7,101.3,53.7,99.1z"/>
		</g>
		<path class="st2" d="M67.2,99c0.8-0.1,1.3-0.7,1.3-1.5c-0.1-0.8-0.7-1.3-1.5-1.3l-4.5,0.3l0.2,2.8L67.2,99z"/>
	</g>
	<path class="st3" d="M60.7,91.3l0-3l-25.2-0.1l0,3L60.7,91.3z"/>
</g>
<g>
	<path class="st0" d="M75.8,40.4L75.8,40.4V10.8H49.9h0c-15,0-28,14.3-28,29.5c0,15.3,12,27.5,27.2,27.5
		C64.3,67.9,75.8,55.7,75.8,40.4C75.8,40.4,75.8,40.4,75.8,40.4z"/>
	<path class="st0" d="M71.7,50.8c-2.1,0-3.8,1.7-3.8,3.8c0,2.1,1.7,3.8,3.8,3.8c2.1,0,3.8-1.7,3.8-3.8
		C75.4,52.5,73.8,50.8,71.7,50.8z M71.7,56.8c-1.2,0-2.2-1-2.2-2.2c0-1.2,1-2.2,2.2-2.2s2.2,1,2.2,2.2
		C73.9,55.8,72.9,56.8,71.7,56.8z"/>
	<path class="st0" d="M73.9,54.6c0-1.2-1-2.2-2.2-2.2s-2.2,1-2.2,2.2c0,1.2,1,2.2,2.2,2.2S73.9,55.8,73.9,54.6z"/>
	<path class="st0" d="M25,50.8c-2.1,0-3.8,1.7-3.8,3.8c0,2.1,1.7,3.8,3.8,3.8c2.1,0,3.8-1.7,3.8-3.8C28.8,52.5,27.1,50.8,25,50.8z"
		/>
	<path class="st8" d="M27.2,54.6c0-1.2-1-2.2-2.2-2.2c-1.2,0-2.2,1-2.2,2.2c0,1.2,1,2.2,2.2,2.2C26.2,56.8,27.2,55.8,27.2,54.6z"/>
	<g>
		<path class="st3" d="M60.3,48.1c-3.9-0.1-7.1,3-7.2,6.9c-0.1,3.9,3,7.1,6.9,7.2c3.9,0.1,7.1-3,7.2-6.9
			C67.2,51.4,64.2,48.1,60.3,48.1z M60,59.9c-2.6-0.1-4.7-2.3-4.7-4.9c0.1-2.6,2.3-4.7,4.9-4.7c2.6,0.1,4.7,2.3,4.7,4.9
			C64.8,57.9,62.6,60,60,59.9z"/>
		<path class="st1" d="M60.2,50.3c-2.6-0.1-4.8,2-4.9,4.7c-0.1,2.6,2,4.8,4.7,4.9c2.6,0.1,4.8-2,4.9-4.7
			C65,52.6,62.9,50.4,60.2,50.3z M62.7,55.2c0,1.4-1.2,2.6-2.7,2.5c-1.6,0-2.6-1.2-2.5-2.7c0-1.4,1.2-2.6,2.7-2.5
			C61.6,52.6,62.8,53.7,62.7,55.2z"/>
		<path class="st9" d="M60.2,52.5c-1.4,0-2.6,1.1-2.7,2.5c0,1.4,0.9,2.6,2.5,2.7c1.4,0,2.6-1.1,2.7-2.5
			C62.8,53.7,61.6,52.6,60.2,52.5z"/>
	</g>
	<g>
		<path class="st3" d="M37.6,48.1c-3.9,0-7,3.2-7,7.1s3.2,7.1,7,7.1c3.9,0,7-3.2,7-7.1S41.5,48.1,37.6,48.1z M37.6,59.9
			c-2.6,0-4.8-2.1-4.8-4.8c0-2.7,2.1-4.8,4.8-4.8c2.6,0,4.8,2.1,4.8,4.8C42.4,57.8,40.2,59.9,37.6,59.9z"/>
		<path class="st1" d="M37.6,50.3c-2.6,0-4.8,2.1-4.8,4.8c0,2.7,2.2,4.8,4.8,4.8c2.6,0,4.8-2.1,4.8-4.8
			C42.4,52.5,40.2,50.3,37.6,50.3z M37.6,57.7c-1.4,0-2.6-1.2-2.6-2.6c0-1.5,1.2-2.6,2.6-2.6c1.4,0,2.6,1.2,2.6,2.6
			C40.2,56.6,39.3,57.7,37.6,57.7z"/>
		<path class="st9" d="M40.2,55.1c0-1.4-1.2-2.6-2.6-2.6c-1.4,0-2.6,1.2-2.6,2.6c0,1.4,1.2,2.6,2.6,2.6
			C39.1,57.7,40.2,56.6,40.2,55.1z"/>
	</g>
	<g>
		<path class="st10" d="M43.8,60.4c-0.3,0.1-0.5,0.5-0.4,0.8c0.7,1.9,2.9,3.5,5.5,3.5c2.6,0,4.7-1.6,5.5-3.5
			c0.1-0.3-0.1-0.7-0.4-0.8C50.9,59.4,46.9,59.4,43.8,60.4z"/>
		<path class="st11" d="M46.2,64c0.8,0.4,1.8,0.6,2.7,0.6s1.9-0.2,2.7-0.6c-0.8-0.6-1.7-0.9-2.7-0.9C47.9,63.1,46.9,63.5,46.2,64z"
			/>
		<path class="st3" d="M54,60.4c-3.1-1-7.1-1-10.2,0c-0.3,0.1-0.5,0.4-0.4,0.7h11C54.5,60.8,54.3,60.5,54,60.4z"/>
	</g>
	<path class="st12" d="M73.9,54.6c0-1.2-1-2.2-2.2-2.2s-2.2,1-2.2,2.2c0,1.2,1,2.2,2.2,2.2S73.9,55.8,73.9,54.6z"/>
</g>
<path d="M83.3,4.1l0-2.3L81,1.8L75,1.7L50.5,1.2L42.2,1l0,2.3l8,0.2l-1,7.7l13.2,5.1l13.5-4.6L75.3,4l5.6,0.1l-0.1,3.4l-3.1,9.6
	l8.2,0.2l-2.7-9.8L83.3,4.1z"/>
</svg>
