<?xml version="1.0" encoding="utf-8"?>
<!-- Generator: Adobe Illustrator 22.1.0, SVG Export Plug-In . SVG Version: 6.00 Build 0)  -->
<svg version="1.1" id="Layer_1" xmlns="http://www.w3.org/2000/svg" xmlns:xlink="http://www.w3.org/1999/xlink" x="0px" y="0px"
	 viewBox="0 0 146.5 153" style="enable-background:new 0 0 146.5 153;" xml:space="preserve">
<style type="text/css">
	.st0{fill:#EF6326;}
</style>
<path class="st0" d="M71.4,50.2c-15.6,0-28.1,12.6-28.1,28.1s12.6,28.1,28.1,28.1s28.1-12.8,28.1-28.1C99.5,62.7,87,50.2,71.4,50.2z
	 M71.4,86.5c-4.6,0-8.2-3.6-8.2-8.2s3.6-8.2,8.2-8.2c4.4,0,8.2,3.6,8.2,8.2C79.6,82.6,75.9,86.4,71.4,86.5z"/>
<path class="st0" d="M129.1,21.1L72,21c-30.3,0-56.4,23.7-57.9,54c-1.8,33.2,24.4,60.4,57.1,60.4c31.6,0,57.3-25.5,57.3-57.1
	 M71.3,115c-20.4,0-37-16.3-37-36.7c0-21.2,17.9-38.2,39.3-36.7c18.4,1,33.2,15.8,34.5,33.9C109.7,97.1,92.5,115,71.3,115z"/>
</svg>
