<?xml version="1.0" encoding="utf-8"?>
<!-- Generator: Adobe Illustrator 22.1.0, SVG Export Plug-In . SVG Version: 6.00 Build 0)  -->
<svg version="1.1" id="Layer_1" xmlns="http://www.w3.org/2000/svg" xmlns:xlink="http://www.w3.org/1999/xlink" x="0px" y="0px"
	 viewBox="0 0 2048 2048" style="enable-background:new 0 0 2048 2048;" xml:space="preserve">
<style type="text/css">
	.st0{fill:#FEC26E;}
	.st1{fill:#412300;}
</style>
<g id="document" transform="matrix(1,0,0,1,1024.0,1024.0)">
	<g>
		<path class="st0" d="M-556-860.4v507c0,280.2,226.8,507,507,507c280.2,0,507-226.8,507-507v-507H-556L-556-860.4z"/>
		<path class="st0" d="M-626-708h381v-152.4h-381c-210.3,0-381,170.7-381,381s170.7,381,381,381l381,0v-152.4h-381
			c-126.5,0-228.6-102.1-228.6-228.6S-752.5-708-626-708z"/>
		<path class="st0" d="M626-708h-381v-152.4h381c210.3,0,381,170.7,381,381s-170.7,381-381,381h-381v-152.4h381
			c126.5,0,228.6-102.1,228.6-228.6C854.6-605.9,752.5-708,626-708z"/>
		<path class="st0" d="M293.6,720.4c0-178.3-144.4-322.7-322.7-322.7c-178.3,0-322.7,144.4-322.7,322.7H293.6z"/>
		<path class="st0" d="M73.5,553.3V-98.4h-205.1v651.7H73.5z"/>
		<path class="st1" d="M-448.5,742.5c0,64.9,53,117.9,117.9,117.9h603.2c64.9,0,117.9-53,117.9-117.9s-53-87.9-117.9-87.9h-603.2
			C-395.5,654.6-448.5,677.6-448.5,742.5z"/>
		<path class="st0" d="M-450.4-28.8c40.2-40.2,40.2-105.3,0-145.5c-40.2-40.2-105.3-40.2-145.5,0s-40.2,105.3,0,145.5
			S-490.6,11.4-450.4-28.8z"/>
		<path class="st0" d="M469.3-28.8c40.2-40.2,40.2-105.3,0-145.5c-40.2-40.2-105.3-40.2-145.5,0s-40.2,105.3,0,145.5
			S429.1,11.4,469.3-28.8z"/>
	</g>
</g>
</svg>
