<?xml version="1.0" encoding="utf-8"?>
<!-- Generator: Adobe Illustrator 22.1.0, SVG Export Plug-In . SVG Version: 6.00 Build 0)  -->
<svg version="1.1" id="Layer_1" xmlns="http://www.w3.org/2000/svg" xmlns:xlink="http://www.w3.org/1999/xlink" x="0px" y="0px"
	 viewBox="0 0 100 100" style="enable-background:new 0 0 100 100;" xml:space="preserve">
<style type="text/css">
	.st0{fill:#272A66;}
	.st1{fill:#EE6427;}
	.st2{fill:#B44C26;}
	.st3{fill:#FEE5A6;}
	.st4{fill:#773517;}
	.st5{fill:#FFFFFF;}
	.st6{fill:#2AAAE2;}
	.st7{fill:#070707;}
	.st8{fill:none;}
	.st9{fill:#EC2227;}
	.st10{fill:#F27BAA;}
	.st11{fill:#C2082C;}
	.st12{fill:#A76740;}
	.st13{fill:#7F3C0E;}
	.st14{fill:#412300;}
</style>
<g>
	<path class="st0" d="M30.2,60.1L30.2,60.1l0.2-34.1l-1.9-0.3l-0.3,32.3C28.2,59.2,29.1,60.1,30.2,60.1z"/>
	<path class="st0" d="M30.4,26.9l-0.2,28.7c-0.1,14,9.2,25.5,20.7,25.6l20.7,0.1c0,0,0.1-11.3,0.3-25.3l0.3-29.9L30.4,26.9z"/>
	<path class="st1" d="M73.5,26L73.5,26l0.2-24.3L52.4,1.6h0C40,1.5,29.1,13.2,29.1,25.7C29,38.3,38.8,48.4,51.3,48.5
		C63.9,48.6,73.5,38.6,73.5,26C73.5,26,73.5,26,73.5,26z"/>
	<path class="st0" d="M71.8,61.8c1.1,0,2-0.9,2-2l0.2-32l-3.5,0L71.8,61.8z"/>
	<path class="st1" d="M67,37.7c0,1.7,1.4,3.1,3.1,3.1c1.7,0,3.1-1.4,3.1-3.1c0-1.7-1.4-3.1-3.1-3.1C68.4,34.6,67,36,67,37.7z"/>
	<path class="st2" d="M68.2,37.7c0,1,0.8,1.8,1.8,1.8c1,0,1.8-0.8,1.8-1.8c0-1-0.8-1.8-1.8-1.8C69.1,35.9,68.2,36.7,68.2,37.7z"/>
	<path class="st3" d="M69.8,40.5c0-0.5-0.4-0.9-0.9-0.9c-0.5,0-0.9,0.4-0.9,0.9c0,0.5,0.4,0.9,0.9,0.9C69.4,41.4,69.8,41,69.8,40.5z
		"/>
	<path class="st4" d="M66.1,38.3l1.7-0.1l-1.7-0.2V38.3z"/>
	<path class="st4" d="M65.8,36.5l1.5-0.6l-1.6,0.2L65.8,36.5z"/>
	<path class="st4" d="M66,37.4l1.6-0.4l-1.7,0.1L66,37.4z"/>
	<g>
		<g>
			<path class="st5" d="M54.7,37.9c-0.1,3.2,2.4,5.9,5.6,6c3.2,0.1,5.9-2.4,6-5.6c0.1-3.2-2.4-5.9-5.6-6
				C57.5,32.2,54.8,34.7,54.7,37.9z"/>
			<path class="st6" d="M56.6,37.9c-0.1,2.2,1.7,4,3.8,4c2.2,0.1,4-1.7,4-3.8c0.1-2.2-1.7-4-3.8-4C58.5,34.1,56.7,35.8,56.6,37.9z"
				/>
			<path class="st7" d="M58.4,38c0,1.2,0.7,2.2,2.1,2.2c1.2,0,2.2-0.9,2.2-2.1c0-1.2-0.9-2.2-2.1-2.2C59.4,35.9,58.4,36.8,58.4,38z"
				/>
		</g>
		<path class="st8" d="M54.5,43.8l11.9,0.1l0.1-11.5l-11.9-0.1L54.5,43.8z"/>
	</g>
	<g>
		<path class="st4" d="M36.4,36.3l-1.7-0.2l1.6,0.5L36.4,36.3z"/>
		<path class="st4" d="M37.2,34.7l-1.6-0.6l1.4,1L37.2,34.7z"/>
		<path class="st4" d="M36.7,35.6l-1.6-0.5l1.5,0.8L36.7,35.6z"/>
		<g>
			<g>
				<path class="st5" d="M47.8,38c0-3.2-2.6-5.8-5.8-5.8c-3.2,0-5.8,2.5-5.8,5.8c0,3.2,2.5,5.8,5.8,5.8C45.2,43.8,47.8,41.2,47.8,38
					z"/>
				<path class="st6" d="M45.9,37.9c0-2.2-1.7-3.9-3.9-4c-2.2,0-4,1.7-4,3.9c0,2.2,1.8,3.9,3.9,4C44.1,41.9,45.9,40.1,45.9,37.9z"/>
				<path class="st7" d="M44.1,37.9c0-1.2-0.9-2.1-2.1-2.2c-1.2,0-2.1,0.9-2.2,2.1c0,1.2,0.9,2.1,2.1,2.2
					C43.3,40.1,44.1,39.1,44.1,37.9z"/>
			</g>
			<path class="st8" d="M36.1,43.7l11.7,0.1l0.1-11.5l-11.7-0.1L36.1,43.7z"/>
		</g>
	</g>
	<path class="st0" d="M72.8,0.1L52.4,0h0c-12.8-0.1-24,12-24.1,25c0,2.6,0.4,5.2,1.1,7.5l17,1.1l2.5-3.7l1,2l0.9,1.8l0.5-0.7
		l0.6-0.9l0.5,1l0.4,0.8h0l0.5-0.7l0.6-0.9l0.5,1l0.4,0.8L74,35.4C74,33,74.1,28,74.1,25.3v0v0l0.2-23.7C74.3,0.8,73.6,0.1,72.8,0.1
		z"/>
	<path class="st1" d="M27.5,35c0,1.7,1.4,3.1,3.1,3.1c1.7,0,3.1-1.4,3.1-3.1c0-1.7-1.4-3.1-3.1-3.1C28.9,31.9,27.5,33.3,27.5,35z"/>
	<path class="st2" d="M28.8,35c0,1,0.8,1.8,1.8,1.8c1,0,1.8-0.8,1.8-1.8c0-1-0.8-1.8-1.8-1.8C29.6,33.2,28.8,34,28.8,35z"/>
	<path class="st3" d="M32.8,38c0-0.5-0.4-0.9-0.9-0.9c-0.5,0-0.9,0.4-0.9,0.9c0,0.5,0.4,0.9,0.9,0.9C32.4,38.8,32.8,38.4,32.8,38z"
		/>
	<g>
		<path class="st9" d="M32,18.4c0.2-0.3,0.4-0.6,0.4-1c0-0.8-0.7-1.5-1.5-1.5c-0.4,0-0.8,0.2-1.1,0.5c-0.2-0.6-0.7-1-1.4-1
			c-0.8,0-1.5,0.7-1.5,1.5c0,0.3,0.1,0.6,0.2,0.8c-0.7,0.1-1.2,0.7-1.2,1.5c0,0.8,0.7,1.5,1.5,1.5c0.1,0,0.2,0,0.3,0c0,0,0,0,0,0
			c0,0.8,0.7,1.5,1.5,1.5c0.7,0,1.2-0.4,1.4-1c0.2,0.1,0.4,0.2,0.7,0.2c0.8,0,1.5-0.7,1.5-1.5C32.8,19.2,32.5,18.7,32,18.4z
			 M28.9,19.1C28.9,19.1,28.9,19.1,28.9,19.1c0-0.3-0.1-0.6-0.2-0.8c0.3-0.1,0.6-0.2,0.8-0.4c0.1,0.4,0.4,0.7,0.7,0.8
			c-0.1,0.2-0.3,0.3-0.3,0.6c-0.2-0.1-0.4-0.2-0.7-0.2C29.1,19.1,29,19.1,28.9,19.1z"/>
		<path class="st10" d="M30.6,18.7c0-0.6-0.5-1.1-1.1-1.1c-0.6,0-1.1,0.5-1.1,1.1c0,0.6,0.5,1.1,1.1,1.1
			C30.1,19.8,30.6,19.3,30.6,18.7z"/>
	</g>
	<g>
		<path d="M47,42c0.3,2,2.1,3.6,4.2,3.6c2.1,0,3.8-1.4,4.2-3.4c0,0-0.5-0.8-4.1-0.8C47.7,41.3,47,42,47,42z"/>
		<path class="st5" d="M47.1,42.6l8.2,0.1c0.1-0.2,0.1-0.3,0.1-0.5c0,0-0.5-0.8-4.1-0.8C47.7,41.3,47,42,47,42
			C47,42.2,47,42.4,47.1,42.6L47.1,42.6z"/>
		<path class="st11" d="M53.5,44.9c-0.6-0.4-1.5-0.7-2.3-0.7c-0.9,0-1.7,0.3-2.3,0.7c0.6,0.4,1.5,0.6,2.3,0.6
			C52,45.6,52.9,45.4,53.5,44.9z"/>
	</g>
</g>
<path class="st12" d="M78.2,99.7V43.5H22v56.2H78.2z"/>
<path class="st13" d="M78.8,43.5H21.4l-7.2,15.9H86L78.8,43.5z"/>
<path class="st14" d="M53.7,92.3h5l-8.6-14.9l-8.6,14.9h5v7.4h7.2V92.3z"/>
</svg>
