<?xml version="1.0" encoding="utf-8"?>
<!-- Generator: Adobe Illustrator 22.1.0, SVG Export Plug-In . SVG Version: 6.00 Build 0)  -->
<svg version="1.1" id="Layer_1" xmlns="http://www.w3.org/2000/svg" xmlns:xlink="http://www.w3.org/1999/xlink" x="0px" y="0px"
	 viewBox="0 0 100 100" style="enable-background:new 0 0 100 100;" xml:space="preserve">
<style type="text/css">
	.st0{fill:#EF6326;}
	.st1{fill:#34A9D1;}
	.shirtcolor{fill:#34A9D1;}
	.skinclor{fill:#EF6326;}
	.st2{fill:#272A66;}
	.st3{fill:#EE6427;}
	.st4{fill:#B44C26;}
	.st5{fill:#FEE5A6;}
	.st6{fill:#773517;}
	.st7{fill:#FFFFFF;}
	.st8{fill:#2AAAE2;}
	.st9{fill:#070707;}
	.st10{fill:none;}
	.st11{fill:#EC2227;}
	.st12{fill:#F27BAA;}
	.st13{fill:#C2082C;}
	.st14{fill:#EC662B;}
	.st15{fill:#FFD756;}
	.st16{fill:#EE6224;}
	.st17{fill:#C6FFFC;}
</style>
<symbol  id="hand_2" viewBox="-57.1 -5.8 63.9 68">
	
		<rect x="-45.3" y="14.6" transform="matrix(-0.6546 -0.7559 0.7559 -0.6546 -41.3686 20.2336)" class="skinclor" width="58.4" height="9.9"/>
	<circle class="skinclor" cx="-41" cy="46.2" r="16.1"/>
</symbol>
<symbol  id="lefthand_2_1_" viewBox="-65.9 -50.4 70.3 54.7">
	<path class="shirtcolor" d="M2.7-3.5L-59-49.6c-1.9-1.4-4.6-1-6,0.9l0,0c-1.4,1.9-1,4.6,0.9,6L-2.5,3.4c1.9,1.4,4.6,1,6-0.9l0,0
		C5,0.6,4.6-2.1,2.7-3.5z"/>
</symbol>
<symbol  id="righthand_1_" viewBox="-3.6 -70.4 48.5 74.4">
	
		<use xlink:href="#lefthand_2_1_"  width="70.3" height="54.7" id="XMLID_17_" x="-65.9" y="-50.4" transform="matrix(9.629484e-02 0.9954 -0.9954 9.629484e-02 0.6244 -0.3814)" style="overflow:visible;"/>
</symbol>
<g>
	<path class="st2" d="M25.4,77.9L25.4,77.9l0.3-38l-2.2-0.3l-0.3,36C23.2,76.9,24.2,77.9,25.4,77.9z"/>
	<path class="st2" d="M25.6,40.8l-0.2,32.1c-0.1,15.7,10.2,28.4,23.1,28.5l23.1,0.2c0,0,0.2-12.6,0.3-28.2L72.3,40L25.6,40.8z"/>
	<path class="st3" d="M73.8,39.9L73.8,39.9L74,12.8l-23.8-0.2l0,0c-13.8-0.1-25.9,12.9-26,26.9C24.1,53.6,35,64.9,49,65
		C63,65.1,73.7,54,73.8,39.9C73.8,39.9,73.8,39.9,73.8,39.9z"/>
	<path class="st2" d="M71.8,79.8c1.3,0,2.3-1,2.3-2.3l0.3-35.7l-3.9,0L71.8,79.8z"/>
	<path class="st3" d="M66.4,52.9c0,1.9,1.5,3.5,3.4,3.5c1.9,0,3.5-1.5,3.5-3.4c0-1.9-1.5-3.5-3.4-3.5C68,49.5,66.4,51,66.4,52.9z"/>
	<path class="st4" d="M67.8,52.9c0,1.1,0.9,2,2,2c1.1,0,2-0.9,2-2c0-1.1-0.9-2-2-2C68.8,50.9,67.9,51.8,67.8,52.9z"/>
	<path class="st5" d="M69.6,56.1c0-0.5-0.4-1-1-1c-0.5,0-1,0.4-1,1c0,0.5,0.4,1,1,1C69.2,57,69.6,56.6,69.6,56.1z"/>
	<path class="st6" d="M65.5,53.6l1.9-0.1l-1.9-0.3L65.5,53.6z"/>
	<path class="st6" d="M65.2,51.6l1.7-0.7l-1.8,0.2L65.2,51.6z"/>
	<path class="st6" d="M65.3,52.6l1.8-0.5l-1.8,0.1L65.3,52.6z"/>
	<g>
		<g>
			<path class="st7" d="M52.8,53.1c-0.1,3.6,2.7,6.6,6.3,6.7c3.6,0.1,6.6-2.7,6.7-6.3c0.1-3.6-2.7-6.6-6.3-6.7
				C55.9,46.7,52.9,49.6,52.8,53.1z"/>
			<path class="st8" d="M54.9,53.2c-0.1,2.4,1.8,4.4,4.2,4.5c2.4,0.1,4.4-1.8,4.5-4.2c0.1-2.4-1.8-4.4-4.2-4.5
				C57,48.9,55,50.8,54.9,53.2z"/>
			<path class="st9" d="M56.8,53.2c0,1.3,0.8,2.4,2.3,2.5c1.3,0,2.4-1,2.5-2.3c0-1.3-1-2.4-2.3-2.5C58,50.9,56.9,51.9,56.8,53.2z"/>
		</g>
		<path class="st10" d="M52.6,59.7l13.3,0.1l0.1-12.9l-13.3-0.1L52.6,59.7z"/>
	</g>
	<g>
		<path class="st6" d="M32.4,51.4l-1.9-0.2l1.8,0.6L32.4,51.4z"/>
		<path class="st6" d="M33.2,49.6l-1.7-0.7l1.5,1.1L33.2,49.6z"/>
		<path class="st6" d="M32.7,50.5L30.9,50l1.6,0.9L32.7,50.5z"/>
		<g>
			<g>
				<path class="st7" d="M45,53.2c0-3.6-2.8-6.5-6.4-6.5c-3.6,0-6.5,2.8-6.5,6.4c0,3.6,2.8,6.5,6.4,6.5C42.1,59.7,45,56.8,45,53.2z"
					/>
				<path class="st8" d="M42.9,53.2c0-2.4-1.9-4.4-4.3-4.4c-2.4,0-4.4,1.9-4.4,4.3c0,2.4,2,4.4,4.4,4.4
					C40.9,57.6,42.9,55.6,42.9,53.2z"/>
				<path class="st9" d="M41,53.2c0-1.3-1.1-2.4-2.4-2.4c-1.3,0-2.4,1-2.4,2.4c0,1.3,1,2.4,2.4,2.4C40.1,55.6,40.9,54.5,41,53.2z"/>
			</g>
			<path class="st10" d="M32,59.6l13.1,0.1l0.1-12.9l-13.1-0.1L32,59.6z"/>
		</g>
	</g>
	<path class="st2" d="M73,11l-22.8-0.2l0,0c-14.3-0.1-26.8,13.4-26.9,27.9c0,2.9,0.4,5.8,1.3,8.4l19,1.3l2.8-4.1l1.1,2.3l1,2
		l0.5-0.7l0.7-1l0.5,1.1l0.5,0.9l0,0l0.5-0.8l0.7-1l0.5,1.1l0.4,0.9l21.5,1.4c0.1-2.7,0.1-8.3,0.2-11.2l0,0l0-0.1l0.2-26.4
		C74.6,11.8,73.9,11.1,73,11z"/>
	<path class="st3" d="M22.4,49.9c0,1.9,1.5,3.5,3.4,3.5c1.9,0,3.5-1.5,3.5-3.4c0-1.9-1.5-3.5-3.4-3.5S22.5,48,22.4,49.9z"/>
	<path class="st4" d="M23.9,49.9c0,1.1,0.9,2,2,2c1.1,0,2-0.9,2-2c0-1.1-0.9-2-2-2C24.8,47.9,23.9,48.7,23.9,49.9z"/>
	<path class="st5" d="M28.3,53.2c0-0.5-0.4-1-1-1c-0.5,0-1,0.4-1,1c0,0.5,0.4,1,1,1C27.8,54.2,28.3,53.8,28.3,53.2z"/>
	<g>
		<path class="st11" d="M27.4,31.4c0.3-0.3,0.4-0.7,0.4-1.1c0-0.9-0.7-1.7-1.7-1.7c-0.5,0-0.9,0.2-1.2,0.5c-0.2-0.6-0.8-1.1-1.6-1.1
			c-0.9,0-1.7,0.7-1.7,1.7c0,0.3,0.1,0.6,0.2,0.9c-0.8,0.1-1.4,0.8-1.4,1.6c0,0.9,0.7,1.7,1.7,1.7c0.1,0,0.2,0,0.4,0c0,0,0,0,0,0
			c0,0.9,0.7,1.7,1.7,1.7c0.7,0,1.4-0.5,1.6-1.1c0.2,0.1,0.5,0.2,0.8,0.2c0.9,0,1.7-0.7,1.7-1.7C28.3,32.3,28,31.7,27.4,31.4z
			 M23.9,32.2C23.9,32.2,23.9,32.2,23.9,32.2c0-0.3-0.1-0.6-0.2-0.9c0.4-0.1,0.7-0.2,0.9-0.5c0.1,0.4,0.4,0.8,0.8,0.9
			c-0.2,0.2-0.3,0.4-0.4,0.6c-0.2-0.1-0.5-0.2-0.8-0.2C24.2,32.2,24,32.2,23.9,32.2z"/>
		<path class="st12" d="M25.8,31.7c0-0.7-0.5-1.2-1.2-1.2c-0.7,0-1.2,0.5-1.2,1.2c0,0.7,0.5,1.2,1.2,1.2
			C25.3,32.9,25.8,32.4,25.8,31.7z"/>
	</g>
	<g>
		<path d="M44.1,57.7c0.4,2.3,2.4,4,4.7,4c2.3,0,4.2-1.6,4.7-3.8c0,0-0.6-0.9-4.6-0.9C44.9,56.9,44.1,57.7,44.1,57.7z"/>
		<path class="st7" d="M44.3,58.4l9.1,0.1c0.1-0.2,0.1-0.4,0.2-0.5c0,0-0.6-0.9-4.6-0.9c-4-0.1-4.8,0.7-4.8,0.7
			C44.1,58,44.2,58.2,44.3,58.4L44.3,58.4z"/>
		<path class="st13" d="M51.4,61c-0.7-0.5-1.6-0.8-2.6-0.8c-1,0-1.9,0.3-2.6,0.8c0.7,0.5,1.6,0.7,2.6,0.7
			C49.8,61.7,50.7,61.5,51.4,61z"/>
	</g>
</g>
<path class="st14" d="M51.2,81.9l0-19.1l-3.8,0l0,19.1L51.2,81.9z"/>
<path class="st15" d="M67.4,4.5c-0.5-1.2-1.2-3.4-1.2-3.4s-1.3,1.5-2,2.3c-2.8,2.7-7.6,2.4-10-0.7C53.7,2,52.9,0,52.9,0
	S52,2,51.6,2.7c-2.3,3.2-7.4,3.5-10.1,0.7c-0.6-0.6-1.9-2.3-1.9-2.3S39,3.4,38.4,4.5c-1.7,3.3-6.3,4.4-9.4,2.4
	c-1.3-0.8-3.2-2.4-3.2-2.4c1.9,4.7,3.7,9.8,5.3,14.6c14.7-3.5,28.6-3.4,43.3,0c1.8-4.7,3.6-9.8,5.4-14.6c0,0-2,1.5-3.2,2.4
	C73.6,8.8,69,7.8,67.4,4.5z"/>
<path class="st16" d="M59.2,79.1l0-11l-19.8,0l0,11L59.2,79.1z"/>
<path class="st17" d="M42.7,68.6c-3.2,2.1-5.4,5.8-5.4,10l0,21.7l23.8,0l0-21.7c0-4.1-2.2-7.7-5.4-9.9c-0.5,2.2-2.1,4.1-4.4,4.9
	c-3.5,1.2-7.3-0.8-8.4-4.3C42.8,69.1,42.8,68.8,42.7,68.6L42.7,68.6z"/>
<path class="st17" d="M55.9,68.3c-0.3,1.8-1.3,3.4-2.8,4.5c-0.1,0.6-0.2,1.1-0.2,1.7c0,4.4,3.5,7.9,7.9,7.9c4.4,0,7.9-3.5,7.9-7.9
	s-3.5-7.9-7.9-7.9C58.9,66.6,57.2,67.2,55.9,68.3L55.9,68.3z"/>
<path class="st17" d="M45.5,72.7c-1.2-0.8-2.1-2-2.6-3.4c-0.1-0.3-0.2-0.7-0.3-1.1c-1.3-1-3-1.7-4.9-1.7c-4.4,0-7.9,3.5-7.9,7.9
	c0,4.4,3.5,7.9,7.9,7.9c4.4,0,7.9-3.5,7.9-7.9C45.7,73.9,45.6,73.3,45.5,72.7L45.5,72.7z"/>
<g id="righthand">
	<g id="lefthand_2">
		<path class="st17" d="M32,74.1L31,100h4.8l0.9-25.7c0-1-0.7-1.8-1.7-1.8l-1.2,0C32.8,72.4,32,73.1,32,74.1z"/>
		<path class="st17" d="M66.9,74.1l1,25.9h-4.8l-0.9-25.7c0-1,0.7-1.8,1.7-1.8l1.2,0C66,72.4,66.8,73.1,66.9,74.1z"/>
	</g>
</g>
</svg>
