<?xml version="1.0" encoding="utf-8"?>
<!-- Generator: Adobe Illustrator 22.1.0, SVG Export Plug-In . SVG Version: 6.00 Build 0)  -->
<svg version="1.1" id="Layer_1" xmlns="http://www.w3.org/2000/svg" xmlns:xlink="http://www.w3.org/1999/xlink" x="0px" y="0px"
	 viewBox="0 0 1877.4 1321.2" style="enable-background:new 0 0 1877.4 1321.2;" xml:space="preserve">
<style type="text/css">
	.st0{fill:#C3EBFE;}
	.st1{fill:#FFF745;}
</style>
<path class="st0" d="M49.6,1320.7c-27.2,0-49.1-22.4-49.6-49.1V957c0-27.2,21.9-49.6,49.6-49.6l1778.3,0.5
	c27.2,0,49.6,21.9,49.6,49.6v314.1c0,27.2-21.9,49.6-49.6,49.6L49.6,1320.7z"/>
<path class="st1" d="M1736.7,1075.7l-71.2-1.6l-23.2-67c-4.4-12.8-22.5-12.8-26.9,0l-23.2,67l-71.2,1.6c-13.5,0.3-19,17.4-8.3,25.6
	l56.5,42.9l-20.5,67.7c-3.9,12.9,10.7,23.5,21.8,15.8l58.4-40.5l58.4,40.5c11.1,7.7,25.6-2.9,21.7-15.8l-20.5-67.7l56.5-42.9
	C1755.7,1093.1,1750.2,1076,1736.7,1075.7z"/>
<path class="st1" d="M1393.6,1076.1l-71.2-1.6l-23.2-67c-4.4-12.8-22.5-12.8-26.9,0l-23.2,67l-71.2,1.6c-13.5,0.3-19,17.5-8.3,25.6
	l56.5,42.9l-20.5,67.7c-3.9,12.9,10.7,23.5,21.7,15.8l58.4-40.5l58.5,40.5c11.1,7.7,25.6-2.9,21.7-15.8l-20.5-67.7l56.5-42.9
	C1412.6,1093.5,1407.1,1076.4,1393.6,1076.1z"/>
<path class="st1" d="M1039.3,1075.7l-71.2-1.6l-23.2-67c-4.4-12.8-22.5-12.8-26.9,0l-23.2,67l-71.2,1.6c-13.5,0.3-19,17.5-8.3,25.6
	l56.5,42.9l-20.5,67.7c-3.9,12.9,10.7,23.5,21.8,15.8l58.4-40.5l58.4,40.5c11.1,7.7,25.6-2.9,21.7-15.8l-20.5-67.7l56.5-42.9
	C1058.3,1093.1,1052.8,1076,1039.3,1075.7z"/>
<path class="st1" d="M690.6,1075.7l-71.2-1.6l-23.2-67c-4.4-12.8-22.5-12.8-26.9,0l-23.2,67l-71.2,1.6c-13.5,0.3-19,17.5-8.3,25.6
	l56.5,42.9l-20.5,67.7c-3.9,12.9,10.7,23.5,21.8,15.8l58.4-40.5l58.4,40.5c11.1,7.7,25.6-2.9,21.7-15.8l-20.5-67.7l56.5-42.9
	C709.6,1093.1,704.1,1076,690.6,1075.7z"/>
<path class="st1" d="M342,1075.7l-71.2-1.6l-23.2-67c-4.4-12.8-22.5-12.8-26.9,0l-23.2,67l-71.2,1.6c-13.5,0.3-19,17.5-8.3,25.6
	l56.5,42.9l-20.5,67.7c-4,12.9,10.6,23.5,21.8,15.8l58.4-40.5l58.4,40.5c11.1,7.7,25.6-2.9,21.7-15.8l-20.5-67.7l56.5-42.9
	C361,1093.1,355.5,1076,342,1075.7z"/>
</svg>
