<svg xmlns="http://www.w3.org/2000/svg" xmlns:xlink="http://www.w3.org/1999/xlink" xml:space="preserve" version="1.1" style="shape-rendering:geometricPrecision;text-rendering:geometricPrecision;image-rendering:optimizeQuality;" viewBox="0 0 333 333" x="0px" y="0px" fill-rule="evenodd" clip-rule="evenodd"><defs><style type="text/css">
   
    .fil0 {fill:black}
   
  </style></defs><g><path class="fil0" d="M52 32l-26 0c-13,0 -12,17 2,17l21 0 69 189c1,2 2,3 3,4 2,3 5,4 8,4l156 6c14,1 14,-9 0,-11l-149 -13c-4,-1 -11,-13 -2,-14l146 -11c7,-1 14,-5 16,-14l21 -104 -237 0 -16 -44c-2,-6 -6,-9 -12,-9zm97 230c-11,0 -20,8 -20,20 0,11 9,20 20,20 11,0 20,-9 20,-20 0,-12 -9,-20 -20,-20zm100 0c-11,0 -20,8 -20,20 0,11 9,20 20,20 11,0 20,-9 20,-20 0,-12 -9,-20 -20,-20z"></path></g></svg>