<svg xmlns="http://www.w3.org/2000/svg" xmlns:xlink="http://www.w3.org/1999/xlink" version="1.1" x="0px" y="0px" viewBox="0 0 100 100" style="enable-background:new 0 0 100 100;" xml:space="preserve"><g><path d="M77.5,47.2c0-2.6-2.1-4.7-4.7-4.7c-2.6,0-4.7,2.1-4.7,4.6h0v8.2H32v-8.2h0c-0.1-2.6-2.2-4.6-4.7-4.6   c-2.6,0-4.7,2.1-4.7,4.7c0,2.2,1.5,4.1,3.6,4.6v12H32v-2.5H68v2.5h5.9v-12C75.9,51.3,77.5,49.4,77.5,47.2z"></path><path d="M32.9,46.7L32.9,46.7l0,7.8h16.7V38.1c-0.6-1.1-1.8-1.9-3.1-1.9H33.6c-1.9,0-3.5,1.6-3.5,3.5v2.8   C31.7,43.3,32.8,44.8,32.9,46.7z"></path><path d="M67.1,46.7L67.1,46.7c0.1-1.9,1.2-3.4,2.8-4.1v-2.8c0-1.9-1.6-3.5-3.5-3.5H53.5c-1.4,0-2.5,0.8-3.1,1.9v16.4h16.7V46.7z"></path></g></svg>