<?xml version="1.0" encoding="utf-8"?>
<!-- Generator: Adobe Illustrator 22.1.0, SVG Export Plug-In . SVG Version: 6.00 Build 0)  -->
<svg version="1.1" id="Layer_1" xmlns="http://www.w3.org/2000/svg" xmlns:xlink="http://www.w3.org/1999/xlink" x="0px" y="0px"
	 viewBox="0 0 100 100" style="enable-background:new 0 0 100 100;" xml:space="preserve">
<path d="M54.4,5.9l11.7,23.7c0.6,1.2,1.8,2.1,3.2,2.3l26.2,3.8c3.4,0.5,4.8,4.7,2.3,7.2L78.8,61.4c-1,1-1.4,2.4-1.2,3.7L82,91.2
	c0.6,3.4-3,6.1-6.1,4.4L52.5,83.3c-1.2-0.6-2.7-0.6-3.9,0L25.2,95.6c-3.1,1.6-6.7-1-6.1-4.4l4.5-26.1c0.2-1.4-0.2-2.8-1.2-3.7
	L3.4,42.9c-2.5-2.4-1.1-6.7,2.3-7.2l26.2-3.8c1.4-0.2,2.6-1.1,3.2-2.3L46.8,5.9C48.4,2.8,52.8,2.8,54.4,5.9z"/>
</svg>
