<?xml version="1.0" standalone="no"?>
<!DOCTYPE svg PUBLIC "-//W3C//DTD SVG 20010904//EN"
 "http://www.w3.org/TR/2001/REC-SVG-20010904/DTD/svg10.dtd">
<svg version="1.0" xmlns="http://www.w3.org/2000/svg"
 width="612.000000pt" height="612.000000pt" viewBox="0 0 612.000000 612.000000"
 preserveAspectRatio="xMidYMid meet">
<metadata>
Created by potrace 1.11, written by Peter Selinger 2001-2013
</metadata>
<g transform="translate(0.000000,612.000000) scale(0.100000,-0.100000)"
fill="#000000" stroke="none">
<path d="M3199 5286 c-2 -2 -92 -6 -199 -9 -107 -3 -213 -8 -235 -11 -22 -3
-60 -8 -85 -10 -25 -3 -56 -8 -70 -10 -14 -3 -36 -7 -50 -10 -14 -2 -47 -10
-75 -16 -27 -7 -54 -13 -60 -14 -5 -1 -16 -5 -22 -9 -7 -5 -13 -6 -13 -3 0 9
-254 -82 -332 -118 -41 -20 -80 -36 -86 -36 -5 0 -12 -4 -14 -8 -1 -4 -23 -18
-48 -30 -176 -86 -355 -219 -540 -402 -246 -243 -404 -480 -530 -795 -18 -44
-33 -84 -34 -90 -2 -5 -8 -30 -15 -55 -7 -25 -13 -47 -13 -50 0 -3 -4 -12 -9
-21 -4 -9 -10 -27 -13 -40 -2 -13 -11 -55 -19 -94 -8 -38 -18 -95 -22 -125 -4
-30 -9 -64 -12 -75 -9 -39 -11 -421 -2 -490 18 -143 20 -162 35 -235 20 -96
81 -306 99 -344 8 -16 15 -33 15 -38 0 -17 130 -278 166 -335 19 -29 34 -56
34 -59 0 -2 4 -10 10 -17 5 -7 38 -51 72 -98 104 -143 210 -258 343 -374 82
-71 192 -155 204 -155 5 0 11 -4 13 -8 9 -23 287 -175 403 -221 11 -5 31 -13
45 -19 29 -13 199 -72 203 -71 1 1 22 -4 47 -11 60 -16 177 -41 220 -46 19 -3
46 -7 60 -10 57 -11 184 -17 330 -16 130 0 235 6 235 12 0 1 20 3 45 5 25 2
70 9 100 15 30 5 69 13 85 16 17 3 48 10 70 16 59 17 58 16 80 22 220 51 586
242 805 419 70 56 270 251 315 307 71 89 97 123 142 190 27 41 59 91 69 110
10 19 21 37 24 40 4 4 33 56 61 110 10 18 51 109 74 165 36 85 98 289 120 395
2 14 19 115 30 190 9 62 16 267 21 635 2 198 4 365 4 370 1 6 0 35 0 65 -1 52
-1 135 -1 163 0 6 2 42 3 80 2 37 -1 67 -5 67 -5 0 -5 5 -1 12 4 6 8 153 10
327 5 681 6 807 5 821 -1 14 -105 16 -893 18 -491 2 -900 3 -908 3 -94 -3
-273 0 -279 3 -5 3 -10 4 -12 2z m-13 -838 c5 -3 34 -9 64 -13 30 -4 63 -11
73 -16 9 -5 17 -8 17 -5 0 3 15 0 33 -5 17 -6 39 -12 47 -14 72 -16 290 -118
347 -161 17 -13 36 -24 40 -24 5 0 18 -8 29 -17 10 -10 51 -44 89 -75 70 -57
168 -156 215 -217 14 -18 31 -39 38 -46 6 -8 12 -18 12 -24 0 -6 4 -11 10 -11
5 0 12 -11 16 -25 3 -14 10 -25 15 -25 20 0 145 -281 174 -390 38 -142 53
-267 49 -419 -4 -145 -7 -181 -18 -221 -4 -14 -9 -38 -11 -55 -2 -16 -4 -30
-5 -30 -1 0 -4 -11 -6 -25 -7 -37 -53 -167 -80 -228 -13 -29 -24 -54 -24 -56
0 -6 -83 -150 -90 -156 -3 -3 -17 -23 -32 -45 -42 -64 -58 -83 -148 -174 -100
-101 -156 -151 -169 -151 -5 0 -11 -4 -13 -8 -4 -12 -143 -102 -155 -102 -6 0
-16 -7 -23 -15 -6 -8 -15 -14 -18 -13 -4 1 -37 -13 -73 -30 -97 -45 -250 -95
-334 -108 -16 -2 -41 -6 -55 -9 -62 -13 -349 -12 -435 1 -93 15 -241 50 -259
62 -6 4 -13 7 -16 7 -52 6 -222 92 -345 174 -121 80 -299 254 -370 361 -28 41
-53 77 -56 80 -9 8 -92 170 -107 210 -22 58 -60 173 -66 200 -17 77 -27 130
-33 175 -9 68 -9 296 1 370 16 125 60 291 102 382 7 17 14 33 14 36 0 11 107
197 137 237 18 25 43 59 55 75 40 54 212 220 278 268 36 26 70 50 75 55 38 27
248 132 266 132 5 0 17 4 27 9 18 10 140 48 182 56 14 3 36 7 50 10 14 3 48 8
75 11 28 3 52 7 54 9 6 6 347 -1 357 -7z"/>
<path d="M2988 4115 c-2 -1 -41 -5 -88 -8 -47 -4 -96 -9 -110 -11 -14 -3 -37
-8 -52 -12 -15 -3 -30 -5 -33 -5 -2 0 -24 -7 -47 -15 -24 -9 -50 -17 -58 -19
-31 -6 -198 -90 -235 -118 -124 -92 -205 -168 -261 -244 -16 -21 -31 -40 -35
-43 -13 -12 -81 -132 -109 -195 -34 -76 -75 -214 -86 -290 -11 -74 -11 -263
-2 -320 5 -27 11 -63 14 -80 14 -76 56 -192 101 -280 41 -78 47 -88 65 -109
10 -11 18 -23 18 -27 0 -31 257 -279 289 -279 6 0 11 -4 11 -8 0 -5 39 -29 88
-54 371 -195 800 -175 1144 54 142 95 285 246 355 375 6 12 18 35 27 50 37 69
81 184 95 253 6 30 14 66 17 80 13 59 13 278 -1 362 -51 306 -234 587 -492
755 -79 53 -216 119 -263 128 -8 2 -15 4 -15 5 0 2 -14 5 -53 14 -13 3 -33 8
-44 12 -26 8 -57 12 -138 19 -36 3 -73 8 -82 9 -9 2 -18 3 -20 1z m126 -828
c28 -11 69 -38 92 -59 174 -162 127 -432 -94 -539 -71 -34 -187 -33 -264 3
-132 62 -212 213 -184 348 24 119 71 184 168 235 91 48 190 52 282 12z"/>
</g>
</svg>
